<?xml version="1.0" encoding="UTF-8" standalone="no"?>
<svg
   xmlns:dc="http://purl.org/dc/elements/1.1/"
   xmlns:cc="http://creativecommons.org/ns#"
   xmlns:rdf="http://www.w3.org/1999/02/22-rdf-syntax-ns#"
   xmlns:svg="http://www.w3.org/2000/svg"
   xmlns="http://www.w3.org/2000/svg"
   xmlns:sodipodi="http://sodipodi.sourceforge.net/DTD/sodipodi-0.dtd"
   xmlns:inkscape="http://www.inkscape.org/namespaces/inkscape"
   width="46px"
   height="46px"
   viewBox="0 0 46 46"
   version="1.1"
   id="svg15"
   sodipodi:docname="facebook.svg"
   inkscape:version="0.92.2 2405546, 2018-03-11">
  <metadata
     id="metadata19">
    <rdf:RDF>
      <cc:Work
         rdf:about="">
        <dc:format>image/svg+xml</dc:format>
        <dc:type
           rdf:resource="http://purl.org/dc/dcmitype/StillImage" />
        <dc:title>Group 15</dc:title>
      </cc:Work>
    </rdf:RDF>
  </metadata>
  <sodipodi:namedview
     pagecolor="#ffffff"
     bordercolor="#666666"
     borderopacity="1"
     objecttolerance="10"
     gridtolerance="10"
     guidetolerance="10"
     inkscape:pageopacity="0"
     inkscape:pageshadow="2"
     inkscape:window-width="2102"
     inkscape:window-height="1252"
     id="namedview17"
     showgrid="false"
     inkscape:zoom="10.26087"
     inkscape:cx="16.72134"
     inkscape:cy="13.226057"
     inkscape:window-x="2270"
     inkscape:window-y="67"
     inkscape:window-maximized="0"
     inkscape:current-layer="svg15" />
  <!-- Generator: Sketch 48.2 (47327) - http://www.bohemiancoding.com/sketch -->
  <title
     id="title2">Group 15</title>
  <desc
     id="desc4">Created with Sketch.</desc>
  <defs
     id="defs6">
    <clipPath
       id="_clipPath_JGq453Djo5diIdMW0PyyBsGJonHhU7uu">
      <rect
         id="rect886"
         height="484.166"
         width="856.166"
         y="480.834"
         x="1202.834" />
    </clipPath>
  </defs>
  <path
     style="isolation:isolate;fill:#04e8b0;fill-opacity:1;stroke:none;stroke-width:0.22657233;stroke-miterlimit:10"
     d="m 14.854814,12.441406 c -1.530043,0 -2.772138,1.242095 -2.772138,2.772138 v 16.206938 c 0,1.530043 1.242095,2.772138 2.772138,2.772138 h 7.877383 V 25.809421 H 19.78598 V 22.41103 h 2.946217 v -3.399481 c 0,-1.75231 2.155924,-3.345369 3.62502,-3.398388 0.979397,-0.03535 2.036478,0.04025 3.171758,0.226632 V 18.78601 H 27.49038 c -0.695579,0 -1.359796,0.321452 -1.359796,1.3587 v 2.26632 h 3.171756 l -0.453264,3.398391 h -2.718492 v 8.383199 h 4.931169 c 1.530042,0 2.772137,-1.242095 2.772137,-2.772138 V 15.213544 c 0,-1.530043 -1.242095,-2.772138 -2.772137,-2.772138 z"
     id="path1001"
     inkscape:connector-curvature="0" />
</svg>
