<?xml version="1.0" encoding="UTF-8" standalone="no"?>
<svg
   xmlns:dc="http://purl.org/dc/elements/1.1/"
   xmlns:cc="http://creativecommons.org/ns#"
   xmlns:rdf="http://www.w3.org/1999/02/22-rdf-syntax-ns#"
   xmlns:svg="http://www.w3.org/2000/svg"
   xmlns="http://www.w3.org/2000/svg"
   id="svg15"
   version="1.1"
   viewBox="0 0 46 46"
   height="46px"
   width="46px">
  <metadata
     id="metadata19">
    <rdf:RDF>
      <cc:Work
         rdf:about="">
        <dc:format>image/svg+xml</dc:format>
        <dc:type
           rdf:resource="http://purl.org/dc/dcmitype/StillImage" />
        <dc:title>Group 15</dc:title>
      </cc:Work>
    </rdf:RDF>
  </metadata>
  <!-- Generator: Sketch 48.2 (47327) - http://www.bohemiancoding.com/sketch -->
  <title
     id="title2">Group 15</title>
  <desc
     id="desc4">Created with Sketch.</desc>
  <defs
     id="defs6">
    <clipPath
       id="_clipPath_JGq453Djo5diIdMW0PyyBsGJonHhU7uu">
      <rect
         x="1202.834"
         y="480.834"
         width="856.166"
         height="484.166"
         id="rect886" />
    </clipPath>
  </defs>
  <g
     transform="matrix(0.47616525,0,0,0.47616525,-519.57335,-66.488618)"
     id="g1079"
     style="isolation:isolate">
    <path
       id="path1059"
       d="m 1129.5828,165.70197 c -3.4515,0 -6.7678,1.37253 -9.2059,3.81069 -2.4382,2.43816 -3.8134,5.75712 -3.8134,9.20854 v 19.55482 c 0,3.45143 1.3752,6.77037 3.8134,9.20853 2.4381,2.43816 5.7544,3.8133 9.2059,3.8133 h 19.5573 c 3.4515,0 6.7705,-1.37514 9.2086,-3.8133 2.4382,-2.43816 3.8106,-5.7571 3.8106,-9.20853 V 178.7212 c 0,-3.45142 -1.3724,-6.77038 -3.8106,-9.20854 -2.4381,-2.43816 -5.7571,-3.81069 -9.2086,-3.81069 z m 0,4.43153 h 19.5573 c 2.2798,0 4.4646,0.90593 6.0733,2.51449 1.6085,1.60854 2.5145,3.79337 2.5145,6.07321 v 19.55482 c 0,2.27984 -0.906,4.46466 -2.5145,6.07322 -1.6087,1.60855 -3.7935,2.51448 -6.0733,2.51448 h -19.5573 c -2.2799,0 -4.4647,-0.90593 -6.0733,-2.51448 -1.6086,-1.60856 -2.5118,-3.79338 -2.5118,-6.07322 V 178.7212 c 0,-2.27984 0.9032,-4.46467 2.5118,-6.07321 1.6086,-1.60856 3.7934,-2.51449 6.0733,-2.51449 z m 22.129,4.11722 a 2.5331554,2.5331554 0 0 0 -2.5353,2.53266 2.5331554,2.5331554 0 0 0 2.5353,2.53267 2.5331554,2.5331554 0 0 0 2.5326,-2.53267 2.5331554,2.5331554 0 0 0 -2.5326,-2.53266 z m -12.0322,2.21575 c -3.274,0 -6.4153,1.30438 -8.7331,3.61588 -2.3115,2.31784 -3.6159,5.45907 -3.6159,8.73317 0,3.2741 1.3044,6.41533 3.6159,8.73316 2.3178,2.31151 5.4591,3.61588 8.7331,3.61588 3.2742,0 6.4128,-1.30437 8.7306,-3.61588 2.3115,-2.31783 3.6185,-5.45906 3.6185,-8.73316 0,-3.2741 -1.307,-6.41533 -3.6185,-8.73317 -2.3178,-2.3115 -5.4564,-3.61588 -8.7306,-3.61588 z m 0,4.43413 c 2.0962,0 4.1159,0.83517 5.5979,2.31706 1.4819,1.4819 2.3171,3.50168 2.3171,5.59786 0,2.09619 -0.8352,4.11595 -2.3171,5.59785 -1.482,1.48189 -3.5017,2.31967 -5.5979,2.31967 -2.0961,0 -4.1186,-0.83778 -5.6004,-2.31967 -1.4819,-1.4819 -2.3171,-3.50166 -2.3171,-5.59785 0,-2.09618 0.8352,-4.11596 2.3171,-5.59786 1.4818,-1.48189 3.5043,-2.31706 5.6004,-2.31706 z"
       style="fill:#04e8b0;fill-opacity:1;fill-rule:evenodd;stroke-width:0.63328886" />
  </g>
</svg>
