<?xml version="1.0" encoding="UTF-8" standalone="no"?>
<svg
   xmlns:dc="http://purl.org/dc/elements/1.1/"
   xmlns:cc="http://creativecommons.org/ns#"
   xmlns:rdf="http://www.w3.org/1999/02/22-rdf-syntax-ns#"
   xmlns:svg="http://www.w3.org/2000/svg"
   xmlns="http://www.w3.org/2000/svg"
   xmlns:sodipodi="http://sodipodi.sourceforge.net/DTD/sodipodi-0.dtd"
   xmlns:inkscape="http://www.inkscape.org/namespaces/inkscape"
   width="46px"
   height="46px"
   viewBox="0 0 46 46"
   version="1.1"
   id="svg15"
   sodipodi:docname="mastodon.svg"
   inkscape:version="0.92.2 2405546, 2018-03-11">
  <metadata
     id="metadata19">
    <rdf:RDF>
      <cc:Work
         rdf:about="">
        <dc:format>image/svg+xml</dc:format>
        <dc:type
           rdf:resource="http://purl.org/dc/dcmitype/StillImage" />
        <dc:title>Group 15</dc:title>
      </cc:Work>
    </rdf:RDF>
  </metadata>
  <sodipodi:namedview
     pagecolor="#ffffff"
     bordercolor="#666666"
     borderopacity="1"
     objecttolerance="10"
     gridtolerance="10"
     guidetolerance="10"
     inkscape:pageopacity="0"
     inkscape:pageshadow="2"
     inkscape:window-width="2560"
     inkscape:window-height="1362"
     id="namedview17"
     showgrid="false"
     inkscape:zoom="20.521739"
     inkscape:cx="12.603547"
     inkscape:cy="21.900854"
     inkscape:window-x="1920"
     inkscape:window-y="0"
     inkscape:window-maximized="1"
     inkscape:current-layer="svg15" />
  <!-- Generator: Sketch 48.2 (47327) - http://www.bohemiancoding.com/sketch -->
  <title
     id="title2">Group 15</title>
  <desc
     id="desc4">Created with Sketch.</desc>
  <defs
     id="defs6">
    <clipPath
       id="_clipPath_JGq453Djo5diIdMW0PyyBsGJonHhU7uu">
      <rect
         id="rect886"
         height="484.166"
         width="856.166"
         y="480.834"
         x="1202.834" />
    </clipPath>
  </defs>
  <path
     style="isolation:isolate;fill:#04e8b0;fill-opacity:1;stroke-width:0.06107756"
     d="m 22.944777,12.569708 c -2.754598,0.02456 -5.405965,0.321305 -6.948724,1.030599 0,0 -3.06056,1.369758 -3.06056,6.043046 0,1.069346 -0.02205,2.350415 0.01137,3.706459 0.111158,4.571168 0.836985,9.075496 5.063554,10.193826 1.947518,0.515555 3.622613,0.621425 4.969861,0.547947 2.44121,-0.135412 3.811507,-0.870186 3.811507,-0.870186 l -0.0795,-1.774445 c 0,0 -1.745565,0.550887 -3.706459,0.484068 -1.942938,-0.06676 -3.99258,-0.208143 -4.30835,-2.593526 -0.02883,-0.209189 -0.04258,-0.434454 -0.04258,-0.670031 0,0 1.906591,0.467622 4.325384,0.57634 1.476244,0.06896 2.862674,-0.08497 4.270022,-0.2541 2.698712,-0.32243 5.048888,-1.985655 5.344625,-3.506302 0.464556,-2.392042 0.427286,-5.84005 0.427286,-5.84005 0,-4.673288 -3.061981,-6.043046 -3.061981,-6.043046 -1.545202,-0.709294 -4.19443,-1.006045 -6.948722,-1.030599 z m -3.152833,3.446682 c 1.462644,0 2.524302,0.754724 3.184062,2.262771 0.666724,-1.508047 1.699074,-2.262771 3.098889,-2.262771 2.099725,0 3.351569,1.539871 3.351569,3.267816 v 6.199197 h -2.262771 v -5.780429 c 0,-1.136225 -0.973504,-1.423813 -1.507566,-1.423813 -0.534125,0 -1.507568,0.455125 -1.507568,1.423813 v 3.602832 h -2.346525 v -3.602832 c 0,-1.073376 -1.109602,-1.423813 -1.591321,-1.423813 -0.48178,0 -1.423813,0.31379 -1.423813,1.423813 v 5.780429 h -2.262772 v -6.199197 c 0,-1.288126 1.07385,-3.267816 3.267816,-3.267816 z"
     id="path891"
     inkscape:connector-curvature="0" />
</svg>
