<svg xmlns="http://www.w3.org/2000/svg" viewBox="0 0 16.453 13.885"><path d="M16.453 6.757c0-1.045-.85-1.896-1.895-1.896-.465 0-.903.168-1.25.473-1.232-.789-2.867-1.295-4.676-1.364L9.71.907l2.692.644a1.549 1.549 0 0 0 3.096-.004 1.548 1.548 0 0 0-2.981-.581L9.327.203 8.003 3.965c-1.883.036-3.592.546-4.87 1.359a1.88 1.88 0 0 0-1.238-.462C.85 4.862 0 5.712 0 6.757 0 7.403.333 8 .872 8.347c-.033.19-.052.382-.052.576 0 2.735 3.316 4.961 7.392 4.961 4.076 0 7.393-2.226 7.393-4.961 0-.189-.018-.376-.048-.56.553-.344.896-.949.896-1.606zM4.699 8.047a1.164 1.164 0 1 1 2.328 0 1.164 1.164 0 0 1-2.328 0zm6.259 3.15c-.035.036-.87.886-2.759.886-1.898 0-2.658-.862-2.689-.898a.298.298 0 0 1 .451-.389c.017.019.651.692 2.238.692 1.615 0 2.323-.698 2.331-.705a.299.299 0 0 1 .42-.005.299.299 0 0 1 .008.419zm-.232-1.986a1.164 1.164 0 1 1-.002-2.328 1.164 1.164 0 0 1 .002 2.328z"/></svg>