<?xml version="1.0" encoding="UTF-8"?>
<svg width="46px" height="46px" viewBox="0 0 46 46" version="1.1" xmlns="http://www.w3.org/2000/svg" xmlns:xlink="http://www.w3.org/1999/xlink">
    <!-- Generator: Sketch 48.2 (47327) - http://www.bohemiancoding.com/sketch -->
    <title>Group 17</title>
    <desc>Created with Sketch.</desc>
    <defs></defs>
    <g id="Footer" stroke="none" stroke-width="1" fill="none" fill-rule="evenodd" transform="translate(-1008.000000, -369.000000)">
        <g id="Group-5" transform="translate(-10.000000, 0.000000)">
            <g id="Group-17" transform="translate(1018.000000, 369.000000)">
                <circle id="Oval-Copy-9" fill="transparent" cx="23" cy="23" r="23"></circle>
                <g id="riot" transform="translate(16.000000, 13.000000)">
                    <path d="M12.5696435,11.817477 L14.5077754,14.5408613 C15.3676858,15.7534664 15.071165,17.4207983 13.8376384,18.2661239 C12.6041118,19.1114496 10.9080127,18.819958 10.0481023,17.6073529 L7.04880141,13.3928571 L5.45562599,13.3928571 L5.45562599,16.0714286 C5.45562599,17.5536881 4.23732171,18.75 2.727813,18.75 C1.21830428,18.75 0,17.5478525 0,16.0714286 L0,2.67857143 C0,1.19631186 1.22424723,0 2.727813,0 C2.73969889,0 2.75158479,0 2.76347068,0 L8.18343899,0 C11.9393819,0 15,3.01120448 15,6.69934641 C15,8.74924499 14.0545063,10.5882196 12.5696435,11.817477 Z" id="Combined-Shape" fill="#04E8B0" fill-rule="nonzero"></path>
                    <g id="Group" transform="translate(5.357143, 7.500000)"></g>
                </g>
            </g>
        </g>
    </g>
</svg>