<?xml version="1.0" encoding="UTF-8"?>
<svg width="46px" height="46px" viewBox="0 0 46 46" version="1.1" xmlns="http://www.w3.org/2000/svg" xmlns:xlink="http://www.w3.org/1999/xlink">
    <!-- Generator: Sketch 48.2 (47327) - http://www.bohemiancoding.com/sketch -->
    <title>Group 15</title>
    <desc>Created with Sketch.</desc>
    <defs></defs>
    <g id="Footer" stroke="none" stroke-width="1" fill="none" fill-rule="evenodd" transform="translate(-813.000000, -369.000000)">
        <g id="Group-5" transform="translate(-10.000000, 0.000000)">
            <g id="Group-15" transform="translate(823.000000, 369.000000)">
                <circle id="Oval-Copy-6" fill="transparent" cx="23" cy="23" r="23"></circle>
                <g id="youtube" transform="translate(11.000000, 15.000000)" fill="#04E8B0" fill-rule="nonzero">
                    <g id="Lozenge">
                        <path d="M23.7419355,3.64271699 C23.7419355,3.64271699 23.5073314,1.9914145 22.7894428,1.26427846 C21.8791789,0.309619216 20.856305,0.304928016 20.3894428,0.248633613 C17.0346041,0.00703680036 12.0046921,0.00703680036 12.0046921,0.00703680036 L11.9953079,0.00703680036 C11.9953079,0.00703680036 6.96539589,0.00703680036 3.61055718,0.248633613 C3.14369501,0.304928016 2.12082111,0.309619216 1.21055718,1.26427846 C0.492668622,1.9914145 0.258064516,3.64271699 0.258064516,3.64271699 C0.258064516,3.64271699 0.0187683284,5.58018269 0.0187683284,7.51999399 L0.0187683284,9.33783408 C0.0187683284,11.2776454 0.258064516,13.2151111 0.258064516,13.2151111 C0.258064516,13.2151111 0.492668622,14.8664136 1.21055718,15.5935496 C2.12316716,16.5482088 3.31964809,16.517716 3.85219941,16.6185769 C5.76891496,16.8015337 12,16.8601737 12,16.8601737 C12,16.8601737 17.0346041,16.8531369 20.3894428,16.6091945 C20.858651,16.5529 21.8791789,16.5482088 22.7894428,15.5935496 C23.5073314,14.8664136 23.7419355,13.2151111 23.7419355,13.2151111 C23.7419355,13.2151111 23.9812317,11.2752998 23.9812317,9.33783408 L23.9812317,7.51999399 C23.9812317,5.58018269 23.7419355,3.64271699 23.7419355,3.64271699 Z M9.52492669,11.5403526 L9.52492669,4.80848025 L16,8.18614442 L9.52492669,11.5403526 Z" id="Shape"></path>
                    </g>
                </g>
            </g>
        </g>
    </g>
</svg>