<svg xmlns="http://www.w3.org/2000/svg" viewBox="0 0 15.085 12.296"><path d="M0 10.88s1.947 1.416 4.732 1.416 4.914-1.233 6.207-2.525c1.292-1.292 2.088-2.986 2.371-4.189.283-1.204.248-2.513.248-2.513s.325-.201.791-.69c.466-.49.737-.914.737-.914s-.389.183-.902.313-.85.153-.85.153.402-.236.773-.643c.372-.407.578-1.05.578-1.05s-.538.311-1.015.482c-.478.171-.956.248-.956.248S11.893 0 10.372 0C8.85 0 7.988 1.103 7.676 1.758c-.313.655-.236 2.048-.236 2.048s-1.723-.024-3.405-.868C2.354 2.095 1.08.561 1.08.561s-.431.607-.431 1.563.283 1.387.502 1.711c.217.325.885.885.885.885s-.343-.012-.739-.112c-.395-.1-.69-.313-.69-.313s-.005 1.222.756 2.077 1.74 1.038 1.74 1.038-.318.077-.713.089c-.396.012-.709-.065-.709-.065s.242.897 1.121 1.552 1.8.607 1.8.607-.808.738-2.095 1.074C1.221 11.004 0 10.88 0 10.88z"/></svg>