<svg xmlns="http://www.w3.org/2000/svg" style="isolation:isolate" viewBox="513.667 477.5 16.377 21.677" width="16.377" height="21.677"><path d="M530.001 486.215c.341-2.278-1.393-3.503-3.765-4.319l.769-3.086-1.878-.468-.749 3.004c-.493-.123-1.001-.239-1.504-.354l.754-3.024-1.877-.468-.77 3.084c-.409-.093-.81-.185-1.199-.281l.002-.01-2.59-.647-.5 2.006s1.393.32 1.364.339c.761.19.898.694.875 1.093l-.876 3.515c.052.013.12.032.195.062l-.198-.049-1.228 4.924c-.094.231-.329.578-.861.446.019.028-1.365-.34-1.365-.34l-.933 2.15 2.444.609c.455.114.901.233 1.339.345l-.777 3.121 1.876.468.77-3.087c.512.139 1.01.267 1.497.388l-.767 3.073 1.878.468.777-3.115c3.203.607 5.611.362 6.625-2.535.817-2.332-.041-3.677-1.726-4.555 1.227-.283 2.151-1.09 2.398-2.757zm-4.291 6.017c-.581 2.333-4.508 1.072-5.781.756l1.032-4.135c1.273.318 5.355.947 4.749 3.379zm.581-6.051c-.53 2.122-3.798 1.044-4.859.779l.936-3.75c1.06.265 4.474.758 3.923 2.971z" fill="#888"/></svg>