<svg xmlns="http://www.w3.org/2000/svg" style="isolation:isolate" viewBox="608.786 481.338 22 20.98" width="22" height="20.98"><path d="M627.899 481.338a2.889 2.889 0 0 1 2.887 2.887v10.865a2.89 2.89 0 0 1-2.887 2.887h-3.736v3.385a.955.955 0 0 1-1.585.721l-4.713-4.106h-6.192a2.89 2.89 0 0 1-2.887-2.887v-10.865a2.89 2.89 0 0 1 2.887-2.887h16.226zm-6.235 16.632l-2.86-2.49h-7.13c-.1 0-.2-.04-.27-.12a.357.357 0 0 1-.12-.27v-10.86c0-.11.04-.2.12-.28.07-.07.17-.11.27-.11h16.22c.11 0 .21.04.28.11.07.08.11.17.11.28v10.86c0 .1-.04.2-.11.27-.08.08-.17.12-.28.12h-6.23v2.49z" fill-rule="evenodd" fill="#888"/></svg>