<svg xmlns="http://www.w3.org/2000/svg" viewBox="0 0 16 16" width="16" height="16"><title>clear all</title><g class="nc-icon-wrapper" fill="#111"><path class="st0" d="M6 9H1c-.6 0-1 .4-1 1s.4 1 1 1h5c.6 0 1-.4 1-1s-.4-1-1-1zm0 4H1c-.6 0-1 .4-1 1s.4 1 1 1h5c.6 0 1-.4 1-1s-.4-1-1-1zM1 3h14c.6 0 1-.4 1-1s-.4-1-1-1H1c-.6 0-1 .4-1 1s.4 1 1 1zm14 2H1c-.6 0-1 .4-1 1s.4 1 1 1h14c.6 0 1-.4 1-1s-.4-1-1-1zm.7 4.3c-.4-.4-1-.4-1.4 0L13 10.6l-1.3-1.3c-.4-.4-1-.4-1.4 0s-.4 1 0 1.4l1.3 1.3-1.3 1.3c-.4.4-.4 1 0 1.4s1 .4 1.4 0l1.3-1.3 1.3 1.3c.4.4 1 .4 1.4 0 .4-.4.4-1 0-1.4L14.4 12l1.3-1.3c.4-.4.4-1 0-1.4z"/></g></svg>