<svg xmlns="http://www.w3.org/2000/svg" style="isolation:isolate" viewBox="608.786 435.086 22.214 21.666" width="22.214" height="21.666"><path d="M619.892 435.086c-6.133 0-11.106 4.972-11.106 11.107 0 4.907 3.182 9.07 7.596 10.539.556.102.758-.241.758-.536 0-.263-.01-.962-.015-1.888-3.089.67-3.741-1.49-3.741-1.49-.506-1.282-1.234-1.624-1.234-1.624-1.008-.689.077-.675.077-.675 1.114.079 1.701 1.144 1.701 1.144.991 1.697 2.6 1.207 3.232.924.101-.718.388-1.208.706-1.486-2.467-.28-5.06-1.233-5.06-5.489 0-1.212.433-2.204 1.144-2.98-.115-.281-.496-1.411.108-2.94 0 0 .933-.299 3.055 1.139.885-.246 1.836-.37 2.78-.374.943.004 1.894.128 2.781.374 2.12-1.438 3.051-1.139 3.051-1.139.606 1.529.225 2.659.111 2.94.712.776 1.142 1.768 1.142 2.98 0 4.267-2.597 5.206-5.072 5.481.399.343.754 1.02.754 2.057 0 1.484-.013 2.682-.013 3.046 0 .298.199.643.763.535 4.411-1.472 7.59-5.632 7.59-10.538 0-6.135-4.973-11.107-11.108-11.107z" fill-rule="evenodd" fill="#888"/></svg>