<svg xmlns="http://www.w3.org/2000/svg" style="isolation:isolate" viewBox="561 435 21.336 21.337" width="21.336" height="21.337"><path d="M571.668 435A10.668 10.668 0 0 0 561 445.669c0 5.892 4.776 10.668 10.668 10.668 5.891 0 10.668-4.776 10.668-10.668A10.67 10.67 0 0 0 571.668 435zm-2.823 5.582c1.247 0 2.386.457 3.26 1.215l-1.337 1.308a3.104 3.104 0 0 0-1.923-.664 3.124 3.124 0 0 0-3.123 3.122 3.125 3.125 0 1 0 6.028 1.149h-2.905v-1.728h4.949a4.986 4.986 0 0 1-4.949 5.562 4.983 4.983 0 0 1 0-9.964zm7.881 2.964h1.245v1.438h1.437v1.244h-1.437v1.438h-1.245v-1.438h-1.437v-1.244h1.437v-1.438z" fill="#888"/></svg>