<svg xmlns="http://www.w3.org/2000/svg" viewBox="0 0 16 16" width="16" height="16"><title>handshake</title><g class="nc-icon-wrapper" fill="#111"><path d="M16 1a1 1 0 0 0-1-1h-4.55a4.47 4.47 0 0 0-3.182 1.318L3.293 5.293a1 1 0 0 0 0 1.414 2.6 2.6 0 0 0 3.437.214l2.687-2.09 4.193 4.193a1.2 1.2 0 0 1-.069 1.761l-.566.483-1.621-1.622a.5.5 0 0 0-.708.708l1.566 1.565-.855.731-1.5-1.5a.5.5 0 0 0-.708.708l1.445 1.442-.138.118a1.988 1.988 0 0 1-1.824.407 1.981 1.981 0 0 0-.57-1.24L4.477 9a2 2 0 0 0-2.829 2.828l3.586 3.586a2 2 0 0 0 2.542.234 4.017 4.017 0 0 0 1.376.253 3.977 3.977 0 0 0 2.608-.965l3.08-2.63a3.108 3.108 0 0 0 1.16-2.3V1z"/><path d="M2 7V2h3a1 1 0 0 0 0-2H1a1 1 0 0 0-1 1v6a1 1 0 0 0 2 0z"/></g></svg>