<svg xmlns="http://www.w3.org/2000/svg" viewBox="0 0 16 16" width="16" height="16"><title>heart outline remove</title><g class="nc-icon-wrapper" fill="#111"><path d="M7 13c0-.404.061-.792.151-1.168C4.583 9.355 2 6.195 2 4.364A2.366 2.366 0 0 1 4.364 2c.793 0 1.53.396 1.97 1.06L8 5.292 9.666 3.06A2.36 2.36 0 0 1 11.636 2 2.366 2.366 0 0 1 14 4.364c0 .954-.706 2.271-1.741 3.662a4.934 4.934 0 0 1 2.044.561C15.291 7.139 16 5.656 16 4.364a4.364 4.364 0 0 0-8-2.411 4.364 4.364 0 0 0-8 2.411c0 3.58 5.377 8.621 7.311 10.319A4.947 4.947 0 0 1 7 13z"/><path data-color="color-2" d="M9 12h6v2H9z"/></g></svg>