<svg xmlns="http://www.w3.org/2000/svg" style="isolation:isolate" viewBox="511 435 21.711 21.711" width="21.711" height="21.711"><path d="M517.199 435a6.203 6.203 0 0 0-4.383 1.815 6.205 6.205 0 0 0-1.816 4.384v9.312a6.204 6.204 0 0 0 6.199 6.2h9.313a6.209 6.209 0 0 0 4.385-1.816 6.205 6.205 0 0 0 1.814-4.384v-9.312a6.203 6.203 0 0 0-1.814-4.384 6.208 6.208 0 0 0-4.385-1.815h-9.313zm0 2.11h9.313a4.091 4.091 0 0 1 4.089 4.089v9.312a4.087 4.087 0 0 1-4.089 4.089h-9.313a4.086 4.086 0 0 1-4.088-4.089v-9.312a4.09 4.09 0 0 1 1.196-2.892 4.095 4.095 0 0 1 2.892-1.197zm10.537 1.961a1.201 1.201 0 0 0-1.207 1.206 1.203 1.203 0 0 0 1.207 1.206 1.207 1.207 0 0 0 0-2.412zm-5.729 1.055a5.892 5.892 0 0 0-4.158 1.721 5.893 5.893 0 0 0-1.722 4.159c0 1.559.621 3.055 1.722 4.158a5.889 5.889 0 0 0 4.158 1.722 5.887 5.887 0 0 0 4.157-1.722 5.89 5.89 0 0 0 1.723-4.158 5.894 5.894 0 0 0-1.723-4.159 5.89 5.89 0 0 0-4.157-1.721zm0 2.111c.998 0 1.96.398 2.666 1.103a3.775 3.775 0 0 1 0 5.331 3.777 3.777 0 0 1-2.666 1.105 3.78 3.78 0 0 1-2.667-1.105 3.775 3.775 0 0 1 0-5.331 3.782 3.782 0 0 1 2.667-1.103z" fill-rule="evenodd" fill="#888"/></svg>