<svg xmlns="http://www.w3.org/2000/svg" style="isolation:isolate" viewBox="514.774 261.416 18.052 21.196" width="18.052" height="21.196"><path d="M516.846 281.472c1.118.134 2.374.858 3.425.986 1.057.133 1.384-.72 1.384-.72s1.189-.266 2.439-.296a10.26 10.26 0 0 1 2.436.26s.23.526.659.756c.429.234 1.352.266 1.944-.358.592-.628 2.174-1.419 3.063-1.913.893-.496.729-1.252.168-1.481-.561-.23-1.02-.592-.985-1.287.03-.689-.496-1.148-.496-1.148s.461-1.516.032-2.772c-.429-1.251-1.843-3.261-2.931-4.773-1.087-1.516-.164-3.267-1.154-5.504-.99-2.24-3.557-2.108-4.941-1.153-1.384.955-.96 3.323-.893 4.447.067 1.118.031 1.918-.097 2.205-.128.292-1.021 1.353-1.614 2.241-.592.892-1.02 2.736-1.454 3.496-.424.756-.128 1.445-.128 1.445s-.296.102-.53.597c-.23.49-.689.725-1.517.884-.821.169-.821.698-.623 1.291.199.592 0 .924-.23 1.679-.229.756.92.986 2.043 1.118zm11.62-3.448c.587.257 1.431-.1 1.688-.357.256-.256.437-.636.437-.636s.257.128.231.534c-.027.412.176.999.561 1.203.385.202.972.485.668.768-.31.283-2.026.973-2.538 1.512-.508.535-1.176.973-1.582.844-.411-.128-.769-.689-.593-1.511.182-.818.336-1.715.31-2.228-.027-.512-.128-1.202 0-1.304.128-.101.332-.052.332-.052s-.102.972.486 1.227zm-3.811-13.847c.566 0 1.022.561 1.022 1.252 0 .49-.23.914-.566 1.118-.085-.035-.173-.075-.27-.116.203-.1.345-.357.345-.654 0-.388-.239-.707-.539-.707-.292 0-.535.319-.535.707a.87.87 0 0 0 .093.394 30.555 30.555 0 0 0-.464-.181 1.522 1.522 0 0 1-.106-.561c0-.69.454-1.252 1.02-1.252zm-1.401 2.157c.279.049 1.044.38 1.327.482.282.097.596.278.565.459-.035.187-.181.187-.565.421-.381.23-1.211.743-1.477.778-.265.035-.415-.115-.698-.297-.283-.186-.814-.619-.68-.849 0 0 .415-.317.596-.48.181-.169.65-.566.932-.514zm-1.219-1.958c.445 0 .809.531.809 1.185 0 .119-.014.23-.035.341a.912.912 0 0 0-.329.185c-.052.044-.1.084-.144.128a.857.857 0 0 0 .065-.522c-.061-.353-.3-.614-.534-.579-.235.04-.376.363-.319.721.062.362.297.623.535.584l.04-.014a3.001 3.001 0 0 1-.332.288c-.322-.151-.561-.601-.561-1.132 0-.658.358-1.185.805-1.185zm-2.484 8.561c.459-.724.756-2.307 1.215-2.833.464-.525.822-1.644.659-2.138 0 0 .99 1.184 1.679.99.69-.2 2.241-1.353 2.471-1.154.23.199 2.205 4.544 2.405 5.927.199 1.383-.133 2.44-.133 2.44s-.756-.199-.853.26c-.097.464-.097 2.144-.097 2.144s-1.022 1.415-2.604 1.649c-1.582.23-2.374.062-2.374.062l-.888-1.017s.69-.102.593-.796c-.097-.689-2.109-1.644-2.471-2.501-.362-.858-.067-2.307.398-3.033zm-3.912 5.189c.08-.339 1.105-.339 1.499-.578.393-.239.472-.924.79-1.105.314-.186.893.473 1.132.844.234.362 1.132 1.945 1.498 2.339.371.397.712.923.605 1.396-.1.473-.658.818-.658.818-.499.154-1.891-.447-2.523-.712-.633-.266-2.242-.345-2.449-.579-.212-.239.102-.765.186-1.264.074-.505-.16-.818-.08-1.159z" fill="#888"/></svg>