<svg width="71" height="71" viewBox="0 0 71 71" fill="none" xmlns="http://www.w3.org/2000/svg"><path fill-rule="evenodd" clip-rule="evenodd" d="M35.222 0c19.453 0 35.223 15.77 35.223 35.224 0 19.447-15.762 35.212-35.209 35.22H8.008A8.006 8.006 0 0 1 0 62.456V35.199C.014 15.757 15.778 0 35.222 0zm1.616 49.495v-8.469h6.891c2.159 0 3.903-1.696 3.902-3.85a3.84 3.84 0 0 0-3.86-3.846l-5.733-.001a1.231 1.231 0 0 1-1.233-1.23v-7.582a8.727 8.727 0 0 1 8.726-8.712c.893 0 1.418.064 1.893.122.392.048.75.092 1.254.092 2.338 0 3.903-1.567 3.903-3.723-.001-1.782-1.529-3.315-3.398-3.805C47.9 8.156 46.916 8 45.53 8 36.4 8 29 15.402 29 24.53V33h-6.891c-2.159 0-3.904 1.697-3.902 3.851a3.84 3.84 0 0 0 3.86 3.845l5.733.002a1.232 1.232 0 0 1 1.233 1.23v7.582a8.727 8.727 0 0 1-8.726 8.711 13.79 13.79 0 0 1-1.893-.122 9.384 9.384 0 0 0-1.254-.091c-2.338 0-3.903 1.567-3.903 3.722 0 1.783 1.529 3.316 3.398 3.805 1.282.335 2.267.492 3.652.492 9.13 0 16.531-7.402 16.531-16.532z" fill="#000"/></svg>