<svg width="66" height="66" viewBox="0 0 66 66" fill="none" xmlns="http://www.w3.org/2000/svg"><path fill-rule="evenodd" clip-rule="evenodd" d="M56.336 56.334a33.001 33.001 0 1 0-46.67-46.67 33.001 33.001 0 0 0 46.67 46.67zm-12.692-38.4a4.406 4.406 0 0 1-3.237-6.569 4.404 4.404 0 1 1 3.237 6.57zM27.58 44.675A12.864 12.864 0 0 0 33 45.868h.004A12.866 12.866 0 0 0 45.815 34.14l6.282.091a19.077 19.077 0 0 1-5.688 12.416 6.176 6.176 0 0 0-8.296 4.796 19.064 19.064 0 0 1-13.595-1.285l3.061-5.484zm14.106-21.17a12.869 12.869 0 0 0-14.106-2.176l-3.061-5.488a19.143 19.143 0 0 1 13.595-1.285 6.171 6.171 0 0 0 3.012 4.369 6.173 6.173 0 0 0 5.284.427 19.079 19.079 0 0 1 5.688 12.416l-6.282.09a12.869 12.869 0 0 0-4.13-8.352zm-20.107 3.56A12.85 12.85 0 0 0 20.13 33a12.85 12.85 0 0 0 5.473 10.53l-3.22 5.397A19.17 19.17 0 0 1 14.468 37.8a6.175 6.175 0 0 0 0-9.596 19.17 19.17 0 0 1 7.914-11.127l3.22 5.393a12.85 12.85 0 0 0-4.024 4.595zm18.387 24.23a4.404 4.404 0 1 1 8.507 2.279 4.404 4.404 0 0 1-8.507-2.28zM8.818 28.876a4.407 4.407 0 1 1 3.118 8.243 4.407 4.407 0 0 1-3.118-8.243z" fill="#000"/></svg>