<svg xmlns="http://www.w3.org/2000/svg" viewBox="0 0 16 16" width="16" height="16"><title>listings</title><path d="M14.3 9.6c.6-4.6-3.2-8.5-7.8-7.9C4.5.4 2-.8.6.6c-1 1-.6 2.9.5 4.8-.5 1-.8 2.1-.8 3.3 0 3.9 3.2 7 7 7 1.2 0 2.3-.3 3.3-.8 1.5.8 3.6 1.7 4.8.5 1.1-1.1.7-3-1.1-5.8zm-1.9-.9c0 1.5-.7 2.9-1.8 3.8C8.1 10.8 5.2 8 3.5 5.4c.9-1.1 2.3-1.8 3.8-1.8 2.8 0 5.1 2.3 5.1 5.1zM2 2c.1-.1.7 0 1.9.5-.5.3-1 .7-1.5 1.1-.3-.9-.5-1.4-.4-1.6zm.5 5.4c1.7 2.3 3.8 4.4 6.1 6.1-3.7 1-7.1-2.4-6.1-6.1zm11.6 6.5c-.2.1-.8 0-1.7-.4.4-.4.8-.9 1.1-1.4.6 1.2.6 1.8.6 1.8z" class="nc-icon-wrapper" fill="#111"/></svg>