<svg xmlns="http://www.w3.org/2000/svg" style="isolation:isolate" viewBox="465.016 258 19.538 23.994" width="19.538" height="23.994"><path d="M479.531 263.797c-1.975-.146-3.651 1.104-4.586 1.104-.949 0-2.411-1.072-3.962-1.043-2.036.03-3.913 1.185-4.963 3.008-2.115 3.671-.54 9.111 1.52 12.091 1.007 1.456 2.21 3.095 3.788 3.036 1.519-.06 2.095-.982 3.931-.982 1.836 0 2.354.982 3.961.952 1.635-.03 2.672-1.486 3.672-2.95 1.157-1.689 1.634-3.325 1.662-3.411-.037-.013-3.188-1.223-3.22-4.855-.029-3.036 2.478-4.495 2.592-4.566-1.423-2.095-3.621-2.327-4.395-2.384m-1.219-1.966c.839-1.014 1.404-2.426 1.249-3.831-1.208.048-2.668.805-3.535 1.818-.775.898-1.457 2.335-1.271 3.711 1.345.104 2.719-.684 3.557-1.698" fill="#888"/></svg>