<svg xmlns="http://www.w3.org/2000/svg" style="isolation:isolate" viewBox="461 435 20.095 21.543" width="20.095" height="21.543"><path d="M471.016 435c-2.754.025-5.406.321-6.948 1.031 0 0-3.061 1.369-3.061 6.043 0 1.069-.022 2.35.012 3.706.111 4.571.836 9.076 5.063 10.194 1.948.515 3.623.621 4.97.548 2.441-.136 3.811-.87 3.811-.87l-.079-1.775s-1.746.551-3.707.484c-1.942-.066-3.992-.208-4.308-2.593a4.916 4.916 0 0 1-.042-.67s1.906.467 4.325.576c1.476.069 2.863-.085 4.27-.254 2.699-.322 5.049-1.986 5.345-3.506.464-2.392.427-5.84.427-5.84 0-4.674-3.062-6.043-3.062-6.043-1.545-.71-4.195-1.006-6.949-1.031h-.067zm-3.152 3.447c1.462 0 2.524.754 3.184 2.262.666-1.508 1.699-2.262 3.099-2.262 2.099 0 3.351 1.54 3.351 3.267v6.2h-2.263v-5.781c0-1.136-.973-1.424-1.507-1.424-.534 0-1.508.456-1.508 1.424v3.603h-2.346v-3.603c0-1.073-1.11-1.424-1.592-1.424-.481 0-1.423.314-1.423 1.424v5.781h-2.263v-6.2c0-1.288 1.074-3.267 3.268-3.267z" fill="#888"/></svg>