<svg xmlns="http://www.w3.org/2000/svg" style="isolation:isolate" viewBox="411 435 21.352 16.951" width="21.352" height="16.951"><path d="M413.532 438.458a.832.832 0 0 0-.269-.698l-1.994-2.401V435h6.19l4.785 10.493L426.451 435h5.901v.359l-1.705 1.634a.496.496 0 0 0-.189.478v12.009a.496.496 0 0 0 .189.478l1.665 1.634v.359h-8.373v-.359l1.724-1.674c.17-.169.17-.219.17-.478v-9.706l-4.795 12.177h-.648l-5.582-12.177v8.161c-.047.343.067.689.309.937l2.243 2.72v.359H411v-.359l2.243-2.72c.24-.249.347-.597.289-.937v-9.437z" fill="#888"/></svg>