<svg xmlns="http://www.w3.org/2000/svg" viewBox="0 0 73.8 66.753"><path d="M73.797 1.384a1.401 1.401 0 0 0-.03-.268 1.443 1.443 0 0 0-.068-.208 1.446 1.446 0 0 0-.131-.257c-.021-.032-.028-.071-.052-.102-.022-.029-.054-.044-.078-.07a1.376 1.376 0 0 0-.212-.191 1.552 1.552 0 0 0-.189-.126c-.03-.016-.052-.042-.084-.056-.054-.024-.111-.025-.167-.042a1.468 1.468 0 0 0-.224-.056 1.456 1.456 0 0 0-.272-.005c-.074.004-.146.005-.22.02-.101.021-.193.062-.287.103-.048.021-.101.026-.147.053l-58 33.833a1.45 1.45 0 0 0 .261 2.625l17.083 5.855 5.934 17.002c.012.034.036.061.05.094.024.055.053.104.084.156.064.109.14.206.229.293.025.024.036.057.062.08.016.013.035.018.052.03.092.072.192.126.298.174.042.02.081.047.125.062a1.439 1.439 0 0 0 .595.076c.017-.001.032-.011.049-.013a1.441 1.441 0 0 0 .845-.411c.027-.027.057-.048.082-.077l9.8-11.437 12.821 5.011a1.452 1.452 0 0 0 1.951-1.074l9.834-50.75c.006-.032-.002-.062.002-.094a1.47 1.47 0 0 0 .004-.23zM39.622 42.815c-.011.015-.017.032-.028.048-.037.053-.068.11-.098.169-.018.035-.037.068-.052.103a1.479 1.479 0 0 0-.061.199c-.009.035-.022.068-.028.103-.001.004-.003.008-.003.013l-1.582 9.699-3.983-11.412 25.676-25.464-19.841 26.542zM63.255 8.426l-31.521 31.26-13.9-4.764L63.255 8.426zm-22.71 45.721l1.379-8.461 4.398 1.719-5.777 6.742zm20.895-3.948l-18.355-7.173L69.74 7.369l-8.3 42.83zM2.472 52.301a1.45 1.45 0 0 0-2.045 2.056s.551.548 1.501 1.413a1.447 1.447 0 0 0 2.048-.098 1.449 1.449 0 0 0-.097-2.048 49.695 49.695 0 0 1-1.407-1.323zm16.356 10.988c-.994-.285-2.077-.712-3.22-1.271a1.449 1.449 0 1 0-1.273 2.605c1.295.633 2.538 1.122 3.694 1.453a1.451 1.451 0 0 0 1.793-.995 1.45 1.45 0 0 0-.994-1.792zm-7.84-4.002a59.028 59.028 0 0 1-2.929-2.142 1.45 1.45 0 1 0-1.781 2.289 62.064 62.064 0 0 0 3.075 2.249 1.446 1.446 0 0 0 2.014-.381 1.449 1.449 0 0 0-.379-2.015zm16.441 4.262c-1.17.184-2.347.287-3.498.304a1.45 1.45 0 0 0 .021 2.9h.021a27.756 27.756 0 0 0 3.906-.339 1.451 1.451 0 0 0-.45-2.865zm6.782-2.066c-.006.003-.616.321-1.668.719a1.45 1.45 0 1 0 1.023 2.713c1.239-.468 1.968-.851 1.998-.867a1.449 1.449 0 0 0-1.353-2.565z"/></svg>