<svg xmlns="http://www.w3.org/2000/svg" height="36" width="36" viewBox="527.814 316 36 36" style="isolation:isolate"><path d="M545.814 316c-9.941 0-18 8.059-18 18s8.059 18 18 18 18-8.059 18-18-8.059-18-18-18zm-1.938 8.234h3.907c.293 0 .488.196.488.489l.293 2.539c.586.195 1.27.586 1.758.976l2.344-1.074c.195-.098.488 0 .585.293l1.954 3.418c.195.293.097.586-.098.684l-2.05 1.464c.097.293.097.684.097.977 0 .293-.098.684-.098.977l2.051 1.562c.195.195.195.488.098.684l-1.954 3.418a.47.47 0 0 1-.585.195l-2.344-1.074c-.488.39-1.074.683-1.758.976l-.293 2.54c0 .292-.195.488-.488.488h-3.907c-.292 0-.488-.196-.488-.489l-.293-2.539c-.586-.195-1.27-.586-1.758-.976l-2.343 1.074c-.196.098-.49 0-.588-.293l-1.953-3.418c-.196-.293-.098-.586.097-.684l2.051-1.464c-.098-.293-.098-.684-.098-.977 0-.293.098-.684.098-.977l-2.05-1.562c-.294-.098-.294-.39-.098-.684l1.953-3.418c.097-.195.392-.293.588-.195l2.343.977c.489-.391 1.075-.684 1.758-.977l.293-2.441c0-.293.196-.489.488-.489zm1.954 5.86a3.918 3.918 0 0 0-3.907 3.906 3.918 3.918 0 0 0 3.907 3.906 3.918 3.918 0 0 0 3.906-3.906 3.918 3.918 0 0 0-3.906-3.906z" fill="#888"/></svg>