<svg xmlns="http://www.w3.org/2000/svg" viewBox="0 0 16 16" width="16" height="16"><title>qr</title><g class="nc-icon-wrapper" fill="#111"><path class="st0" d="M6 7H1c-.6 0-1-.4-1-1V1c0-.6.4-1 1-1h5c.6 0 1 .4 1 1v5c0 .6-.4 1-1 1zM2 5h3V2H2v3zm4 11H1c-.6 0-1-.4-1-1v-5c0-.6.4-1 1-1h5c.6 0 1 .4 1 1v5c0 .6-.4 1-1 1zm-4-2h3v-3H2v3zm13-7h-5c-.6 0-1-.4-1-1V1c0-.6.4-1 1-1h5c.6 0 1 .4 1 1v5c0 .6-.4 1-1 1zm-4-2h3V2h-3v3z"/><path class="st0" d="M3 3h1v1H3V3zm0 9h1v1H3v-1zm6 2h7v2H9v-2zm7-1h-2v-2h-3V9h4c.6 0 1 .4 1 1v3z"/><path class="st0" d="M12 12h1v1h-1v-1zm0-9h1v1h-1V3z"/></g></svg>