<svg xmlns="http://www.w3.org/2000/svg" style="isolation:isolate" viewBox="663 395 20 17.083" width="20" height="17.083"><path d="M681.094 404.887c-.331-.962-1.001-1.829-1.919-2.54a1.669 1.669 0 0 1 1.325-.681 1.67 1.67 0 0 1 1.667 1.667 1.68 1.68 0 0 1-1.073 1.554zm-4.761 1.779a1.667 1.667 0 0 1 0-3.333A1.67 1.67 0 0 1 678 405c0 .919-.748 1.666-1.667 1.666zm-.177 2.346c-.886.51-2.006.79-3.156.79-1.156 0-2.281-.283-3.169-.798a.416.416 0 1 1 .417-.721c1.523.883 3.965.885 5.492.007a.416.416 0 0 1 .416.722zM668 405c0-.919.747-1.667 1.667-1.667A1.667 1.667 0 1 1 668 405zm-3.095-.112a1.654 1.654 0 0 1-1.072-1.555 1.67 1.67 0 0 1 1.667-1.667c.529 0 1.014.266 1.325.68-.918.712-1.589 1.58-1.92 2.542zM683 403.333c0-1.378-1.122-2.5-2.5-2.5-.803 0-1.553.397-2.018 1.034-1.366-.837-3.123-1.366-5.054-1.436.054-.925.334-2.54 1.257-3.07.599-.345 1.444-.208 2.507.397a2.496 2.496 0 0 0 2.475 2.242c1.378 0 2.5-1.121 2.5-2.5s-1.122-2.5-2.5-2.5a2.497 2.497 0 0 0-2.403 1.848c-1.191-.598-2.197-.669-2.996-.209-1.368.787-1.626 2.897-1.674 3.792-1.939.065-3.705.595-5.076 1.436a2.513 2.513 0 0 0-2.018-1.034 2.503 2.503 0 0 0-2.5 2.5c0 1.1.697 2.037 1.706 2.37-.024.18-.039.363-.039.547 0 3.217 3.738 5.833 8.333 5.833 4.595 0 8.333-2.616 8.333-5.833 0-.185-.015-.368-.04-.549a2.515 2.515 0 0 0 1.707-2.368z" fill-rule="evenodd" fill="#888"/></svg>