<svg xmlns="http://www.w3.org/2000/svg" style="isolation:isolate" viewBox="561.943 394 20.856 20.867" width="20.856" height="20.867"><path d="M574.24 405.351l-.958-2.781-2.781.958.959 2.781 2.78-.958zm.755 2.191l.658 1.907c.092.29.313.522.58.661.278.128.603.151.892.058.29-.104.534-.313.661-.591.14-.279.151-.592.058-.893l-.654-1.898 1.895-.653a1.13 1.13 0 0 0 .661-.58c.139-.279.163-.603.058-.893a1.144 1.144 0 0 0-.591-.661 1.162 1.162 0 0 0-.881-.058l-1.898.654-.959-2.781 1.906-.656c.29-.093.521-.314.661-.592.139-.267.15-.591.058-.881a1.15 1.15 0 0 0-.592-.661 1.11 1.11 0 0 0-.881-.058l-1.908.657-.655-1.898a1.126 1.126 0 0 0-.58-.661 1.143 1.143 0 0 0-.893-.058 1.18 1.18 0 0 0-.661.591 1.165 1.165 0 0 0-.058.882l.655 1.9-2.781.958-.657-1.907a1.162 1.162 0 0 0-.58-.661 1.188 1.188 0 0 0-.893-.058c-.29.104-.533.313-.661.591a1.162 1.162 0 0 0-.058.881l.658 1.909-1.899.654c-.29.093-.533.302-.661.58a1.143 1.143 0 0 0-.058.893c.105.29.313.522.592.661.278.139.591.151.881.058l1.9-.655.958 2.781-1.907.657c-.29.093-.522.313-.661.58a1.193 1.193 0 0 0-.058.893c.104.29.313.522.591.661.279.139.592.151.882.058l1.908-.658.655 1.899c.092.29.313.533.579.661.279.139.604.151.893.058.29-.104.522-.313.661-.592.14-.278.151-.591.058-.881l-.654-1.9 2.78-.958zm.205 6.407c-.916.29-1.855.522-2.794.696-.766.139-1.531.22-2.308.22a6.667 6.667 0 0 1-2.424-.406 5.422 5.422 0 0 1-1.844-1.252 9.08 9.08 0 0 1-1.589-2.32 22.785 22.785 0 0 1-1.391-3.618 25.452 25.452 0 0 1-.684-2.806c-.14-.754-.221-1.52-.221-2.297a6.481 6.481 0 0 1 .406-2.435 5.377 5.377 0 0 1 1.253-1.832 9.033 9.033 0 0 1 2.319-1.589 22.483 22.483 0 0 1 3.618-1.392c.928-.278 1.867-.51 2.818-.695a13.012 13.012 0 0 1 2.32-.221 6.607 6.607 0 0 1 2.412.406c.695.279 1.31.708 1.832 1.241a9.139 9.139 0 0 1 1.589 2.331 22.48 22.48 0 0 1 1.368 3.63c.29.916.522 1.855.696 2.806.139.754.22 1.519.22 2.296a6.422 6.422 0 0 1-.406 2.424 5.422 5.422 0 0 1-1.252 1.844 9.075 9.075 0 0 1-2.319 1.589 21.375 21.375 0 0 1-3.619 1.38z" fill-rule="evenodd" fill="#888"/></svg>