<svg xmlns="http://www.w3.org/2000/svg" style="isolation:isolate" viewBox="562.008 392.908 21.983 21.993" width="21.983" height="21.993"><path d="M574.612 404.696l-.826-2.398-2.398.826.826 2.398 2.398-.826zm.651 1.889l.567 1.645c.08.25.27.45.5.57.24.11.52.13.77.05.25-.09.46-.27.57-.51.12-.24.13-.51.05-.77l-.565-1.637 1.635-.563c.25-.08.46-.27.57-.5a.989.989 0 0 0-.46-1.34c-.24-.12-.51-.13-.76-.05l-1.636.564-.827-2.398 1.643-.566c.25-.08.45-.27.57-.51a1 1 0 0 0 .05-.76.989.989 0 0 0-.51-.57.96.96 0 0 0-.76-.05l-1.645.567-.565-1.637a.973.973 0 0 0-.5-.57.984.984 0 0 0-.77-.05c-.25.09-.45.27-.57.51-.12.24-.13.51-.05.76l.565 1.638-2.398.827-.567-1.645c-.08-.25-.27-.45-.5-.57-.24-.12-.52-.13-.77-.05-.25.09-.46.27-.57.51-.12.24-.13.51-.05.76l.567 1.646-1.637.564c-.25.08-.46.26-.57.5-.12.24-.14.52-.05.77.09.25.27.45.51.57.24.12.51.13.76.05l1.638-.565.827 2.398-1.645.567c-.25.08-.45.27-.57.5-.12.24-.13.52-.05.77.09.25.27.45.51.57.24.12.51.13.76.05l1.646-.567.564 1.637c.08.25.27.46.5.57.24.12.52.13.77.05.25-.09.45-.27.57-.51.12-.24.13-.51.05-.76l-.565-1.638 2.398-.827zm.177 5.525c-.79.25-1.6.45-2.41.6-.66.12-1.32.19-1.99.19a5.74 5.74 0 0 1-2.09-.35c-.6-.25-1.14-.61-1.59-1.08a7.81 7.81 0 0 1-1.37-2c-.49-1.01-.89-2.05-1.2-3.12-.24-.79-.44-1.6-.59-2.42-.12-.65-.19-1.31-.19-1.98-.02-.71.1-1.43.35-2.1.25-.59.61-1.14 1.08-1.58a7.81 7.81 0 0 1 2-1.37c1-.49 2.05-.89 3.12-1.2.8-.24 1.61-.44 2.43-.6.66-.12 1.33-.19 2-.19.71-.02 1.41.11 2.08.35.6.24 1.13.61 1.58 1.07.56.6 1.02 1.27 1.37 2.01.48 1.01.88 2.05 1.18 3.13.25.79.45 1.6.6 2.42.12.65.19 1.31.19 1.98.02.71-.1 1.42-.35 2.09-.25.6-.61 1.14-1.08 1.59a7.81 7.81 0 0 1-2 1.37c-1 .49-2.05.89-3.12 1.19zm.57 1.92c-.86.27-1.73.48-2.62.65-.76.14-1.54.22-2.32.22-.97.02-1.94-.15-2.85-.49-.87-.35-1.66-.88-2.31-1.56-.7-.75-1.28-1.59-1.72-2.52-.54-1.09-.97-2.24-1.31-3.41-.27-.86-.48-1.73-.65-2.62-.14-.77-.22-1.54-.22-2.32-.02-.97.15-1.94.49-2.85.35-.87.88-1.66 1.56-2.31.74-.7 1.59-1.28 2.52-1.73 1.09-.53 2.23-.97 3.41-1.3.86-.27 1.74-.49 2.63-.65.77-.15 1.56-.23 2.34-.23.97-.02 1.93.15 2.83.49.88.35 1.66.88 2.31 1.56.7.74 1.28 1.59 1.72 2.52.53 1.1.97 2.24 1.3 3.42.27.86.48 1.73.65 2.62.14.76.22 1.54.22 2.32.02.97-.15 1.94-.49 2.85-.35.87-.88 1.66-1.56 2.31-.74.7-1.59 1.28-2.52 1.72-1.09.54-2.23.97-3.41 1.31z" fill-rule="evenodd" fill="#888"/></svg>