<svg xmlns="http://www.w3.org/2000/svg" style="isolation:isolate" viewBox="464 396 19.517 15.652" width="19.517" height="15.652"><path d="M483.517 398.03c-.708.315-1.305.326-1.938.013.817-.488.854-.831 1.149-1.754a7.947 7.947 0 0 1-2.509.96 3.951 3.951 0 0 0-6.835 2.702c0 .311.035.612.101.901a11.21 11.21 0 0 1-8.144-4.129 3.95 3.95 0 0 0 1.223 5.276 3.942 3.942 0 0 1-1.79-.494l-.001.05a3.955 3.955 0 0 0 3.171 3.875 3.97 3.97 0 0 1-1.785.067 3.956 3.956 0 0 0 3.691 2.745 7.944 7.944 0 0 1-5.85 1.635 11.184 11.184 0 0 0 6.057 1.775c7.268 0 11.242-6.021 11.242-11.242 0-.172-.003-.341-.011-.512.771-.556 1.699-1.075 2.229-1.868z" fill-rule="evenodd" fill="#888"/></svg>