<svg xmlns="http://www.w3.org/2000/svg" viewBox="0 0 16 16" width="16" height="16"><title>wikipedia</title><path d="M16 3.104c0 .058-.018.11-.053.158-.037.046-.075.07-.118.07-.35.034-.639.146-.861.339-.224.191-.453.559-.691 1.099l-3.631 8.182c-.024.076-.09.114-.2.114a.224.224 0 0 1-.2-.114L8.21 8.694l-2.342 4.258a.224.224 0 0 1-.2.114c-.104 0-.173-.038-.207-.114L1.894 4.77c-.222-.508-.457-.862-.705-1.063C.943 3.505.598 3.38.158 3.332c-.038 0-.075-.02-.107-.061A.203.203 0 0 1 0 3.134c0-.134.038-.2.114-.2.318 0 .65.014.998.042.322.03.626.044.91.044.29 0 .632-.014 1.026-.044.412-.028.778-.042 1.096-.042.076 0 .114.066.114.2 0 .132-.024.198-.07.198-.318.024-.569.106-.752.242a.646.646 0 0 0-.274.542c0 .114.038.256.114.426L6.224 11.2l1.673-3.161L6.338 4.77c-.28-.583-.511-.96-.691-1.129-.18-.167-.453-.272-.819-.31-.034 0-.065-.02-.096-.061a.21.21 0 0 1-.046-.136c0-.134.032-.2.1-.2.318 0 .609.014.875.042.256.03.529.044.819.044.284 0 .585-.014.903-.044.328-.028.65-.042.968-.042.076 0 .114.066.114.2 0 .132-.023.198-.07.198-.636.044-.954.224-.954.542 0 .142.073.363.221.661l1.031 2.094L9.72 4.714c.142-.27.214-.498.214-.684 0-.436-.318-.668-.954-.698-.058 0-.086-.066-.086-.198 0-.048.014-.093.042-.135.03-.044.058-.065.086-.065.228 0 .508.014.84.042.318.03.58.044.784.044.146 0 .363-.013.647-.037.36-.032.663-.049.905-.049.056 0 .084.056.084.17 0 .152-.052.228-.156.228-.37.038-.668.141-.894.307-.225.166-.507.543-.843 1.131L9.022 7.299l1.852 3.773 2.734-6.358c.094-.232.142-.446.142-.64 0-.466-.318-.712-.954-.742-.058 0-.086-.066-.086-.198 0-.134.042-.2.128-.2.232 0 .508.014.826.042.294.03.542.044.74.044.21 0 .452-.014.726-.044a7.97 7.97 0 0 1 .77-.042c.066 0 .1.056.1.17z" class="nc-icon-wrapper" fill="#111"/></svg>