<svg xmlns="http://www.w3.org/2000/svg" style="isolation:isolate" viewBox="411.852 262.792 19.748 19.821" width="19.748" height="19.821"><path d="M420.894 264.383c3.544-.578 7.161-1.085 10.706-1.591v9.404c-3.545 0-7.162.072-10.706.072v-7.885zm-9.042 1.23c2.676-.434 5.353-.796 8.101-1.085v7.74c-2.748 0-5.425.073-8.101.073v-6.728zm0 7.523c2.676 0 5.353.073 8.101 0v7.813c-2.748-.362-5.425-.724-8.101-1.085v-6.728zm9.042.073H431.6v9.404c-3.545-.579-7.162-1.013-10.706-1.52v-7.884z" fill="#888"/></svg>