<svg xmlns="http://www.w3.org/2000/svg" style="isolation:isolate" viewBox="410.019 396.007 23.962 16.853" width="23.962" height="16.853"><path d="M433.742 399.643s-.235-1.652-.953-2.379c-.91-.954-1.933-.959-2.4-1.015-3.354-.242-8.384-.242-8.384-.242h-.01s-5.03 0-8.384.242c-.467.056-1.49.061-2.4 1.015-.718.727-.953 2.379-.953 2.379s-.239 1.937-.239 3.877v1.818c0 1.94.239 3.877.239 3.877s.235 1.651.953 2.379c.912.954 2.109.924 2.641 1.025 1.917.183 8.148.241 8.148.241s5.035-.007 8.389-.251c.47-.056 1.49-.061 2.4-1.015.718-.728.953-2.379.953-2.379s.239-1.94.239-3.877v-1.818c0-1.94-.239-3.877-.239-3.877zm-14.217 7.897v-6.732l6.475 3.378-6.475 3.354z" fill="#888"/></svg>