<?xml version="1.0" encoding="UTF-8" standalone="no"?>
<!-- Generator: Adobe Illustrator 22.0.1, SVG Export Plug-In . SVG Version: 6.00 Build 0)  -->

<svg
   xmlns:dc="http://purl.org/dc/elements/1.1/"
   xmlns:cc="http://creativecommons.org/ns#"
   xmlns:rdf="http://www.w3.org/1999/02/22-rdf-syntax-ns#"
   xmlns:svg="http://www.w3.org/2000/svg"
   xmlns="http://www.w3.org/2000/svg"
   xmlns:sodipodi="http://sodipodi.sourceforge.net/DTD/sodipodi-0.dtd"
   xmlns:inkscape="http://www.inkscape.org/namespaces/inkscape"
   width="323"
   height="84"
   viewBox="0 0 323 84"
   version="1.1"
   id="svg253"
   sodipodi:docname="bittrex.svg"
   inkscape:version="0.92.2 2405546, 2018-03-11">
  <metadata
     id="metadata259">
    <rdf:RDF>
      <cc:Work
         rdf:about="">
        <dc:format>image/svg+xml</dc:format>
        <dc:type
           rdf:resource="http://purl.org/dc/dcmitype/StillImage" />
        <dc:title>39409439-4500-4CAE-9C15-B162719D008C</dc:title>
      </cc:Work>
    </rdf:RDF>
  </metadata>
  <defs
     id="defs257" />
  <sodipodi:namedview
     pagecolor="#ffffff"
     bordercolor="#666666"
     borderopacity="1"
     objecttolerance="10"
     gridtolerance="10"
     guidetolerance="10"
     inkscape:pageopacity="0"
     inkscape:pageshadow="2"
     inkscape:window-width="1920"
     inkscape:window-height="1172"
     id="namedview255"
     showgrid="false"
     fit-margin-top="0"
     fit-margin-left="0"
     fit-margin-right="0"
     fit-margin-bottom="0"
     inkscape:zoom="1.2184638"
     inkscape:cx="186.33759"
     inkscape:cy="-78.998764"
     inkscape:window-x="0"
     inkscape:window-y="100"
     inkscape:window-maximized="1"
     inkscape:current-layer="Cover-Image" />
  <style
     type="text/css"
     id="style2">
        .st0{fill:#61819C;}
        .st1{fill:#0B3E69;}
        .st2{fill:#0F2D42;}
        .st3{filter:url(#Adobe_OpacityMaskFilter);}
        .st4{fill:#FFFFFF;}
        .st5{mask:url(#mask-2_1_);fill:#0082D7;}
        .st6{filter:url(#Adobe_OpacityMaskFilter_1_);}
        .st7{mask:url(#mask-4_1_);fill:#FFFFFF;}
    </style>
  <title
     id="title4">39409439-4500-4CAE-9C15-B162719D008C</title>
  <desc
     id="desc6">Created with sketchtool.</desc>
  <g
     id="Symbols"
     transform="translate(-460.33344,-62.636496)">
    <g
       id="cover-image">
      <g
         id="Cover-Image">
        <g
           id="Group-371"
           transform="translate(467.33344,69.636496)">
          <g
             id="Clip-370" />
          <defs
             id="defs196">
            <filter
               id="Adobe_OpacityMaskFilter"
               filterUnits="userSpaceOnUse"
               x="-7"
               y="-7"
               width="82.5"
               height="84">
              <feColorMatrix
                 type="matrix"
                 values="1 0 0 0 0  0 1 0 0 0  0 0 1 0 0  0 0 0 1 0"
                 id="feColorMatrix193" />
            </filter>
          </defs>
          <mask
             maskUnits="userSpaceOnUse"
             x="-7"
             y="-7"
             width="82.5"
             height="84"
             id="mask-2_1_">
            <g
               class="st3"
               id="g199"
               style="filter:url(#Adobe_OpacityMaskFilter)">
              <path
                 id="path-1_1_"
                 class="st4"
                 d="M 14,0 H 68.5 V 54.5 H 14 V 26 h 7 V 48 H 61.5 V 7 H 21 v 4 H 14 Z M 0,15.5 H 54.5 V 44 h -7 V 22 h -41 v 41 h 41 v -4.5 h 7 V 70 H 0 Z"
                 inkscape:connector-curvature="0"
                 style="fill:#ffffff" />
            </g>
          </mask>
          <polygon
             id="Fill-369"
             class="st5"
             points="-7,77 75.5,77 75.5,-7 -7,-7 "
             mask="url(#mask-2_1_)"
             style="fill:#0082d7" />
        </g>
        <g
           id="Group-374"
           transform="translate(556.83344,84.636496)">
          <g
             id="Clip-373" />
          <defs
             id="defs208">
            <filter
               id="Adobe_OpacityMaskFilter_1_"
               filterUnits="userSpaceOnUse"
               x="-7"
               y="-7"
               width="233.5"
               height="54">
              <feColorMatrix
                 type="matrix"
                 values="1 0 0 0 0  0 1 0 0 0  0 0 1 0 0  0 0 0 1 0"
                 id="feColorMatrix205" />
            </filter>
          </defs>
          <mask
             maskUnits="userSpaceOnUse"
             x="-7"
             y="-7"
             width="233.5"
             height="54"
             id="mask-4_1_">
            <g
               class="st6"
               id="g211"
               style="filter:url(#Adobe_OpacityMaskFilter_1_)">
              <path
                 id="path-3_1_"
                 class="st4"
                 d="m 213.8,0 -8.9,15.9 -0.4,1.6 -0.4,-1.6 L 195.3,0 h -5.4 L 201.8,19.6 189.6,40 h 5.5 l 9.1,-16.5 0.4,-1.5 0.4,1.5 9.2,16.5 h 5.5 L 207.5,19.6 219.2,0 Z M 158,0 v 40 h 23 V 36 H 162.5 V 21.5 H 179 V 18 H 162.5 V 4 H 181 V 0 Z m -37,0 h 11.5 c 8.8,0 14,4.6 14,12.2 0,6.5 -3.4,10.5 -8.7,11.7 l 1.2,1.2 9,14.9 h -5.3 L 134,24.5 h -8.6 V 40 H 121 Z m 4.5,4 v 17 h 7.5 c 5.3,0 8.9,-2.8 8.9,-8.6 0,-5.3 -3.2,-8.4 -8.6,-8.4 z M 84.5,0 V 4 H 96 v 36 h 4.5 V 4 h 11 V 0 Z m -33,0 v 4 h 11 V 40 H 67 V 4 H 78 V 0 Z M 37,40 h 4.5 V 0 H 37 Z M 0,0 h 12.7 c 8,0 12.6,3.7 12.6,10 0,4.8 -2.3,8.1 -6.5,9.4 5.3,1.2 8.4,4.9 8.4,9.6 0,6.9 -5,10.9 -13.3,10.9 H 0 Z m 4.5,4 v 14 h 8.8 c 4.5,0 7.5,-2.9 7.5,-7.5 0,-4.1 -2.9,-6.5 -8,-6.5 z m 0,17.5 V 36 h 9.4 c 5.5,0 8.7,-2.6 8.7,-7.1 0,-4.6 -3.3,-7.4 -8.4,-7.4 z"
                 inkscape:connector-curvature="0"
                 style="fill:#ffffff" />
            </g>
          </mask>
          <polygon
             id="Fill-372"
             class="st7"
             points="-7,47 226.5,47 226.5,-7 -7,-7 "
             mask="url(#mask-4_1_)"
             style="fill:#0f2d42;fill-opacity:1" />
        </g>
      </g>
    </g>
  </g>
</svg>
