<?xml version="1.0" encoding="utf-8"?>
<!-- Generator: Adobe Illustrator 28.0.0, SVG Export Plug-In . SVG Version: 6.00 Build 0)  -->
<svg version="1.1" id="Layer_1" xmlns="http://www.w3.org/2000/svg" xmlns:xlink="http://www.w3.org/1999/xlink" x="0px" y="0px"
	 viewBox="0 0 146 28" style="enable-background:new 0 0 146 28;" xml:space="preserve">
<style type="text/css">
	.st0{fill:#3156AA;}
	.st1{fill:#1972E2;}
	.st2{fill:url(#SVGID_1_);}
	.st3{fill:#212121;}
</style>
<path class="st0" d="M42.4,19.5L33.1,3.3c-2-3.4-7-3.4-9,0.1l-9.8,16.8c-1.8,3.1,0.4,7,4.1,7H38C41.7,27.2,44.4,23.2,42.4,19.5z"/>
<path class="st1" d="M29,20.7l-0.6-1c-0.5-0.9-1.7-2.9-1.7-2.9L18.8,3.1c-2-3-6.9-3.3-8.9,0.5L0.7,19.5c-1.9,3.3,0.4,7.7,4.5,7.7
	h19.5H33h4.9C32.9,27.2,31.2,24.6,29,20.7z"/>
<linearGradient id="SVGID_1_" gradientUnits="userSpaceOnUse" x1="11.6583" y1="15.3695" x2="34.302" y2="7.0019" gradientTransform="matrix(1 0 0 -1 0 30)">
	<stop  offset="0" style="stop-color:#264CA2;stop-opacity:0"/>
	<stop  offset="1" style="stop-color:#234588"/>
</linearGradient>
<path class="st2" d="M29,20.7l-0.6-1c-0.5-0.9-1.7-2.9-1.7-2.9l-5.1-9l-7.3,12.5c-1.8,3.1,0.4,7,4.1,7h6.3h8.3h5
	C32.8,27.2,31.2,24.6,29,20.7z"/>
<path class="st3" d="M124.4,14.8c0,6.3,5.2,11.2,11.5,11.2c3.9,0,6.9-1.3,9.2-4l-1.4-1.2c-0.9-0.8-2.2-0.8-3.1-0.1
	c-1.3,0.9-2.8,1.4-4.7,1.4c-4.4,0-7.1-2.8-7.1-7.4c0-4.5,2.6-7.2,7.1-7.2c1.8,0,3.4,0.5,4.7,1.4c1,0.7,2.3,0.7,3.1-0.1l1.4-1.2
	c-2.3-2.7-5.4-4.1-9.4-4.1c-3.4,0-6.3,1-8.2,3C125.4,8.5,124.4,11.4,124.4,14.8z"/>
<path class="st3" d="M65.5,23.4l6-10.4v12.7H76V3.8h-2.8c-0.9,0-1.7,0.5-2.1,1.3l-7.1,13l-7.1-13c-0.4-0.8-1.3-1.3-2.1-1.3h-2.8
	v21.9h4.5V13l6,10.4H65.5z"/>
<path class="st3" d="M79.7,3.9v21.9l18.2,0v-1.4c0-1.1-0.9-2-2-2H84.2v-5.9h11.7v-3.4H84.2V7.2h11.7c1.1,0,2-0.9,2-2V3.9H79.7z"/>
<path class="st3" d="M119.7,3.9h4.3l-8.6,11l8.7,10.9h-4.3c-0.8,0-1.5-0.4-2-1l-5.2-6.5l-5.2,6.5c-0.5,0.6-1.2,1-2,1h-4.3l8.7-10.9
	l-8.7-10.9h4.3c0.8,0,1.5,0.3,2,1l5.2,6.5l5.2-6.5C118.2,4.2,118.9,3.9,119.7,3.9z"/>
</svg>
