<svg width="420" height="300" viewBox="0 0 420 300" fill="none" xmlns="http://www.w3.org/2000/svg">
<g clip-path="url(#clip0)">
<path d="M410.712 16H10.0668C4.93695 16 0.77832 20.1586 0.77832 25.2885V275.275C0.77832 280.405 4.93695 284.564 10.0668 284.564H410.712C415.841 284.564 420 280.405 420 275.275V25.2885C420 20.1586 415.841 16 410.712 16Z" stroke="#DDDDDD" stroke-width="0.940599"/>
<path d="M0.64209 43.3287H418.849V42.9258" stroke="#DDDDDD" stroke-width="0.9"/>
<path d="M48.8675 34.6178C51.5377 34.6178 53.7022 32.4532 53.7022 29.783C53.7022 27.1128 51.5377 24.9482 48.8675 24.9482C46.1973 24.9482 44.0327 27.1128 44.0327 29.783C44.0327 32.4532 46.1973 34.6178 48.8675 34.6178Z" stroke="#DDDDDD" stroke-width="0.9"/>
<path d="M18.7419 34.6178C21.4121 34.6178 23.5767 32.4532 23.5767 29.783C23.5767 27.1128 21.4121 24.9482 18.7419 24.9482C16.0717 24.9482 13.9072 27.1128 13.9072 29.783C13.9072 32.4532 16.0717 34.6178 18.7419 34.6178Z" stroke="#DDDDDD" stroke-width="0.9"/>
<path d="M33.8045 34.6178C36.4747 34.6178 38.6393 32.4532 38.6393 29.783C38.6393 27.1128 36.4747 24.9482 33.8045 24.9482C31.1344 24.9482 28.9697 27.1128 28.9697 29.783C28.9697 32.4532 31.1344 34.6178 33.8045 34.6178Z" stroke="#DDDDDD" stroke-width="0.9"/>
<path d="M57.0191 283.932V44.5581H56.6162" stroke="#DDDDDD" stroke-width="0.9"/>
<path d="M30.9444 78.9849H25.0107V73.016H30.9444V78.9849ZM39.8977 68.9956C39.6524 67.5743 38.8721 66.2287 37.7399 65.3336C36.6892 64.4683 35.3427 64.0034 33.9843 64.0022C29.9558 64.0009 25.9239 63.9974 21.8955 64.0034C19.7927 64.0273 17.8059 65.246 16.7827 67.077C16.2143 68.0597 16.0012 69.1646 16 70.291C16.0024 73.965 15.9988 77.6414 16.0012 81.3155C15.994 82.17 16.0311 82.9908 16.298 83.8104C16.8916 85.7098 18.4929 87.2473 20.4054 87.7828C19.8273 87.3215 19.5713 86.6793 19.3834 85.9842C18.9944 84.4599 18.9645 82.8769 19.0267 81.3155C19.0208 77.6403 19.029 73.965 19.0219 70.291C19.0279 69.6583 19.0746 69.0639 19.3977 68.5043C19.8955 67.6115 20.8662 67.0147 21.8955 67.028C25.7241 67.0255 29.5574 67.0291 33.3859 67.0267C33.964 67.028 34.4893 66.9848 35.0424 67.1946C35.9614 67.5 36.6903 68.3233 36.8913 69.27C37.005 69.826 36.9751 70.4432 36.9763 71.0099V81.7948C36.9763 82.3245 36.9177 82.8422 36.6903 83.3263C36.2212 84.3089 35.2063 84.9907 34.1065 84.9705C31.0761 84.9752 28.0422 84.9692 25.0119 84.9728C25.006 83.9842 25.0072 82.9944 25.0107 82.0046C27.4844 82.0046 29.9571 82.0009 32.4309 82.0069C32.9635 82.0357 33.5762 81.7661 33.8216 81.2748C33.9603 81.0243 33.9831 80.757 33.9891 80.4779C33.9867 77.4809 33.988 74.4851 33.988 71.4881C34.0119 70.9333 33.7438 70.4383 33.2531 70.1747C32.8438 69.9363 32.4057 69.9974 31.9498 69.989C29.1181 69.9961 26.283 69.9854 23.4525 69.995C22.6422 69.9746 21.9673 70.6804 21.9924 71.4881C21.9804 75.7937 21.9924 80.1232 21.9864 84.4311C22.0092 85.2867 21.9816 86.098 22.4771 86.8386C22.8529 87.4509 23.4884 87.7613 24.1717 87.8968C24.9796 88.0273 25.7527 87.9962 26.5642 87.9974C29.0379 87.9985 31.5106 87.9962 33.9843 87.9998C35.2146 88.0106 36.4126 87.6115 37.4227 86.9152C38.5058 86.116 39.3461 85.0136 39.7326 83.7146C39.9994 82.8362 39.9946 81.983 39.9994 81.0759C39.9994 77.6403 40.0007 74.2058 39.9994 70.7703C39.9946 70.1807 39.9887 69.5791 39.8977 68.9956" fill="#46D593"/>
<path d="M10.9495 113.163H44.57" stroke="#DDDDDD" stroke-width="0.9"/>
<path d="M10.9495 131.375H44.57" stroke="#DDDDDD" stroke-width="0.9"/>
<path d="M10.9495 150.986H44.57" stroke="#DDDDDD" stroke-width="0.9"/>
<path d="M10.9495 169.198H44.57" stroke="#DDDDDD" stroke-width="0.9"/>
<path d="M10.9495 188.81H44.57" stroke="#DDDDDD" stroke-width="0.9"/>
<path d="M83.9668 60.5413H114.826" stroke="#DDDDDD" stroke-width="0.9"/>
<path d="M125.389 60.5413H144.284" stroke="#DDDDDD" stroke-width="0.9"/>
<path d="M155.515 60.5413H195.206" stroke="#DDDDDD" stroke-width="0.9"/>
<path d="M312.042 60.5413H335.265" stroke="#DDDDDD" stroke-width="0.9"/>
<path d="M343.214 60.5413H357.432" stroke="#DDDDDD" stroke-width="0.9"/>
<path d="M365.883 60.5413H395.752" stroke="#DDDDDD" stroke-width="0.9"/>
<path d="M291.256 60.5413H301.374" stroke="#DDDDDD" stroke-width="0.9"/>
<path d="M110.065 136.402C124.663 136.402 136.497 124.568 136.497 109.97C136.497 95.3712 124.663 83.5369 110.065 83.5369C95.4664 83.5369 83.6318 95.3712 83.6318 109.97C83.6318 124.568 95.4664 136.402 110.065 136.402Z" stroke="#DDDDDD" stroke-width="0.814671"/>
<path d="M88.5095 149.13H131.62" stroke="#DDDDDD" stroke-width="0.9"/>
<path d="M88.5095 156.661H131.62" stroke="#DDDDDD" stroke-width="0.9"/>
<path d="M84.9944 101.281L111.917 135.895" stroke="#DDDDDD" stroke-width="0.6"/>
<path d="M91.8323 90.7395L107.216 135.895" stroke="#DDDDDD" stroke-width="0.6"/>
<path d="M124.028 116.043C125.837 116.043 127.304 114.576 127.304 112.767C127.304 110.958 125.837 109.491 124.028 109.491C122.218 109.491 120.751 110.958 120.751 112.767C120.751 114.576 122.218 116.043 124.028 116.043Z" fill="#DDDDDD"/>
<path d="M110.065 234.311C124.663 234.311 136.497 222.476 136.497 207.878C136.497 193.279 124.663 181.445 110.065 181.445C95.4664 181.445 83.6318 193.279 83.6318 207.878C83.6318 222.476 95.4664 234.311 110.065 234.311Z" stroke="#DDDDDD" stroke-width="0.814671"/>
<path d="M88.5095 247.037H131.62" stroke="#DDDDDD" stroke-width="0.9"/>
<path d="M88.5095 254.569H131.62" stroke="#DDDDDD" stroke-width="0.9"/>
<path d="M113.483 181.905L127.158 227.487" stroke="#DDDDDD" stroke-width="0.6"/>
<path d="M111.062 181.478L84.8518 199.711" stroke="#DDDDDD" stroke-width="0.6"/>
<path d="M120.606 225.271C124.495 225.271 127.648 222.118 127.648 218.229C127.648 214.339 124.495 211.186 120.606 211.186C116.716 211.186 113.563 214.339 113.563 218.229C113.563 222.118 116.716 225.271 120.606 225.271Z" stroke="#DDDDDD" stroke-width="0.6"/>
<path d="M195.68 136.402C210.278 136.402 222.112 124.568 222.112 109.97C222.112 95.3712 210.278 83.5369 195.68 83.5369C181.081 83.5369 169.247 95.3712 169.247 109.97C169.247 124.568 181.081 136.402 195.68 136.402Z" stroke="#DDDDDD" stroke-width="0.814671"/>
<path d="M174.124 149.13H217.234" stroke="#DDDDDD" stroke-width="0.9"/>
<path d="M174.124 156.661H217.234" stroke="#DDDDDD" stroke-width="0.9"/>
<path d="M173.293 124.357L221.582 115.098" stroke="#DDDDDD" stroke-width="0.6"/>
<path d="M207.338 86.1816L213.32 129.485" stroke="#DDDDDD" stroke-width="0.6"/>
<path d="M183.976 111.89C186.846 111.89 189.173 109.564 189.173 106.694C189.173 103.824 186.846 101.497 183.976 101.497C181.107 101.497 178.78 103.824 178.78 106.694C178.78 109.564 181.107 111.89 183.976 111.89Z" stroke="#DDDDDD" stroke-width="0.6"/>
<path d="M195.679 234.311C210.278 234.311 222.112 222.476 222.112 207.878C222.112 193.279 210.278 181.445 195.679 181.445C181.081 181.445 169.246 193.279 169.246 207.878C169.246 222.476 181.081 234.311 195.679 234.311Z" stroke="#DDDDDD" stroke-width="0.814671"/>
<path d="M174.124 247.037H217.234" stroke="#DDDDDD" stroke-width="0.9"/>
<path d="M174.124 254.569H217.234" stroke="#DDDDDD" stroke-width="0.9"/>
<path d="M184.547 183.899L218.876 195.722L172.439 195.438" stroke="#DDDDDD" stroke-width="0.6"/>
<path d="M187.11 225.181C192.602 225.181 197.054 220.729 197.054 215.237C197.054 209.745 192.602 205.293 187.11 205.293C181.618 205.293 177.166 209.745 177.166 215.237C177.166 220.729 181.618 225.181 187.11 225.181Z" stroke="#DDDDDD" stroke-width="0.6"/>
<path d="M367.985 136.402C382.583 136.402 394.417 124.568 394.417 109.97C394.417 95.3712 382.583 83.5369 367.985 83.5369C353.386 83.5369 341.552 95.3712 341.552 109.97C341.552 124.568 353.386 136.402 367.985 136.402Z" stroke="#DDDDDD" stroke-width="0.814671"/>
<path d="M346.429 149.13H389.54" stroke="#DDDDDD" stroke-width="0.9"/>
<path d="M346.429 156.661H389.54" stroke="#DDDDDD" stroke-width="0.9"/>
<path d="M348.546 92.3067L377.747 85.7542L393.843 113.958L353.531 131.764" stroke="#DDDDDD" stroke-width="0.6"/>
<path d="M376.037 113.146C378.106 113.146 379.783 111.469 379.783 109.4C379.783 107.331 378.106 105.654 376.037 105.654C373.968 105.654 372.291 107.331 372.291 109.4C372.291 111.469 373.968 113.146 376.037 113.146Z" stroke="#DDDDDD" stroke-width="0.6"/>
<path d="M367.985 234.311C382.583 234.311 394.417 222.476 394.417 207.878C394.417 193.279 382.583 181.445 367.985 181.445C353.386 181.445 341.552 193.279 341.552 207.878C341.552 222.476 353.386 234.311 367.985 234.311Z" stroke="#DDDDDD" stroke-width="0.814671"/>
<path d="M346.429 247.037H389.54" stroke="#DDDDDD" stroke-width="0.9"/>
<path d="M346.429 254.569H389.54" stroke="#DDDDDD" stroke-width="0.9"/>
<path d="M348.973 189.597L383.017 186.036" stroke="#DDDDDD" stroke-width="0.6"/>
<path d="M346.124 222.787L386.436 226.775" stroke="#DDDDDD" stroke-width="0.6"/>
<path d="M373.473 228.462C379.912 228.462 385.131 223.243 385.131 216.804C385.131 210.366 379.912 205.146 373.473 205.146C367.035 205.146 361.815 210.366 361.815 216.804C361.815 223.243 367.035 228.462 373.473 228.462Z" stroke="#DDDDDD" stroke-width="0.6"/>
<path d="M374.186 217.658C375.523 217.658 376.607 216.574 376.607 215.237C376.607 213.899 375.523 212.815 374.186 212.815C372.848 212.815 371.764 213.899 371.764 215.237C371.764 216.574 372.848 217.658 374.186 217.658Z" fill="#DDDDDD"/>
<path d="M282.532 234.311C297.131 234.311 308.965 222.476 308.965 207.878C308.965 193.279 297.131 181.445 282.532 181.445C267.934 181.445 256.099 193.279 256.099 207.878C256.099 222.476 267.934 234.311 282.532 234.311Z" stroke="#DDDDDD" stroke-width="0.814671"/>
<path d="M260.977 247.037H304.087" stroke="#DDDDDD" stroke-width="0.9"/>
<path d="M260.977 254.569H304.087" stroke="#DDDDDD" stroke-width="0.9"/>
<path d="M259.839 221.79L300.009 227.203L305.564 195.58" stroke="#DDDDDD" stroke-width="0.6"/>
<path d="M301.148 189.169L281.063 234.04" stroke="#DDDDDD" stroke-width="0.6"/>
<path d="M268.386 208.542C269.724 208.542 270.808 207.458 270.808 206.121C270.808 204.783 269.724 203.699 268.386 203.699C267.049 203.699 265.965 204.783 265.965 206.121C265.965 207.458 267.049 208.542 268.386 208.542Z" fill="#DDDDDD"/>
<path d="M282.533 136.403C297.131 136.403 308.966 124.569 308.966 109.97C308.966 95.3717 297.131 83.5374 282.533 83.5374C267.935 83.5374 256.1 95.3717 256.1 109.97C256.1 124.569 267.935 136.403 282.533 136.403Z" stroke="#46D593" stroke-width="0.814671"/>
<path d="M260.799 147.497H259.495C259.465 147.835 258.842 148.721 257.783 148.721V149.848C258.647 149.848 259.221 149.514 259.371 149.277H259.435V155.189H260.799V147.497Z" fill="#46D593"/>
<path d="M263.605 155.272C264.056 155.272 264.435 154.907 264.435 154.445C264.435 154.002 264.056 153.634 263.605 153.634C263.158 153.634 262.775 153.995 262.779 154.445C262.775 154.907 263.147 155.272 263.605 155.272Z" fill="#46D593"/>
<path d="M268.19 155.335C270 155.339 271.063 153.886 271.063 151.354C271.063 148.842 270 147.392 268.19 147.392C266.38 147.392 265.317 148.842 265.317 151.362C265.317 153.886 266.38 155.335 268.19 155.335ZM268.19 154.167C267.217 154.167 266.654 153.146 266.654 151.362C266.654 149.574 267.217 148.545 268.19 148.545C269.159 148.545 269.723 149.574 269.726 151.362C269.726 153.146 269.163 154.167 268.19 154.167Z" fill="#46D593"/>
<path d="M272.199 153.762H275.868V155.189H277.198V153.762H278.182V152.616H277.198V147.497H275.462L272.199 152.654V153.762ZM275.883 152.616H273.626V152.556L275.823 149.074H275.883V152.616Z" fill="#46D593"/>
<path d="M282.08 155.189H283.474V152.59H284.946C286.722 152.59 287.68 151.52 287.676 150.043C287.68 148.571 286.734 147.497 284.965 147.497H282.08V155.189ZM283.474 151.444V148.661H284.751C285.795 148.661 286.261 149.232 286.257 150.043C286.261 150.87 285.795 151.444 284.758 151.444H283.474Z" fill="#46D593"/>
<path d="M289.017 155.189L289.652 153.292H292.544L293.183 155.189H294.67L291.958 147.497H290.238L287.53 155.189H289.017ZM290.028 152.173L291.068 149.074H291.128L292.168 152.173H290.028Z" fill="#46D593"/>
<path d="M295.683 155.189H297.076V152.297H298.526L300.047 155.189H301.602L299.935 152.064C300.825 151.685 301.317 150.911 301.317 149.912C301.317 148.447 300.336 147.497 298.65 147.497H295.683V155.189ZM297.076 151.204V148.661H298.552C299.409 148.661 299.89 149.142 299.89 149.938C299.89 150.72 299.428 151.204 298.489 151.204H297.076Z" fill="#46D593"/>
<path d="M302.265 148.665H304.643V155.189H306.025V148.665H308.402V147.497H302.265V148.665Z" fill="#46D593"/>
<path d="M256.99 103.56L275.366 134.898L263.828 91.5942" stroke="#46D593" stroke-width="0.6"/>
<path d="M289.549 126.492C295.842 126.492 300.943 121.391 300.943 115.098C300.943 108.805 295.842 103.704 289.549 103.704C283.256 103.704 278.154 108.805 278.154 115.098C278.154 121.391 283.256 126.492 289.549 126.492Z" stroke="#46D593" stroke-width="0.6"/>
<path d="M284.705 109.115C286.908 109.115 288.694 107.329 288.694 105.126C288.694 102.924 286.908 101.138 284.705 101.138C282.502 101.138 280.717 102.924 280.717 105.126C280.717 107.329 282.502 109.115 284.705 109.115Z" fill="#46D593"/>
</g>
<defs>
<clipPath id="clip0">
<rect width="420" height="300" fill="white"/>
</clipPath>
</defs>
</svg>
