<?xml version="1.0" standalone="no"?><!-- Generator: Gravit.io --><svg xmlns="http://www.w3.org/2000/svg" xmlns:xlink="http://www.w3.org/1999/xlink" style="isolation:isolate" viewBox="25.143 1532.143 43.715 43.715" width="43.715" height="43.715"><g id="on-horizon"><path d=" M 35.843 1554 C 35.843 1547.842 40.842 1542.843 47 1542.843 C 53.158 1542.843 58.157 1547.842 58.157 1554 C 58.157 1560.158 53.158 1565.157 47 1565.157 C 40.842 1565.157 35.843 1560.158 35.843 1554 Z " fill="none" vector-effect="non-scaling-stroke" stroke-width="1.716" stroke="rgb(0,0,0)" stroke-linejoin="miter" stroke-linecap="square" stroke-miterlimit="3"/><path d=" M 28.977 1554 C 28.977 1544.053 37.053 1535.977 47 1535.977 C 56.947 1535.977 65.023 1544.053 65.023 1554 C 65.023 1563.947 56.947 1572.023 47 1572.023 C 37.053 1572.023 28.977 1563.947 28.977 1554 Z " fill="none" vector-effect="non-scaling-stroke" stroke-width="2.575" stroke="rgb(0,0,0)" stroke-linejoin="miter" stroke-linecap="square" stroke-miterlimit="3"/><line x1="47" y1="1538.954" x2="47" y2="1533" vector-effect="non-scaling-stroke" stroke-width="1.716" stroke="rgb(0,0,0)" stroke-linejoin="miter" stroke-linecap="square" stroke-miterlimit="3"/><line x1="68" y1="1554" x2="62.046" y2="1554" vector-effect="non-scaling-stroke" stroke-width="1.716" stroke="rgb(0,0,0)" stroke-linejoin="miter" stroke-linecap="square" stroke-miterlimit="3"/><line x1="31.954" y1="1554" x2="26" y2="1554" vector-effect="non-scaling-stroke" stroke-width="1.716" stroke="rgb(0,0,0)" stroke-linejoin="miter" stroke-linecap="square" stroke-miterlimit="3"/><line x1="47" y1="1575" x2="47" y2="1569.046" vector-effect="non-scaling-stroke" stroke-width="1.716" stroke="rgb(0,0,0)" stroke-linejoin="miter" stroke-linecap="square" stroke-miterlimit="3"/></g></svg>