<svg width="40" height="40" viewBox="0 0 40 40" fill="none" xmlns="http://www.w3.org/2000/svg">
<path d="M17.1797 10.9229C16.188 10.4787 15.1197 10 13.3333 10C6.66667 10 5.00005 16.667 5 23.3333C4.99995 29.9997 10 38.3333 13.3333 38.3333C15.286 38.3333 16.6667 37.7615 17.8105 37.2877C18.6193 36.9527 19.3097 36.6667 20 36.6667C20.6903 36.6667 21.3807 36.9527 22.1895 37.2877C23.3333 37.7615 24.714 38.3333 26.6667 38.3333C29.0462 38.3333 32.2752 34.0868 33.9282 29.2312C34.0945 28.7422 33.755 28.2378 33.2563 28.103C30.4202 27.3365 28.3333 24.7453 28.3333 21.6667C28.3333 18.7617 30.1915 16.2905 32.7842 15.3771C33.2765 15.2036 33.5803 14.6645 33.3483 14.1968C32.1 11.6801 30.0133 10 26.6667 10C24.8803 10 23.812 10.4787 22.8203 10.9229C21.9615 11.3077 21.1603 11.6667 20 11.6667C18.8397 11.6667 18.0385 11.3077 17.1797 10.9229Z" fill="#FCFCFD"/>
<path d="M20 7.91666C20 4.46487 22.7982 1.66666 26.25 1.66666C26.4802 1.66666 26.6667 1.85321 26.6667 2.08332C26.6667 5.53511 23.8685 8.33332 20.4167 8.33332C20.1865 8.33332 20 8.14677 20 7.91666Z" fill="#FCFCFD"/>
</svg>
