<svg width="40" height="40" viewBox="0 0 40 40" fill="none" xmlns="http://www.w3.org/2000/svg">
<path d="M6.17187 7.90714C4.54014 8.15191 3.33301 9.55362 3.33301 11.2036V17.5C3.33301 17.9601 3.70611 18.3333 4.16634 18.3333H15.833C16.2932 18.3333 16.6663 17.9601 16.6663 17.5V7.30064C16.6663 6.79116 16.2132 6.40094 15.7094 6.47652L6.17187 7.90714Z" fill="#FCFCFD"/>
<path d="M20.7097 5.72657C20.3018 5.78776 20 6.13819 20 6.55069V17.5C20 17.9602 20.3732 18.3333 20.8333 18.3333H35.8333C36.2935 18.3333 36.6667 17.9602 36.6667 17.5V7.20366C36.6667 5.16576 34.8542 3.60489 32.8388 3.90719L20.7097 5.72657Z" fill="#FCFCFD"/>
<path d="M36.6667 22.5C36.6667 22.0398 36.2935 21.6667 35.8333 21.6667H20.8333C20.3732 21.6667 20 22.0398 20 22.5V33.4487C20 33.8612 20.3018 34.2117 20.7097 34.2728L32.8388 36.0922C34.8542 36.3945 36.6667 34.8337 36.6667 32.7957V22.5Z" fill="#FCFCFD"/>
<path d="M15.7094 33.5228C16.2132 33.5983 16.6663 33.2082 16.6663 32.6987V22.5C16.6663 22.0398 16.2932 21.6667 15.833 21.6667H4.16634C3.70611 21.6667 3.33301 22.0398 3.33301 22.5V28.7957C3.33301 30.4457 4.54014 31.8475 6.17187 32.0922L15.7094 33.5228Z" fill="#FCFCFD"/>
</svg>
