<svg width="92" height="29" viewBox="0 0 92 29" fill="none" xmlns="http://www.w3.org/2000/svg">
<path d="M11.5023 15.1611C11.5023 13.1309 10.1485 11.859 8.28102 11.859C6.41358 11.859 5.05972 13.1309 5.05972 15.1611C5.05972 17.1912 6.41358 18.4632 8.28102 18.4632C10.1485 18.4632 11.5023 17.1912 11.5023 15.1611ZM15.562 15.1611C15.562 19.1939 12.6387 22.307 9.09339 22.307C7.27965 22.307 5.9529 21.6842 5.05972 20.656V27.3416H1V8.39416H5.05972V9.66615C5.9529 8.63793 7.27965 8.0151 9.09339 8.0151C12.6387 8.0151 15.562 11.1282 15.562 15.1611Z" fill="white"/>
<path d="M27.8035 15.1609C27.8035 13.1308 26.4502 11.8588 24.583 11.8588C22.7153 11.8588 21.3617 13.1308 21.3617 15.1609C21.3617 17.191 22.7153 18.463 24.583 18.463C26.4502 18.463 27.8035 17.191 27.8035 15.1609ZM31.8641 8.39401V21.9278H27.8035V20.6558C26.9104 21.6841 25.5842 22.3069 23.7707 22.3069C20.2245 22.3069 17.3018 19.1938 17.3018 15.1609C17.3018 11.128 20.2245 8.01494 23.7707 8.01494C25.5842 8.01494 26.9104 8.63777 27.8035 9.66599V8.39401H31.8641Z" fill="white"/>
<path d="M43.1185 8.12331V12.7248C41.4401 12.4542 39.058 13.1307 39.058 15.8105V21.9277H34.998V8.39392H39.058V10.8031C39.5995 8.98964 41.413 8.12331 43.1185 8.12331Z" fill="white"/>
<path d="M50.6028 12.2918V17.0828C50.6028 18.2466 51.6045 18.3551 53.3911 18.2466V21.9278C48.0857 22.4693 46.5431 20.8724 46.5431 17.0828V12.2918H44.3779V8.39397H46.5431V5.82289L50.6028 4.6046V8.39397H53.3911V12.2918H50.6028Z" fill="white"/>
<path d="M56.1054 8.39392H60.1654V21.9277H56.1054V8.39392ZM55.6992 4.76671C55.6992 3.44049 56.8091 2.33067 58.1358 2.33067C59.4617 2.33067 60.5716 3.44049 60.5716 4.76671C60.5716 6.09292 59.4617 7.20275 58.1358 7.20275C56.8091 7.20275 55.6992 6.09292 55.6992 4.76671Z" fill="white"/>
<path d="M62.4609 15.1609C62.4609 11.128 65.5201 8.01494 69.6343 8.01494C72.2599 8.01494 74.5872 9.39564 75.7513 11.4797L72.2054 13.537C71.7455 12.5893 70.7707 12.021 69.5798 12.021C67.8206 12.021 66.5214 13.2935 66.5214 15.1609C66.5214 17.0284 67.8206 18.3006 69.5798 18.3006C70.7707 18.3006 71.7721 17.7325 72.2054 16.7849L75.7513 18.8152C74.5872 20.9262 72.2865 22.3069 69.6343 22.3069C65.5201 22.3069 62.4609 19.1938 62.4609 15.1609Z" fill="white"/>
<path d="M77.71 2.16824H81.77V21.9277H77.71V2.16824Z" fill="white"/>
<path d="M90.9997 15.161C90.9997 13.1309 89.6464 11.8589 87.7792 11.8589C85.9115 11.8589 84.5576 13.1309 84.5576 15.161C84.5576 17.1911 85.9115 18.4631 87.7792 18.4631C89.6464 18.4631 90.9997 17.1911 90.9997 15.161Z" fill="#45D492"/>
</svg>
