<svg width="714" height="287" viewBox="0 0 714 287" fill="none" xmlns="http://www.w3.org/2000/svg">
<path d="M365.977 144.818C365.977 135.931 360.05 130.362 351.875 130.362C343.699 130.362 337.773 135.931 337.773 144.818C337.773 153.706 343.699 159.274 351.875 159.274C360.05 159.274 365.977 153.706 365.977 144.818ZM383.749 144.818C383.749 162.473 370.952 176.102 355.431 176.102C347.491 176.102 341.683 173.375 337.773 168.874V198.142H320V115.194H337.773V120.763C341.683 116.261 347.491 113.535 355.431 113.535C370.952 113.535 383.749 127.163 383.749 144.818Z" fill="white"/>
<path d="M437.339 144.818C437.339 135.931 431.414 130.362 423.24 130.362C415.064 130.362 409.138 135.931 409.138 144.818C409.138 153.706 415.064 159.274 423.24 159.274C431.414 159.274 437.339 153.706 437.339 144.818ZM455.115 115.194V174.442H437.339V168.874C433.429 173.375 427.623 176.102 419.684 176.102C404.16 176.102 391.364 162.473 391.364 144.818C391.364 127.163 404.16 113.535 419.684 113.535C427.623 113.535 433.429 116.262 437.339 120.763V115.194H455.115Z" fill="white"/>
<path d="M504.383 114.009V134.153C497.035 132.969 486.607 135.93 486.607 147.662V174.442H468.833V115.194H486.607V125.741C488.977 117.802 496.916 114.009 504.383 114.009Z" fill="white"/>
<path d="M537.153 132.257V153.231C537.153 158.326 541.537 158.801 549.359 158.326V174.442C526.133 176.812 519.38 169.822 519.38 153.231V132.257H509.901V115.194H519.38V103.938L537.153 98.6047V115.194H549.359V132.257H537.153Z" fill="white"/>
<path d="M561.239 115.194H579.013V174.442H561.239V115.194ZM559.461 99.3153C559.461 93.5094 564.32 88.6509 570.128 88.6509C575.932 88.6509 580.791 93.5094 580.791 99.3153C580.791 105.121 575.932 109.98 570.128 109.98C564.32 109.98 559.461 105.121 559.461 99.3153Z" fill="white"/>
<path d="M589.061 144.818C589.061 127.163 602.453 113.535 620.464 113.535C631.958 113.535 642.147 119.579 647.243 128.703L631.719 137.709C629.706 133.56 625.439 131.072 620.225 131.072C612.524 131.072 606.837 136.643 606.837 144.818C606.837 152.994 612.524 158.563 620.225 158.563C625.439 158.563 629.823 156.076 631.719 151.928L647.243 160.816C642.147 170.057 632.074 176.102 620.464 176.102C602.453 176.102 589.061 162.473 589.061 144.818Z" fill="white"/>
<path d="M655.817 87.9398H673.591V174.442H655.817V87.9398Z" fill="white"/>
<path d="M714 144.818C714 135.931 708.075 130.362 699.901 130.362C691.725 130.362 685.798 135.931 685.798 144.818C685.798 153.706 691.725 159.274 699.901 159.274C708.075 159.274 714 153.706 714 144.818Z" fill="#45D492"/>
<path d="M164.222 176.458H99.0176V110.95H164.222V176.458ZM262.609 66.8257C259.913 51.228 251.338 36.4596 238.897 26.6356C227.35 17.1392 212.554 12.0369 197.627 12.0242C153.359 12.0104 109.053 11.9711 64.7847 12.0369C41.6771 12.2999 19.8453 25.6747 8.6012 45.7703C2.35449 56.5553 0.0126895 68.6807 0 81.0426C0.0265327 121.365 -0.0126895 161.713 0.0126895 202.036C-0.0657549 211.414 0.341464 220.422 3.27505 229.418C9.79748 250.263 27.3944 267.137 48.4106 273.015C42.0577 267.951 39.2441 260.903 37.1792 253.274C32.9051 236.546 32.5764 219.173 33.2604 202.036C33.1947 161.701 33.2858 121.365 33.2074 81.0426C33.2731 74.0991 33.7865 67.5756 37.3372 61.4338C42.8076 51.6363 53.4737 45.0862 64.7847 45.2316C106.856 45.2051 148.981 45.2443 191.051 45.2177C197.404 45.2316 203.177 44.7575 209.254 47.06C219.354 50.4124 227.363 59.4473 229.572 69.8378C230.822 75.9403 230.493 82.713 230.505 88.9332V207.297C230.505 213.11 229.862 218.791 227.363 224.104C222.208 234.888 211.056 242.372 198.97 242.149C165.669 242.201 132.33 242.135 99.0303 242.174C98.9657 231.325 98.9784 220.461 99.0176 209.599C126.201 209.599 153.373 209.559 180.557 209.625C186.409 209.941 193.143 206.982 195.839 201.59C197.364 198.841 197.614 195.907 197.68 192.843C197.653 159.952 197.667 127.073 197.667 94.1809C197.93 88.0922 194.984 82.66 189.592 79.7667C185.094 77.1504 180.28 77.8206 175.27 77.7283C144.153 77.8068 112.998 77.6891 81.8948 77.7941C72.9902 77.5703 65.5738 85.3167 65.8495 94.1809C65.718 141.434 65.8495 188.951 65.7837 236.23C66.0341 245.62 65.7307 254.524 71.1756 262.652C75.3055 269.372 82.2894 272.778 89.7981 274.265C98.6762 275.698 107.171 275.356 116.089 275.369C143.272 275.382 170.444 275.356 197.627 275.396C211.147 275.514 224.312 271.134 235.412 263.493C247.313 254.721 256.547 242.622 260.794 228.366C263.727 218.725 263.674 209.362 263.727 199.406C263.727 161.701 263.741 124.008 263.727 86.303C263.674 79.8325 263.609 73.2305 262.609 66.8257Z" fill="#46D593"/>
</svg>
