<svg width="707" height="287" fill="none" xmlns="http://www.w3.org/2000/svg"><path d="M365.955 144.91c0-8.897-5.933-14.471-14.116-14.471-8.184 0-14.117 5.574-14.117 14.471 0 8.896 5.933 14.472 14.117 14.472 8.183 0 14.116-5.576 14.116-14.472zm17.791 0c0 17.673-12.811 31.315-28.347 31.315-7.948 0-13.762-2.729-17.677-7.235v29.298h-17.79v-83.032h17.79v5.574c3.915-4.506 9.729-7.236 17.677-7.236 15.536 0 28.347 13.643 28.347 31.316zM437.39 144.91c0-8.897-5.93-14.471-14.113-14.471-8.185 0-14.116 5.574-14.116 14.471 0 8.896 5.931 14.472 14.116 14.472 8.183 0 14.113-5.576 14.113-14.472zm17.794-29.654v59.308H437.39v-5.574c-3.914 4.506-9.726 7.235-17.673 7.235-15.54 0-28.348-13.642-28.348-31.315 0-17.673 12.808-31.316 28.348-31.316 7.947 0 13.759 2.73 17.673 7.236v-5.574h17.794zM504.503 114.07v20.165c-7.356-1.186-17.795 1.778-17.795 13.522v26.807h-17.791v-59.308h17.791v10.557c2.373-7.948 10.32-11.743 17.795-11.743zM537.305 132.337v20.995c0 5.1 4.39 5.574 12.219 5.1v16.132c-23.249 2.373-30.009-4.625-30.009-21.232v-20.995h-9.489v-17.081h9.489v-11.269l17.79-5.337v16.606h12.219v17.081h-12.219zM561.418 115.256h17.792v59.308h-17.792v-59.308zm-1.78-15.894c0-5.812 4.863-10.676 10.677-10.676 5.811 0 10.675 4.864 10.675 10.675 0 5.812-4.864 10.676-10.675 10.676-5.814 0-10.677-4.864-10.677-10.675zM589.267 144.91c0-17.673 13.406-31.316 31.436-31.316 11.505 0 21.704 6.051 26.806 15.184l-15.539 9.015c-2.016-4.153-6.287-6.642-11.506-6.642-7.71 0-13.403 5.575-13.403 13.759 0 8.185 5.693 13.76 13.403 13.76 5.219 0 9.607-2.491 11.506-6.644l15.539 8.898c-5.102 9.251-15.184 15.301-26.806 15.301-18.03 0-31.436-13.642-31.436-31.315zM656.093 87.973h17.792v86.591h-17.792v-86.59z" fill="#212120"/><path d="M684.648 142.2c0-5.811 4.864-10.675 10.678-10.675 5.811 0 10.674 4.864 10.674 10.675 0 5.812-4.863 10.676-10.674 10.676-5.814 0-10.678-4.864-10.678-10.676zM164.222 175.977H99.018v-65.508h65.204v65.508zm98.387-109.631c-2.696-15.598-11.271-30.367-23.712-40.19-11.547-9.497-26.343-14.6-41.27-14.612-44.268-.014-88.574-.053-132.842.013C41.677 11.82 19.845 25.195 8.6 45.29 2.354 56.075.013 68.2 0 80.563c.027 40.322-.013 80.67.013 120.993-.079 9.378.328 18.386 3.262 27.382 6.522 20.845 24.12 37.719 45.136 43.596-6.353-5.063-9.167-12.111-11.232-19.74-4.274-16.728-4.603-34.101-3.919-51.238-.065-40.335.026-80.671-.053-120.994.066-6.943.58-13.467 4.13-19.608 5.47-9.798 16.137-16.348 27.448-16.203 42.071-.026 84.196.013 126.266-.013 6.353.013 12.126-.46 18.203 1.842 10.1 3.352 18.109 12.387 20.318 22.778 1.249 6.102.921 12.875.933 19.095v118.363c0 5.813-.643 11.495-3.142 16.808-5.155 10.784-16.307 18.267-28.393 18.045-33.301.052-66.64-.014-99.94.025a3407.466 3407.466 0 0 1-.012-32.575c27.183 0 54.355-.04 81.539.025 5.852.316 12.586-2.643 15.282-8.034 1.525-2.749 1.775-5.683 1.841-8.747-.027-32.891-.013-65.77-.013-98.662.263-6.089-2.683-11.521-8.075-14.414-4.498-2.617-9.312-1.947-14.322-2.039-31.117.079-62.272-.039-93.375.066C72.99 77.09 65.574 84.837 65.85 93.7c-.132 47.253 0 94.77-.066 142.049.25 9.39-.053 18.293 5.392 26.422 4.13 6.719 11.113 10.126 18.622 11.613 8.878 1.433 17.373 1.091 26.29 1.104 27.184.013 54.356-.013 81.539.026 13.52.119 26.685-4.261 37.785-11.902 11.901-8.772 21.135-20.871 25.382-35.127 2.933-9.641 2.88-19.005 2.933-28.96 0-37.705.013-75.398 0-113.103-.053-6.47-.118-13.073-1.118-19.477" fill="#46D593"/><path d="M365.955 144.91c0-8.897-5.933-14.471-14.116-14.471-8.184 0-14.117 5.574-14.117 14.471 0 8.896 5.933 14.472 14.117 14.472 8.183 0 14.116-5.576 14.116-14.472zm17.791 0c0 17.673-12.811 31.315-28.347 31.315-7.948 0-13.762-2.729-17.677-7.235v29.298h-17.79v-83.033h17.79v5.575c3.915-4.506 9.729-7.236 17.677-7.236 15.536 0 28.347 13.643 28.347 31.316zM437.39 144.91c0-8.897-5.93-14.471-14.113-14.471-8.185 0-14.116 5.574-14.116 14.471 0 8.896 5.931 14.472 14.116 14.472 8.183 0 14.113-5.576 14.113-14.472zm17.794-29.655v59.309H437.39v-5.574c-3.914 4.506-9.726 7.235-17.673 7.235-15.54 0-28.348-13.642-28.348-31.315 0-17.673 12.808-31.316 28.348-31.316 7.947 0 13.759 2.73 17.673 7.236v-5.575h17.794zM504.503 114.07v20.164c-7.356-1.185-17.795 1.779-17.795 13.523v26.807h-17.791v-59.308h17.791v10.557c2.373-7.948 10.32-11.743 17.795-11.743zM537.305 132.337v20.995c0 5.1 4.39 5.574 12.219 5.1v16.132c-23.249 2.373-30.009-4.625-30.009-21.232v-20.995h-9.489v-17.081h9.489v-11.269l17.79-5.337v16.606h12.219v17.081h-12.219zM561.418 115.255h17.792v59.309h-17.792v-59.309zm-1.78-15.894c0-5.812 4.863-10.675 10.677-10.675 5.811 0 10.675 4.863 10.675 10.675s-4.864 10.676-10.675 10.676c-5.814 0-10.677-4.864-10.677-10.676zM589.267 144.91c0-17.673 13.406-31.316 31.436-31.316 11.505 0 21.704 6.051 26.806 15.184l-15.539 9.015c-2.016-4.153-6.287-6.642-11.506-6.642-7.71 0-13.403 5.575-13.403 13.759 0 8.185 5.693 13.76 13.403 13.76 5.219 0 9.607-2.491 11.506-6.644l15.539 8.898c-5.102 9.251-15.184 15.301-26.806 15.301-18.03 0-31.436-13.642-31.436-31.315zM656.093 87.973h17.792v86.591h-17.792V87.973z" fill="#212121"/><path d="M684.648 142.2c0-5.811 4.864-10.675 10.678-10.675 5.811 0 10.674 4.864 10.674 10.675 0 5.812-4.863 10.676-10.674 10.676-5.814 0-10.678-4.864-10.678-10.676zM164.222 175.977H99.018v-65.508h65.204v65.508zm98.387-109.631c-2.696-15.598-11.271-30.367-23.712-40.19-11.547-9.497-26.343-14.6-41.27-14.612-44.268-.014-88.574-.053-132.842.013C41.677 11.82 19.845 25.195 8.6 45.29 2.354 56.075.013 68.2 0 80.563c.027 40.322-.013 80.67.013 120.993-.079 9.378.328 18.386 3.262 27.382 6.522 20.845 24.12 37.719 45.136 43.596-6.353-5.063-9.167-12.111-11.232-19.74-4.274-16.728-4.603-34.101-3.919-51.238-.065-40.335.026-80.671-.053-120.994.066-6.943.58-13.467 4.13-19.608 5.47-9.798 16.137-16.348 27.448-16.203 42.071-.026 84.196.013 126.266-.013 6.353.013 12.126-.46 18.203 1.842 10.1 3.352 18.109 12.387 20.318 22.778 1.249 6.102.921 12.875.933 19.095v118.363c0 5.813-.643 11.495-3.142 16.808-5.155 10.784-16.307 18.267-28.393 18.045-33.301.052-66.64-.014-99.94.025a3407.466 3407.466 0 0 1-.012-32.575c27.183 0 54.355-.04 81.539.025 5.852.316 12.586-2.643 15.282-8.034 1.525-2.749 1.775-5.683 1.841-8.747-.027-32.891-.013-65.77-.013-98.662.263-6.089-2.683-11.521-8.075-14.414-4.498-2.617-9.312-1.947-14.322-2.039-31.117.079-62.272-.039-93.375.066C72.99 77.09 65.574 84.837 65.85 93.7c-.132 47.253 0 94.77-.066 142.049.25 9.39-.053 18.293 5.392 26.422 4.13 6.719 11.113 10.126 18.622 11.613 8.878 1.433 17.373 1.091 26.29 1.104 27.184.013 54.356-.013 81.539.026 13.52.119 26.685-4.261 37.785-11.902 11.901-8.772 21.135-20.871 25.382-35.127 2.933-9.641 2.88-19.005 2.933-28.96 0-37.705.013-75.398 0-113.103-.053-6.47-.118-13.073-1.118-19.477" fill="#46D593"/></svg>