<svg width="92" height="29" fill="none" xmlns="http://www.w3.org/2000/svg"><path d="M11.729 14.666c0-2.074-1.383-3.373-3.29-3.373-1.909 0-3.292 1.3-3.292 3.373 0 2.074 1.383 3.374 3.291 3.374s3.291-1.3 3.291-3.374zm4.147 0c0 4.12-2.986 7.3-6.608 7.3-1.853 0-3.208-.636-4.12-1.686v6.83H1V7.753h4.147v1.3c.913-1.05 2.268-1.687 4.121-1.687 3.622 0 6.608 3.18 6.608 7.3zM28.382 14.666c0-2.074-1.383-3.373-3.29-3.373-1.908 0-3.291 1.3-3.291 3.373 0 2.074 1.383 3.374 3.29 3.374 1.908 0 3.29-1.3 3.29-3.374zm4.148-6.913V21.58h-4.148v-1.3c-.913 1.051-2.268 1.687-4.12 1.687-3.623 0-6.609-3.18-6.609-7.3 0-4.12 2.986-7.3 6.609-7.3 1.852 0 3.207.636 4.12 1.687v-1.3h4.148zM44.027 7.477v4.7c-1.715-.276-4.148.415-4.148 3.153v6.25H35.73V7.752h4.148v2.461c.553-1.853 2.405-2.737 4.148-2.737zM51.674 11.735v4.895c0 1.189 1.023 1.299 2.849 1.189v3.76c-5.42.553-6.996-1.078-6.996-4.95v-4.894h-2.212V7.753h2.212V5.126l4.147-1.244v3.871h2.849v3.982h-2.849zM57.295 7.753h4.148V21.58h-4.148V7.753zm-.415-3.705c0-1.355 1.134-2.489 2.49-2.489 1.354 0 2.487 1.134 2.487 2.489s-1.133 2.489-2.488 2.489-2.49-1.134-2.49-2.49zM63.787 14.666c0-4.12 3.125-7.3 7.328-7.3 2.683 0 5.06 1.41 6.25 3.54l-3.623 2.101c-.47-.968-1.466-1.548-2.682-1.548-1.798 0-3.125 1.3-3.125 3.207 0 1.908 1.327 3.208 3.125 3.208 1.216 0 2.24-.58 2.682-1.549l3.622 2.074c-1.189 2.157-3.54 3.567-6.249 3.567-4.203 0-7.328-3.18-7.328-7.3zM79.365 1.393h4.148V21.58h-4.148V1.393z" fill="#fff"/><path d="M86.022 14.034c0-1.354 1.134-2.488 2.49-2.488 1.355 0 2.488 1.134 2.488 2.489 0 1.354-1.133 2.488-2.488 2.488-1.356 0-2.49-1.134-2.49-2.489z" fill="#46D593"/></svg>