<?xml version="1.0" encoding="UTF-8" standalone="no"?>
<svg
   xmlns:dc="http://purl.org/dc/elements/1.1/"
   xmlns:cc="http://creativecommons.org/ns#"
   xmlns:rdf="http://www.w3.org/1999/02/22-rdf-syntax-ns#"
   xmlns:svg="http://www.w3.org/2000/svg"
   xmlns="http://www.w3.org/2000/svg"
   viewBox="0 0 92 29"
   height="29"
   width="92"
   xml:space="preserve"
   id="svg2"
   version="1.1"><metadata
     id="metadata8"><rdf:RDF><cc:Work
         rdf:about=""><dc:format>image/svg+xml</dc:format><dc:type
           rdf:resource="http://purl.org/dc/dcmitype/StillImage" /><dc:title></dc:title></cc:Work></rdf:RDF></metadata><defs
     id="defs6" /><g
     transform="matrix(1.3333333,0,0,-1.3333333,-226.74893,171.62939)"
     id="g10"><g
       transform="scale(0.1)"
       id="g12"><g
         transform="matrix(0.24702911,0,0,0.24702911,1075.3456,910.11961)"
         id="g851"><path
           d="m 2702.58,1131.24 c -20.15,-20.15 -29.78,-48.19 -29.78,-71.85 0,-24.53 9.63,-49.94 28.04,-69.21 18.39,-18.399 44.67,-29.789 71.83,-29.789 23.66,0 49.07,9.64 67.47,27.16 20.15,19.279 30.67,49.069 30.67,74.469 0,28.92 -12.27,54.33 -29.79,70.97 -18.41,17.53 -42.94,27.16 -68.35,27.16 -35.04,0 -57.82,-16.64 -70.09,-28.91 z m -21.02,-466.99 h -126.17 v 591.41 h 126.17 v -46.44 c 41.18,53.44 91.99,59.58 121.79,59.58 70.08,0 113.89,-30.67 138.42,-55.2 35.05,-35.05 58.7,-88.49 58.7,-152.45 0,-67.47 -23.65,-118.279 -62.2,-156.83 -38.55,-38.558 -80.61,-52.582 -132.3,-52.582 -77.98,0 -111.27,39.434 -124.41,57.832 V 664.25"
           style="fill:#ffffff;fill-opacity:1;fill-rule:nonzero;stroke:none"
           id="path14" /><path
           d="m 3218.68,1132.11 c -13.15,-13.13 -28.92,-35.92 -28.92,-70.96 0,-35.05 14.89,-57.83 26.28,-70.091 17.53,-18.399 44.69,-30.668 74.47,-30.668 25.41,0 49.08,10.507 65.72,27.16 16.65,15.769 30.67,40.299 30.67,73.599 0,28.03 -10.52,54.32 -28.92,71.84 -19.27,18.4 -47.31,27.16 -70.09,27.16 -27.16,0 -52.57,-11.38 -69.21,-28.04 z m 160.33,123.55 h 126.17 V 864.891 h -126.17 v 47.308 c -34.17,-52.57 -83.23,-60.461 -115.65,-60.461 -56.08,0 -103.39,14.024 -146.32,59.582 -41.18,43.809 -56.96,94.63 -56.96,146.32 0,65.71 24.54,121.79 60.46,157.71 34.17,34.17 81.49,53.45 135.8,53.45 33.3,0 86.75,-7.89 122.67,-56.95 v 43.81"
           style="fill:#ffffff;fill-opacity:1;fill-rule:nonzero;stroke:none"
           id="path16" /><path
           d="m 3603.34,1255.66 h 126.17 v -61.33 c 11.38,21.9 28.9,42.05 49.06,54.32 21.03,13.14 42.93,16.64 67.46,16.64 15.77,0 27.17,-1.75 41.18,-6.13 l -7.01,-118.28 c -16.64,8.76 -35.04,14.02 -56.94,14.02 -27.17,0 -47.32,-9.64 -63.09,-26.29 -28.04,-29.79 -30.66,-71.84 -30.66,-105.14 V 864.891 h -126.17 v 390.769"
           style="fill:#ffffff;fill-opacity:1;fill-rule:nonzero;stroke:none"
           id="path18" /><path
           d="M 4097.51,1154.02 V 864.891 h -126.18 v 289.129 h -43.8 v 101.64 h 43.8 v 126.16 h 126.18 v -126.16 h 77.97 v -101.64 h -77.97"
           style="fill:#ffffff;fill-opacity:1;fill-rule:nonzero;stroke:none"
           id="path20" /><path
           d="M 4364.75,1255.66 V 864.891 h -126.17 v 390.769 z m -63.08,240.06 c 41.18,0 73.6,-32.42 73.6,-73.59 0,-41.18 -32.42,-73.6 -73.6,-73.6 -41.19,0 -73.6,32.42 -73.6,73.6 0,41.17 32.41,73.59 73.6,73.59"
           style="fill:#ffffff;fill-opacity:1;fill-rule:nonzero;stroke:none"
           id="path22" /><path
           d="m 4765.16,1132.11 c -30.66,25.41 -62.21,29.8 -82.36,29.8 -39.43,0 -63.08,-19.28 -71.84,-28.04 -16.65,-16.65 -28.91,-42.06 -28.91,-73.6 0,-28.91 10.5,-53.44 26.28,-70.09 19.27,-21.032 48.19,-31.539 76.23,-31.539 21.9,0 51.69,6.129 80.6,30.66 V 875.398 c -33.29,-18.398 -64.83,-23.66 -99.88,-23.66 -65.71,0 -115.66,23.66 -151.57,58.711 -29.8,28.91 -61.34,77.981 -61.34,148.941 0,66.59 28.04,119.16 64.84,154.21 43.81,41.18 95.5,55.2 148.95,55.2 34.17,0 65.71,-6.14 99,-21.91 v -114.78"
           style="fill:#ffffff;fill-opacity:1;fill-rule:nonzero;stroke:none"
           id="path24" /><path
           d="M 4978.97,1503.61 V 864.891 H 4852.8 v 638.719 h 126.17"
           style="fill:#ffffff;fill-opacity:1;fill-rule:nonzero;stroke:none"
           id="path26" /><path
           d="m 5108.96,1191.62 c 41.68,43.83 111.01,45.58 154.84,3.89 43.84,-41.68 45.58,-111.01 3.9,-154.85 -41.69,-43.832 -111.01,-45.57 -154.85,-3.89 -43.83,41.68 -45.58,111.01 -3.89,154.85"
           style="fill:#03e8b0;fill-opacity:1;fill-rule:nonzero;stroke:none"
           id="path28" /></g></g></g></svg>