<svg width="707" height="287" fill="none" xmlns="http://www.w3.org/2000/svg"><g clip-path="url(#clip0)"><path d="M365.955 145.39c0-8.896-5.932-14.471-14.116-14.471s-14.117 5.575-14.117 14.471c0 8.897 5.933 14.472 14.117 14.472 8.184 0 14.116-5.575 14.116-14.472zm17.791 0c0 17.673-12.81 31.316-28.347 31.316-7.948 0-13.762-2.73-17.677-7.236v29.298h-17.79v-83.032h17.79v5.574c3.915-4.506 9.729-7.235 17.677-7.235 15.537 0 28.347 13.642 28.347 31.315zM437.391 145.39c0-8.896-5.931-14.471-14.113-14.471-8.185 0-14.117 5.575-14.117 14.471 0 8.897 5.932 14.472 14.117 14.472 8.182 0 14.113-5.575 14.113-14.472zm17.794-29.654v59.308h-17.794v-5.574c-3.915 4.506-9.726 7.236-17.673 7.236-15.54 0-28.349-13.643-28.349-31.316s12.809-31.315 28.349-31.315c7.947 0 13.758 2.729 17.673 7.235v-5.574h17.794zM504.503 114.55v20.165c-7.356-1.186-17.795 1.779-17.795 13.522v26.808h-17.791v-59.309h17.791v10.558c2.373-7.949 10.32-11.744 17.795-11.744zM537.306 132.817v20.996c0 5.1 4.389 5.574 12.219 5.1v16.131c-23.25 2.373-30.01-4.624-30.01-21.231v-20.996h-9.488v-17.081h9.488v-11.268l17.791-5.338v16.606h12.219v17.081h-12.219zM561.418 115.736h17.792v59.309h-17.792v-59.309zm-1.78-15.894c0-5.812 4.863-10.676 10.677-10.676 5.811 0 10.675 4.864 10.675 10.676s-4.864 10.675-10.675 10.675c-5.814 0-10.677-4.863-10.677-10.675zM589.267 145.39c0-17.673 13.406-31.315 31.436-31.315 11.505 0 21.704 6.05 26.806 15.183l-15.539 9.016c-2.016-4.153-6.287-6.643-11.506-6.643-7.71 0-13.403 5.575-13.403 13.759 0 8.185 5.693 13.76 13.403 13.76 5.219 0 9.607-2.49 11.506-6.643l15.539 8.897c-5.102 9.251-15.184 15.302-26.806 15.302-18.03 0-31.436-13.643-31.436-31.316zM656.093 88.453h17.792v86.592h-17.792V88.453z" fill="#fff"/><path d="M684.648 142.681c0-5.812 4.864-10.676 10.678-10.676 5.812 0 10.674 4.864 10.674 10.676s-4.862 10.675-10.674 10.675c-5.814 0-10.678-4.863-10.678-10.675zM164.222 176.458H99.018V110.95h65.204v65.508zm98.387-109.632c-2.696-15.598-11.271-30.366-23.712-40.19-11.547-9.497-26.343-14.599-41.27-14.612-44.268-.013-88.574-.053-132.842.013C41.677 12.3 19.845 25.675 8.6 45.77 2.354 56.555.013 68.68 0 81.043c.027 40.322-.013 80.671.013 120.993-.079 9.378.328 18.386 3.262 27.382 6.522 20.846 24.12 37.719 45.136 43.597-6.353-5.063-9.167-12.112-11.232-19.741-4.274-16.728-4.603-34.101-3.919-51.238-.065-40.335.026-80.671-.053-120.993.066-6.944.58-13.467 4.13-19.61 5.47-9.797 16.137-16.347 27.448-16.201 42.071-.027 84.196.012 126.266-.014 6.353.014 12.126-.46 18.203 1.842 10.1 3.352 18.109 12.387 20.318 22.778 1.25 6.102.921 12.875.933 19.095v118.364c0 5.813-.643 11.494-3.142 16.808-5.155 10.783-16.307 18.267-28.393 18.044-33.301.052-66.64-.014-99.94.026-.064-10.85-.052-21.713-.012-32.576 27.183 0 54.355-.04 81.539.026 5.852.316 12.586-2.643 15.282-8.035 1.525-2.749 1.775-5.683 1.841-8.747-.027-32.891-.013-65.77-.013-98.662.263-6.089-2.683-11.52-8.075-14.414-4.498-2.617-9.312-1.946-14.322-2.038-31.117.078-62.272-.04-93.375.065-8.905-.224-16.321 7.523-16.045 16.387-.132 47.254 0 94.77-.066 142.049.25 9.39-.053 18.294 5.392 26.422 4.13 6.72 11.113 10.126 18.622 11.613 8.878 1.433 17.373 1.091 26.291 1.104 27.183.013 54.355-.013 81.538.027 13.52.119 26.685-4.262 37.785-11.903 11.901-8.772 21.135-20.871 25.382-35.127 2.933-9.641 2.88-19.004 2.933-28.96 0-37.705.014-75.398 0-113.103-.053-6.47-.118-13.072-1.118-19.477" fill="#46D593"/><path d="M365.955 145.39c0-8.896-5.932-14.471-14.116-14.471s-14.117 5.575-14.117 14.471c0 8.897 5.933 14.472 14.117 14.472 8.184 0 14.116-5.575 14.116-14.472zm17.791 0c0 17.673-12.81 31.316-28.347 31.316-7.948 0-13.762-2.73-17.677-7.236v29.298h-17.79v-83.032h17.79v5.574c3.915-4.506 9.729-7.235 17.677-7.235 15.537 0 28.347 13.642 28.347 31.315zM437.391 145.39c0-8.896-5.931-14.471-14.113-14.471-8.185 0-14.117 5.575-14.117 14.471 0 8.897 5.932 14.472 14.117 14.472 8.182 0 14.113-5.575 14.113-14.472zm17.794-29.654v59.308h-17.794v-5.574c-3.915 4.506-9.726 7.236-17.673 7.236-15.54 0-28.349-13.643-28.349-31.316s12.809-31.315 28.349-31.315c7.947 0 13.758 2.729 17.673 7.235v-5.574h17.794zM504.503 114.55v20.165c-7.356-1.186-17.795 1.779-17.795 13.522v26.808h-17.791v-59.309h17.791v10.558c2.373-7.949 10.32-11.744 17.795-11.744zM537.306 132.817v20.996c0 5.1 4.389 5.574 12.219 5.1v16.131c-23.25 2.373-30.01-4.624-30.01-21.231v-20.996h-9.488v-17.081h9.488v-11.268l17.791-5.338v16.606h12.219v17.081h-12.219zM561.418 115.736h17.792v59.309h-17.792v-59.309zm-1.78-15.894c0-5.812 4.863-10.676 10.677-10.676 5.811 0 10.675 4.864 10.675 10.676s-4.864 10.675-10.675 10.675c-5.814 0-10.677-4.863-10.677-10.675zM589.267 145.39c0-17.673 13.406-31.315 31.436-31.315 11.505 0 21.704 6.05 26.806 15.183l-15.539 9.016c-2.016-4.153-6.287-6.643-11.506-6.643-7.71 0-13.403 5.575-13.403 13.759 0 8.185 5.693 13.76 13.403 13.76 5.219 0 9.607-2.49 11.506-6.643l15.539 8.897c-5.102 9.251-15.184 15.302-26.806 15.302-18.03 0-31.436-13.643-31.436-31.316zM656.093 88.453h17.792v86.592h-17.792V88.453z" fill="#fff"/><path d="M684.648 142.681c0-5.812 4.864-10.676 10.678-10.676 5.812 0 10.674 4.864 10.674 10.676s-4.862 10.675-10.674 10.675c-5.814 0-10.678-4.863-10.678-10.675zM164.222 176.458H99.018V110.95h65.204v65.508zm98.387-109.632c-2.696-15.598-11.271-30.366-23.712-40.19-11.547-9.497-26.343-14.599-41.27-14.612-44.268-.013-88.574-.053-132.842.013C41.677 12.3 19.845 25.675 8.6 45.77 2.354 56.555.013 68.68 0 81.043c.027 40.322-.013 80.671.013 120.993-.079 9.378.328 18.386 3.262 27.382 6.522 20.846 24.12 37.719 45.136 43.597-6.353-5.063-9.167-12.112-11.232-19.741-4.274-16.728-4.603-34.101-3.919-51.238-.065-40.335.026-80.671-.053-120.993.066-6.944.58-13.467 4.13-19.61 5.47-9.797 16.137-16.347 27.448-16.201 42.071-.027 84.196.012 126.266-.014 6.353.014 12.126-.46 18.203 1.842 10.1 3.352 18.109 12.387 20.318 22.778 1.25 6.102.921 12.875.933 19.095v118.364c0 5.813-.643 11.494-3.142 16.808-5.155 10.783-16.307 18.267-28.393 18.044-33.301.052-66.64-.014-99.94.026-.064-10.85-.052-21.713-.012-32.576 27.183 0 54.355-.04 81.539.026 5.852.316 12.586-2.643 15.282-8.035 1.525-2.749 1.775-5.683 1.841-8.747-.027-32.891-.013-65.77-.013-98.662.263-6.089-2.683-11.52-8.075-14.414-4.498-2.617-9.312-1.946-14.322-2.038-31.117.078-62.272-.04-93.375.065-8.905-.224-16.321 7.523-16.045 16.387-.132 47.254 0 94.77-.066 142.049.25 9.39-.053 18.294 5.392 26.422 4.13 6.72 11.113 10.126 18.622 11.613 8.878 1.433 17.373 1.091 26.291 1.104 27.183.013 54.355-.013 81.538.027 13.52.119 26.685-4.262 37.785-11.903 11.901-8.772 21.135-20.871 25.382-35.127 2.933-9.641 2.88-19.004 2.933-28.96 0-37.705.014-75.398 0-113.103-.053-6.47-.118-13.072-1.118-19.477" fill="#46D593"/></g><defs><clipPath id="clip0"><path fill="#fff" d="M0 0h706.387v286.96H0z"/></clipPath></defs></svg>