<svg xmlns="http://www.w3.org/2000/svg" viewBox="0 0 22.997 21.93"><path d="M19.979 0H3.018A3.022 3.022 0 0 0 0 3.018v11.357a3.022 3.022 0 0 0 3.018 3.018H9.49l4.927 4.292a1.003 1.003 0 0 0 1.071.156 1 1 0 0 0 .586-.91v-3.538h3.905a3.022 3.022 0 0 0 3.018-3.018V3.018A3.02 3.02 0 0 0 19.979 0zm1.018 14.375c0 .562-.456 1.018-1.018 1.018h-4.905a1 1 0 0 0-1 1v2.34l-3.553-3.094a1.001 1.001 0 0 0-.657-.246H3.018A1.019 1.019 0 0 1 2 14.375V3.018C2 2.457 2.456 2 3.018 2H19.98c.562 0 1.018.457 1.018 1.018v11.357z"/><path d="M14.751 4.677h-1.596L12.7 6.476h-1.308l.443-1.799H10.23l-.445 1.799H8.466v1.379h.996l-.365 1.517H7.826v1.403h.911l-.396 1.619h1.595l.396-1.619h1.319l-.396 1.619h1.607l.396-1.619h1.271V9.372h-.947l.376-1.505h1.212V6.476h-.864l.445-1.799zm-2.68 4.779H10.56l.413-1.697h1.512l-.414 1.697z"/></svg>