<svg id="Vrstva_1" xmlns="http://www.w3.org/2000/svg" viewBox="0 0 24.314 23.714"><style>.st0{fill-rule:evenodd;clip-rule:evenodd}</style><path class="st0" d="M12.156 0C5.442 0 0 5.443 0 12.158c0 5.371 3.482 9.926 8.314 11.535.608.112.83-.264.83-.586 0-.288-.011-1.054-.018-2.067-3.381.734-4.095-1.63-4.095-1.63-.553-1.404-1.35-1.778-1.35-1.778-1.104-.754.083-.739.083-.739 1.221.087 1.862 1.253 1.862 1.253 1.085 1.857 2.845 1.321 3.538 1.011.111-.786.425-1.322.772-1.625-2.698-.309-5.536-1.352-5.536-6.01 0-1.327.475-2.412 1.252-3.263-.125-.307-.543-1.543.118-3.216 0 0 1.021-.328 3.344 1.246.97-.27 2.01-.404 3.044-.41 1.031.006 2.072.14 3.043.41 2.321-1.574 3.34-1.246 3.34-1.246.663 1.674.246 2.909.121 3.217.778.851 1.25 1.936 1.25 3.263 0 4.67-2.843 5.698-5.551 5.999.437.375.825 1.117.825 2.251 0 1.625-.015 2.937-.015 3.335 0 .325.218.703.836.584 4.826-1.611 8.307-6.165 8.307-11.533C24.314 5.443 18.871 0 12.156 0"/></svg>