<svg xmlns="http://www.w3.org/2000/svg" viewBox="0 0 16.453 13.885"><path d="M16.453 6.757c0-1.045-.85-1.895-1.895-1.895-.465 0-.903.168-1.249.473-1.232-.789-2.868-1.296-4.676-1.364L9.711.908l2.693.644a1.55 1.55 0 0 0 1.548 1.545A1.55 1.55 0 0 0 15.5 1.549 1.55 1.55 0 0 0 13.951 0c-.648 0-1.203.4-1.434.966L9.327.203 8.003 3.966c-1.883.035-3.592.545-4.87 1.358a1.88 1.88 0 0 0-1.238-.462C.85 4.862 0 5.712 0 6.757 0 7.404.333 8 .872 8.347c-.033.19-.052.382-.052.577 0 2.736 3.316 4.961 7.392 4.961s7.392-2.226 7.392-4.961c0-.189-.017-.376-.048-.56.554-.345.897-.95.897-1.607zM13.951.595a.954.954 0 0 1 0 1.906.954.954 0 0 1 0-1.906zM.595 6.757a1.301 1.301 0 0 1 2.029-1.076c-.75.581-1.302 1.28-1.587 2.049a1.3 1.3 0 0 1-.442-.973zm7.618 6.532c-3.748 0-6.797-1.958-6.797-4.366 0-2.407 3.049-4.366 6.797-4.366s6.797 1.958 6.797 4.366c-.001 2.408-3.05 4.366-6.797 4.366zm7.181-5.54c-.28-.772-.83-1.473-1.579-2.057a1.301 1.301 0 0 1 2.043 1.065 1.3 1.3 0 0 1-.464.992z"/><circle cx="5.864" cy="8.047" r="1.165"/><circle cx="10.726" cy="8.047" r="1.165"/><path d="M10.529 10.784c-.007.007-.715.705-2.331.705-1.588 0-2.221-.674-2.238-.692a.298.298 0 0 0-.451.389c.031.037.791.899 2.689.899 1.889 0 2.724-.85 2.759-.887a.296.296 0 0 0-.008-.418.297.297 0 0 0-.42.004z"/></svg>