<svg version="1.1" id="Layer_1" xmlns="http://www.w3.org/2000/svg" xmlns:xlink="http://www.w3.org/1999/xlink" x="0px" y="0px" width="277px" height="236px" viewBox="0 0 277 236" enable-background="new 0 0 277 236" xml:space="preserve">
<path id="Oval-11" fill="none" stroke="#DDDDDD" d="M141.736,119.676c-40.359,0-73.077,43.946-73.077,98.156"/>
<path id="Oval-11_1_" fill="none" stroke="#DDDDDD" d="M141.049,119.676c-59.315,0-107.4,26.052-107.4,58.188"/>
<path id="Oval-11_2_" fill="none" stroke="#DDDDDD" d="M141.736,119.088c-40.359,0-73.077-43.946-73.077-98.157"/>
<path id="Oval-11_3_" fill="none" stroke="#DDDDDD" d="M141.049,119.088c-59.315,0-107.4-26.052-107.4-58.189"/>
<ellipse id="Oval-Copy-5" fill="#FFFFFF" stroke="#DDDDDD" cx="34.396" cy="63.874" rx="20.5" ry="20.554"/>
<ellipse id="Oval-Copy-6" fill="#FFFFFF" stroke="#DDDDDD" cx="34.396" cy="173.198" rx="20.5" ry="20.554"/>
<ellipse id="Oval-Copy-7" fill="#FFFFFF" stroke="#DDDDDD" cx="70.741" cy="214.342" rx="20.5" ry="20.555"/>
<ellipse id="Oval-Copy-8" fill="#FFFFFF" stroke="#DDDDDD" cx="70.741" cy="21.554" rx="20.5" ry="20.554"/>
<path id="Line-5" fill="#FFFFFF" stroke="#DDDDDD" d="M141.361,119.088H19.689"/>
<ellipse id="Oval-Copy-4" fill="#FFFFFF" stroke="#DDDDDD" cx="21.5" cy="119.124" rx="20.5" ry="20.554"/>
<path id="Oval-11_4_" fill="none" stroke="#DDDDDD" d="M132.264,119.676c40.359,0,73.076,43.946,73.076,98.156"/>
<path id="Oval-11_5_" fill="none" stroke="#DDDDDD" d="M132.951,119.676c59.316,0,107.401,26.052,107.401,58.188"/>
<path id="Oval-11_6_" fill="none" stroke="#DDDDDD" d="M132.264,119.088c40.359,0,73.076-43.946,73.076-98.157"/>
<path id="Oval-11_7_" fill="none" stroke="#DDDDDD" d="M132.951,119.088c59.316,0,107.401-26.052,107.401-58.189"/>
<ellipse id="Oval-Copy-5_1_" fill="#FFFFFF" stroke="#DDDDDD" cx="242.465" cy="63.874" rx="20.5" ry="20.554"/>
<ellipse id="Oval-Copy-6_1_" fill="#FFFFFF" stroke="#DDDDDD" cx="242.465" cy="173.198" rx="20.5" ry="20.554"/>
<ellipse id="Oval-Copy-7_1_" fill="#FFFFFF" stroke="#DDDDDD" cx="206.121" cy="214.342" rx="20.5" ry="20.555"/>
<ellipse id="Oval-Copy-8_1_" fill="#FFFFFF" stroke="#DDDDDD" cx="206.5" cy="21.554" rx="20.5" ry="20.554"/>
<path id="Line-5_1_" fill="#FFFFFF" stroke="#DDDDDD" d="M132.638,119.088h121.672"/>
<ellipse id="Oval-Copy-22" fill="#FFFFFF" stroke="#DDDDDD" cx="135.069" cy="119" rx="47.043" ry="47.17"/>
<ellipse id="Oval-Copy-4_1_" fill="#FFFFFF" stroke="#DDDDDD" cx="255.362" cy="119.124" rx="20.5" ry="20.554"/>
<path id="Shape-Copy-4" fill="#03E8B0" d="M79.838,19.324c0.404-2.698-1.651-4.149-4.46-5.117l0.911-3.655l-2.225-0.554
	l-0.887,3.559c-0.585-0.146-1.186-0.283-1.783-0.419l0.894-3.582L70.065,9l-0.912,3.654c-0.484-0.11-0.959-0.219-1.42-0.334
	l0.002-0.011l-3.068-0.766l-0.592,2.376c0,0,1.65,0.378,1.616,0.401c0.901,0.225,1.064,0.821,1.037,1.294l-1.038,4.164
	c0.063,0.016,0.143,0.039,0.231,0.074c-0.074-0.018-0.153-0.039-0.235-0.058l-1.455,5.833c-0.11,0.274-0.39,0.685-1.02,0.529
	c0.022,0.032-1.617-0.404-1.617-0.404l-1.104,2.547l2.895,0.722c0.539,0.135,1.067,0.276,1.586,0.409l-0.921,3.697l2.222,0.554
	l0.912-3.658c0.607,0.165,1.196,0.317,1.773,0.46l-0.909,3.641l2.225,0.554l0.921-3.69c3.794,0.718,6.646,0.428,7.848-3.003
	c0.967-2.763-0.048-4.357-2.044-5.396C78.451,22.255,79.546,21.299,79.838,19.324z M74.755,26.452
	c-0.688,2.763-5.339,1.269-6.848,0.895l1.222-4.898C70.637,22.825,75.474,23.571,74.755,26.452z M75.443,19.284
	c-0.627,2.513-4.499,1.236-5.755,0.923l1.107-4.442C72.051,16.078,76.096,16.662,75.443,19.284z"/>
<g id="ether" transform="translate(26.000000, 48.000000)">
	<polygon id="Shape" fill="#AAC1BA" points="8.292,1.805 8.104,2.443 8.104,20.962 8.292,21.149 16.896,16.068 	"/>
	<polygon id="Shape_1_" fill="#AAC1BA" points="8.104,1.805 -0.104,16.068 8.104,21.149 8.104,12.161 	"/>
	<polygon id="Shape_2_" fill="#AAC1BA" points="8.21,22.793 8.104,22.924 8.104,29.628 8.21,29.943 16.896,17.632 	"/>
	<polygon id="Shape_3_" fill="#AAC1BA" points="8.104,29.943 8.104,22.793 -0.104,17.632 	"/>
	<polygon id="Shape_4_" fill="#AAC1BA" points="8.104,21.149 16.31,16.179 8.104,12.356 	"/>
	<polygon id="Shape_5_" fill="#AAC1BA" points="-0.104,16.179 8.104,21.149 8.104,12.356 	"/>
</g>
<g id="litecoin" transform="translate(24.000000, 162.000000)">
	<polyline id="Shape_7_" fill="#03E8B0" points="8.892,16.334 10.124,11.687 13.04,10.619 13.765,7.889 13.74,7.82 10.87,8.871 
		12.938,1.068 7.073,1.068 4.368,11.251 2.11,12.078 1.364,14.893 3.62,14.066 2.026,20.068 17.636,20.068 18.636,16.334 
		8.892,16.334 	"/>
</g>
<g>
	<path id="XMLID_152_" fill="#8DCEBD" d="M20.123,121.134h5.641c2.096,0,3.801-1.706,3.801-3.802s-1.705-3.801-3.801-3.801h-1.797
		l-3.844-3.336h5.641c3.942,0,7.137,3.196,7.137,7.138c0,2.99-1.839,5.552-4.448,6.613l4.448,3.86h-5.09L20.123,121.134z"/>
	<path id="XMLID_146_" fill="#8DCEBD" d="M22.877,116.869h-5.64c-2.096,0-3.801,1.705-3.801,3.8s1.706,3.802,3.801,3.802h1.797
		l3.844,3.335h-5.641c-3.942,0-7.138-3.195-7.138-7.137c0-2.99,1.84-5.551,4.449-6.613l-4.448-3.861h5.09L22.877,116.869z"/>
	<path id="XMLID_139_" fill="#8DCEBD" d="M22.877,116.869h-5.64c-2.096,0-3.801,1.705-3.801,3.8s1.706,3.802,3.801,3.802h1.797
		l3.844,3.335h-5.641c-3.942,0-7.138-3.195-7.138-7.137c0-2.99,1.84-5.551,4.449-6.613l-4.448-3.861h5.09L22.877,116.869z"/>
</g>
<path fill="#8DCEBD" d="M216.796,207.978l-10.052,14.23c0,0-0.194,0.297-0.588,0.297c-0.395,0-0.652-0.314-0.652-0.314l-1.734-2.299
	l10.444-14.938c-2.18-1.855-5.006-2.977-8.093-2.977c-6.898,0-12.49,5.592-12.49,12.49s5.592,12.49,12.49,12.49
	s12.49-5.592,12.49-12.49C218.611,212.091,217.947,209.87,216.796,207.978z M196.817,214.15l1.089-1.218l0.919,1.218H196.817z
	 M198.232,212.566l0.025-0.027h4.92l2.693,3.508l-2.405,3.441L198.232,212.566z"/>
<g>
	<path fill="#AAC1BA" d="M234.599,171.801l7.934-3.344l7.689,3.43l-7.701-12.146L234.599,171.801z M234.623,175.512l7.922,4.589
		l8.08-4.589l-8.008,11.144L234.623,175.512z"/>
	<path fill="#AAC1BA" d="M242.568,170.092l-8.262,3.479l8.262,4.59l8.032-4.493L242.568,170.092z"/>
</g>
<g>
	<polygon fill="#C4C6C5" points="75.458,218.05 66.035,218.05 58.719,222.277 82.799,222.277 	"/>
	<polygon fill="#C4C6C5" points="70.781,209.822 75.494,217.98 82.816,222.2 70.769,201.35 	"/>
	<polygon fill="#C4C6C5" points="65.996,217.988 70.702,209.824 70.693,201.374 58.667,222.236 	"/>
</g>
<path fill="#C4C6C5" d="M198.081,13.656l2.22,5.197h-3.329v1.732h4.061l0.73,1.732h-4.791v1.732h5.549l3.871,9.123l3.979-9.123
	h5.657v-1.732h-4.899l0.758-1.732h4.142v-1.732h-3.384l2.274-5.197h-1.896l-3.789,8.662h-5.575l-3.709-8.662H198.081z
	 M204.389,24.051h4.087l-2.057,4.737L204.389,24.051z"/>
<path fill="#8DCEBD" d="M255.362,113.11l5.661,11.904h-11.32L255.362,113.11 M255.362,107.803l-9.264,19.492h18.527L255.362,107.803
	z"/>
<g>
	<g>
		<path id="path30_1_" fill="#03E8B0" d="M133.673,95.194c1.563-0.68,2.677,0.759,3.638,1.722
			c1.722,1.461,3.356,3.019,4.908,4.655c0.889,0.971,0.531,2.746-0.68,3.286c-0.932,0.507-2.066,0.126-2.779-0.58
			c-1.871-1.796-3.661-3.676-5.604-5.389C131.95,97.903,132.195,95.762,133.673,95.194"/>
		<path id="path32_1_" fill="#03E8B0" d="M150.715,100.163c1.058-0.57,2.751-0.108,3.046,1.156
			c0.447,1.12-0.272,2.229-1.062,2.976c-1.731,1.708-3.416,3.467-5.101,5.224c-0.612,0.741-1.692,0.94-2.561,0.539
			c-1.254-0.519-1.591-2.4-0.646-3.35C146.518,104.543,148.391,102.123,150.715,100.163"/>
		<path id="path34_1_" fill="#03E8B0" d="M116.879,100.511c1.102-0.664,2.466-0.224,3.282,0.682
			c1.833,1.852,3.727,3.642,5.583,5.465c1.229,1.136,0.373,3.538-1.341,3.546c-1.435,0.22-2.194-1.199-3.153-1.972
			c-1.684-1.395-3.224-2.946-4.749-4.507C115.636,102.835,115.894,101.203,116.879,100.511"/>
		<path id="path36_1_" fill="#03E8B0" d="M118.301,111.462c1.85-0.714,3.654,1.616,2.5,3.225
			c-1.366,1.777-3.141,3.207-4.628,4.887c-0.878,0.905-1.698,2.294-3.161,2.118c-1.714-0.067-2.573-2.448-1.327-3.604
			C113.934,115.937,115.721,113.213,118.301,111.462"/>
		<path id="path38_1_" fill="#03E8B0" d="M155.789,116.617c1.271-0.831,3.19,0.112,3.23,1.645
			c0.188,1.443-1.24,2.2-2.028,3.169c-1.387,1.67-2.907,3.225-4.479,4.719c-1.146,1.085-3.288,0.325-3.494-1.244
			c-0.268-1.625,1.253-2.631,2.214-3.668C152.82,119.764,154.16,118.025,155.789,116.617"/>
		<path id="path40_1_" fill="#03E8B0" d="M123.125,128.015c1.233-0.737,3.109,0.138,3.137,1.638
			c0.23,1.447-1.2,2.215-1.984,3.184c-1.381,1.673-2.921,3.204-4.478,4.719c-1.01,1.024-3.164,0.529-3.451-0.936
			c-0.489-1.416,0.713-2.558,1.628-3.449C119.753,131.51,121.296,129.61,123.125,128.015"/>
		<path id="path42_1_" fill="#03E8B0" d="M145.073,127.955c0.684-0.231,1.554-0.25,2.13,0.244
			c2.141,2.029,4.414,3.919,6.427,6.089c0.62,0.629,0.673,1.685,0.263,2.438c-0.58,1.364-2.573,1.396-3.54,0.432
			c-1.952-1.84-3.826-3.775-5.79-5.607C143.377,130.626,143.656,128.492,145.073,127.955"/>
		<path id="path44_1_" fill="#03E8B0" d="M128.604,133.155c1.018-0.551,2.214-0.028,2.944,0.748
			c1.845,1.83,3.691,3.662,5.605,5.416c1.26,1.197,0.408,3.63-1.368,3.646c-1.433,0.169-2.18-1.253-3.141-2.031
			c-1.674-1.384-3.225-2.913-4.725-4.48C127.016,135.486,127.383,133.689,128.604,133.155"/>
		<path id="path46_1_" fill="#03E8B0" d="M125.331,97.042c0,1.16-0.94,2.101-2.101,2.101
			c-1.161,0-2.102-0.941-2.102-2.101s0.941-2.101,2.102-2.101C124.39,94.941,125.331,95.882,125.331,97.042"/>
		<path id="path48_1_" fill="#03E8B0" d="M131.457,102.632c0,1.16-0.942,2.101-2.101,2.101
			c-1.161,0-2.103-0.94-2.103-2.101s0.941-2.101,2.103-2.101C130.515,100.531,131.457,101.472,131.457,102.632"/>
		<path id="path50_1_" fill="#03E8B0" d="M115.048,107.766c0,1.16-0.94,2.103-2.101,2.103
			c-1.159,0-2.102-0.943-2.102-2.103c0-1.158,0.942-2.101,2.102-2.101C114.107,105.665,115.048,106.607,115.048,107.766"/>
		<path id="path52_1_" fill="#03E8B0" d="M148.411,96.875c0,1.16-0.944,2.103-2.103,2.103
			c-1.161,0-2.103-0.942-2.103-2.103c0-1.161,0.941-2.101,2.103-2.101C147.467,94.774,148.411,95.715,148.411,96.875"/>
		<path id="path54_1_" fill="#03E8B0" d="M159.294,107.239c0,1.162-0.942,2.103-2.103,2.103
			s-2.102-0.94-2.102-2.103c0-1.16,0.941-2.101,2.102-2.101S159.294,106.079,159.294,107.239"/>
		<path id="path56_1_" fill="#03E8B0" d="M153.547,113.278c0,1.16-0.938,2.101-2.1,2.101
			s-2.102-0.941-2.102-2.101s0.94-2.101,2.102-2.101S153.547,112.118,153.547,113.278"/>
		<path id="path58_1_" fill="#03E8B0" d="M159.284,130.249c0,1.162-0.942,2.101-2.104,2.101
			s-2.102-0.938-2.102-2.101c0-1.16,0.94-2.102,2.102-2.102S159.284,129.089,159.284,130.249"/>
		<path id="path60_1_" fill="#03E8B0" d="M142.893,135.372c0,1.163-0.939,2.105-2.101,2.105
			c-1.159,0-2.103-0.942-2.103-2.105c0-1.157,0.943-2.101,2.103-2.101C141.953,133.271,142.893,134.215,142.893,135.372"/>
		<path id="path62_1_" fill="#03E8B0" d="M148.939,141.123c0,1.161-0.939,2.103-2.102,2.103
			c-1.161,0-2.102-0.941-2.102-2.103c0-1.16,0.94-2.101,2.102-2.101C148,139.022,148.939,139.963,148.939,141.123"/>
		<path id="path64_1_" fill="#03E8B0" d="M125.925,141.123c0,1.161-0.943,2.103-2.101,2.103
			c-1.163,0-2.101-0.941-2.101-2.103c0-1.16,0.938-2.103,2.101-2.103C124.982,139.021,125.925,139.963,125.925,141.123"/>
		<path id="path66_1_" fill="#03E8B0" d="M120.8,124.663c0,1.162-0.94,2.102-2.102,2.102
			s-2.102-0.939-2.102-2.102c0-1.16,0.94-2.101,2.102-2.101S120.8,123.503,120.8,124.663"/>
		<path id="path68_1_" fill="#03E8B0" d="M115.048,130.77c0,1.161-0.94,2.103-2.101,2.103
			c-1.159,0-2.102-0.941-2.102-2.103c0-1.159,0.942-2.1,2.102-2.1C114.107,128.67,115.048,129.61,115.048,130.77"/>
	</g>
</g>
<g>
	<path fill="#03E8B0" d="M242.453,77.159c-7.326,0-13.286-5.959-13.286-13.285c0-7.326,5.96-13.286,13.286-13.286
		s13.286,5.96,13.286,13.286C255.739,71.2,249.777,77.159,242.453,77.159L242.453,77.159z M242.453,52.378
		c-6.339,0-11.495,5.158-11.495,11.496c0,6.339,5.156,11.495,11.495,11.495s11.495-5.156,11.495-11.495
		C253.948,57.536,248.792,52.378,242.453,52.378L242.453,52.378z"/>
	<path fill="#03E8B0" d="M241.636,67.267h5.906v2.968h-3.635c0.061,0.849,0.09,1.637,0.152,2.484h-3.061v-2.453h-3.636
		c0-0.97-0.121-1.938,0.061-2.848c0.093-0.484,0.637-0.909,0.97-1.333c1.151-1.363,2.303-2.696,3.483-4.059
		c0.454-0.514,0.909-0.999,1.424-1.575h-5.665v-2.969h3.363v-2.484h2.938v2.423h3.665c0,1,0.122,1.97-0.061,2.878
		c-0.09,0.485-0.637,0.909-0.999,1.333c-1.151,1.362-2.303,2.696-3.484,4.059C242.605,66.237,242.151,66.722,241.636,67.267
		L241.636,67.267z"/>
</g>
</svg>
