<?xml version="1.0" encoding="UTF-8" standalone="no"?>
<svg
   xmlns:dc="http://purl.org/dc/elements/1.1/"
   xmlns:cc="http://creativecommons.org/ns#"
   xmlns:rdf="http://www.w3.org/1999/02/22-rdf-syntax-ns#"
   xmlns:svg="http://www.w3.org/2000/svg"
   xmlns="http://www.w3.org/2000/svg"
   id="svg8"
   version="1.1"
   viewBox="0 0 172 48"
   height="48"
   width="172">
  <metadata
     id="metadata14">
    <rdf:RDF>
      <cc:Work
         rdf:about="">
        <dc:format>image/svg+xml</dc:format>
        <dc:type
           rdf:resource="http://purl.org/dc/dcmitype/StillImage" />
        <dc:title></dc:title>
      </cc:Work>
    </rdf:RDF>
  </metadata>
  <defs
     id="defs12" />
  <g
     id="g6"
     fill-rule="evenodd"
     fill="none">
    <path
       style="fill:#1a1a1a"
       id="path2"
       fill="#FFF"
       d="M48.647 23.898c0-4.125 3.22-7.628 7.486-7.628 2.769 0 4.492 1.159 5.848 2.6l-1.384 1.469c-1.159-1.216-2.515-2.147-4.492-2.147-2.966 0-5.227 2.514-5.227 5.706 0 3.164 2.317 5.678 5.368 5.678 1.864 0 3.249-.96 4.407-2.203l1.441 1.327c-1.47 1.64-3.22 2.826-5.96 2.826-4.267 0-7.487-3.475-7.487-7.628zm15.889-12.263l2.175-1.071v8.56c.96-1.582 2.486-2.854 5-2.854 3.531 0 5.594 2.374 5.594 5.848v9.069H75.13v-8.532c0-2.712-1.47-4.407-4.04-4.407-2.515 0-4.38 1.836-4.38 4.577v8.362h-2.174V11.635zm15.318 15.258c0-3.136 2.542-4.774 6.243-4.774 1.865 0 3.164.253 4.464.621v-.452c0-2.6-1.582-3.955-4.323-3.955-1.723 0-3.079.424-4.435 1.045l-.65-1.78c1.61-.735 3.164-1.243 5.312-1.243 2.062 0 3.672.565 4.718 1.61 1.016 1.017 1.525 2.43 1.525 4.295v8.927H90.56v-2.176c-1.017 1.3-2.684 2.487-5.255 2.487-2.74 0-5.452-1.554-5.452-4.605zm10.735-1.074v-1.356a15.002 15.002 0 0 0-4.266-.622c-2.712 0-4.266 1.187-4.266 2.996 0 1.836 1.695 2.91 3.673 2.91 2.684 0 4.86-1.611 4.86-3.928zm5.795-9.238h2.176v2.543c.96-1.583 2.486-2.854 5-2.854 3.531 0 5.594 2.374 5.594 5.848v9.069h-2.176v-8.532c0-2.712-1.469-4.407-4.04-4.407-2.514 0-4.378 1.836-4.378 4.577v8.362h-2.176V16.58zm16.174 17.148l.989-1.695c1.667 1.215 3.531 1.865 5.622 1.865 3.22 0 5.311-1.78 5.311-5.198v-1.723c-1.271 1.694-3.051 3.079-5.734 3.079-3.504 0-6.866-2.627-6.866-6.893s3.39-6.894 6.866-6.894c2.74 0 4.52 1.356 5.706 2.939V16.58h2.175v12.063c0 2.26-.678 3.984-1.864 5.17-1.3 1.3-3.249 1.95-5.566 1.95-2.43 0-4.69-.679-6.639-2.035zm11.979-10.594c0-2.995-2.6-4.943-5.368-4.943-2.769 0-5.057 1.92-5.057 4.972 0 2.938 2.345 4.972 5.057 4.972 2.768 0 5.368-2.005 5.368-5zm12.424 6.498c2.006 0 3.419-.82 4.606-2.062l1.356 1.215c-1.47 1.638-3.25 2.74-6.018 2.74-4.012 0-7.288-3.08-7.288-7.628 0-4.238 2.966-7.628 7.006-7.628 4.322 0 6.809 3.447 6.809 7.741 0 .198 0 .424-.029.763H131.82c.311 3.08 2.571 4.86 5.141 4.86zm4.267-6.61c-.255-2.657-1.78-4.917-4.662-4.917-2.514 0-4.435 2.091-4.746 4.916h9.408zm5.238-10.446l2.176-1.072v19.682h-2.176v-18.61zm6.154-.942l2.175-1.071v20.623h-2.175V11.635zm5.059 23.422l.734-1.723c.707.367 1.356.537 2.288.537 1.3 0 2.12-.678 2.996-2.74l-6.64-14.55h2.402l5.31 12.176 4.69-12.176h2.317l-6.13 15.086c-1.243 3.023-2.656 4.125-4.86 4.125-1.215 0-2.118-.254-3.107-.735z" />
    <path
       id="path4"
       fill="#10D078"
       d="M33.996 25.452c-6.325 5.562-8.963 6.096-11.581 4.877l2.857-3.61a4.666 4.666 0 0 0 .886-1.812l1.152-4.814-4.814 1.153a4.655 4.655 0 0 0-1.809.883l-3.612 2.859c-1.22-2.617-.686-5.256 4.877-11.581 5.255-5.976 16.377-7.348 19.673-7.628-.281 3.295-1.653 14.417-7.629 19.673zm-4.21 8.62a1.042 1.042 0 0 1-.434.657c-.668.458-1.694 1.094-2.604 1.645l.044-.171c.443-1.738.439-3.079-.01-3.991 1.197-.365 2.493-1.034 3.96-2.036-.356 1.347-.766 2.954-.957 3.897zm-10.005-3.12a1.88 1.88 0 0 1-1.57.711l-.023-.001-1.437.002 4.986-5.998-5.999 4.986.004-1.415-.002-.045a1.882 1.882 0 0 1 .71-1.57l5.281-4.18a2.983 2.983 0 0 1 1.156-.565l2.155-.516-.516 2.155c-.1.42-.296.819-.567 1.16l-4.178 5.277zm-8.58-10.341l-.172.044c.551-.91 1.187-1.936 1.645-2.603a1.04 1.04 0 0 1 .656-.434c.943-.19 2.55-.6 3.897-.957-1.003 1.468-1.671 2.762-2.035 3.962-.912-.45-2.253-.455-3.992-.012zM42.494 4.037L43.403 4l-.036.909c-.025.615-.695 15.146-8.263 21.802a61.81 61.81 0 0 1-2.187 1.843c-.265.966-1.185 4.353-1.487 5.85a2.715 2.715 0 0 1-1.129 1.708c-1.483 1.02-4.532 2.8-4.662 2.875l-2.217 1.293 1.026-2.353c.669-1.54 1.357-4.123.79-5.045-.092-.15-.246-.31-.68-.335v-.006c-1.09-.019-2.135-.315-3.208-.866l-.253.32a3.554 3.554 0 0 1-2.949 1.345l-4.093.008.009-4.093a3.562 3.562 0 0 1 1.345-2.949l.32-.252c-.552-1.073-.85-2.118-.868-3.21h-.005c-.026-.432-.184-.586-.335-.679-.922-.566-3.505.122-5.045.79l-2.35 1.022 1.29-2.213c.076-.129 1.856-3.178 2.875-4.662A2.713 2.713 0 0 1 13 15.973c1.497-.302 4.886-1.222 5.85-1.486a61.886 61.886 0 0 1 1.843-2.188c6.656-7.568 21.188-8.238 21.803-8.262zM20.508 37.43a8.91 8.91 0 0 0 .93-.99c-.401.826-.984 1.559-1.618 2.235a13.401 13.401 0 0 1-2.133 1.8 16.04 16.04 0 0 1-2.45 1.373c-.426.197-.864.365-1.303.533-.444.149-.889.303-1.342.424-.45.139-.91.227-1.366.337-.46.082-.92.187-1.385.24l-.696.094-.698.066c-.466.05-.932.058-1.399.083-1.866.068-3.729-.07-5.563-.332L0 43.08l.957-1.137c.917-1.089 1.723-2.218 2.372-3.458.658-1.235 1.19-2.57 1.704-3.923a29.354 29.354 0 0 1 1.843-4.041c.36-.647.743-1.28 1.156-1.891.41-.613.844-1.21 1.327-1.765a38.435 38.435 0 0 0-1.803 3.975A42.775 42.775 0 0 0 6.2 34.949c-.4 1.417-.866 2.837-1.51 4.217a17.35 17.35 0 0 1-1.11 2c-.143.22-.291.434-.442.646a36.44 36.44 0 0 0 3.876.177c.44-.013.883-.01 1.321-.044l.66-.035.658-.063.329-.031.326-.043.654-.085c.432-.078.869-.14 1.296-.24a19.413 19.413 0 0 0 4.97-1.735c.781-.41 1.542-.875 2.25-1.419.36-.265.702-.557 1.03-.864zm12.196-18.31a4.41 4.41 0 0 0 3.127-1.294 4.428 4.428 0 0 0 0-6.254 4.427 4.427 0 0 0-6.254 0 4.393 4.393 0 0 0-1.295 3.127c0 1.18.46 2.292 1.295 3.127a4.41 4.41 0 0 0 3.127 1.293zm-1.94-6.362a2.737 2.737 0 0 1 1.94-.802 2.74 2.74 0 0 1 1.941.802 2.749 2.749 0 0 1 0 3.882 2.748 2.748 0 0 1-3.881 0 2.726 2.726 0 0 1-.804-1.94c0-.734.285-1.423.804-1.942z" />
  </g>
</svg>
