<svg width="152" height="51" viewBox="0 0 152 51" fill="none" xmlns="http://www.w3.org/2000/svg">
<g clip-path="url(#clip0)">
<path fill-rule="evenodd" clip-rule="evenodd" d="M20.7279 45.7268C20.7279 45.8184 20.7644 45.9063 20.8292 45.9711C20.894 46.0359 20.9818 46.0723 21.0735 46.0723H31.721C32.0501 46.0952 32.3803 46.0499 32.6911 45.9391C33.0018 45.8284 33.2862 45.6546 33.5266 45.4286C33.7669 45.2027 33.958 44.9296 34.0877 44.6263C34.2175 44.323 34.2831 43.9962 34.2805 43.6663L33.6151 34.3753C33.6086 34.2882 33.5694 34.2067 33.5052 34.1474C33.4411 34.088 33.3569 34.0552 33.2695 34.0554H28.9184C28.8882 34.0577 28.8594 34.0688 28.8355 34.0874C28.8116 34.106 28.7938 34.1313 28.7842 34.16C28.7746 34.1887 28.7737 34.2196 28.7817 34.2488C28.7896 34.278 28.806 34.3042 28.8288 34.3241C29.0914 34.5247 29.3025 34.7847 29.4449 35.0829C29.5873 35.381 29.6569 35.7087 29.6478 36.039C29.6037 36.6949 29.3173 37.3109 28.8443 37.7674C28.3712 38.2239 27.7454 38.4882 27.0883 38.5089C26.4127 38.4857 25.7668 38.2255 25.2638 37.7739C24.7607 37.3224 24.4326 36.7082 24.3369 36.039C24.3035 35.7154 24.3503 35.3886 24.473 35.0873C24.5958 34.786 24.7907 34.5195 25.0407 34.3113C25.0677 34.2935 25.0877 34.2668 25.0973 34.2359C25.107 34.205 25.1057 34.1718 25.0937 34.1417C25.0816 34.1117 25.0596 34.0867 25.0313 34.0709C25.0031 34.0552 24.9702 34.0497 24.9383 34.0554H21.0991C21.0074 34.0554 20.9195 34.0918 20.8547 34.1566C20.7899 34.2214 20.7535 34.3093 20.7535 34.4009V38.2402C20.7547 38.2689 20.7471 38.2972 20.7318 38.3215C20.7164 38.3457 20.694 38.3647 20.6675 38.3758C20.6411 38.387 20.6118 38.3897 20.5837 38.3838C20.5557 38.3779 20.5301 38.3635 20.5104 38.3426C20.2645 38.087 19.9644 37.8899 19.6321 37.7658C19.2999 37.6418 18.944 37.594 18.5908 37.6259C17.9355 37.6523 17.3128 37.9184 16.8409 38.3738C16.3691 38.8291 16.0809 39.442 16.0312 40.0958C16.0567 40.7416 16.3255 41.3537 16.7836 41.8095C17.2418 42.2653 17.8553 42.5308 18.5012 42.553C18.8641 42.5864 19.23 42.5396 19.5729 42.4157C19.9157 42.2919 20.227 42.094 20.4848 41.8363C20.5045 41.8154 20.5301 41.801 20.5582 41.7951C20.5862 41.7891 20.6155 41.7919 20.6419 41.803C20.6684 41.8142 20.6908 41.8331 20.7062 41.8574C20.7216 41.8816 20.7291 41.91 20.7279 41.9387V45.7268Z" fill="#141419"/>
<path fill-rule="evenodd" clip-rule="evenodd" d="M15.3255 28.5906H19.3311C19.3613 28.5929 19.3901 28.604 19.414 28.6226C19.4379 28.6412 19.4557 28.6665 19.4653 28.6952C19.4749 28.7239 19.4757 28.7548 19.4678 28.784C19.4599 28.8132 19.4435 28.8394 19.4207 28.8594C19.1704 29.0639 18.9759 29.3283 18.8551 29.6281C18.7343 29.9279 18.6911 30.2533 18.7296 30.5742C18.8205 31.2455 19.1472 31.8625 19.6513 32.315C20.1554 32.7675 20.8039 33.026 21.4811 33.0442C22.139 33.0263 22.7665 32.7629 23.2401 32.3059C23.7138 31.8488 23.9993 31.2311 24.0406 30.5742C24.0406 30.2401 23.9618 29.9107 23.8106 29.6127C23.6594 29.3147 23.4401 29.0566 23.1704 28.8594C23.1476 28.8394 23.1312 28.8132 23.1233 28.784C23.1153 28.7548 23.1162 28.7239 23.1258 28.6952C23.1353 28.6665 23.1532 28.6412 23.1771 28.6226C23.2009 28.604 23.2298 28.5929 23.2599 28.5906H27.5599C27.6075 28.5908 27.6547 28.581 27.6983 28.5621C27.742 28.5432 27.7813 28.5154 27.8138 28.4805C27.8462 28.4457 27.8711 28.4045 27.8869 28.3596C27.9027 28.3147 27.909 28.267 27.9055 28.2195L27.2528 18.9797C27.1964 18.3342 26.9042 17.7321 26.4321 17.2883C25.96 16.8445 25.341 16.5901 24.6933 16.5737H15.3255C15.1719 16.5737 15.0439 16.7401 14.9927 16.9193L13.457 22.4734L14.9927 28.2963C15.0125 28.3729 15.0547 28.4419 15.114 28.4944C15.1733 28.5468 15.247 28.5804 15.3255 28.5906V28.5906Z" fill="#D93740"/>
<path fill-rule="evenodd" clip-rule="evenodd" d="M2.41626 28.6292L8.53348 30.1649L14.6507 28.6292C14.7384 28.6236 14.8212 28.5871 14.8845 28.5262C14.9477 28.4652 14.9873 28.3838 14.9962 28.2965V25.289C14.9942 25.1957 15.0159 25.1034 15.0593 25.0207C15.1028 24.9381 15.1666 24.8679 15.2446 24.8167C15.3227 24.7655 15.4125 24.735 15.5057 24.7281C15.5988 24.7211 15.6921 24.738 15.7769 24.7771C16.173 24.976 16.614 25.0686 17.0566 25.0459C17.6779 25.0035 18.2595 24.7257 18.6829 24.269C19.1062 23.8124 19.3393 23.2114 19.3346 22.5888C19.3146 21.9595 19.0633 21.3598 18.6289 20.9041C18.1945 20.4484 17.6074 20.1689 16.9799 20.1188C16.5372 20.0961 16.0962 20.1887 15.7001 20.3876C15.6158 20.4291 15.5222 20.4484 15.4284 20.4435C15.3345 20.4386 15.2435 20.4098 15.1639 20.3597C15.0844 20.3097 15.0189 20.2401 14.9739 20.1576C14.9289 20.0751 14.9057 19.9825 14.9067 19.8885V16.9194C14.8993 16.8486 14.8711 16.7816 14.8255 16.7269C14.7799 16.6722 14.7191 16.6323 14.6507 16.6123H5.69243C4.94677 16.6235 4.23089 16.9067 3.67941 17.4087C3.12793 17.9107 2.77884 18.5969 2.6978 19.3382L2.01953 28.2965C2.03485 28.3902 2.08332 28.4754 2.15613 28.5365C2.22893 28.5975 2.32124 28.6304 2.41626 28.6292V28.6292Z" fill="#141419"/>
<path fill-rule="evenodd" clip-rule="evenodd" d="M3.97553 40.6457H14.6231C14.7147 40.6457 14.8026 40.6093 14.8674 40.5445C14.9322 40.4797 14.9686 40.3918 14.9686 40.3002V36.9216C14.9642 36.8583 14.9431 36.7973 14.9074 36.7448C14.8717 36.6923 14.8228 36.6503 14.7655 36.623C14.7082 36.5956 14.6447 36.584 14.5815 36.5892C14.5182 36.5945 14.4575 36.6165 14.4055 36.6529C13.9168 36.9843 13.3309 37.142 12.7418 37.1008C12.096 37.0787 11.4824 36.8131 11.0243 36.3573C10.5662 35.9016 10.2974 35.2894 10.2719 34.6437C10.3188 33.9888 10.6061 33.3744 11.0786 32.9184C11.551 32.4625 12.1753 32.1973 12.8314 32.1737C13.1845 32.1436 13.5399 32.1923 13.8718 32.3162C14.2038 32.4402 14.5041 32.6363 14.7511 32.8904C14.7724 32.9096 14.7987 32.9225 14.8269 32.9275C14.8552 32.9326 14.8843 32.9296 14.9109 32.9189C14.9376 32.9083 14.9607 32.8903 14.9777 32.8672C14.9947 32.8441 15.0048 32.8166 15.007 32.788V28.9488C15.007 28.8571 14.9706 28.7692 14.9058 28.7044C14.841 28.6396 14.7531 28.6032 14.6615 28.6032H10.7198C10.6668 28.5973 10.6159 28.5791 10.571 28.5502C10.5262 28.5212 10.4887 28.4823 10.4614 28.4364C10.4341 28.3906 10.4178 28.339 10.4138 28.2858C10.4098 28.2326 10.4182 28.1791 10.4383 28.1297C10.7718 27.729 10.941 27.2169 10.9118 26.6964C10.8646 26.0428 10.5769 25.4299 10.1042 24.976C9.63143 24.5222 9.00727 24.2597 8.35229 24.2393C7.68758 24.2778 7.05605 24.5425 6.56254 24.9895C6.06903 25.4364 5.74322 26.0387 5.63921 26.6964C5.59593 27.0148 5.63167 27.3389 5.74326 27.6402C5.85485 27.9415 6.03887 28.2107 6.27909 28.4241C6.3043 28.4416 6.32307 28.467 6.33252 28.4962C6.34197 28.5255 6.34159 28.557 6.33144 28.586C6.32128 28.615 6.30191 28.6399 6.27628 28.6569C6.25066 28.6739 6.22018 28.682 6.18951 28.68H2.35024C2.26287 28.6798 2.17865 28.7126 2.11454 28.772C2.05042 28.8314 2.01118 28.9128 2.00471 28.9999L1.41602 38.2526C1.41523 38.5813 1.48218 38.9068 1.61272 39.2085C1.74325 39.5103 1.93456 39.7819 2.17472 40.0064C2.41487 40.231 2.69871 40.4036 3.00855 40.5136C3.31838 40.6236 3.64755 40.6686 3.97553 40.6457V40.6457Z" fill="#D93740"/>
<path fill-rule="evenodd" clip-rule="evenodd" d="M20.1787 13.1183C20.1571 11.7372 19.6083 10.4166 18.6448 9.42684C17.6812 8.43711 16.3757 7.85316 14.9957 7.79455C13.6144 7.85302 12.3075 8.43653 11.3419 9.42594C10.3763 10.4153 9.82473 11.736 9.79988 13.1183L9.63351 17.8918C9.86381 18.0152 10.0552 18.2003 10.1863 18.4263C10.3174 18.6523 10.383 18.9104 10.3758 19.1716C10.356 19.5608 10.1864 19.9274 9.90259 20.1945C9.61875 20.4617 9.24262 20.6087 8.85286 20.6049C8.66222 20.614 8.47176 20.5832 8.29373 20.5144C8.11569 20.4456 7.954 20.3404 7.81904 20.2054C7.68407 20.0704 7.57882 19.9087 7.51002 19.7307C7.44122 19.5527 7.4104 19.3622 7.41954 19.1716C7.42698 18.9072 7.50432 18.6495 7.64369 18.4247C7.78306 18.1999 7.97949 18.016 8.21299 17.8918L8.37935 13.1311C8.40141 11.37 9.10127 9.68516 10.3335 8.42674C11.5657 7.16832 13.2354 6.43314 14.9957 6.37402C16.7428 6.43569 18.4002 7.16336 19.628 8.40784C20.8558 9.65232 21.5611 11.3193 21.5992 13.0671L21.7272 16.6121L20.9849 17.0088L20.3067 16.6121L20.1787 13.1183Z" fill="#D93740"/>
<path fill-rule="evenodd" clip-rule="evenodd" d="M21.7244 16.6123H20.3039V17.8921C20.0774 18.0178 19.8904 18.2041 19.7638 18.4301C19.6372 18.6562 19.5761 18.913 19.5872 19.1718C19.6006 19.5611 19.7664 19.9295 20.0489 20.1976C20.3314 20.4657 20.7079 20.6121 21.0973 20.6051C21.2906 20.6178 21.4844 20.5898 21.6662 20.5228C21.8479 20.4557 22.0135 20.3513 22.1523 20.2161C22.2911 20.081 22.3999 19.9182 22.4717 19.7383C22.5435 19.5584 22.5767 19.3654 22.5691 19.1718C22.5565 18.9071 22.4757 18.6501 22.3344 18.4258C22.1931 18.2015 21.9962 18.0177 21.7628 17.8921L21.7244 16.6123Z" fill="#D93740"/>
<path fill-rule="evenodd" clip-rule="evenodd" d="M81.3482 22.4224C81.982 22.3784 82.6178 22.4698 83.2136 22.6905C83.8093 22.9111 84.3513 23.256 84.8036 23.7021C85.5784 24.6755 85.9618 25.9033 85.8785 27.1446V33.6842H82.8967V27.1446C82.9284 26.8352 82.8921 26.5226 82.7904 26.2286C82.6887 25.9346 82.5241 25.6663 82.308 25.4426C81.8764 25.0788 81.3234 24.8914 80.7595 24.9179C80.2177 24.9229 79.699 25.1386 79.3134 25.5194C79.0747 25.7934 78.893 26.1121 78.7787 26.4571C78.6645 26.802 78.62 27.1663 78.6479 27.5286V33.6842H75.6405V27.1446C75.6722 26.8352 75.6359 26.5226 75.5342 26.2286C75.4325 25.9346 75.2679 25.6663 75.0518 25.4426C74.6254 25.0785 74.0762 24.8908 73.5161 24.9179C73.234 24.9155 72.9544 24.971 72.6946 25.0811C72.4349 25.1912 72.2005 25.3534 72.006 25.5578C71.5175 26.211 71.2935 27.0245 71.3789 27.8357V33.6842H68.3203V22.6271H71.3149V23.6253C71.7348 23.2653 72.2102 22.9758 72.7227 22.7679C73.1986 22.5549 73.7116 22.4375 74.2328 22.4224C74.9025 22.379 75.5731 22.4929 76.1909 22.7552C76.8086 23.0174 77.3565 23.4206 77.7905 23.9325C78.2191 23.4526 78.7477 23.0726 79.339 22.8191C79.9759 22.5552 80.6588 22.4203 81.3482 22.4224V22.4224ZM96.6157 32.5708C96.2794 32.9901 95.8378 33.3125 95.3359 33.505C94.696 33.7908 94.0019 33.9348 93.3011 33.9273C92.2593 33.9524 91.2312 33.6865 90.3321 33.1595C89.5181 32.655 88.8618 31.9323 88.4381 31.0735C87.9626 30.165 87.7124 29.1555 87.7086 28.1301C87.7237 27.1183 87.9734 26.1239 88.4381 25.225C88.8708 24.3675 89.536 23.6491 90.3577 23.1518C91.2567 22.6248 92.2849 22.3589 93.3267 22.384C94.0215 22.3678 94.7115 22.5032 95.3487 22.7807C95.8484 23.0013 96.2875 23.3394 96.6285 23.7661V22.6271H99.6103V33.6842H96.6157V32.5708ZM96.7437 28.1557C96.7754 27.3205 96.4765 26.5066 95.9118 25.8905C95.3103 25.331 94.5193 25.0199 93.6978 25.0199C92.8764 25.0199 92.0853 25.331 91.4839 25.8905C90.9289 26.5015 90.635 27.3052 90.6648 28.1301C90.6391 28.9527 90.9379 29.7525 91.4967 30.3568C92.1023 30.9081 92.8917 31.2136 93.7106 31.2136C94.5296 31.2136 95.319 30.9081 95.9246 30.3568C96.4788 29.7505 96.7729 28.9509 96.7437 28.1301V28.1557ZM108.492 25.353C107.996 25.3232 107.499 25.3751 107.02 25.5066C106.402 25.6704 105.849 26.0186 105.433 26.5048C104.905 27.1464 104.644 27.9666 104.704 28.7955V33.6842H101.709V22.6271H104.704V24.086C105.163 23.4826 105.798 23.0357 106.521 22.8063C107.155 22.5869 107.821 22.4745 108.492 22.4735V25.4042V25.353ZM112.497 18.4807V27.3238L116.26 22.6783H119.933L115.492 27.7973L120.112 33.6458H116.477L113.585 30.0241L112.497 31.3039V33.6842H109.477V18.4807H112.497ZM126.152 33.9657C125.238 33.956 124.334 33.7692 123.491 33.4154C122.451 33.0114 121.567 32.2884 120.965 31.3502C120.362 30.4121 120.073 29.3071 120.138 28.194C120.08 26.9876 120.432 25.7971 121.136 24.8155C121.749 24.0075 122.572 23.3833 123.516 23.011C124.354 22.67 125.248 22.4877 126.152 22.4735C127.107 22.4678 128.05 22.687 128.904 23.1134C129.777 23.5418 130.519 24.1957 131.054 25.0075C131.623 25.8835 131.926 26.9061 131.924 27.9509C131.924 28.3092 131.924 28.6036 131.924 28.8595C131.932 29.0215 131.932 29.1838 131.924 29.3458H123.132C123.19 29.6986 123.338 30.0304 123.562 30.3086C123.786 30.5869 124.079 30.8019 124.412 30.9327C124.978 31.1974 125.592 31.3412 126.216 31.355C126.818 31.3882 127.417 31.2506 127.944 30.9583C128.356 30.7199 128.728 30.4175 129.045 30.0625L131.387 31.419C130.809 32.2331 130.04 32.8925 129.147 33.3389C128.254 33.7853 127.265 34.005 126.268 33.9785L126.152 33.9657ZM126.152 25.0714C125.428 25.0392 124.714 25.256 124.13 25.6857C123.887 25.8601 123.683 26.0833 123.531 26.3412C123.379 26.599 123.282 26.8857 123.247 27.183H128.75C128.697 26.8219 128.557 26.4792 128.341 26.1848C128.105 25.8517 127.794 25.5797 127.432 25.3914C127.038 25.1821 126.599 25.0722 126.152 25.0714V25.0714ZM137.286 29.7426C137.273 30.1487 137.356 30.5523 137.529 30.9199C137.683 31.2271 138.054 31.3934 138.656 31.3934C138.907 31.4065 139.159 31.4065 139.411 31.3934V33.9529C138.986 34.0098 138.559 34.0397 138.131 34.0425C137.429 34.0575 136.728 33.9844 136.045 33.825C135.536 33.7179 135.082 33.4319 134.765 33.0187C134.439 32.5038 134.282 31.8996 134.317 31.2911V25.1482H133.037V22.5887H134.317V19.4917H137.299V22.448H139.513V25.0075H137.299V29.6786L137.286 29.7426ZM145.553 33.9401C143.699 33.9701 141.891 33.36 140.434 32.2125L141.996 30.1265C142.521 30.4787 143.088 30.7625 143.685 30.9711C144.294 31.1846 144.934 31.297 145.579 31.3039C145.978 31.3188 146.372 31.2212 146.718 31.0223C146.849 30.9559 146.96 30.8555 147.038 30.7317C147.117 30.6079 147.161 30.4651 147.166 30.3184C147.166 30.0369 147 29.8449 146.654 29.7298C146.329 29.6215 145.995 29.5402 145.656 29.4866L145.029 29.397C144.326 29.29 143.633 29.1274 142.956 28.9107C142.35 28.7198 141.803 28.376 141.369 27.9125C141.122 27.6441 140.932 27.3293 140.809 26.9865C140.686 26.6437 140.633 26.2798 140.652 25.9161C140.586 25.3507 140.697 24.7787 140.97 24.279C141.243 23.7793 141.664 23.3766 142.175 23.1262C143.125 22.6683 144.166 22.4279 145.221 22.4224C146.039 22.4145 146.852 22.5443 147.627 22.8063C148.417 23.0852 149.156 23.4915 149.815 24.0093L148.254 26.0569C147.76 25.7655 147.242 25.5172 146.705 25.3146C146.196 25.1312 145.659 25.036 145.118 25.0331C144.777 25.0345 144.44 25.1133 144.133 25.2634C144.004 25.3049 143.891 25.3847 143.809 25.4922C143.726 25.5997 143.679 25.7297 143.672 25.8649C143.672 26.1848 143.89 26.4152 144.325 26.5432C144.793 26.6852 145.273 26.7879 145.758 26.8503C146.52 26.9644 147.272 27.1311 148.011 27.3494C148.587 27.5352 149.104 27.8708 149.508 28.322C149.974 28.8888 150.207 29.6116 150.161 30.344C150.188 30.8504 150.095 31.3561 149.888 31.8191C149.681 32.2821 149.366 32.689 148.97 33.0059C147.966 33.7068 146.749 34.0371 145.528 33.9401H145.553Z" fill="#D93740"/>
<path d="M63.5129 27.183C63.4701 26.8213 63.3333 26.4772 63.1162 26.1848C62.8599 25.839 62.5261 25.5581 62.1416 25.3647C61.7571 25.1714 61.3326 25.0709 60.9022 25.0714C60.1739 25.0393 59.4563 25.2559 58.8674 25.6857C58.6284 25.8643 58.4272 26.0887 58.2756 26.3457C58.124 26.6028 58.025 26.8874 57.9844 27.183H63.5129ZM66.6867 28.8339C66.6949 28.9959 66.6949 29.1582 66.6867 29.3202H57.9076C57.9588 29.6644 58.0958 29.9902 58.3061 30.2675C58.5163 30.5448 58.793 30.7648 59.1105 30.9071C59.681 31.1707 60.2995 31.3144 60.9278 31.3294C61.5293 31.3591 62.1272 31.2218 62.6555 30.9327C63.0651 30.6909 63.4361 30.3889 63.7561 30.0368L66.0852 31.3934C65.5093 32.2091 64.7405 32.8698 63.8473 33.3163C62.9541 33.7629 61.9644 33.9816 60.9662 33.9529C60.0516 33.9442 59.1474 33.7572 58.3043 33.4026C57.3595 33.0259 56.5393 32.3919 55.9368 31.5726C55.2446 30.5811 54.8983 29.3892 54.9513 28.1812C54.8941 26.9747 55.2458 25.7843 55.9496 24.8027C56.5541 24.0049 57.3634 23.3857 58.2915 23.011C59.1293 22.6699 60.0233 22.4877 60.9278 22.4735C61.8825 22.4678 62.8251 22.687 63.6793 23.1134C64.5505 23.5389 65.2893 24.1936 65.8165 25.0074C66.3788 25.8819 66.6806 26.8984 66.6867 27.938C66.6867 28.2836 66.6867 28.5779 66.6867 28.8339Z" fill="#141419"/>
<path d="M50.4174 28.13C50.4513 27.2969 50.1572 26.4837 49.5984 25.8649C48.9948 25.3045 48.2016 24.993 47.378 24.993C46.5544 24.993 45.7612 25.3045 45.1576 25.8649C44.6069 26.4878 44.3181 27.2993 44.3514 28.13C44.3358 28.5378 44.4014 28.9445 44.5441 29.3268C44.6869 29.709 44.9042 30.0591 45.1832 30.3568C45.4664 30.6518 45.8091 30.8832 46.1887 31.0355C46.5682 31.1877 46.9758 31.2574 47.3844 31.2398C47.791 31.2634 48.1981 31.2015 48.5794 31.0583C48.9607 30.915 49.3078 30.6935 49.5984 30.408C49.8815 30.1032 50.1 29.7442 50.2407 29.3527C50.3815 28.9612 50.4416 28.5453 50.4174 28.13V28.13ZM53.2713 18.4551V33.6842H50.3022V32.5708C49.9631 32.987 49.5223 33.3088 49.0225 33.505C48.378 33.7906 47.6798 33.9346 46.9749 33.9273C45.9369 33.954 44.9124 33.6879 44.0186 33.1595C43.1892 32.666 42.522 31.941 42.099 31.0735C41.6281 30.1643 41.3864 29.1539 41.3951 28.13C41.3812 27.1142 41.6093 26.1096 42.0606 25.1994C42.4837 24.3353 43.1512 23.6144 43.9802 23.1262C44.874 22.5977 45.8985 22.3316 46.9365 22.3583C47.6314 22.341 48.3217 22.4764 48.9585 22.7551C49.4825 22.9647 49.9448 23.3037 50.3022 23.7405V18.4807L53.2713 18.4551Z" fill="#141419"/>
</g>
<defs>
<clipPath id="clip0">
<rect width="1326" height="51" fill="white" transform="translate(-300)"/>
</clipPath>
</defs>
</svg>
