<svg width="143" height="51" viewBox="0 0 143 51" fill="none" xmlns="http://www.w3.org/2000/svg">
<g clip-path="url(#clip0)">
<path fill-rule="evenodd" clip-rule="evenodd" d="M86.0012 16.0118C86.5089 16.0056 86.975 16.2917 87.1993 16.7472L95.8965 34.4052C96.0977 34.8137 96.0738 35.297 95.8333 35.6836C95.5927 36.0702 95.1697 36.3052 94.7144 36.3052H77.8471C77.3974 36.3052 76.9789 36.076 76.7367 35.6972C76.4946 35.3183 76.4623 34.8422 76.6511 34.4341L84.8212 16.7761C85.0344 16.3153 85.4934 16.018 86.0012 16.0118ZM86.0543 20.3873L79.9087 33.6697H92.5964L86.0543 20.3873Z" fill="#1C243B"/>
<path d="M37.9512 36.4513C37.5067 36.4513 37.1491 36.316 36.8785 36.0454C36.6079 35.7555 36.4727 35.3883 36.4727 34.9438V17.3174C36.4727 16.8729 36.5983 16.525 36.8495 16.2737C37.1201 16.0031 37.4873 15.8679 37.9512 15.8679H48.3299C49.2576 15.8679 49.7214 16.2737 49.7214 17.0855C49.7214 17.8972 49.2576 18.3031 48.3299 18.3031H39.4297V24.71H47.7501C48.6778 24.71 49.1416 25.1159 49.1416 25.9276C49.1416 26.7394 48.6778 27.1452 47.7501 27.1452H39.4297V34.9438C39.4297 35.4076 39.2944 35.7748 39.0238 36.0454C38.7726 36.316 38.415 36.4513 37.9512 36.4513Z" fill="#1C243B"/>
<path d="M58.8114 36.3063C58.3668 36.3063 58.0093 36.1807 57.7387 35.9294C57.4875 35.6782 57.3618 35.34 57.3618 34.9148V17.2304C57.3618 16.7859 57.4971 16.4283 57.7677 16.1578C58.0383 15.8679 58.3958 15.7229 58.8404 15.7229C59.3042 15.7229 59.6714 15.8582 59.942 16.1288C60.2126 16.3993 60.3479 16.7666 60.3479 17.2304V33.8131H69.1611C69.6056 33.8131 69.9438 33.9194 70.1757 34.132C70.427 34.3446 70.5526 34.6538 70.5526 35.0597C70.5526 35.4656 70.427 35.7748 70.1757 35.9874C69.9438 36.2 69.6056 36.3063 69.1611 36.3063H58.8114Z" fill="#1C243B"/>
<path d="M119.417 34.4509C119.591 34.7022 119.678 34.9727 119.678 35.2627C119.678 35.6105 119.533 35.9101 119.243 36.1614C118.972 36.3933 118.653 36.5093 118.286 36.5093C117.745 36.5093 117.31 36.2677 116.982 35.7845L113.097 29.7544C112.652 29.0586 112.179 28.5755 111.676 28.3049C111.174 28.015 110.517 27.87 109.705 27.87H106.429V34.9438C106.429 35.4076 106.294 35.7748 106.023 36.0454C105.772 36.316 105.414 36.4513 104.95 36.4513C104.506 36.4513 104.148 36.316 103.878 36.0454C103.607 35.7748 103.472 35.4076 103.472 34.9438V17.3174C103.472 16.8729 103.597 16.525 103.849 16.2737C104.119 16.0031 104.486 15.8679 104.95 15.8679H112.169C114.43 15.8679 116.15 16.3704 117.329 17.3754C118.528 18.3804 119.127 19.8492 119.127 21.782C119.127 23.3861 118.673 24.6907 117.764 25.6957C116.856 26.6814 115.561 27.3095 113.879 27.5801C114.382 27.7154 114.836 27.957 115.242 28.3049C115.648 28.6528 116.044 29.1359 116.431 29.7544L119.417 34.4509ZM111.821 25.4638C113.329 25.4638 114.44 25.1739 115.155 24.5941C115.89 23.9949 116.257 23.0769 116.257 21.8399C116.257 20.603 115.899 19.7043 115.184 19.1438C114.469 18.564 113.348 18.2741 111.821 18.2741H106.4V25.4638H111.821Z" fill="#1C243B"/>
<path d="M129.605 36.3063C129.141 36.3063 128.774 36.1807 128.503 35.9294C128.252 35.6589 128.126 35.3013 128.126 34.8568V17.3174C128.126 16.8729 128.252 16.525 128.503 16.2737C128.774 16.0031 129.141 15.8679 129.605 15.8679H140.274C140.718 15.8679 141.056 15.9742 141.288 16.1868C141.539 16.3994 141.665 16.6989 141.665 17.0855C141.665 17.472 141.539 17.7716 141.288 17.9842C141.056 18.1774 140.718 18.2741 140.274 18.2741H131.054V24.71H139.694C140.138 24.71 140.476 24.8163 140.708 25.0289C140.96 25.2415 141.085 25.5411 141.085 25.9276C141.085 26.3142 140.96 26.6138 140.708 26.8264C140.476 27.039 140.138 27.1452 139.694 27.1452H131.054V33.9001H140.274C141.201 33.9001 141.665 34.2963 141.665 35.0887C141.665 35.4753 141.539 35.7748 141.288 35.9874C141.056 36.2 140.718 36.3063 140.274 36.3063H129.605Z" fill="#1C243B"/>
<path fill-rule="evenodd" clip-rule="evenodd" d="M20.0307 16.2775C22.7618 18.1733 24.6583 21.1873 25.0574 24.6568C25.4452 23.8789 25.6634 23.0016 25.6634 22.0733C25.6634 18.9264 23.1564 16.3651 20.0307 16.2775ZM27.7718 22.0733C27.7718 24.5035 26.6754 26.6777 24.9502 28.1281C23.9584 33.6759 19.1089 37.8869 13.2759 37.8869C6.72585 37.8869 1.41602 32.577 1.41602 26.027C1.41602 19.477 6.72585 14.1672 13.2759 14.1672C14.5452 14.1672 15.7679 14.3666 16.9144 14.7358C17.8262 14.3687 18.8221 14.1667 19.8652 14.1667C24.2319 14.1667 27.7718 17.7066 27.7718 22.0733ZM19.8652 29.9799C20.5012 29.9799 21.1197 29.9048 21.7123 29.763C20.2784 32.9961 17.0405 35.2513 13.2759 35.2513C8.18141 35.2513 4.05154 31.1215 4.05154 26.027C4.05154 20.9326 8.18141 16.8027 13.2759 16.8027C13.5026 16.8027 13.7273 16.8109 13.9499 16.8269C12.711 18.2228 11.9587 20.0602 11.9587 22.0733C11.9587 26.44 15.4985 29.9799 19.8652 29.9799Z" fill="#1C243B"/>
</g>
<defs>
<clipPath id="clip0">
<rect width="1326" height="51" fill="white"/>
</clipPath>
</defs>
</svg>
