<svg width="154" height="51" viewBox="0 0 154 51" fill="none" xmlns="http://www.w3.org/2000/svg">
<g clip-path="url(#clip0)">
<path d="M2.86483 13.3475L19.6998 22.7851C19.8766 22.883 20.0927 22.9418 20.2892 22.9418C20.7017 22.9418 21.0946 22.7264 21.3303 22.3544C21.6446 21.7865 21.4482 21.0621 20.8785 20.7292L5.87038 12.3293L23.0787 2.63723L38.9511 11.7812C39.5208 12.0944 40.2476 11.8986 40.5816 11.3308C40.8959 10.763 40.6994 10.0385 40.1494 9.72522L23.668 0.248462L23.6483 0.228882C23.2554 0.0330811 22.8232 0.0330811 22.4697 0.228882L2.84518 11.2916C2.47195 11.507 2.25586 11.8986 2.25586 12.3098C2.25586 12.7406 2.49159 13.1321 2.86483 13.3475Z" fill="url(#paint0_linear)"/>
<path d="M45.0171 14.4833C44.6439 14.2679 44.192 14.2679 43.8188 14.4833L22.6031 26.5838C22.2299 26.7992 21.9941 27.1908 21.9941 27.6216V42.9331C21.9941 43.5793 22.5246 44.1276 23.1924 44.1276C23.8604 44.1276 24.3907 43.5989 24.3907 42.9331V28.3068L43.2098 17.577V37.0396L23.33 48.4548L3.3126 36.7654V18.3602C3.3126 17.7141 2.78221 17.1658 2.11431 17.1658C1.44641 17.1658 0.916016 17.6945 0.916016 18.3602V37.4508C0.916016 37.8424 1.11246 38.2144 1.46605 38.4493L1.58392 38.5473H1.64285L22.7602 50.8435C22.9567 50.9414 23.1531 51.0002 23.3496 51.0002C23.5068 51.0002 23.6639 50.961 23.8211 50.9023H23.9193L24.0175 50.8043L45.0564 38.7431C45.4297 38.5277 45.6654 38.136 45.6654 37.7053V15.5015C45.6261 15.0904 45.3903 14.6791 45.0171 14.4833Z" fill="url(#paint1_linear)"/>
<path d="M74.0856 23.4043C73.7232 22.7062 73.2197 22.1827 72.5754 21.8336C71.931 21.4711 71.1859 21.2899 70.3401 21.2899C69.4138 21.2899 68.5882 21.498 67.8632 21.9142C67.1383 22.3303 66.5677 22.921 66.1516 23.6862C65.7488 24.4515 65.5475 25.3375 65.5475 26.3444C65.5475 27.3512 65.7488 28.244 66.1516 29.0226C66.5677 29.7878 67.1383 30.3785 67.8632 30.7947C68.5882 31.2109 69.4138 31.4189 70.3401 31.4189C71.5886 31.4189 72.6022 31.0699 73.3808 30.3718C74.1595 29.6737 74.6361 28.7273 74.8106 27.5325H69.5548V25.7H77.2673V27.4922C77.1197 28.5796 76.7303 29.5797 76.0994 30.4926C75.4818 31.4055 74.6696 32.1372 73.6628 32.6876C72.6693 33.2246 71.5618 33.4931 70.3401 33.4931C69.0245 33.4931 67.823 33.191 66.7356 32.5869C65.6481 31.9694 64.7822 31.1169 64.1379 30.0295C63.5069 28.9421 63.1914 27.7137 63.1914 26.3444C63.1914 24.975 63.5069 23.7467 64.1379 22.6592C64.7822 21.5718 65.6481 20.7261 66.7356 20.122C67.8364 19.5044 69.0379 19.1956 70.3401 19.1956C71.8303 19.1956 73.1526 19.5648 74.3072 20.3032C75.4751 21.0281 76.3209 22.0618 76.8444 23.4043H74.0856Z" fill="black"/>
<path d="M89.8015 27.5526C89.8015 27.9688 89.7746 28.3447 89.7209 28.6803H81.2432C81.3103 29.5663 81.6392 30.2778 82.2299 30.8148C82.8206 31.3518 83.5455 31.6203 84.4047 31.6203C85.6398 31.6203 86.5124 31.1035 87.0226 30.0697H89.4994C89.1638 31.09 88.553 31.9291 87.6669 32.5869C86.7943 33.2313 85.7069 33.5535 84.4047 33.5535C83.3442 33.5535 82.391 33.3185 81.5452 32.8487C80.7129 32.3654 80.0551 31.6941 79.5718 30.835C79.1019 29.9623 78.867 28.9555 78.867 27.8144C78.867 26.6733 79.0952 25.6731 79.5516 24.8139C80.0215 23.9413 80.6726 23.2701 81.505 22.8002C82.3507 22.3303 83.3173 22.0954 84.4047 22.0954C85.4518 22.0954 86.3849 22.3236 87.2038 22.7801C88.0227 23.2365 88.6604 23.8809 89.1168 24.7132C89.5733 25.5322 89.8015 26.4786 89.8015 27.5526ZM87.4052 26.8277C87.3917 25.9819 87.0897 25.3039 86.499 24.7938C85.9083 24.2836 85.1766 24.0286 84.304 24.0286C83.512 24.0286 82.834 24.2836 82.2702 24.7938C81.7063 25.2905 81.3707 25.9685 81.2633 26.8277H87.4052Z" fill="black"/>
<path d="M94.8396 24.1494V30.2913C94.8396 30.7074 94.9335 31.0095 95.1215 31.1974C95.3229 31.3719 95.6585 31.4592 96.1284 31.4592H97.538V33.3722H95.7256C94.6919 33.3722 93.8998 33.1306 93.3494 32.6473C92.799 32.164 92.5238 31.3787 92.5238 30.2913V24.1494H91.2149V22.2766H92.5238V19.5178H94.8396V22.2766H97.538V24.1494H94.8396Z" fill="black"/>
<path d="M107.246 26.1833C107.997 26.3175 108.635 26.7135 109.159 27.3714C109.682 28.0292 109.944 28.7742 109.944 29.6066C109.944 30.3181 109.756 30.9625 109.38 31.5398C109.018 32.1036 108.487 32.5533 107.789 32.889C107.091 33.2112 106.279 33.3722 105.353 33.3722H99.7545V19.3769H105.091C106.044 19.3769 106.863 19.538 107.548 19.8602C108.232 20.1824 108.749 20.6187 109.098 21.1691C109.447 21.7061 109.622 22.3102 109.622 22.9814C109.622 23.7869 109.407 24.4582 108.977 24.9952C108.548 25.5322 107.97 25.9282 107.246 26.1833ZM102.05 25.2569H104.889C105.641 25.2569 106.225 25.0891 106.641 24.7535C107.071 24.4045 107.286 23.9078 107.286 23.2634C107.286 22.6324 107.071 22.1424 106.641 21.7933C106.225 21.4309 105.641 21.2496 104.889 21.2496H102.05V25.2569ZM105.151 31.4995C105.93 31.4995 106.541 31.3115 106.984 30.9356C107.427 30.5597 107.648 30.0362 107.648 29.3649C107.648 28.6803 107.413 28.1366 106.943 27.7338C106.474 27.3311 105.849 27.1297 105.071 27.1297H102.05V31.4995H105.151Z" fill="black"/>
<path d="M114.835 18.4707V33.3722H112.539V18.4707H114.835Z" fill="black"/>
<path d="M122.762 33.5535C121.715 33.5535 120.769 33.3185 119.923 32.8487C119.077 32.3654 118.413 31.6941 117.929 30.835C117.446 29.9623 117.204 28.9555 117.204 27.8144C117.204 26.6867 117.453 25.6865 117.95 24.8139C118.446 23.9413 119.124 23.2701 119.983 22.8002C120.843 22.3303 121.802 22.0954 122.863 22.0954C123.924 22.0954 124.883 22.3303 125.743 22.8002C126.602 23.2701 127.28 23.9413 127.777 24.8139C128.273 25.6865 128.522 26.6867 128.522 27.8144C128.522 28.9421 128.267 29.9422 127.756 30.8148C127.246 31.6874 126.548 32.3654 125.662 32.8487C124.789 33.3185 123.823 33.5535 122.762 33.5535ZM122.762 31.5599C123.353 31.5599 123.903 31.4189 124.414 31.137C124.937 30.8551 125.36 30.4322 125.682 29.8684C126.004 29.3045 126.166 28.6199 126.166 27.8144C126.166 27.0089 126.011 26.3309 125.702 25.7805C125.394 25.2167 124.984 24.7938 124.474 24.5119C123.964 24.2299 123.413 24.089 122.823 24.089C122.232 24.089 121.682 24.2299 121.172 24.5119C120.675 24.7938 120.279 25.2167 119.983 25.7805C119.688 26.3309 119.54 27.0089 119.54 27.8144C119.54 29.0092 119.842 29.9355 120.447 30.5933C121.064 31.2377 121.836 31.5599 122.762 31.5599Z" fill="black"/>
<path d="M130.126 27.8144C130.126 26.6733 130.355 25.6731 130.811 24.8139C131.281 23.9413 131.925 23.2701 132.744 22.8002C133.563 22.3303 134.503 22.0954 135.563 22.0954C136.906 22.0954 138.014 22.4176 138.886 23.062C139.772 23.693 140.37 24.5991 140.678 25.7805H138.201C138 25.2301 137.678 24.8005 137.235 24.4917C136.792 24.183 136.235 24.0286 135.563 24.0286C134.624 24.0286 133.872 24.3642 133.308 25.0354C132.758 25.6933 132.482 26.6196 132.482 27.8144C132.482 29.0092 132.758 29.9422 133.308 30.6134C133.872 31.2847 134.624 31.6203 135.563 31.6203C136.893 31.6203 137.772 31.0363 138.201 29.8684H140.678C140.356 30.9961 139.752 31.8955 138.866 32.5668C137.98 33.2246 136.879 33.5535 135.563 33.5535C134.503 33.5535 133.563 33.3185 132.744 32.8487C131.925 32.3654 131.281 31.6941 130.811 30.835C130.355 29.9623 130.126 28.9555 130.126 27.8144Z" fill="black"/>
<path d="M147.457 27.8345L152.572 33.3722H149.47L145.362 28.5997V33.3722H143.067V18.4707H145.362V27.1297L149.39 22.2766H152.572L147.457 27.8345Z" fill="black"/>
</g>
<defs>
<linearGradient id="paint0_linear" x1="36.4798" y1="47.4249" x2="-25.2502" y2="-55.5458" gradientUnits="userSpaceOnUse">
<stop stop-color="#5658F3"/>
<stop offset="1" stop-color="#0094FF"/>
</linearGradient>
<linearGradient id="paint1_linear" x1="36.4757" y1="47.425" x2="-25.2542" y2="-55.5456" gradientUnits="userSpaceOnUse">
<stop stop-color="#5658F3"/>
<stop offset="1" stop-color="#0094FF"/>
</linearGradient>
<clipPath id="clip0">
<rect width="1326" height="51" fill="white" transform="translate(-145)"/>
</clipPath>
</defs>
</svg>
