<svg width="143" height="51" viewBox="0 0 143 51" fill="none" xmlns="http://www.w3.org/2000/svg">
<g clip-path="url(#clip0)">
<path d="M11.0666 30.0761C11.0666 29.4059 10.8301 28.8934 10.357 28.5386C9.88392 28.1759 9.0324 27.7975 7.80242 27.4033C6.57245 27.0012 5.59871 26.6069 4.88123 26.2206C2.92588 25.1641 1.94821 23.7409 1.94821 21.9512C1.94821 21.0208 2.20841 20.1929 2.72878 19.4676C3.25704 18.7343 4.00999 18.1627 4.98767 17.7527C5.97322 17.3427 7.07705 17.1377 8.29914 17.1377C9.52912 17.1377 10.625 17.3624 11.587 17.8118C12.5489 18.2534 13.2939 18.8802 13.8222 19.6923C14.3583 20.5044 14.6264 21.4268 14.6264 22.4597H11.0784C11.0784 21.6713 10.8301 21.0602 10.3333 20.6266C9.83661 20.185 9.13883 19.9643 8.24 19.9643C7.37271 19.9643 6.6986 20.1495 6.21765 20.5201C5.7367 20.8828 5.49623 21.3638 5.49623 21.963C5.49623 22.5228 5.77611 22.9919 6.33591 23.3704C6.90359 23.7488 7.7354 24.1036 8.83134 24.4348C10.8498 25.0419 12.3202 25.7948 13.2427 26.6936C14.1652 27.5925 14.6264 28.7121 14.6264 30.0524C14.6264 31.5426 14.0627 32.7134 12.9352 33.565C11.8077 34.4086 10.29 34.8304 8.38193 34.8304C7.05734 34.8304 5.85102 34.5899 4.76297 34.109C3.67491 33.6201 2.8431 32.9539 2.26753 32.1103C1.69985 31.2666 1.41602 30.289 1.41602 29.1772H4.97585C4.97585 31.0774 6.11121 32.0275 8.38193 32.0275C9.22557 32.0275 9.88392 31.858 10.357 31.5189C10.8301 31.172 11.0666 30.6911 11.0666 30.0761V30.0761Z" fill="#1E1E23"/>
<path d="M21.2089 34.594H17.7792V21.7975H21.2089V34.594ZM17.5781 18.4861C17.5781 17.9736 17.7477 17.5517 18.0867 17.2206C18.4336 16.8894 18.9027 16.7239 19.4941 16.7239C20.0775 16.7239 20.5427 16.8894 20.8896 17.2206C21.2365 17.5517 21.41 17.9736 21.41 18.4861C21.41 19.0064 21.2326 19.4322 20.8778 19.7633C20.5309 20.0945 20.0696 20.26 19.4941 20.26C18.9185 20.26 18.4533 20.0945 18.0985 19.7633C17.7516 19.4322 17.5781 19.0064 17.5781 18.4861V18.4861Z" fill="#278BD0"/>
<path d="M28.027 21.7978L28.1335 23.2288C29.0402 22.1171 30.2662 21.5613 31.8116 21.5613C33.4595 21.5613 34.5909 22.2118 35.2058 23.5127C36.1047 22.2118 37.3859 21.5613 39.0495 21.5613C40.4372 21.5613 41.4701 21.9673 42.1481 22.7794C42.8262 23.5836 43.1652 24.7978 43.1652 26.422V34.5943H39.7355V26.4339C39.7355 25.7085 39.5936 25.1802 39.3097 24.8491C39.0259 24.51 38.5252 24.3405 37.8077 24.3405C36.7827 24.3405 36.0731 24.8294 35.6789 25.8071L35.691 34.5943H32.2731V26.4457C32.2731 25.7045 32.1272 25.1684 31.8355 24.8373C31.5438 24.5061 31.047 24.3405 30.3453 24.3405C29.3755 24.3405 28.6738 24.7427 28.2402 25.5469V34.5943H24.8223V21.7978H28.027Z" fill="#1E1E23"/>
<path d="M58.0836 28.3143C58.0836 30.2854 57.6342 31.8663 56.7354 33.0568C55.8445 34.2395 54.6381 34.8308 53.1164 34.8308C51.8234 34.8308 50.7787 34.3814 49.9824 33.4826V39.5142H46.5645V21.7978H49.734L49.8524 23.0514C50.6802 22.058 51.7604 21.5613 53.0929 21.5613C54.6698 21.5613 55.8958 22.1447 56.771 23.3116C57.6462 24.4785 58.0838 26.087 58.0838 28.1369L58.0836 28.3143ZM54.6657 28.0659C54.6657 26.8754 54.4529 25.9569 54.0271 25.3104C53.6092 24.6638 52.9982 24.3405 52.194 24.3405C51.1217 24.3405 50.3845 24.7505 49.9824 25.5705V30.8097C50.4002 31.6534 51.1453 32.0752 52.2176 32.0752C53.8497 32.0752 54.6657 30.7388 54.6657 28.0659Z" fill="#1E1E23"/>
<path d="M64.5801 34.594H61.1504V16.4282H64.5801V34.594Z" fill="#1E1E23"/>
<path d="M74.0892 34.8308C72.2127 34.8308 70.6831 34.2552 69.5005 33.1041C68.3257 31.953 67.7383 30.4195 67.7383 28.5035V28.1724C67.7383 26.8872 67.9866 25.74 68.4834 24.7308C68.9801 23.7137 69.6818 22.9332 70.5885 22.3892C71.5031 21.8372 72.5439 21.5613 73.7107 21.5613C75.4611 21.5613 76.8369 22.1132 77.8383 23.217C78.8475 24.3208 79.3521 25.8859 79.3521 27.9122V29.3077H71.2035C71.3139 30.1435 71.645 30.8137 72.197 31.3183C72.7567 31.8229 73.4624 32.0752 74.3139 32.0752C75.6306 32.0752 76.6595 31.5982 77.4007 30.6442L79.0801 32.5246C78.5676 33.25 77.8738 33.8177 76.9986 34.2276C76.1234 34.6297 75.1536 34.8308 74.0892 34.8308V34.8308ZM73.6989 24.3287C73.0209 24.3287 72.469 24.5574 72.0432 25.0147C71.6253 25.472 71.3572 26.1264 71.239 26.9779H75.9933V26.7059C75.9775 25.949 75.7725 25.3655 75.3783 24.9555C74.9841 24.5377 74.4243 24.3287 73.6989 24.3287V24.3287Z" fill="#1E1E23"/>
<path d="M91.2404 30.0761C91.2404 29.4059 91.0039 28.8934 90.5308 28.5386C90.0577 28.1759 89.2062 27.7975 87.9762 27.4033C86.7463 27.0012 85.7725 26.6069 85.055 26.2206C83.0997 25.1641 82.122 23.7409 82.122 21.9512C82.122 21.0208 82.3822 20.1929 82.9026 19.4676C83.4309 18.7343 84.1838 18.1627 85.1615 17.7527C86.1471 17.3427 87.2509 17.1377 88.473 17.1377C89.7029 17.1377 90.7989 17.3624 91.7608 17.8118C92.7227 18.2534 93.4678 18.8802 93.996 19.6923C94.5322 20.5044 94.8002 21.4268 94.8002 22.4597H91.2522C91.2522 21.6713 91.0039 21.0602 90.5071 20.6266C90.0104 20.185 89.3127 19.9643 88.4138 19.9643C87.5465 19.9643 86.8724 20.1495 86.3915 20.5201C85.9105 20.8828 85.67 21.3638 85.67 21.963C85.67 22.5228 85.9499 22.9919 86.5097 23.3704C87.0774 23.7488 87.9092 24.1036 89.0052 24.4348C91.0236 25.0419 92.494 25.7948 93.4165 26.6936C94.339 27.5925 94.8002 28.7121 94.8002 30.0524C94.8002 31.5426 94.2365 32.7134 93.109 33.565C91.9815 34.4086 90.4638 34.8304 88.5558 34.8304C87.2312 34.8304 86.0248 34.5899 84.9368 34.109C83.8487 33.6201 83.0169 32.9539 82.4413 32.1103C81.8737 31.2666 81.5898 30.289 81.5898 29.1772H85.1497C85.1497 31.0774 86.285 32.0275 88.5558 32.0275C89.3994 32.0275 90.0577 31.858 90.5308 31.5189C91.0039 31.172 91.2404 30.6911 91.2404 30.0761V30.0761Z" fill="#278BD0"/>
<path d="M108.905 29.946L110.585 21.7974H113.884L110.62 34.5938H107.758L105.334 26.5399L102.909 34.5938H100.059L96.7949 21.7974H100.095L101.762 29.9341L104.104 21.7974H106.576L108.905 29.946Z" fill="#278BD0"/>
<path d="M123.766 34.5943C123.608 34.2868 123.494 33.9044 123.423 33.4471C122.595 34.3696 121.519 34.8308 120.194 34.8308C118.94 34.8308 117.9 34.4681 117.072 33.7428C116.252 33.0174 115.842 32.1028 115.842 30.999C115.842 29.6429 116.342 28.6021 117.344 27.8767C118.353 27.1513 119.808 26.7847 121.708 26.7768H123.281V26.0436C123.281 25.4523 123.127 24.9792 122.82 24.6244C122.52 24.2696 122.043 24.0922 121.388 24.0922C120.813 24.0922 120.36 24.2302 120.028 24.5061C119.705 24.7821 119.544 25.1605 119.544 25.6415H116.126C116.126 24.9003 116.354 24.2144 116.812 23.5836C117.269 22.9529 117.915 22.4601 118.751 22.1053C119.587 21.7426 120.525 21.5613 121.566 21.5613C123.143 21.5613 124.392 21.9594 125.315 22.7558C126.245 23.5442 126.71 24.6559 126.71 26.0909V31.6376C126.719 32.8518 126.888 33.7703 127.219 34.3932V34.5943H123.766ZM120.939 32.2171C121.444 32.2171 121.909 32.1067 122.335 31.886C122.76 31.6573 123.076 31.3538 123.281 30.9753V28.7756H122.003C120.293 28.7756 119.382 29.3669 119.272 30.5496L119.259 30.7506C119.259 31.1764 119.409 31.5272 119.709 31.8032C120.008 32.0791 120.418 32.2171 120.939 32.2171H120.939Z" fill="#278BD0"/>
<path d="M141.666 28.3143C141.666 30.2854 141.216 31.8663 140.317 33.0568C139.426 34.2395 138.22 34.8308 136.698 34.8308C135.405 34.8308 134.361 34.3814 133.564 33.4826V39.5142H130.146V21.7978H133.316L133.434 23.0514C134.262 22.058 135.342 21.5613 136.675 21.5613C138.252 21.5613 139.478 22.1447 140.353 23.3116C141.228 24.4785 141.666 26.087 141.666 28.1369L141.666 28.3143ZM138.248 28.0659C138.248 26.8754 138.035 25.9569 137.609 25.3104C137.191 24.6638 136.58 24.3405 135.776 24.3405C134.704 24.3405 133.966 24.7505 133.564 25.5705V30.8097C133.982 31.6534 134.727 32.0752 135.8 32.0752C137.432 32.0752 138.248 30.7388 138.248 28.0659V28.0659Z" fill="#278BD0"/>
</g>
<defs>
<clipPath id="clip0">
<rect width="1326" height="51" fill="white" transform="translate(-453)"/>
</clipPath>
</defs>
</svg>
