<?xml version="1.0" encoding="UTF-8"?>
<svg width="46px" height="46px" viewBox="0 0 46 46" version="1.1" xmlns="http://www.w3.org/2000/svg" xmlns:xlink="http://www.w3.org/1999/xlink">
    <!-- Generator: Sketch 48.2 (47327) - http://www.bohemiancoding.com/sketch -->
    <title>Group 14</title>
    <desc>Created with Sketch.</desc>
    <defs></defs>
    <g id="Footer" stroke="none" stroke-width="1" fill="none" fill-rule="evenodd" transform="translate(-716.000000, -369.000000)">
        <g id="Group-5" transform="translate(-10.000000, 0.000000)">
            <g id="Group-14" transform="translate(726.000000, 369.000000)">
                <circle id="Oval-Copy-5" fill="#04E8B0" cx="23" cy="23" r="23"></circle>
                <g id="Bitcoin" transform="translate(14.000000, 11.000000)" fill="#FFFFFF" fill-rule="nonzero">
                    <path d="M16.8556602,9.15687053 C17.1964172,6.87909488 15.4621408,5.65461661 13.0907506,4.83776282 L13.8599947,1.75222737 L11.9818195,1.28415464 L11.2329031,4.28837917 C10.7391532,4.16534291 10.2320299,4.04926087 9.72811613,3.93424871 L10.4823819,0.91023139 L8.60527651,0.442158658 L7.83549746,3.52662423 C7.4268031,3.43354462 7.0255979,3.3415349 6.63616139,3.24471071 L6.63830115,3.23508179 L4.04812038,2.588339 L3.54848617,4.594365 C3.54848617,4.594365 4.94200557,4.91372434 4.91258385,4.93351713 C5.67326891,5.12342092 5.81074856,5.62679971 5.78774613,6.02586515 L4.91151397,9.54095764 C4.96393812,9.55433115 5.03187553,9.573589 5.10676717,9.60354565 C5.04417916,9.58803238 4.97731162,9.57091429 4.90830433,9.55433115 L3.68008148,14.4784563 C3.58700187,14.7095505 3.35109322,15.0561918 2.81936259,14.9245965 C2.8380855,14.9518784 1.45419503,14.5838395 1.45419503,14.5838395 L0.52179415,16.7337645 L2.96593622,17.3430614 C3.42063545,17.4570037 3.86624069,17.5762954 4.30489171,17.6886328 L3.5276235,20.8094743 L5.40365902,21.2775471 L6.17343806,18.1898719 C6.68591083,18.3289563 7.18340528,18.457342 7.67020092,18.5782385 L6.90309658,21.6514703 L8.78127186,22.1195431 L9.55854006,19.0045859 C12.7612274,19.6106732 15.1695285,19.3662055 16.1832403,16.469504 C17.0000941,14.1371644 16.1425849,12.7917896 14.457523,11.9144876 C15.684676,11.6315042 16.6090528,10.8242793 16.8556602,9.15687053 Z M12.5643694,15.1744136 C11.9839592,17.5067531 8.05696274,16.2458989 6.7838049,15.9297492 L7.81516973,11.7951959 C9.08832757,12.1129504 13.1709917,12.7420402 12.5643694,15.1744136 Z M13.1453145,9.12316929 C12.6157237,11.2447424 9.34723866,10.1668378 8.28698705,9.90257726 L9.22206263,6.152646 C10.2823142,6.41690649 13.696838,6.91012141 13.1453145,9.12316929 Z" id="Shape"></path>
                </g>
            </g>
        </g>
    </g>
</svg>