<?xml version="1.0" encoding="UTF-8"?>
<svg width="46px" height="46px" viewBox="0 0 46 46" version="1.1" xmlns="http://www.w3.org/2000/svg" xmlns:xlink="http://www.w3.org/1999/xlink">
    <!-- Generator: Sketch 48.2 (47327) - http://www.bohemiancoding.com/sketch -->
    <title>Page 1</title>
    <desc>Created with Sketch.</desc>
    <defs>
        <polygon id="path-1" points="0.000431818182 0.842563636 19 0.842563636 19 12.9542 0.000431818182 12.9542"></polygon>
    </defs>
    <g id="Footer" stroke="none" stroke-width="1" fill="none" fill-rule="evenodd" transform="translate(-326.000000, -369.000000)">
        <g id="Group-5" transform="translate(-10.000000, 0.000000)">
            <g id="Page-1" transform="translate(336.000000, 369.000000)">
                <circle id="Oval-Copy-2" fill="#04E8B0" cx="23" cy="23" r="23"></circle>
                <g id="Group-3" transform="translate(14.000000, 16.000000)">
                    <mask id="mask-2" fill="white">
                        <use xlink:href="#path-1"></use>
                    </mask>
                    <g id="Clip-2"></g>
                    <path d="M18.74825,0.842563636 L9.77161364,8.10833636 C9.69302273,8.17224545 9.59629545,8.2042 9.50043182,8.2042 C9.40370455,8.2042 9.30697727,8.17224545 9.22838636,8.10833636 L0.25175,0.842563636 C0.0954318182,1.10251818 0.000431818182,1.4022 0.000431818182,1.72692727 L0.000431818182,11.2269273 C0.000431818182,12.1795182 0.775113636,12.9542 1.72770455,12.9542 L17.2731591,12.9542 C18.22575,12.9542 19.0004318,12.1795182 19.0004318,11.2269273 L19.0004318,1.72692727 C19.0004318,1.4022 18.9045682,1.10251818 18.74825,0.842563636" id="Fill-1" fill="#FFFFFF" mask="url(#mask-2)"></path>
                </g>
                <path d="M32.1258273,16.2344773 C31.8727818,16.0893864 31.5843273,16.0004318 31.2725545,16.0004318 L15.7271,16.0004318 C15.4153273,16.0004318 15.1268727,16.0893864 14.8738273,16.2344773 L23.4998273,23.2169773 L32.1258273,16.2344773 Z" id="Fill-4" fill="#FFFFFF"></path>
            </g>
        </g>
    </g>
</svg>