<?xml version="1.0" encoding="UTF-8"?>
<svg width="46px" height="46px" viewBox="0 0 46 46" version="1.1" xmlns="http://www.w3.org/2000/svg" xmlns:xlink="http://www.w3.org/1999/xlink">
    <!-- Generator: Sketch 48.2 (47327) - http://www.bohemiancoding.com/sketch -->
    <title>Group 12</title>
    <desc>Created with Sketch.</desc>
    <defs>
        <polygon id="path-1" points="0 0 19.9999167 0 19.9999167 17.0830833 0 17.0830833"></polygon>
    </defs>
    <g id="Footer" stroke="none" stroke-width="1" fill="none" fill-rule="evenodd" transform="translate(-521.000000, -369.000000)">
        <g id="Group-5" transform="translate(-10.000000, 0.000000)">
            <g id="Group-12" transform="translate(531.000000, 369.000000)">
                <circle id="Oval-Copy-3" fill="#04E8B0" cx="23" cy="23" r="23"></circle>
                <g id="Page-1" transform="translate(13.000000, 14.000000)">
                    <mask id="mask-2" fill="white">
                        <use xlink:href="#path-1"></use>
                    </mask>
                    <g id="Clip-2"></g>
                    <path d="M18.0940833,9.88725 C17.76325,8.92475 17.09325,8.05808333 16.1749167,7.34725 C16.4865833,6.93225 16.9715833,6.66641667 17.4999167,6.66641667 C18.4190833,6.66641667 19.1665833,7.41391667 19.1665833,8.33308333 C19.1665833,9.02891667 18.72325,9.64391667 18.0940833,9.88725 M13.33325,11.6664167 C12.4140833,11.6664167 11.6665833,10.9189167 11.6665833,9.99975 C11.6665833,9.08058333 12.4140833,8.33308333 13.33325,8.33308333 C14.2524167,8.33308333 14.9999167,9.08058333 14.9999167,9.99975 C14.9999167,10.9189167 14.2524167,11.6664167 13.33325,11.6664167 M13.15575,14.01225 C12.2699167,14.52225 11.1499167,14.80225 9.99991667,14.80225 C8.84408333,14.80225 7.71908333,14.5189167 6.83075,14.0039167 C6.63158333,13.8889167 6.56325,13.6339167 6.67908333,13.43475 C6.79408333,13.2355833 7.04908333,13.16725 7.24825,13.2830833 C8.77075,14.1655833 11.21325,14.1680833 12.7399167,13.28975 C12.9390833,13.17475 13.1940833,13.24475 13.30825,13.4439167 C13.4240833,13.64225 13.3549167,13.89725 13.15575,14.01225 M4.99991667,9.99975 C4.99991667,9.08058333 5.74741667,8.33308333 6.66658333,8.33308333 C7.58575,8.33308333 8.33325,9.08058333 8.33325,9.99975 C8.33325,10.9189167 7.58575,11.6664167 6.66658333,11.6664167 C5.74741667,11.6664167 4.99991667,10.9189167 4.99991667,9.99975 M1.90491667,9.88808333 C1.26908333,9.64725 0.83325,9.04225 0.83325,8.33308333 C0.83325,7.41391667 1.58075,6.66641667 2.49991667,6.66641667 C3.02908333,6.66641667 3.51408333,6.93225 3.82491667,7.34641667 C2.90658333,8.05808333 2.23575,8.92558333 1.90491667,9.88808333 M19.9999167,8.33308333 C19.9999167,6.95475 18.87825,5.83308333 17.4999167,5.83308333 C16.6965833,5.83308333 15.9474167,6.22975 15.4815833,6.86725 C14.11575,6.02975 12.3590833,5.50141667 10.42825,5.43141667 C10.4815833,4.50641667 10.7615833,2.89058333 11.6849167,2.36058333 C12.2840833,2.01558333 13.1290833,2.15308333 14.1924167,2.75808333 C14.3240833,4.01391667 15.3765833,4.99975 16.6665833,4.99975 C18.0449167,4.99975 19.1665833,3.87891667 19.1665833,2.49975 C19.1665833,1.12141667 18.0449167,-0.00025 16.6665833,-0.00025 C15.5149167,-0.00025 14.55325,0.78725 14.2640833,1.84808333 C13.07325,1.24975 12.0665833,1.17891667 11.26825,1.63891667 C9.89991667,2.42558333 9.64158333,4.53641667 9.59408333,5.43058333 C7.65491667,5.49641667 5.88908333,6.02558333 4.51825,6.86725 C4.05241667,6.22975 3.30325,5.83308333 2.49991667,5.83308333 C1.12158333,5.83308333 -8.33333333e-05,6.95475 -8.33333333e-05,8.33308333 C-8.33333333e-05,9.43308333 0.697416667,10.36975 1.70575,10.7030833 C1.68241667,10.8830833 1.66658333,11.0655833 1.66658333,11.24975 C1.66658333,14.46725 5.40491667,17.0830833 9.99991667,17.0830833 C14.5949167,17.0830833 18.33325,14.46725 18.33325,11.24975 C18.33325,11.06475 18.31825,10.88225 18.29325,10.7014167 C19.29075,10.36475 19.9999167,9.41308333 19.9999167,8.33308333" id="Fill-1" fill="#FFFFFF" mask="url(#mask-2)"></path>
                </g>
            </g>
        </g>
    </g>
</svg>