<?xml version="1.0" encoding="UTF-8"?>
<svg width="46px" height="46px" viewBox="0 0 46 46" version="1.1" xmlns="http://www.w3.org/2000/svg" xmlns:xlink="http://www.w3.org/1999/xlink">
    <!-- Generator: Sketch 48.2 (47327) - http://www.bohemiancoding.com/sketch -->
    <title>Group 9</title>
    <desc>Created with Sketch.</desc>
    <defs>
        <polygon id="path-1" points="0.000260869565 0 19.5165217 0 19.5165217 15.6521739 0.000260869565 15.6521739"></polygon>
    </defs>
    <g id="Footer" stroke="none" stroke-width="1" fill="none" fill-rule="evenodd" transform="translate(-423.000000, -369.000000)">
        <g id="Group-5" transform="translate(-10.000000, 0.000000)">
            <g id="Group-9" transform="translate(433.000000, 369.000000)">
                <circle id="Oval-Copy-2" fill="#04E8B0" cx="23" cy="23" r="23"></circle>
                <g id="Page-1" transform="translate(14.000000, 15.000000)">
                    <mask id="mask-2" fill="white">
                        <use xlink:href="#path-1"></use>
                    </mask>
                    <g id="Clip-2"></g>
                    <path d="M19.5167826,2.02956522 C18.8089565,2.34521739 18.2124348,2.35565217 17.5793913,2.04347826 C18.395913,1.55478261 18.4333043,1.21217391 18.728087,0.288695652 C17.9646087,0.74173913 17.1185217,1.07043478 16.2185217,1.24869565 C15.4985217,0.480869565 14.4706957,0 13.3350435,0 C11.1524348,0 9.38373913,1.77043478 9.38373913,3.95130435 C9.38373913,4.26173913 9.41852174,4.56347826 9.48547826,4.85217391 C6.20113043,4.68782609 3.28982609,3.11478261 1.34113043,0.723478261 C1.00113043,1.30695652 0.805478261,1.98608696 0.805478261,2.71043478 C0.805478261,4.08173913 1.50373913,5.29043478 2.56373913,5.99913043 C1.91591304,5.97826087 1.30721739,5.80086957 0.774173913,5.50521739 C0.773304348,5.52173913 0.773304348,5.5373913 0.773304348,5.55478261 C0.773304348,7.46956522 2.13591304,9.06608696 3.94373913,9.42956522 C3.3646087,9.58695652 2.75417391,9.61130435 2.15852174,9.4973913 C2.662,11.0669565 4.12113043,12.2095652 5.84982609,12.2417391 C4.1593913,13.5669565 2.06286957,14.1191304 0.000260869565,13.8773913 C1.74895652,14.9982609 3.82547826,15.6521739 6.05678261,15.6521739 C13.3254783,15.6521739 17.2985217,9.63130435 17.2985217,4.40956522 C17.2985217,4.23826087 17.295913,4.06869565 17.288087,3.89826087 C18.0593913,3.34173913 18.9872174,2.8226087 19.5167826,2.02956522" id="Fill-1" fill="#FFFFFF" mask="url(#mask-2)"></path>
                </g>
            </g>
        </g>
    </g>
</svg>