<?xml version="1.0" encoding="utf-8"?>
<!-- Generator: Adobe Illustrator 25.4.1, SVG Export Plug-In . SVG Version: 6.00 Build 0)  -->
<svg version="1.1" id="Layer_1" xmlns="http://www.w3.org/2000/svg" xmlns:xlink="http://www.w3.org/1999/xlink" x="0px" y="0px"
	 width="167px" height="64px" viewBox="0 0 167 64" style="enable-background:new 0 0 167 64;" xml:space="preserve">
<style type="text/css">
	.st0{fill:#B1B5C4;}
</style>
<g>
	<path class="st0" d="M0.3,40.4L2.4,40V20.6L0,20.3l0.1-2.1h14.7l-0.4,5.9L11.5,24l-0.2-3.7H6.8V29h2l0.5-2l2.1,0.1v6h-2l-0.5-2.1
		h-2v9.3h4.6l0.4-4l3.1,0.1l0.2,6.1h-15L0.3,40.4z"/>
	<path class="st0" d="M16.5,42.6l0.1-1.8l1.7-0.3V28.1L16.3,28v-1.8l4.8-0.7l0.4,1v0.7c1.2-1.2,2.6-1.9,4.4-1.9
		c2.6,0,4.6,1.6,4.6,4.7v10.4l1.8,0.3l-0.1,1.8h-5.7V30.9c0-1.7-0.6-2.6-2.1-2.6c-0.5,0-0.9,0.1-1.3,0.2c-0.3,0.2-0.5,0.5-0.7,0.8
		v11.2l1.7,0.3l-0.1,1.8C23.9,42.6,16.5,42.6,16.5,42.6z"/>
	<path class="st0" d="M108.8,42.6l0.1-1.8l1.7-0.3V28.1l-1.9-0.2v-1.8l4.8-0.7l0.4,1v0.7c1.2-1.2,2.6-1.9,4.4-1.9
		c2.6,0,4.6,1.6,4.6,4.7v10.4l1.8,0.3l-0.1,1.8h-5.7V30.9c0-1.7-0.6-2.6-2.1-2.6c-0.5,0-0.9,0.1-1.3,0.2c-0.3,0.2-0.5,0.5-0.7,0.8
		v11.2l1.7,0.3l-0.1,1.8C116.1,42.6,108.8,42.6,108.8,42.6z"/>
	<path class="st0" d="M41.3,42.2c-0.7,0.3-1.9,0.6-3.4,0.6c-2,0-3.9-0.9-3.9-3.9V28.1L32,27.8l0.1-2.1l2.2-0.1l0.9-3.3l2.8-0.1v3.5
		h3l-0.2,2.1l-2.8,0.3v10.8c0,0.9,0.5,1.5,1.4,1.5h1.7L41.3,42.2z"/>
	<path class="st0" d="M155.6,42.6l0.1-1.8l1.6-0.4V28.1l-1.8-0.2v-1.8l5-0.7l0.3,1.2V27c1.3-1,3.1-1.6,5.2-1.6l0.7,0.6l-0.5,4.6
		l-2.8-0.1l-0.3-2.5c-0.6,0.1-1.3,0.3-1.8,0.6v11.7l1.7,0.4l-0.1,1.8L155.6,42.6L155.6,42.6L155.6,42.6z"/>
	<path class="st0" d="M83.7,42.6l0.1-1.8l1.6-0.4V28.1L83.5,28v-1.8l5-0.7l0.3,1.2V27c1.3-1,3.1-1.6,5.2-1.6l0.7,0.6l-0.5,4.6
		l-2.8-0.1l-0.3-2.5c-0.6,0.1-1.3,0.3-1.8,0.6v11.7l1.7,0.4L91,42.6L83.7,42.6L83.7,42.6L83.7,42.6z"/>
	<path class="st0" d="M42.5,42.6l0.1-1.8l1.6-0.4V28.1L42.3,28v-1.8l5-0.7l0.3,1.2V27c1.3-1,3.1-1.6,5.2-1.6l0.7,0.6l-0.5,4.6
		l-2.8-0.1L50,28.1c-0.6,0.1-1.3,0.3-1.8,0.6v11.7l1.7,0.4l-0.1,1.8L42.5,42.6L42.5,42.6L42.5,42.6z"/>
	<path class="st0" d="M58.3,35.1c0,2.9,1.3,5.2,3.8,5.2c1.3,0,2.3-0.3,3.6-0.8l0.7,1.6c-1.3,1-3.1,1.8-5.4,1.8c-4.4,0-7-3.9-7-8.8
		c0-4.2,1.9-8.8,7-8.8c4.4,0,6.1,4.1,6.1,8.7L66.7,35L58.3,35.1z M58.3,33.1l5.1-0.2c-0.1-2-0.5-5.3-2.5-5.3c-0.5,0-0.8,0.1-1.4,0.4
		C58.6,29.4,58.3,31.9,58.3,33.1z"/>
	<path class="st0" d="M129.3,35.1c0,2.9,1.3,5.2,3.8,5.2c1.3,0,2.3-0.3,3.6-0.8l0.7,1.6c-1.2,1-3.1,1.8-5.4,1.8c-4.4,0-7-3.9-7-8.8
		c0-4.2,1.8-8.8,7-8.8c4.4,0,6.1,4.1,6.1,8.7l-0.4,1.1L129.3,35.1z M129.2,33.1l5.1-0.2c-0.1-2-0.5-5.3-2.5-5.3
		c-0.5,0-0.8,0.1-1.4,0.4C129.6,29.4,129.2,31.9,129.2,33.1z"/>
	<path class="st0" d="M99.5,35.1c0,2.9,1.3,5.2,3.8,5.2c1.3,0,2.3-0.3,3.6-0.8l0.7,1.6c-1.2,1-3.1,1.8-5.4,1.8c-4.4,0-7-3.9-7-8.8
		c0-4.2,1.8-8.8,7-8.8c4.4,0,6.1,4.1,6.1,8.7l-0.4,1.1L99.5,35.1z M99.4,33.1l5.1-0.2c-0.1-2-0.5-5.3-2.5-5.3
		c-0.5,0-0.8,0.1-1.4,0.4C99.8,29.4,99.4,31.9,99.4,33.1z"/>
	<path class="st0" d="M149.6,42.6l-0.4-1.5c-1.1,1.1-2.2,1.7-3.9,1.7c-2.6,0-5-1.3-5-5V27.7l-1.9-0.2v-1.6l5.5-0.6l0.4,1.5v10.6
		c0,1.9,0.8,2.8,2.3,2.8c0.4,0,1-0.1,1.5-0.3c0.3-0.3,0.5-0.6,0.8-0.9V27.7l-2-0.2v-1.6l5.6-0.6l0.4,1.5v13.7l1.7,0.3l-0.2,1.8
		C154.4,42.6,149.6,42.6,149.6,42.6z"/>
	<path class="st0" d="M75.4,40.4c-0.9,0-1.6-0.2-2.1-0.5V29.1c0.2-0.4,0.5-0.7,0.8-1c0.5-0.2,1-0.3,1.5-0.3c2.3,0,2.7,2.3,2.7,6.5
		c0,4-0.6,5.1-0.8,5.6C76.9,40.2,76.3,40.4,75.4,40.4z M82.3,33.6c0-5.2-1.5-8.4-5.3-8.4c-2.5,0-3.7,1.5-4.2,2.1v-0.6l-0.4-1.5
		l-5,0.7v1.8l1.9,0.3v20.8l-1.6,0.3l-0.1,1.7h7.4l0.1-1.7l-1.7-0.3v-6.6c0.7,0.4,1.7,0.6,2.8,0.6C82.2,42.8,82.3,36.5,82.3,33.6z"/>
	<path class="st0" d="M165.6,40.2c0.8,0,1.4,0.5,1.4,1.2c0,0.7-0.6,1.2-1.4,1.2c-0.8,0-1.4-0.5-1.4-1.2
		C164.2,40.7,164.8,40.2,165.6,40.2z M165.6,42.2c0.6,0,0.9-0.3,0.9-0.8c0-0.5-0.4-0.8-0.9-0.8c-0.6,0-0.9,0.3-0.9,0.8
		C164.7,41.9,165.1,42.2,165.6,42.2z M165,41.9l0-0.2l0.1,0V41l-0.2,0l0-0.2h0.7c0.3,0,0.5,0.1,0.5,0.3c0,0.2-0.1,0.3-0.2,0.3
		c0.1,0.1,0.2,0.2,0.2,0.3l0.1,0l0,0.2H166c-0.1-0.1-0.2-0.2-0.3-0.4h-0.1v0.2l0.1,0l0,0.2L165,41.9L165,41.9L165,41.9z M165.5,41
		v0.3h0.1c0.2,0,0.2-0.1,0.2-0.2C165.9,41,165.8,41,165.5,41L165.5,41L165.5,41z"/>
</g>
</svg>
