<?xml version="1.0" encoding="utf-8"?>
<!-- Generator: Adobe Illustrator 25.4.1, SVG Export Plug-In . SVG Version: 6.00 Build 0)  -->
<svg version="1.1" id="Layer_1" xmlns="http://www.w3.org/2000/svg" xmlns:xlink="http://www.w3.org/1999/xlink" x="0px" y="0px"
	 width="167px" height="64px" viewBox="0 0 167 64" style="enable-background:new 0 0 167 64;" xml:space="preserve">
<style type="text/css">
	.st0{fill:#B1B5C4;}
</style>
<path class="st0" d="M6.9,20.7h14.2c0,2,0,4,0,6.1c0.6,0,1.3,0,1.9,0c0,1.4,0,2.7,0,4.1c-0.7,0-1.3,0-2,0c0-1.3,0-2.7,0-4
	c-1.4,0-2.7,0-4.1,0c0-0.7,0-1.3,0-2c-0.7,0-1.4,0-2.1,0c-0.1,3.4,0,6.8,0,10.2c-0.6,0-1.3,0-1.9,0c0-3.4,0-6.8,0-10.2
	c-0.7,0-1.4,0-2.1,0c0,0.7,0,1.3,0,2c-1.3,0-2.7,0-4,0c0,1.3,0,2.7,0,4c-0.7,0-1.3,0-2,0c0-1.4,0-2.7,0-4.1c0.7,0,1.3,0,2,0
	C6.9,24.7,6.9,22.7,6.9,20.7L6.9,20.7z"/>
<path class="st0" d="M32.1,28c0.8,0,1.5,0,2.3,0c0,1.5,0,3,0,4.5c2.2,0,4.4,0,6.7,0c0-1.5,0-3,0-4.5c0.8,0,1.5,0,2.3,0
	c0,3.8,0,7.6,0,11.3c-0.8,0-1.5,0-2.3,0c0-1.5,0-3,0-4.5c-2.2,0-4.4,0-6.7,0c0,1.5,0,3,0,4.5c-0.8,0-1.5,0-2.3,0
	C32.1,35.6,32.1,31.8,32.1,28L32.1,28z"/>
<path class="st0" d="M58.8,28.1c3.7-0.1,7.5,0,11.2,0c0,0.8,0,1.6,0,2.4c-3,0-6,0-8.9,0c0,2.2,0,4.4,0,6.7c3,0,6,0,8.9,0
	c0,0.8,0,1.6,0,2.4c-3.7,0-7.5,0-11.2,0C58.8,35.6,58.8,31.8,58.8,28.1L58.8,28.1z"/>
<path class="st0" d="M72.2,28c0.8,0,1.5,0,2.3,0c0,1.5,0,3,0,4.5c1.5,0,3,0,4.5,0c0-0.8,0-1.6,0-2.3c0.7,0,1.5,0,2.2,0
	c0-0.7,0-1.5,0-2.2c0.8,0,1.5,0,2.3,0c0,0.8,0,1.6,0,2.4c-0.7,0-1.5,0-2.2,0c0,0.7,0,1.5,0,2.2c-0.7,0-1.5,0-2.2,0
	c0,0.8,0,1.5,0,2.3c0.7,0,1.5,0,2.2,0c0,0.7,0,1.5,0,2.2c0.7,0,1.5,0,2.2,0c0,0.8,0,1.6,0,2.4c-0.8,0-1.5,0-2.3,0c0-0.7,0-1.5,0-2.2
	c-0.7,0-1.5,0-2.2,0c0-0.8,0-1.5,0-2.3c-1.5,0-3,0-4.5,0c0,1.5,0,3,0,4.5c-0.8,0-1.5,0-2.3,0C72.2,35.6,72.2,31.8,72.2,28L72.2,28z"
	/>
<path class="st0" d="M85.6,28c3.7,0,7.5,0,11.2,0c0,0.8,0,1.6,0,2.3c-3,0-5.9,0-8.9,0c0,0.7,0,1.4,0,2.2c1.5,0,3,0,4.4,0
	c0,0.8,0,1.6,0,2.4c-1.5,0-3,0-4.5,0c0,0.7,0,1.4,0,2.1c2.9,0,6-0.1,8.8,0.1c0.1,0.8,0,1.5,0,2.3c-3.7,0-7.5,0-11.2,0
	C85.6,35.6,85.6,31.8,85.6,28L85.6,28z"/>
<path class="st0" d="M112.4,28c3.7,0,7.5,0,11.2,0c0,3.8,0,7.6,0,11.4c-0.8,0-1.5,0-2.3,0c0-3,0-6,0-9c-2.2,0-4.4,0-6.6,0
	c0,3,0,6,0,9c-0.8,0-1.5,0-2.3,0C112.4,35.6,112.4,31.8,112.4,28L112.4,28z"/>
<path class="st0" d="M152.5,28.1c3.7-0.1,7.5,0,11.2,0c0,3.8,0,7.6,0,11.4c-0.8,0-1.5,0-2.3,0c0-3,0-6,0-9c-2.2,0-4.4,0-6.7,0
	c0,3,0,6,0,9c-0.8,0-1.5,0-2.3,0C152.5,35.6,152.5,31.8,152.5,28.1L152.5,28.1z"/>
<path class="st0" d="M45.4,28c3.7,0,7.5,0,11.2,0c0,3.8,0,7.6,0,11.4c-0.8,0-1.5,0-2.3,0c0-1.5,0-3,0-4.5c-2.2,0-4.4,0-6.7,0
	c0,1.5,0,3,0,4.5c-0.8,0-1.5,0-2.3,0C45.4,35.6,45.4,31.8,45.4,28L45.4,28z M47.7,30.4c0,0.7,0,1.4,0,2.2c2.2,0,4.5,0,6.7,0
	c0-0.7,0-1.4,0-2.2C52.2,30.4,49.9,30.4,47.7,30.4L47.7,30.4z"/>
<path class="st0" d="M99,28.1c3.7-0.1,7.4,0,11.1,0c0,2.3,0,4.6,0,6.9c-0.7,0-1.5,0-2.2,0c0,0.7,0,1.4,0,2.1c0.7,0,1.5,0,2.2,0
	c0,0.8,0,1.6,0,2.4c-0.8,0-1.5,0-2.3,0c0-0.7,0-1.5,0-2.2c-0.7,0-1.5,0-2.2,0c0-0.8,0-1.5,0-2.3c-1.5,0-2.9,0-4.4,0c0,1.5,0,3,0,4.5
	c-0.8,0-1.5,0-2.3,0C99,35.6,99,31.8,99,28.1L99,28.1z M101.3,30.4c0,0.7,0,1.5,0,2.2c2.2,0,4.4,0,6.6,0c0-0.7,0-1.4,0-2.2
	C105.7,30.4,103.5,30.4,101.3,30.4L101.3,30.4z"/>
<path class="st0" d="M125.8,28c3.7,0,7.5,0,11.2,0c0,3.8,0,7.6,0,11.3c-3.7,0-7.5,0-11.2,0C125.8,35.6,125.8,31.8,125.8,28L125.8,28
	z M128.1,30.4l0,0.1c0,2.2,0,4.4,0,6.5c2.2,0,4.4,0,6.6,0c0-2.2,0-4.4,0-6.7C132.5,30.4,130.3,30.4,128.1,30.4L128.1,30.4z"/>
<path class="st0" d="M139.1,28c3.7,0,7.5,0,11.2,0c0,3.8,0,7.6,0,11.4c-3.7,0-7.5,0-11.2,0C139.1,35.6,139.1,31.8,139.1,28L139.1,28
	z M141.4,30.4c0,2.2,0,4.4,0,6.7c2.2,0,4.4,0,6.7,0c0-2.2,0-4.4,0-6.7C145.9,30.4,143.6,30.4,141.4,30.4L141.4,30.4z"/>
<path class="st0" d="M2.9,30.8c0.7,0,1.4,0,2.1,0c0.1,1.8,0,3.6,0,5.3c0,0.4,0,0.6,0.1,0.9C5.7,37,6.3,37,6.9,37c0,1.3,0,2.7,0,4
	c1.3,0,2.7,0,4,0c0,0.7,0,1.4,0,2.1c2,0,4,0,6.1,0c0-0.7,0-1.3,0-2c1.2-0.2,2.7-0.1,3.9,0c0.2-1.3,0.1-2.8,0.1-4.1
	c0.6,0,1.3,0,1.9,0c0,1.3,0,2.7,0,4c-0.7,0-1.5-0.2-2,0.2c0.1,1.8,0,3.7,0,5.5H6.9c0-1.9,0-3.9,0-5.8c-0.6,0-1.3,0-2,0
	c-0.1-1.3,0.1-2.7-0.1-4.1c-0.7,0-1.3,0.1-2,0V30.8L2.9,30.8z"/>
<path class="st0" d="M23.1,30.8c0.6,0,1.3,0,1.9,0c0,0.7,0,1.4,0,2.1c0.7,0,1.3,0,2,0c0,0.7,0,1.4,0,2.1c-0.7,0-1.4,0-2,0
	c0,0.7,0,1.4,0,2.1c-0.7,0-1.3,0-2,0C23.1,34.9,23,32.8,23.1,30.8L23.1,30.8z"/>
</svg>
