<?xml version="1.0" encoding="utf-8"?>
<!-- Generator: Adobe Illustrator 25.4.1, SVG Export Plug-In . SVG Version: 6.00 Build 0)  -->
<svg version="1.1" id="Layer_1" xmlns="http://www.w3.org/2000/svg" xmlns:xlink="http://www.w3.org/1999/xlink" x="0px" y="0px"
	 width="167px" height="64px" viewBox="0 0 167 64" style="enable-background:new 0 0 167 64;" xml:space="preserve">
<style type="text/css">
	.st0{fill:#B1B5C4;}
	.st1{filter:url(#Adobe_OpacityMaskFilter);}
	.st2{fill-rule:evenodd;clip-rule:evenodd;fill:#FFFFFF;}
	.st3{mask:url(#b_00000158714607712864657070000009903738177445839489_);fill:#B1B5C4;}
	.st4{filter:url(#Adobe_OpacityMaskFilter_00000111184206859636480140000005584620415946265017_);}
	.st5{mask:url(#d_00000016764401669406538890000004282269145877924741_);fill:#B1B5C4;}
	.st6{filter:url(#Adobe_OpacityMaskFilter_00000116209445041291020820000009011065252082589845_);}
	.st7{mask:url(#f_00000046326438770974600280000001005102024205761938_);fill:#B1B5C4;}
</style>
<g>
	<path class="st0" d="M123.5,42.6c-5.7,0-9.2-3.3-9.2-8.6c0-5.5,3.3-8.9,8.5-8.9h0.4c0.7,0,1.6,0,2.8,0.2v-6.6h3.7V42
		C129.7,42,126.2,42.6,123.5,42.6 M123.4,28c-3.6,0-5.3,1.9-5.3,5.9c0,3.6,2.1,5.8,5.5,5.8c0.6,0,1.4,0,2.4-0.1V28.2
		C125,28.1,124.2,28,123.4,28 M72.8,42.1l-10-17.4l0,17.4h-3.5V20h4.9l10,17.3l0-17.3h3.5v22.1H72.8z M104.6,42.4
		c-1.7,0-3.4-0.2-5.5-0.6l-0.2,0v-3.1l0.3,0.1c1.8,0.4,3.4,0.7,5,0.7c1.3,0,4.3-0.2,4.3-2.1c0-1.6-2.1-2-3.7-2.3l-0.1,0
		c-0.3-0.1-0.6-0.1-0.9-0.2c-2.4-0.6-5-1.6-5-4.9c0-3.2,2.5-5,6.9-5c2.1,0,3.6,0.2,4.9,0.4l0.6,0.1v3l-0.3-0.1
		c-1.4-0.3-3-0.5-4.6-0.5c-1.7,0-3.8,0.3-3.8,1.9c0,1.3,1.7,1.7,3.7,2.1c2.7,0.6,6.2,1.3,6.2,5.1C112.3,40.4,109.5,42.4,104.6,42.4
		 M140.1,42.4c-3.8,0-7.4-0.7-7.4-5.6c0-5.3,5.5-5.3,8.8-5.3c0.3,0,1.9,0.1,2.3,0.1c0-3,0-3.7-4.4-3.7c-1.7,0-3.6,0.3-5.3,0.6
		l-0.3,0.1v-2.9l0.2,0c2-0.4,3.8-0.6,5.8-0.6c4.2,0,7.8,0.4,7.8,5.6V42l-0.3,0C144.4,42.4,142.1,42.4,140.1,42.4 M141.4,34.1
		c-3.2,0-5.1,0.5-5.1,2.8c0,2.7,2.5,2.9,4.8,2.9c0.9,0,2.4-0.1,2.9-0.1v-5.4C143.4,34.2,141.6,34.1,141.4,34.1 M88.2,42.4
		c-3.8,0-7.4-0.7-7.4-5.6c0-5.3,5.5-5.3,8.8-5.3c0.3,0,1.9,0.1,2.3,0.1c0-3,0-3.7-4.4-3.7c-1.7,0-3.6,0.3-5.3,0.6l-0.3,0.1v-2.9
		l0.2,0c1.9-0.4,3.8-0.6,5.7-0.6c4.2,0,7.8,0.4,7.8,5.6V42l-0.3,0C92.5,42.4,90.1,42.4,88.2,42.4 M89.5,34.1c-3.2,0-5.1,0.5-5.1,2.8
		c0,2.7,2.5,2.9,4.8,2.9c0.9,0,2.5-0.1,2.9-0.1v-5.4C91.4,34.2,89.7,34.1,89.5,34.1"/>
	<g transform="translate(139 16)">
		<defs>
			<filter id="Adobe_OpacityMaskFilter" filterUnits="userSpaceOnUse" x="11.6" y="9.1" width="15.5" height="24.5">
				<feColorMatrix  type="matrix" values="1 0 0 0 0  0 1 0 0 0  0 0 1 0 0  0 0 0 1 0"/>
			</filter>
		</defs>
		
			<mask maskUnits="userSpaceOnUse" x="11.6" y="9.1" width="15.5" height="24.5" id="b_00000158714607712864657070000009903738177445839489_">
			<g class="st1">
				<path id="a_00000088845344887016056010000012392846642921079425_" class="st2" d="M11,8h16.1v25.7H11V8z"/>
			</g>
		</mask>
		<path class="st3" d="M23.3,33.6v-7.2c-1.4,0.2-2.2,0.2-2.8,0.2c-1.5,0-3.1-0.3-4.4-0.9c-2.8-1.2-4.5-4.2-4.5-8
			c0-1.9,0.5-5.4,3.6-7.3c1.6-0.9,3.4-1.3,6.2-1.3c1,0,2.3,0.1,3.6,0.2l2.1,0.1v22.5C27.1,31.9,23.3,33.6,23.3,33.6z M21.1,12
			c-3.8,0-5.7,1.9-5.7,5.7c0,4.9,2.8,5.9,5.2,5.9c0.6,0,1.2,0,2.7-0.2V12.1C22.2,12,21.7,12,21.1,12L21.1,12z"/>
	</g>
	<g transform="translate(25)">
		<defs>
			
				<filter id="Adobe_OpacityMaskFilter_00000149350224072463666290000012013130916563529602_" filterUnits="userSpaceOnUse" x="3.6" y="6.9" width="27.4" height="35.2">
				<feColorMatrix  type="matrix" values="1 0 0 0 0  0 1 0 0 0  0 0 1 0 0  0 0 0 1 0"/>
			</filter>
		</defs>
		
			<mask maskUnits="userSpaceOnUse" x="3.6" y="6.9" width="27.4" height="35.2" id="d_00000016764401669406538890000004282269145877924741_">
			<g style="filter:url(#Adobe_OpacityMaskFilter_00000149350224072463666290000012013130916563529602_);">
				<path id="c_00000183959104354429728150000008008308424157959048_" class="st2" d="M2.7,6.9h28.9v35.4H2.7V6.9z"/>
			</g>
		</mask>
		<path class="st5" d="M17.8,6.9L5.5,40.5c-0.3,0.8-1.1,1.4-2,1.5v0h12.9c1,0,1.9-0.6,2.2-1.5L30.9,6.9H17.8z"/>
	</g>
	<path class="st0" d="M27.5,41.5c0.8,0,1.4-0.4,1.8-0.9c0-0.1,0.2-0.3,0.3-0.5l4.5-12.3l-2.6-7.2c-0.5-1.1-1.8-1.7-2.9-1.2
		c-0.4,0.2-0.7,0.4-1,0.8c0,0.1-0.2,0.3-0.3,0.5L22.8,33l2.6,7.2C25.8,41,26.6,41.5,27.5,41.5"/>
	<g transform="translate(-1 10)">
		<defs>
			
				<filter id="Adobe_OpacityMaskFilter_00000125567640797857278200000013382375900014827651_" filterUnits="userSpaceOnUse" x="1.9" y="8.6" width="27.5" height="35.2">
				<feColorMatrix  type="matrix" values="1 0 0 0 0  0 1 0 0 0  0 0 1 0 0  0 0 0 1 0"/>
			</filter>
		</defs>
		
			<mask maskUnits="userSpaceOnUse" x="1.9" y="8.6" width="27.5" height="35.2" id="f_00000046326438770974600280000001005102024205761938_">
			<g style="filter:url(#Adobe_OpacityMaskFilter_00000125567640797857278200000013382375900014827651_);">
				<path id="e_00000107575042693357084660000007264464653343679906_" class="st2" d="M0.9,7.6h28.9v36.2H0.9V7.6z"/>
			</g>
		</mask>
		<path class="st7" d="M29.5,8.6H16.4c-1,0-1.9,0.6-2.2,1.5L1.9,43.8h13.2l12.2-33.6C27.7,9.3,28.5,8.7,29.5,8.6L29.5,8.6z"/>
	</g>
</g>
</svg>
