<?xml version="1.0" encoding="utf-8"?>
<!-- Generator: Adobe Illustrator 25.4.1, SVG Export Plug-In . SVG Version: 6.00 Build 0)  -->
<svg version="1.1" id="Layer_1" xmlns="http://www.w3.org/2000/svg" xmlns:xlink="http://www.w3.org/1999/xlink" x="0px" y="0px"
	 width="167px" height="64px" viewBox="0 0 167 64" style="enable-background:new 0 0 167 64;" xml:space="preserve">
<style type="text/css">
	.st0{fill:#B1B5C4;}
	.st1{filter:url(#Adobe_OpacityMaskFilter);}
	.st2{fill-rule:evenodd;clip-rule:evenodd;fill:#FFFFFF;}
	.st3{mask:url(#b_00000158714607712864657070000009903738177445839489_);fill:#B1B5C4;}
	.st4{filter:url(#Adobe_OpacityMaskFilter_00000061471269492476337130000009051169039901371559_);}
	.st5{mask:url(#d_00000016764401669406538890000004282269145877924741_);fill:#B1B5C4;}
	.st6{filter:url(#Adobe_OpacityMaskFilter_00000046326583314032296740000005489524786168821152_);}
	.st7{mask:url(#f_00000046326438770974600280000001005102024205761938_);fill:#B1B5C4;}
</style>
<g>
	<path class="st0" d="M214.7-85.1c-5.7,0-9.2-3.3-9.2-8.6c0-5.5,3.3-8.9,8.5-8.9h0.4c0.7,0,1.6,0,2.8,0.2v-6.6h3.7v23.4
		C220.9-85.7,217.4-85.1,214.7-85.1 M214.6-99.7c-3.6,0-5.3,1.9-5.3,5.9c0,3.6,2.1,5.8,5.5,5.8c0.6,0,1.4,0,2.4-0.1v-11.3
		C216.2-99.6,215.4-99.7,214.6-99.7 M164-85.7l-10-17.4l0,17.4h-3.5v-22.1h4.9l10,17.3l0-17.3h3.5v22.1H164z M195.8-85.3
		c-1.7,0-3.4-0.2-5.5-0.6l-0.2,0V-89l0.3,0.1c1.8,0.4,3.4,0.7,5,0.7c1.3,0,4.3-0.2,4.3-2.1c0-1.6-2.1-2-3.7-2.3l-0.1,0
		c-0.3-0.1-0.6-0.1-0.9-0.2c-2.4-0.6-5-1.6-5-4.9c0-3.2,2.5-5,6.9-5c2.1,0,3.6,0.2,4.9,0.4l0.6,0.1v3l-0.3-0.1
		c-1.4-0.3-3-0.5-4.6-0.5c-1.7,0-3.8,0.3-3.8,1.9c0,1.3,1.7,1.7,3.7,2.1c2.7,0.6,6.2,1.3,6.2,5.1C203.5-87.3,200.7-85.3,195.8-85.3
		 M231.3-85.3c-3.8,0-7.4-0.7-7.4-5.6c0-5.3,5.5-5.3,8.8-5.3c0.3,0,1.9,0.1,2.3,0.1c0-3,0-3.7-4.4-3.7c-1.7,0-3.6,0.3-5.3,0.6
		l-0.3,0.1v-2.9l0.2,0c2-0.4,3.8-0.6,5.8-0.6c4.2,0,7.8,0.4,7.8,5.6v11.4l-0.3,0C235.6-85.4,233.3-85.3,231.3-85.3 M232.6-93.6
		c-3.2,0-5.1,0.5-5.1,2.8c0,2.7,2.5,2.9,4.8,2.9c0.9,0,2.4-0.1,2.9-0.1v-5.4C234.6-93.5,232.8-93.6,232.6-93.6 M179.4-85.3
		c-3.8,0-7.4-0.7-7.4-5.6c0-5.3,5.5-5.3,8.8-5.3c0.3,0,1.9,0.1,2.3,0.1c0-3,0-3.7-4.4-3.7c-1.7,0-3.6,0.3-5.3,0.6l-0.3,0.1v-2.9
		l0.2,0c1.9-0.4,3.8-0.6,5.7-0.6c4.2,0,7.8,0.4,7.8,5.6v11.4l-0.3,0C183.6-85.4,181.3-85.3,179.4-85.3 M180.7-93.6
		c-3.2,0-5.1,0.5-5.1,2.8c0,2.7,2.5,2.9,4.8,2.9c0.9,0,2.5-0.1,2.9-0.1v-5.4C182.6-93.5,180.9-93.6,180.7-93.6"/>
	<g transform="translate(139 16)">
		<defs>
			<filter id="Adobe_OpacityMaskFilter" filterUnits="userSpaceOnUse" x="102.8" y="-118.6" width="15.5" height="24.5">
				<feColorMatrix  type="matrix" values="1 0 0 0 0  0 1 0 0 0  0 0 1 0 0  0 0 0 1 0"/>
			</filter>
		</defs>
		
			<mask maskUnits="userSpaceOnUse" x="102.8" y="-118.6" width="15.5" height="24.5" id="b_00000158714607712864657070000009903738177445839489_">
			<g class="st1">
				<path id="a_00000088845344887016056010000012392846642921079425_" class="st2" d="M102.2-119.7h16.1V-94h-16.1V-119.7z"/>
			</g>
		</mask>
		<path class="st3" d="M114.5-94.2v-7.2c-1.4,0.2-2.2,0.2-2.8,0.2c-1.5,0-3.1-0.3-4.4-0.9c-2.8-1.2-4.5-4.2-4.5-8
			c0-1.9,0.5-5.4,3.6-7.3c1.6-0.9,3.4-1.3,6.2-1.3c1,0,2.3,0.1,3.6,0.2l2.1,0.1v22.5C118.3-95.8,114.5-94.2,114.5-94.2z
			 M112.3-115.7c-3.8,0-5.7,1.9-5.7,5.7c0,4.9,2.8,5.9,5.2,5.9c0.6,0,1.2,0,2.7-0.2v-11.3C113.4-115.7,112.9-115.7,112.3-115.7
			L112.3-115.7z"/>
	</g>
	<g transform="translate(25)">
		<defs>
			
				<filter id="Adobe_OpacityMaskFilter_00000176023051795159251840000016167963348251468980_" filterUnits="userSpaceOnUse" x="94.7" y="-120.8" width="27.4" height="35.2">
				<feColorMatrix  type="matrix" values="1 0 0 0 0  0 1 0 0 0  0 0 1 0 0  0 0 0 1 0"/>
			</filter>
		</defs>
		
			<mask maskUnits="userSpaceOnUse" x="94.7" y="-120.8" width="27.4" height="35.2" id="d_00000016764401669406538890000004282269145877924741_">
			<g style="filter:url(#Adobe_OpacityMaskFilter_00000176023051795159251840000016167963348251468980_);">
				<path id="c_00000183959104354429728150000008008308424157959048_" class="st2" d="M93.9-120.8h28.9v35.4H93.9V-120.8z"/>
			</g>
		</mask>
		<path class="st5" d="M109-120.8L96.7-87.2c-0.3,0.8-1.1,1.4-2,1.5v0h12.9c1,0,1.9-0.6,2.2-1.5l12.2-33.6H109z"/>
	</g>
	<path class="st0" d="M118.7-86.2c0.8,0,1.4-0.4,1.8-0.9c0-0.1,0.2-0.3,0.3-0.5l4.5-12.3l-2.6-7.2c-0.5-1.1-1.8-1.7-2.9-1.2
		c-0.4,0.2-0.7,0.4-1,0.8c0,0.1-0.2,0.3-0.3,0.5L114-94.7l2.6,7.2C117-86.7,117.8-86.2,118.7-86.2"/>
	<g transform="translate(-1 10)">
		<defs>
			
				<filter id="Adobe_OpacityMaskFilter_00000163061698444180738200000005181041083862960261_" filterUnits="userSpaceOnUse" x="93.1" y="-119.1" width="27.5" height="35.2">
				<feColorMatrix  type="matrix" values="1 0 0 0 0  0 1 0 0 0  0 0 1 0 0  0 0 0 1 0"/>
			</filter>
		</defs>
		
			<mask maskUnits="userSpaceOnUse" x="93.1" y="-119.1" width="27.5" height="35.2" id="f_00000046326438770974600280000001005102024205761938_">
			<g style="filter:url(#Adobe_OpacityMaskFilter_00000163061698444180738200000005181041083862960261_);">
				<path id="e_00000107575042693357084660000007264464653343679906_" class="st2" d="M92.1-120.1H121v36.2H92.1V-120.1z"/>
			</g>
		</mask>
		<path class="st7" d="M120.7-119.1h-13.1c-1,0-1.9,0.6-2.2,1.5L93.1-83.9h13.2l12.2-33.6C118.9-118.4,119.7-119,120.7-119.1
			L120.7-119.1z"/>
	</g>
</g>
<g>
	<rect x="31.2" y="21.1" class="st0" width="15.6" height="8"/>
	<polygon class="st0" points="0,21.1 0,29 7.8,29 7.8,44.9 15.6,44.9 15.6,29 23.4,29 23.4,21.1 	"/>
	<polygon class="st0" points="23.4,44.9 31.2,44.9 46.8,44.9 46.8,37 31.2,37 31.2,29 23.4,29 	"/>
	<polygon class="st0" points="66.7,27.1 55.3,27.1 55.3,30.4 59.1,30.4 59.1,40.8 62.9,40.8 62.9,30.4 66.7,30.4 	"/>
	<path class="st0" d="M71.1,30.3c-2.7,0-4.7,1.8-4.7,5.4c0,3.2,1.7,5.3,4.8,5.3c1.6,0,2.9-0.4,4.2-1.2L74,37.6
		c-1,0.5-1.8,0.7-2.7,0.7c-1,0-1.6-0.5-1.7-1.6h6c0-0.2,0-0.4,0-0.7C75.6,32.1,73.9,30.3,71.1,30.3z M69.6,34.5
		c0.1-1,0.6-1.6,1.4-1.6c1,0,1.4,0.5,1.6,1.6H69.6z"/>
	<path class="st0" d="M82.3,38.1c-1,0-1.4-0.8-1.4-2.5s0.5-2.5,1.4-2.5c0.8,0,1.1,0.4,1.6,1.3l2.4-1.8c-0.9-1.4-2-2.3-4-2.3
		c-3.3,0-4.9,2.2-4.9,5.3c0,3.5,1.8,5.4,4.8,5.4c1.8,0,2.9-0.7,4.1-2.4l-2.2-1.7C83.4,37.8,83,38.1,82.3,38.1z"/>
	<path class="st0" d="M94.4,30.3c-1.2,0-1.9,0.4-2.6,0.9v-4.7l-3.5,1.4v12.9h3.5v-5.9c0-1.3,0.5-1.6,1.2-1.6c0.7,0,1.2,0.4,1.2,1.7
		v5.8h3.5v-6.3C97.8,31.8,96.7,30.3,94.4,30.3z"/>
	<path class="st0" d="M106.3,37.7c-1.6,0-2.3-1.7-2.3-3.8c0-2.2,0.7-3.8,2.3-3.8c1.3,0,1.7,0.8,2.2,2.1l3.4-1.3
		c-0.9-2.6-2.3-4-5.6-4c-3.7,0-6.3,2.7-6.3,7.1c0,4.1,2.2,7.1,6.2,7.1c3.2,0,4.8-1.7,5.7-3.5l-3.2-1.7C108,37,107.5,37.7,106.3,37.7
		z"/>
	<path class="st0" d="M117.6,31.2v-0.7H114v10.3h3.5v-5.6c0-1.3,0.5-1.7,1.4-1.7c0.7,0,1.2,0.4,1.6,0.9l0.8-3.7
		c-0.4-0.3-0.9-0.4-1.7-0.4C118.9,30.3,118.2,30.7,117.6,31.2z"/>
	<path class="st0" d="M129,36.4c0,1.3-0.4,1.6-1.2,1.6c-0.7,0-1.2-0.4-1.2-1.7v-5.8h-3.5v6.3c0,2.7,1.1,4.2,3.3,4.2
		c1.2,0,1.9-0.4,2.6-0.9v0.7h3.5V30.5H129V36.4z"/>
	<path class="st0" d="M141.2,30.3c-1.2,0-1.9,0.4-2.6,0.9v-0.7h-3.5v10.3h3.5v-5.9c0-1.3,0.5-1.6,1.2-1.6c0.7,0,1.2,0.4,1.2,1.7v5.8
		h3.5v-6.3C144.5,31.8,143.5,30.3,141.2,30.3z"/>
	<path class="st0" d="M151.5,38.1c-1,0-1.4-0.8-1.4-2.5s0.4-2.5,1.3-2.5c0.8,0,1.1,0.4,1.6,1.3l2.4-1.8c-0.9-1.4-2-2.3-4-2.3
		c-3.3,0-4.9,2.2-4.9,5.3c0,3.5,1.8,5.4,4.8,5.4c1.8,0,2.9-0.7,4.1-2.4l-2.2-1.7C152.7,37.8,152.2,38.1,151.5,38.1z"/>
	<path class="st0" d="M163.7,30.3c-1.2,0-1.9,0.4-2.6,0.9v-4.7l-3.5,1.4v12.9h3.5v-5.9c0-1.3,0.5-1.6,1.2-1.6c0.7,0,1.2,0.4,1.2,1.7
		v5.8h3.5v-6.3C167,31.8,165.9,30.3,163.7,30.3z"/>
</g>
</svg>
