<?xml version="1.0" encoding="utf-8"?>
<!-- Generator: Adobe Illustrator 25.4.1, SVG Export Plug-In . SVG Version: 6.00 Build 0)  -->
<svg version="1.1" id="Layer_1" xmlns="http://www.w3.org/2000/svg" xmlns:xlink="http://www.w3.org/1999/xlink" x="0px" y="0px"
	 width="167px" height="64px" viewBox="0 0 167 64" style="enable-background:new 0 0 167 64;" xml:space="preserve">
<style type="text/css">
	.st0{fill:#B1B5C4;}
</style>
<g transform="translate(1009.8 -337.49)">
	<g transform="matrix(.5 0 0 .5 -379.18 197.8)">
		<g>
			<path class="st0" d="M-932.1,289.6c2.6,0.5,4.3,2,4.3,4.6c0,0.8-0.3,2-0.5,3.1c-1.8,7.4-8.4,34-11,51.6l-2.6-2.6l8.2-54.2
				L-932.1,289.6z"/>
			<path class="st0" d="M-1097.2,297c-3.3,0.8-6.9,0.8-10,0l5.4,5.4L-1097.2,297z"/>
			<path class="st0" d="M-1149.6,297c3.3,0.8,6.9,0.8,10,0l-5.4,5.4L-1149.6,297z"/>
			<path class="st0" d="M-1179.3,296.7c7.7,19.7,19.9,49.1,26.1,60.6l-8.9-2.8l-22.2-55.5L-1179.3,296.7z"/>
			<path class="st0" d="M-1186.4,296.7c2.6,0.8,4.6,0.8,6.9,0l-5.1,3.1L-1186.4,296.7z"/>
			<path class="st0" d="M-1182.9,299l22.8,55.5c-1.3,1.5-2,2.3-3.3,2.8c-6.6-16.9-13.5-33.7-19.7-50.4l-3.1-5.1L-1182.9,299z"/>
			<path class="st0" d="M-1202.3,357.3l-6.6-2.3l23.5-55.2l2.6-0.8v8.2C-1186.4,317.7-1195.6,341-1202.3,357.3L-1202.3,357.3z"/>
			<path class="st0" d="M-1207.9,288.8l2.3,5.1l5.6-2.6l2.3-2.3C-1201.3,289.6-1204.6,289.6-1207.9,288.8L-1207.9,288.8z"/>
			<path class="st0" d="M-1223.8,332.8l-3.8,1.5l-2.3-4.3l24-38.3l1.8-0.5c2.3-0.5,4.9-1,6.6-2.3
				C-1201.5,293.9-1215.3,318-1223.8,332.8L-1223.8,332.8z"/>
			<path class="st0" d="M-1228.9,332.3l1-1l23.8-40.1l-3.6-2.3c-2.8,5.4-13.5,22.5-20.2,33.7l-3.3,6.1L-1228.9,332.3z"/>
			<path class="st0" d="M-1248,288.8c5.4,9.2,13.3,22.5,20.2,33.7v8.7l-1.5,1.5l-23.5-41.9L-1248,288.8z"/>
			<path class="st0" d="M-1251.9,291.4l3.8-2.6c-4.1,0.8-5.9,1-10,0l1.5,1.8L-1251.9,291.4z"/>
			<path class="st0" d="M-1227.8,331.2l-1.8,2.6l-2.3-1c-4.6-7.7-17.6-31.4-26.1-44c1.8,1.3,3.8,1.8,6.6,2.3L-1227.8,331.2z"/>
			<path class="st0" d="M-1223,365.2l-6.9-3.3l0.5-28.6l1.5-2.3l4.3,1.5L-1223,365.2z"/>
			<path class="st0" d="M-1227.8,362.9l-4.9,2.3l0.5-32.5l4.3-1.5L-1227.8,362.9z"/>
			<path class="st0" d="M-1212.3,357.3c8.4-17.1,17.6-40.1,25.8-60.6l3.6,2l-23,56.2l-4.6,1.5L-1212.3,357.3z"/>
			<path class="st0" d="M-1160.4,354.3l7.2,3.1c-2.8-0.8-6.4-1-10,0l1.3-3.3L-1160.4,354.3z"/>
			<path class="st0" d="M-1198.4,337.6l4.9-2c7.2,0.3,14.3,0.3,21.5,0l5.1,2.3l-4.6,1h-23.3L-1198.4,337.6z"/>
			<path class="st0" d="M-1195.1,339.7l-3.3-2c10.5-0.3,21-0.3,31.4,0l-3.3,2C-1178.8,339.4-1186.9,339.4-1195.1,339.7
				L-1195.1,339.7z"/>
			<path class="st0" d="M-1139.6,357.3l-7.2-2.3v-54.2l2-1l5.1-2.8C-1140.7,316.9-1140.7,337.1-1139.6,357.3L-1139.6,357.3z"/>
			<path class="st0" d="M-1144.8,354.5v1.5l-5.1,1.5c0.8-20.2,0.8-40.4,0-60.6l5.1,2.8V354.5z"/>
			<path class="st0" d="M-1107.4,357.3l7.2-2.3v-54.2l-2-1l-5.1-2.8C-1106.4,316.9-1106.4,337.1-1107.4,357.3L-1107.4,357.3z"/>
			<path class="st0" d="M-1144.8,326.9l4.3-1.8c11.2,0.3,22.5,0.3,33.7,0l4.3,1.8l-5.4,1.3h-32.7L-1144.8,326.9z"/>
		</g>
		<path class="st0" d="M-1061.7,296.7c-19.7,0-29.7,12.3-29.7,30.4c0,22.5,14.8,30.4,29.4,30.4c17.1,0,29.4-9.7,29.4-30.4
			C-1032.5,307.5-1044,296.7-1061.7,296.7L-1061.7,296.7z M-1062.4,299.8c0.3,0,0.3,0,0.5,0c13,0,22.8,8.9,22.8,27.6
			s-9.7,27.6-22.8,27.6c-14.3,0-22.8-10.2-22.8-27.4C-1084.4,307.7-1073.9,300.1-1062.4,299.8L-1062.4,299.8z"/>
		<path class="st0" d="M-1061.7,296c-21.5,0-32.7,13.5-32.7,31.2c0,19.2,12.3,30.9,32.5,30.9c22,0,32.7-13.3,32.7-30.7
			C-1029.2,307.7-1042,296-1061.7,296L-1061.7,296z M-1061.7,298c16.9,0,28.1,10.2,28.1,29.1c0,19.7-11.8,29.1-28.4,29.1
			c-13.8,0-28.4-7.4-28.4-29.1C-1090.3,310-1080.8,298-1061.7,298z"/>
		<path class="st0" d="M-987.8,293.7c-20.2,0-33.7,11.2-33.7,33.5c0,21.7,12.8,33.7,34,33.7c16.1,0,33.5-8.2,33.5-33.5
			C-954.3,300.3-973.5,293.7-987.8,293.7L-987.8,293.7z M-988,296.2c16.1,0,27.9,9.7,27.9,31.2c0,23.3-14.3,30.9-27.9,30.9
			c-14.3,0-27.6-8.4-27.6-31.2C-1015.4,303.1-1000.8,296.2-988,296.2z"/>
		<path class="st0" d="M-988,292.4c-21.2,0-37.6,12-37.6,34.5c0,18.4,10.7,34.8,37.8,34.8c22.8,0,37.6-12.5,37.6-34.5
			C-950.2,306.7-964,292.4-988,292.4L-988,292.4z M-987.8,294.7c14.1,0,32.7,6.4,32.7,33c0,24.5-17.1,32.7-32.7,32.7
			c-20.5,0-33-11.8-33-33C-1020.8,305.7-1007.5,294.7-987.8,294.7z"/>
		<path class="st0" d="M-948.4,360.9c0-2.6,1.5-5.1,4.9-5.1c3.1,0,5.4,1.8,5.4,4.6c0,3.6-2.3,4.9-4.6,4.9
			C-946.1,365.5-948.4,364-948.4,360.9L-948.4,360.9z"/>
		<path class="st0" d="M-943.3,348.4c2.6-17.4,3.8-35.5,5.4-53.9c0-3.6,2.3-5.1,4.9-5.1c0.5,0,1,0,1,0l-0.8,4.3l-8.7,53.9
			L-943.3,348.4z"/>
		<g>
			<path class="st0" d="M-1232.7,365.2l4.9-3.6l4.9,3.6c0,0-2.6-0.5-4.9-0.5C-1229.9,364.7-1232.7,365.2-1232.7,365.2L-1232.7,365.2
				z"/>
			<path class="st0" d="M-1212.3,357.3l6.6-2.8c1,1.3,2,2.3,3.3,2.8C-1204.6,356.8-1208.4,356.3-1212.3,357.3L-1212.3,357.3z"/>
			<path class="st0" d="M-1149.6,357.3c3.3-0.8,6.6-0.8,10,0l-5.1-2.8L-1149.6,357.3z"/>
			<path class="st0" d="M-1140.4,329.2l-4.3-2.3c14.1,0.3,28.1,0.3,42.2,0l-4.3,2.3C-1117.9,328.9-1129.2,329.2-1140.4,329.2
				L-1140.4,329.2z"/>
		</g>
		<g>
			<path class="st0" d="M-1102.3,354.5v1.5l5.1,1.5c-0.8-20.2-0.8-40.4,0-60.6l-5.1,2.8V354.5z"/>
			<path class="st0" d="M-1097.2,357.3c-3.3-0.8-6.6-0.8-10,0l5.1-2.8L-1097.2,357.3z"/>
			<path class="st0" d="M-941.3,346.6l-2.3,2c1.5-0.3,2.6,0,3.8,0.5L-941.3,346.6z"/>
			<ellipse class="st0" cx="-933.1" cy="293.9" rx="4.9" ry="4.3"/>
		</g>
	</g>
</g>
<g>
	<path class="st0" d="M54.9,48.8v1h-5.1v3.6h4.6v1h-4.6v5.4h-2.8v-11H54.9z"/>
	<path class="st0" d="M57.4,48.8h2.8v11h-2.8V48.8z"/>
	<path class="st0" d="M62.8,48.8h1.5l6.4,6.9v-6.9h1.8V60h-1.3l-6.9-7.7V60h-1.8V48.8H62.8z"/>
	<path class="st0" d="M80.7,48.5l5.1,11.2H83l-1.3-3.1h-4.3l-1.5,3.1H74l5.4-11.2H80.7z M77.9,55.7h3.3l-1.5-3.6L77.9,55.7z"/>
	<path class="st0" d="M87.1,48.8h1.8l6.4,6.9v-6.9H97V60h-1.3l-6.9-7.7V60h-1.8V48.8z"/>
	<path class="st0" d="M102.4,54.2c0,0.8,0,1.3,0.3,1.8c0.3,0.5,0.5,1,0.8,1.3c0.3,0.3,0.8,0.8,1.3,0.8c0.5,0,1,0.3,1.5,0.3
		c0.5,0,0.8,0,1-0.3c0.3-0.3,0.8-0.3,1-0.5c0.3-0.3,0.5-0.5,0.8-0.8c0.3-0.3,0.5-0.5,0.8-1l1,0.8c-0.3,0.5-0.5,0.8-0.8,1
		c-0.3,0.3-0.8,0.8-1.3,1c-0.5,0.3-0.8,0.5-1.3,0.8c-0.5,0.3-1,0.3-1.5,0.3c-1,0-1.8-0.3-2.6-0.5c-0.8-0.3-1.5-0.8-2-1.3
		c-0.5-0.5-1-1-1.3-1.8c-0.3-0.8-0.5-1.5-0.5-2.3c0-0.8,0.3-1.5,0.5-2.3c0.3-0.8,0.8-1.3,1.3-1.8c0.5-0.5,1.3-1,2-1.3
		c0.8-0.3,1.5-0.5,2.6-0.5c0.5,0,1.3,0,1.8,0.3c0.5,0.3,1,0.3,1.5,0.5s0.8,0.5,1.3,1c0.3,0.3,0.5,0.8,1,1.3l-1,0.8
		c-0.3-0.3-0.5-0.5-0.8-1c-0.3-0.3-0.5-0.5-0.8-0.8c-1.3,0.5-1.5,0.3-1.8,0.3c-0.3,0-0.8-0.3-1-0.3c-0.5,0-1,0-1.5,0.3
		c-0.5,0.3-0.8,0.5-1.3,0.8c-0.3,0.3-0.5,0.8-0.8,1.3C102.4,52.6,102.4,53.6,102.4,54.2z"/>
	<path class="st0" d="M121.6,48.8v1H116v3.6h4.6v1H116v4.3h5.6v1h-8.2v-11H121.6z"/>
</g>
</svg>
