<?xml version="1.0" encoding="UTF-8"?>
<svg width="225px" height="225px" viewBox="0 0 225 225" version="1.1" xmlns="http://www.w3.org/2000/svg" xmlns:xlink="http://www.w3.org/1999/xlink">
    <!-- Generator: Sketch 48.2 (47327) - http://www.bohemiancoding.com/sketch -->
    <title>Group 8</title>
    <desc>Created with Sketch.</desc>
    <defs></defs>
    <g id="Artboard" stroke="none" stroke-width="1" fill="none" fill-rule="evenodd" transform="translate(-221.000000, -168.000000)">
        <g id="Group-8" transform="translate(221.000000, 168.000000)">
            <g id="Group-3" transform="translate(43.000000, 43.000000)" stroke="#DDDDDD" stroke-linecap="round" stroke-linejoin="round">
                <path d="M71.3525415,26.7000743 C79.0148429,26.7000743 112.988306,83.1012256 109.02196,89.7387943 C105.055615,96.376363 37.9170758,96.8241966 33.6831226,89.7387943 C29.4491694,82.6533919 63.6902401,26.7000743 71.3525415,26.7000743 Z" id="Triangle-Copy" transform="translate(71.332403, 60.793176) rotate(-345.000000) translate(-71.332403, -60.793176) "></path>
                <path d="M71.4972489,148.770795 C87.1993138,143.054682 98.4144967,127.976271 98.4144967,110.274336 C98.4144967,87.6592408 80.1098331,69.3260834 57.5298864,69.3260834 C39.6503829,69.3260834 24.4514669,80.8209079 18.8983786,96.8344741" id="Oval-7-Copy-4" transform="translate(58.656438, 109.048439) rotate(-570.000000) translate(-58.656438, -109.048439) "></path>
                <path d="M51.758827,77.7675254 C66.9629039,72.2326982 77.8223994,57.6324963 77.8223994,40.4919751 C77.8223994,18.5941128 60.0982648,0.842388011 38.2344367,0.842388011 C20.9219783,0.842388011 6.20509294,11.9726563 0.828119725,27.4783554" id="Oval-7-Copy-5" transform="translate(39.325260, 39.304957) rotate(-449.000000) translate(-39.325260, -39.304957) "></path>
                <path d="M121.861589,97.206212 C137.065666,91.6713849 147.925162,77.0711829 147.925162,59.9306617 C147.925162,38.0327994 130.201027,20.2810746 108.337199,20.2810746 C91.0247407,20.2810746 76.3078554,31.411343 70.9308822,46.917042" id="Oval-7-Copy-6" transform="translate(109.428022, 58.743643) rotate(30.000000) translate(-109.428022, -58.743643) "></path>
            </g>
            <g id="Group-5" fill="#04E8B0">
                <circle id="Oval-2-Copy-35" cx="222" cy="113" r="3"></circle>
                <circle id="Oval-2-Copy-36" cx="3" cy="113" r="3"></circle>
                <circle id="Oval-2-Copy-35" transform="translate(218.000000, 141.000000) rotate(-345.000000) translate(-218.000000, -141.000000) " cx="218" cy="141" r="3"></circle>
                <circle id="Oval-2-Copy-36" transform="translate(7.000000, 85.000000) rotate(-345.000000) translate(-7.000000, -85.000000) " cx="7" cy="85" r="3"></circle>
                <circle id="Oval-2-Copy-35" transform="translate(218.000000, 141.000000) rotate(-345.000000) translate(-218.000000, -141.000000) " cx="218" cy="141" r="3"></circle>
                <circle id="Oval-2-Copy-36" transform="translate(7.000000, 85.000000) rotate(-345.000000) translate(-7.000000, -85.000000) " cx="7" cy="85" r="3"></circle>
                <circle id="Oval-2-Copy-35" transform="translate(207.000000, 168.000000) rotate(-330.000000) translate(-207.000000, -168.000000) " cx="207" cy="168" r="3"></circle>
                <circle id="Oval-2-Copy-36" transform="translate(18.000000, 58.000000) rotate(-330.000000) translate(-18.000000, -58.000000) " cx="18" cy="58" r="3"></circle>
                <circle id="Oval-2-Copy-35" transform="translate(190.000000, 190.000000) rotate(-315.000000) translate(-190.000000, -190.000000) " cx="190" cy="190" r="3"></circle>
                <circle id="Oval-2-Copy-36" transform="translate(35.000000, 35.000000) rotate(-315.000000) translate(-35.000000, -35.000000) " cx="35" cy="35" r="3"></circle>
                <circle id="Oval-2-Copy-35" transform="translate(168.000000, 208.000000) rotate(-300.000000) translate(-168.000000, -208.000000) " cx="168" cy="208" r="3"></circle>
                <circle id="Oval-2-Copy-36" transform="translate(58.000000, 18.000000) rotate(-300.000000) translate(-58.000000, -18.000000) " cx="58" cy="18" r="3"></circle>
                <circle id="Oval-2-Copy-35" transform="translate(141.000000, 219.000000) rotate(-285.000000) translate(-141.000000, -219.000000) " cx="141" cy="219" r="3"></circle>
                <circle id="Oval-2-Copy-36" transform="translate(85.000000, 7.000000) rotate(-285.000000) translate(-85.000000, -7.000000) " cx="85" cy="7" r="3"></circle>
                <circle id="Oval-2-Copy-35" transform="translate(113.000000, 222.000000) rotate(-270.000000) translate(-113.000000, -222.000000) " cx="113" cy="222" r="3"></circle>
                <circle id="Oval-2-Copy-36" transform="translate(113.000000, 3.000000) rotate(-270.000000) translate(-113.000000, -3.000000) " cx="113" cy="3" r="3"></circle>
                <circle id="Oval-2-Copy-35" transform="translate(85.000000, 219.000000) rotate(-255.000000) translate(-85.000000, -219.000000) " cx="85" cy="219" r="3"></circle>
                <circle id="Oval-2-Copy-36" transform="translate(141.000000, 7.000000) rotate(-255.000000) translate(-141.000000, -7.000000) " cx="141" cy="7" r="3"></circle>
                <circle id="Oval-2-Copy-35" transform="translate(58.000000, 208.000000) rotate(-240.000000) translate(-58.000000, -208.000000) " cx="58" cy="208" r="3"></circle>
                <circle id="Oval-2-Copy-36" transform="translate(168.000000, 18.000000) rotate(-240.000000) translate(-168.000000, -18.000000) " cx="168" cy="18" r="3"></circle>
                <circle id="Oval-2-Copy-35" transform="translate(36.000000, 191.000000) rotate(-225.000000) translate(-36.000000, -191.000000) " cx="36" cy="191" r="3"></circle>
                <circle id="Oval-2-Copy-36" transform="translate(191.000000, 36.000000) rotate(-225.000000) translate(-191.000000, -36.000000) " cx="191" cy="36" r="3"></circle>
                <circle id="Oval-2-Copy-35" transform="translate(18.000000, 168.000000) rotate(-210.000000) translate(-18.000000, -168.000000) " cx="18" cy="168" r="3"></circle>
                <circle id="Oval-2-Copy-36" transform="translate(208.000000, 59.000000) rotate(-210.000000) translate(-208.000000, -59.000000) " cx="208" cy="59" r="3"></circle>
                <circle id="Oval-2-Copy-35" transform="translate(7.000000, 142.000000) rotate(-195.000000) translate(-7.000000, -142.000000) " cx="7" cy="142" r="3"></circle>
                <circle id="Oval-2-Copy-36" transform="translate(219.000000, 85.000000) rotate(-195.000000) translate(-219.000000, -85.000000) " cx="219" cy="85" r="3"></circle>
            </g>
            <path d="M118.958184,108.844409 C119.291103,106.532734 117.596716,105.290033 115.279868,104.461022 L116.031419,101.329566 L114.196442,100.854527 L113.464751,103.903462 C112.982358,103.778595 112.486898,103.660785 111.994575,103.544061 L112.731492,100.475039 L110.897561,100 L110.145487,103.13037 C109.746192,103.035906 109.354215,102.942526 108.973735,102.844261 L108.975826,102.834489 L106.44522,102.178121 L105.957077,104.214002 C105.957077,104.214002 107.318546,104.538114 107.289801,104.558202 C108.03299,104.750932 108.167307,105.261802 108.144834,105.666807 L107.288755,109.234213 C107.339974,109.247785 107.406349,109.26733 107.479518,109.297732 C107.418369,109.281988 107.35304,109.264615 107.28562,109.247785 L106.085646,114.245194 C105.994707,114.479728 105.764225,114.831528 105.244724,114.697974 C105.263016,114.725662 103.910955,114.352146 103.910955,114.352146 L103,116.534067 L105.387926,117.152432 C105.832167,117.26807 106.267524,117.389137 106.696086,117.503146 L105.936695,120.670434 L107.769581,121.145473 L108.521655,118.011845 C109.022341,118.153 109.508393,118.283296 109.983992,118.405992 L109.234531,121.524961 L111.069508,122 L111.828899,118.838684 C114.957924,119.453792 117.310833,119.205686 118.30123,116.265874 C119.099296,113.898823 118.261509,112.533425 116.615204,111.643067 C117.814132,111.355872 118.717248,110.536634 118.958184,108.844409 Z M114.765593,114.951509 C114.198533,117.31856 110.361858,116.038941 109.117983,115.718086 L110.125626,111.522 C111.369501,111.844483 115.358263,112.482936 114.765593,114.951509 Z M115.333177,108.810207 C114.815767,110.963354 111.622457,109.869407 110.586592,109.601214 L111.50016,105.795474 C112.536026,106.063668 115.872015,106.564223 115.333177,108.810207 Z" id="Shape-Copy-3" fill="#04E8B0" fill-rule="nonzero"></path>
        </g>
    </g>
</svg>