<svg width="225" height="225" viewBox="0 0 225 225" fill="none" xmlns="http://www.w3.org/2000/svg">
<path fill-rule="evenodd" clip-rule="evenodd" d="M123.176 70.867C130.577 72.8501 148.795 136.122 143.246 141.507C137.697 146.892 72.7304 129.948 70.4746 122.008C68.2187 114.068 115.775 68.8838 123.176 70.867Z" stroke="#DDDDDD" stroke-linecap="round" stroke-linejoin="round"/>
<path d="M70.6749 124.068C59.9346 136.869 57.7611 155.535 66.6121 170.866C77.9197 190.451 102.939 197.176 122.493 185.886C137.977 176.946 145.393 159.392 142.195 142.747" stroke="#DDDDDD" stroke-linecap="round" stroke-linejoin="round"/>
<path d="M120.999 70.5446C115.73 55.2462 101.322 44.1336 84.1841 43.8344C62.2895 43.4523 44.2312 60.8639 43.8496 82.7244C43.5475 100.034 54.4192 114.943 69.8287 120.59" stroke="#DDDDDD" stroke-linecap="round" stroke-linejoin="round"/>
<path d="M143.965 141.27C159.899 144.079 176.604 136.864 185.174 122.02C196.123 103.056 189.649 78.8206 170.715 67.8887C155.722 59.2325 137.411 61.5131 125.002 72.253" stroke="#DDDDDD" stroke-linecap="round" stroke-linejoin="round"/>
<path d="M222 116C223.657 116 225 114.657 225 113C225 111.343 223.657 110 222 110C220.343 110 219 111.343 219 113C219 114.657 220.343 116 222 116Z" fill="#46D593"/>
<path d="M3 116C4.65685 116 6 114.657 6 113C6 111.343 4.65685 110 3 110C1.34315 110 0 111.343 0 113C0 114.657 1.34315 116 3 116Z" fill="#46D593"/>
<path d="M217.224 143.898C218.824 144.327 220.469 143.377 220.898 141.776C221.327 140.176 220.377 138.531 218.777 138.102C217.176 137.673 215.531 138.623 215.102 140.223C214.674 141.824 215.623 143.469 217.224 143.898Z" fill="#04E8B0"/>
<path d="M6.22377 87.8977C7.82417 88.3265 9.46918 87.3768 9.898 85.7764C10.3268 84.176 9.37708 82.531 7.77668 82.1021C6.17629 81.6733 4.53127 82.6231 4.10245 84.2235C3.67362 85.8239 4.62337 87.4689 6.22377 87.8977Z" fill="#04E8B0"/>
<path d="M217.224 143.898C218.824 144.327 220.469 143.377 220.898 141.776C221.327 140.176 220.377 138.531 218.777 138.102C217.176 137.673 215.531 138.623 215.102 140.223C214.674 141.824 215.623 143.469 217.224 143.898Z" fill="#46D593"/>
<path d="M6.22377 87.8977C7.82417 88.3265 9.46918 87.3768 9.898 85.7764C10.3268 84.176 9.37708 82.531 7.77668 82.1021C6.17629 81.6733 4.53127 82.6231 4.10245 84.2235C3.67362 85.8239 4.62337 87.4689 6.22377 87.8977Z" fill="#46D593"/>
<path d="M205.5 170.598C206.935 171.426 208.77 170.935 209.598 169.5C210.426 168.065 209.935 166.23 208.5 165.402C207.065 164.573 205.23 165.065 204.402 166.5C203.573 167.935 204.065 169.77 205.5 170.598Z" fill="#46D593"/>
<path d="M16.4999 60.598C17.9348 61.4264 19.7696 60.9348 20.598 59.4999C21.4264 58.0651 20.9348 56.2303 19.4999 55.4019C18.0651 54.5734 16.2303 55.0651 15.4019 56.4999C14.5734 57.9348 15.0651 59.7696 16.4999 60.598Z" fill="#46D593"/>
<path d="M187.879 192.121C189.05 193.293 190.95 193.293 192.121 192.121C193.293 190.95 193.293 189.05 192.121 187.879C190.95 186.707 189.05 186.707 187.879 187.879C186.707 189.05 186.707 190.95 187.879 192.121Z" fill="#46D593"/>
<path d="M32.8787 37.1213C34.0503 38.2929 35.9497 38.2929 37.1213 37.1213C38.2929 35.9497 38.2929 34.0502 37.1213 32.8786C35.9497 31.7071 34.0503 31.7071 32.8787 32.8786C31.7071 34.0502 31.7071 35.9497 32.8787 37.1213Z" fill="#46D593"/>
<path d="M165.402 209.5C166.23 210.935 168.065 211.426 169.5 210.598C170.935 209.77 171.427 207.935 170.598 206.5C169.77 205.065 167.935 204.573 166.5 205.402C165.065 206.23 164.574 208.065 165.402 209.5Z" fill="#46D593"/>
<path d="M55.402 19.4999C56.2304 20.9348 58.0652 21.4264 59.5001 20.598C60.9349 19.7696 61.4266 17.9348 60.5981 16.4999C59.7697 15.0651 57.9349 14.5734 56.5001 15.4019C55.0652 16.2303 54.5736 18.0651 55.402 19.4999Z" fill="#46D593"/>
<path d="M138.102 219.776C138.531 221.377 140.176 222.327 141.776 221.898C143.377 221.469 144.326 219.824 143.898 218.223C143.469 216.623 141.824 215.673 140.223 216.102C138.623 216.531 137.673 218.176 138.102 219.776Z" fill="#46D593"/>
<path d="M82.102 7.77638C82.5308 9.37677 84.1758 10.3265 85.7762 9.8977C87.3766 9.46887 88.3264 7.82386 87.8976 6.22346C87.4687 4.62306 85.8237 3.67332 84.2233 4.10214C82.6229 4.53097 81.6732 6.17598 82.102 7.77638Z" fill="#46D593"/>
<path d="M110 222C110 223.657 111.343 225 113 225C114.657 225 116 223.657 116 222C116 220.343 114.657 219 113 219C111.343 219 110 220.343 110 222Z" fill="#46D593"/>
<path d="M110 3C110 4.65685 111.343 6 113 6C114.657 6 116 4.65685 116 3C116 1.34315 114.657 0 113 0C111.343 0 110 1.34315 110 3Z" fill="#46D593"/>
<path d="M82.1023 218.224C81.6735 219.824 82.6232 221.469 84.2236 221.898C85.824 222.327 87.469 221.377 87.8979 219.776C88.3267 218.176 87.3769 216.531 85.7765 216.102C84.1761 215.673 82.5311 216.623 82.1023 218.224Z" fill="#46D593"/>
<path d="M138.102 6.22353C137.673 7.82392 138.623 9.46893 140.224 9.89776C141.824 10.3266 143.469 9.37684 143.898 7.77644C144.327 6.17604 143.377 4.53103 141.777 4.1022C140.176 3.67338 138.531 4.62313 138.102 6.22353Z" fill="#46D593"/>
<path d="M55.402 206.5C54.5736 207.935 55.0652 209.77 56.5001 210.598C57.9349 211.426 59.7697 210.935 60.5981 209.5C61.4266 208.065 60.9349 206.23 59.5001 205.402C58.0652 204.573 56.2304 205.065 55.402 206.5Z" fill="#46D593"/>
<path d="M165.402 16.4999C164.574 17.9348 165.065 19.7696 166.5 20.598C167.935 21.4264 169.77 20.9348 170.598 19.4999C171.427 18.0651 170.935 16.2303 169.5 15.4019C168.065 14.5734 166.23 15.0651 165.402 16.4999Z" fill="#46D593"/>
<path d="M33.8787 188.879C32.7071 190.05 32.7071 191.95 33.8787 193.121C35.0503 194.293 36.9498 194.293 38.1214 193.121C39.2929 191.95 39.2929 190.05 38.1214 188.879C36.9498 187.707 35.0503 187.707 33.8787 188.879Z" fill="#46D593"/>
<path d="M188.879 33.8787C187.707 35.0503 187.707 36.9497 188.879 38.1213C190.05 39.2929 191.95 39.2929 193.121 38.1213C194.293 36.9497 194.293 35.0503 193.121 33.8787C191.95 32.7071 190.05 32.7071 188.879 33.8787Z" fill="#46D593"/>
<path d="M16.5001 165.402C15.0652 166.23 14.5736 168.065 15.402 169.5C16.2304 170.935 18.0652 171.427 19.5001 170.598C20.9349 169.77 21.4266 167.935 20.5981 166.5C19.7697 165.065 17.9349 164.574 16.5001 165.402Z" fill="#46D593"/>
<path d="M206.5 56.402C205.065 57.2304 204.574 59.0652 205.402 60.5001C206.23 61.9349 208.065 62.4266 209.5 61.5981C210.935 60.7697 211.427 58.9349 210.598 57.5001C209.77 56.0652 207.935 55.5736 206.5 56.402Z" fill="#46D593"/>
<path d="M6.22362 139.102C4.62323 139.531 3.67348 141.176 4.1023 142.776C4.53113 144.377 6.17614 145.327 7.77654 144.898C9.37694 144.469 10.3267 142.824 9.89786 141.224C9.46903 139.623 7.82402 138.673 6.22362 139.102Z" fill="#46D593"/>
<path d="M218.224 82.1022C216.623 82.5311 215.673 84.1761 216.102 85.7765C216.531 87.3769 218.176 88.3266 219.777 87.8978C221.377 87.469 222.327 85.824 221.898 84.2236C221.469 82.6232 219.824 81.6734 218.224 82.1022Z" fill="#46D593"/>
<path d="M118.958 108.844C119.291 106.533 117.597 105.29 115.28 104.461L116.031 101.33L114.196 100.855L113.465 103.903C112.982 103.779 112.487 103.661 111.995 103.544L112.731 100.475L110.898 100L110.145 103.13C109.746 103.036 109.354 102.943 108.974 102.844L108.976 102.834L106.445 102.178L105.957 104.214C105.957 104.214 107.319 104.538 107.29 104.558C108.033 104.751 108.167 105.262 108.145 105.667L107.289 109.234C107.34 109.248 107.406 109.267 107.48 109.298C107.418 109.282 107.353 109.265 107.286 109.248L106.086 114.245C105.995 114.48 105.764 114.832 105.245 114.698C105.263 114.726 103.911 114.352 103.911 114.352L103 116.534L105.388 117.152C105.832 117.268 106.268 117.389 106.696 117.503L105.937 120.67L107.77 121.145L108.522 118.012C109.022 118.153 109.508 118.283 109.984 118.406L109.235 121.525L111.07 122L111.829 118.839C114.958 119.454 117.311 119.206 118.301 116.266C119.099 113.899 118.262 112.533 116.615 111.643C117.814 111.356 118.717 110.537 118.958 108.844ZM114.766 114.952C114.199 117.319 110.362 116.039 109.118 115.718L110.126 111.522C111.37 111.844 115.358 112.483 114.766 114.952ZM115.333 108.81C114.816 110.963 111.622 109.869 110.587 109.601L111.5 105.795C112.536 106.064 115.872 106.564 115.333 108.81Z" fill="#46D593"/>
</svg>
