<svg width="281" height="189" viewBox="0 0 281 189" fill="none" xmlns="http://www.w3.org/2000/svg">
<path d="M145.5 170C184.988 170 217 137.988 217 98.5C217 59.0116 184.988 27 145.5 27C106.012 27 74 59.0116 74 98.5C74 137.988 106.012 170 145.5 170Z" stroke="#DDDDDD"/>
<path d="M254 181C268.359 181 280 169.359 280 155C280 140.641 268.359 129 254 129C239.641 129 228 140.641 228 155C228 169.359 239.641 181 254 181Z" stroke="#DDDDDD"/>
<path d="M244 25C250.627 25 256 19.6274 256 13C256 6.37258 250.627 1 244 1C237.373 1 232 6.37258 232 13C232 19.6274 237.373 25 244 25Z" stroke="#DDDDDD"/>
<path d="M8.5 77C12.6421 77 16 73.6421 16 69.5C16 65.3579 12.6421 62 8.5 62C4.35786 62 1 65.3579 1 69.5C1 73.6421 4.35786 77 8.5 77Z" stroke="#DDDDDD"/>
<path d="M24 188C30.0751 188 35 183.075 35 177C35 170.925 30.0751 166 24 166C17.9249 166 13 170.925 13 177C13 183.075 17.9249 188 24 188Z" stroke="#DDDDDD"/>
<path d="M273.755 7.51032C275.277 7.51032 276.51 6.27679 276.51 4.75516C276.51 3.23353 275.277 2 273.755 2C272.233 2 271 3.23353 271 4.75516C271 6.27679 272.233 7.51032 273.755 7.51032Z" fill="#46D593"/>
<path d="M10.755 59.5103C12.2765 59.5103 13.51 58.2768 13.51 56.7552C13.51 55.2335 12.2765 54 10.755 54C9.23346 54 8 55.2335 8 56.7552C8 58.2768 9.23346 59.5103 10.755 59.5103Z" fill="#46D593"/>
<path d="M62.755 137.51C64.2765 137.51 65.51 136.277 65.51 134.755C65.51 133.234 64.2765 132 62.755 132C61.2335 132 60 133.234 60 134.755C60 136.277 61.2335 137.51 62.755 137.51Z" fill="#46D593"/>
<path d="M84.255 36.5106C87.1573 36.5106 89.51 34.1577 89.51 31.2553C89.51 28.3529 87.1573 26 84.255 26C81.3527 26 79 28.3529 79 31.2553C79 34.1577 81.3527 36.5106 84.255 36.5106Z" fill="#46D593"/>
<path d="M222.255 54.5106C225.157 54.5106 227.51 52.1577 227.51 49.2553C227.51 46.3529 225.157 44 222.255 44C219.353 44 217 46.3529 217 49.2553C217 52.1577 219.353 54.5106 222.255 54.5106Z" fill="#46D593"/>
<path d="M216.67 101.67L142 27" stroke="#DDDDDD" stroke-linecap="square"/>
<path d="M198.681 50.8233L78.8848 124.622M255.832 15.6162L240.899 24.8152L255.832 15.6162Z" stroke="#DDDDDD" stroke-linecap="square"/>
<path d="M78.0192 121.981L169.033 30.9666M20.3476 179.652L31.0308 168.969L20.3476 179.652Z" stroke="#DDDDDD" stroke-linecap="square"/>
<path d="M16.255 188.511C19.1573 188.511 21.51 186.158 21.51 183.255C21.51 180.353 19.1573 178 16.255 178C13.3527 178 11 180.353 11 183.255C11 186.158 13.3527 188.511 16.255 188.511Z" fill="#46D593"/>
<path d="M262.81 147.81L245.565 130.565" stroke="#DDDDDD" stroke-linecap="square"/>
<path d="M198.009 50.2563L89.1484 54.2569" stroke="#DDDDDD"/>
<path d="M211.162 126.694L201.495 122.733M263.112 147.977L235.582 136.699L263.112 147.977Z" stroke="#DDDDDD"/>
<path d="M262.755 150.51C264.277 150.51 265.51 149.277 265.51 147.755C265.51 146.234 264.277 145 262.755 145C261.233 145 260 146.234 260 147.755C260 149.277 261.233 150.51 262.755 150.51Z" fill="#46D593"/>
<path d="M201.5 122.5L128.5 150.5" stroke="#DDDDDD" stroke-linecap="square"/>
<path d="M127.5 150.5L75.4604 113.455" stroke="#DDDDDD" stroke-linecap="square"/>
<path d="M128.255 156.511C131.157 156.511 133.51 154.158 133.51 151.255C133.51 148.353 131.157 146 128.255 146C125.353 146 123 148.353 123 151.255C123 154.158 125.353 156.511 128.255 156.511Z" fill="#46D593"/>
<path d="M99.6489 43.3313L202.045 123.546" stroke="#DDDDDD"/>
<path d="M201.755 125.51C203.277 125.51 204.51 124.277 204.51 122.755C204.51 121.234 203.277 120 201.755 120C200.233 120 199 121.234 199 122.755C199 124.277 200.233 125.51 201.755 125.51Z" fill="#46D593"/>
</svg>
