<svg width="266" height="254" viewBox="0 0 266 254" fill="none" xmlns="http://www.w3.org/2000/svg">
<path d="M1.81934 177.444V147.205H122.351C131.866 147.205 137.364 155.663 137.364 162.642C137.364 170.254 131.866 177.444 122.985 177.444H1.81934Z" stroke="#DDDDDD"/>
<path d="M67.3715 177.444L24.2339 202.396L53.6266 220.158L152.378 162.853L123.197 144.879L119.39 147.205" stroke="#DDDDDD"/>
<path d="M152.378 162.853V174.906L53.6267 232L24.0225 214.237V202.396" stroke="#DDDDDD"/>
<path d="M1.81934 177.444V188.017H48.9746" stroke="#DDDDDD"/>
<path d="M81.7508 177.444L44.7455 199.224L57.8559 207.048L102.897 181.039L97.1872 177.444" stroke="#DDDDDD"/>
<path d="M86.4028 177.444L47.283 200.493" stroke="#DDDDDD"/>
<path d="M100.359 182.307L92.7466 177.444" stroke="#DDDDDD"/>
<path d="M34.0381 215.866V213.862L42.3423 218.953V220.957L34.0381 215.866Z" stroke="#DDDDDD"/>
<path d="M131.578 162.219C131.578 167.22 126.511 171.446 120.025 171.446C113.539 171.446 108.472 167.22 108.472 162.219C108.472 157.218 113.539 152.992 120.025 152.992C126.511 152.992 131.578 157.218 131.578 162.219Z" stroke="#DDDDDD"/>
<path d="M130.309 162.219C130.309 166.508 125.825 170.177 120.025 170.177C114.225 170.177 109.74 166.508 109.74 162.219C109.74 157.93 114.225 154.26 120.025 154.26C125.825 154.26 130.309 157.93 130.309 162.219Z" stroke="#DDDDDD"/>
<path d="M111.143 166.871C111.919 165.884 114.696 163.91 119.602 163.91C124.508 163.91 127.426 166.025 128.272 167.082" stroke="#DDDDDD"/>
<path d="M205.899 86.5161H251.591C252.543 86.5161 253.315 87.288 253.315 88.2401V133.73C253.315 134.682 252.543 135.454 251.591 135.454H205.899C204.947 135.454 204.175 134.682 204.175 133.73V88.2401C204.175 87.288 204.947 86.5161 205.899 86.5161Z" stroke="#DDDDDD" stroke-linecap="round"/>
<path d="M233.597 71.9643C224.769 71.9643 204.181 71.9643 201.653 71.9643C199.126 71.9643 198.014 73.2784 198.014 75.9067C198.014 79.5459 198.014 119.476 198.014 126.754C198.014 134.033 200.137 142.322 203.17 147.781C206.202 153.24 215.199 170.02 217.929 179.017C216.48 176.726 212.915 171.375 210.246 168.302C206.91 164.46 199.935 156.272 197.408 149.095C194.881 141.918 194.577 132.314 194.577 126.754C194.577 121.194 194.577 78.0296 194.577 74.6937C194.577 71.3578 196.599 69.0327 200.137 69.0327C202.968 69.0327 223.455 69.0327 233.597 69.0327" stroke="#DDDDDD" stroke-linecap="round"/>
<path d="M224.095 71.9643C232.924 71.9643 253.512 71.9643 256.039 71.9643C258.566 71.9643 259.678 73.2784 259.678 75.9067C259.678 79.5459 259.678 119.476 259.678 126.754C259.678 134.033 257.555 142.322 254.523 147.781C251.49 153.24 242.493 170.02 239.764 179.017C241.213 176.726 244.778 171.375 247.447 168.302C250.783 164.46 257.758 156.272 260.285 149.095C262.812 141.918 263.115 132.314 263.115 126.754C263.115 121.194 263.115 78.0296 263.115 74.6937C263.115 71.3578 261.094 69.0327 257.555 69.0327C254.725 69.0327 234.238 69.0327 224.095 69.0327" stroke="#DDDDDD" stroke-linecap="round"/>
<path d="M217.828 179.018H239.663" stroke="#DDDDDD" stroke-linecap="round"/>
<path d="M22.8308 138.217V10.0977H229.871V57.758" stroke="#DDDDDD"/>
<path d="M108.927 217.138H229.871V188.439" stroke="#DDDDDD"/>
<path d="M129.956 110.2H122.62V102.74H129.956V110.2ZM140.96 97.7665C140.644 95.9812 139.695 94.3233 138.304 93.2394C137.039 92.1554 135.331 91.5815 133.687 91.5815C128.754 91.5815 123.758 91.5815 118.762 91.5815C116.169 91.5815 113.703 93.1118 112.438 95.4073C111.742 96.6188 111.489 98.0216 111.489 99.4244C111.489 104.015 111.489 108.542 111.489 113.133C111.489 114.217 111.552 115.238 111.869 116.258C112.628 118.617 114.588 120.53 116.928 121.167C116.232 120.594 115.916 119.828 115.663 118.936C115.157 117.023 115.157 115.046 115.221 113.133C115.221 108.542 115.221 104.015 115.221 99.4244C115.221 98.6592 115.284 97.8941 115.663 97.1927C116.296 96.1087 117.497 95.3435 118.762 95.3435C123.505 95.3435 128.185 95.3435 132.928 95.3435C133.624 95.3435 134.256 95.2798 134.952 95.5348C136.09 95.9174 136.976 96.9376 137.229 98.0853C137.355 98.7867 137.355 99.5519 137.355 100.253V113.643C137.355 114.281 137.292 114.919 136.976 115.556C136.407 116.768 135.142 117.597 133.814 117.597C130.082 117.597 126.351 117.597 122.62 117.597C122.62 116.385 122.62 115.11 122.62 113.898C125.655 113.898 128.691 113.898 131.79 113.898C132.422 113.962 133.181 113.58 133.497 113.006C133.687 112.687 133.687 112.368 133.687 111.986C133.687 108.287 133.687 104.525 133.687 100.827C133.687 100.126 133.371 99.5519 132.802 99.1693C132.296 98.8505 131.727 98.978 131.221 98.9143C127.742 98.9143 124.264 98.9143 120.723 98.9143C119.711 98.9143 118.889 99.7432 118.952 100.763C118.952 106.119 118.952 111.476 118.952 116.832C118.952 117.916 118.952 118.872 119.584 119.828C120.027 120.594 120.849 120.976 121.671 121.167C122.683 121.359 123.632 121.295 124.644 121.295C127.679 121.295 130.715 121.295 133.814 121.295C135.331 121.295 136.786 120.785 138.051 119.956C139.379 118.936 140.391 117.597 140.897 116.003C141.213 114.919 141.213 113.835 141.213 112.751C141.213 108.479 141.213 104.207 141.213 99.9345C141.086 99.2331 141.086 98.4679 140.96 97.7665Z" fill="url(#paint0_linear)"/>
<path d="M22.588 80.8464C30.0648 80.8464 36.1821 74.7291 36.1821 67.2523C36.1821 59.7756 30.0648 53.6582 22.588 53.6582C15.1112 53.6582 8.9939 59.7756 8.9939 67.2523C8.9939 74.7291 15.1112 80.8464 22.588 80.8464Z" fill="white" stroke="#56408B" stroke-opacity="0.5" stroke-width="3" stroke-miterlimit="10"/>
<path fill-rule="evenodd" clip-rule="evenodd" d="M23.9839 62.8828H21.6777V66.342L18.2185 66.342L18.2185 68.6482H21.6777V72.1074H23.9839V68.6482H27.4431V66.342L23.9839 66.342V62.8828Z" fill="#3BDF93"/>
<path d="M175.306 226.39C179.964 226.39 183.775 222.579 183.775 217.921C183.775 213.262 179.964 209.451 175.306 209.451C170.648 209.451 166.837 213.262 166.837 217.921C166.837 222.579 170.648 226.39 175.306 226.39Z" fill="white" stroke="#56408B" stroke-opacity="0.5" stroke-width="3" stroke-miterlimit="10"/>
<path fill-rule="evenodd" clip-rule="evenodd" d="M176.176 215.199H174.739V217.354H172.584L172.584 218.791H174.739V220.946H176.176V218.791H178.331V217.354H176.176V215.199Z" fill="#3BDF93"/>
<path d="M196.83 16.76C200.064 16.76 202.71 14.114 202.71 10.88C202.71 7.646 200.064 5 196.83 5C193.596 5 190.95 7.646 190.95 10.88C190.95 14.114 193.596 16.76 196.83 16.76Z" fill="white" stroke="#56408B" stroke-opacity="0.5" stroke-width="3" stroke-miterlimit="10"/>
<path fill-rule="evenodd" clip-rule="evenodd" d="M197.434 8.99023H196.436V10.4866H194.94L194.94 11.4841H196.436V12.9802H197.434V11.4841H198.93V10.4866H197.434V8.99023Z" fill="#3BDF93"/>
<path d="M227.303 59.549C228.663 60.9084 230.815 60.9084 232.175 59.549C233.534 58.1896 233.534 56.0372 232.175 54.6778C230.815 53.3184 228.663 53.3184 227.303 54.6778C225.944 56.0372 225.944 58.1896 227.303 59.549Z" fill="url(#paint1_linear)"/>
<path d="M108.409 219.442C109.768 220.801 111.921 220.801 113.28 219.442C114.64 218.082 114.64 215.93 113.28 214.57C111.921 213.211 109.768 213.211 108.409 214.57C107.05 215.93 107.05 218.082 108.409 219.442Z" fill="url(#paint2_linear)"/>
<defs>
<linearGradient id="paint0_linear" x1="126.322" y1="121.377" x2="126.322" y2="91.5647" gradientUnits="userSpaceOnUse">
<stop stop-color="#46D593"/>
<stop offset="1" stop-color="#2BEB92"/>
</linearGradient>
<linearGradient id="paint1_linear" x1="226.327" y1="57.1312" x2="233.196" y2="57.1312" gradientUnits="userSpaceOnUse">
<stop stop-color="#46D593"/>
<stop offset="1" stop-color="#2BEB92"/>
</linearGradient>
<linearGradient id="paint2_linear" x1="107.432" y1="217.024" x2="114.302" y2="217.024" gradientUnits="userSpaceOnUse">
<stop stop-color="#46D593"/>
<stop offset="1" stop-color="#2BEB92"/>
</linearGradient>
</defs>
</svg>
