<?xml version="1.0" encoding="UTF-8"?>
<svg width="224px" height="202px" viewBox="0 0 224 202" version="1.1" xmlns="http://www.w3.org/2000/svg" xmlns:xlink="http://www.w3.org/1999/xlink">
    <!-- Generator: Sketch 48.2 (47327) - http://www.bohemiancoding.com/sketch -->
    <title>Group 6</title>
    <desc>Created with Sketch.</desc>
    <defs></defs>
    <g id="Artboard" stroke="none" stroke-width="1" fill="none" fill-rule="evenodd" transform="translate(-997.000000, -175.000000)">
        <g id="Group-6" transform="translate(998.000000, 176.000000)">
            <circle id="Oval-11" stroke="#DDDDDD" cx="111" cy="100" r="100"></circle>
            <path d="M210.5,100 C123.515152,100 53,137.384223 53,183.5" id="Oval-11" stroke="#DDDDDD"></path>
            <path d="M209,100 C106.275037,100 23,122.161905 23,149.5" id="Oval-11" stroke="#DDDDDD"></path>
            <path d="M210.5,17 C123.515152,17 53,54.3842234 53,100.5" id="Oval-11" stroke="#DDDDDD" transform="translate(131.750000, 58.750000) scale(1, -1) translate(-131.750000, -58.750000) "></path>
            <path d="M209,100.5 C106.275037,100.5 23,78.3380951 23,51" id="Oval-11" stroke="#DDDDDD"></path>
            <circle id="Oval-Copy-5" stroke="#DDDDDD" fill="#FFFFFF" cx="23" cy="54" r="12"></circle>
            <circle id="Oval-Copy-6" stroke="#DDDDDD" fill="#FFFFFF" cx="23" cy="146" r="12"></circle>
            <circle id="Oval-Copy-7" stroke="#DDDDDD" fill="#FFFFFF" cx="54" cy="181" r="12"></circle>
            <circle id="Oval-Copy-8" stroke="#DDDDDD" fill="#FFFFFF" cx="54" cy="18" r="12"></circle>
            <ellipse id="Oval-2-Copy-37" fill="#04E8B0" cx="53.7550001" cy="17.7551586" rx="2.75500011" ry="2.75515856"></ellipse>
            <ellipse id="Oval-2-Copy-38" fill="#04E8B0" cx="22.7550001" cy="53.7551586" rx="2.75500011" ry="2.75515856"></ellipse>
            <ellipse id="Oval-2-Copy-40" fill="#04E8B0" cx="22.7550001" cy="145.755159" rx="2.75500011" ry="2.75515856"></ellipse>
            <ellipse id="Oval-2-Copy-41" fill="#04E8B0" cx="53.7550001" cy="180.755159" rx="2.75500011" ry="2.75515856"></ellipse>
            <path d="M210.020004,100 L12,100" id="Line-5" stroke="#DDDDDD" stroke-linecap="square"></path>
            <circle id="Oval-Copy-4" stroke="#DDDDDD" fill="#FFFFFF" cx="12" cy="100" r="12"></circle>
            <circle id="Oval-Copy-9" stroke="#DDDDDD" fill="#FFFFFF" cx="210" cy="100" r="12"></circle>
            <ellipse id="Oval-2-Copy-39" fill="#04E8B0" cx="11.7550001" cy="99.7551586" rx="2.75500011" ry="2.75515856"></ellipse>
            <path d="M212.777778,98 L212.5,98 L207.5,98 L207.222222,98 L207.222222,96.3333333 C207.222222,94.8016667 208.468333,93.5555556 210,93.5555556 C211.531667,93.5555556 212.777778,94.8016667 212.777778,96.3333333 L212.777778,98 Z M210,103 C209.386667,103 208.888889,102.502778 208.888889,101.888889 C208.888889,101.274444 209.386667,100.777778 210,100.777778 C210.613889,100.777778 211.111111,101.274444 211.111111,101.888889 C211.111111,102.502778 210.613889,103 210,103 Z M213.333333,98.1533333 L213.333333,96.3333333 C213.333333,94.495 211.838333,93 210,93 C208.161667,93 206.666667,94.495 206.666667,96.3333333 L206.666667,98.1533333 C205.698889,98.4983333 205,99.415 205,100.5 L205,103.833333 C205,105.211667 206.121667,106.333333 207.5,106.333333 L212.5,106.333333 C213.878333,106.333333 215,105.211667 215,103.833333 L215,100.5 C215,99.415 214.301111,98.4983333 213.333333,98.1533333 Z" id="Page-1" fill="#04E8B0"></path>
        </g>
    </g>
</svg>