<svg width="264" height="209" viewBox="0 0 264 209" fill="none" xmlns="http://www.w3.org/2000/svg">
<g clip-path="url(#clip0)">
<path d="M127.874 107.124C122.751 112.05 119.389 115.314 117.786 116.917C115.383 119.32 116.404 121.347 117.815 122.758C119.227 124.17 134.487 139.52 136.04 141.073C137.593 142.626 139.818 143.81 142.406 141.222C144.132 139.497 147.406 136.321 152.229 131.694" stroke="#DDDDDD" stroke-linecap="round" stroke-linejoin="round"/>
<path d="M72.4627 106.908C77.5852 111.835 80.9477 115.099 82.5503 116.702C84.954 119.105 83.9324 121.132 82.5213 122.543C81.1102 123.955 65.8492 139.304 64.2962 140.857C62.7432 142.41 60.5182 143.595 57.9302 141.007C56.2048 139.281 52.9306 136.105 48.1076 131.479" stroke="#DDDDDD" stroke-linecap="round" stroke-linejoin="round"/>
<path d="M122.177 159.523C122.177 163.919 122.177 166.878 122.177 168.401C122.177 170.685 120.969 172.27 119.852 173.309C118.735 174.349 111.632 180.57 108.237 183.575C104.841 186.58 100.7 186.391 96.5353 182.694C92.3702 178.998 73.5215 161.485 72.0656 160.08C70.6097 158.676 70.6097 157.631 70.6097 155.436C70.6097 153.241 70.6097 149.686 70.6097 148.463C70.6097 147.24 70.006 145.725 68.7939 144.597C67.9858 143.844 66.6207 142.479 64.6985 140.501" stroke="#DDDDDD" stroke-linecap="round" stroke-linejoin="round"/>
<path d="M117.712 122.861C115.328 125.25 113.747 126.655 113.014 127.315C112.28 127.976 111.509 127.994 110.062 127.976C108.614 127.957 106.104 127.994 105.031 127.994C103.959 127.994 102.281 128.017 101.328 129.063C100.375 130.108 87.0349 142.274 85.4116 143.938C83.7883 145.602 83.3413 148.1 84.5258 149.462C86.8992 152.191 93.2409 157.606 99.3113 151.787C101.017 150.152 102.047 149.196 104.002 147.436C105.956 145.676 107.771 145.253 110.271 147.511C112.77 149.769 120.737 158.057 122.449 159.689C124.16 161.321 126.063 160.386 127.601 158.832C129.139 157.277 130.382 156.248 131.292 155.401C132.201 154.554 131.877 153.255 131.877 151.787C131.877 150.319 131.877 149.369 131.877 148.185C131.877 147.002 131.874 145.871 133.845 143.938C134.697 143.103 135.096 142.579 136.453 141.192" stroke="#DDDDDD" stroke-linecap="round" stroke-linejoin="round"/>
<path d="M99.7886 130.592C95.7068 129.419 90.976 130.026 88.6371 128.087C87.0778 126.794 85.1075 124.995 82.7263 122.69" stroke="#DDDDDD" stroke-linecap="round" stroke-linejoin="round"/>
<path d="M134.975 55.2258C132.034 55.2258 128.85 57.573 128.85 61.2173C128.85 64.8615 128.85 122.773 128.85 126.126C128.85 129.479 130.661 131.315 133.949 131.315C137.238 131.315 169.248 131.315 172.269 131.315C175.29 131.315 177.492 129.548 177.492 126.126C177.492 122.704 177.492 64.4886 177.492 61.2087C177.492 57.9288 174.898 55.3452 171.283 55.3452" stroke="#DDDDDD" stroke-linecap="round" stroke-linejoin="round"/>
<path d="M204.649 54.7502H186.973" stroke="#DDDDDD" stroke-linecap="round" stroke-linejoin="round"/>
<path d="M179.079 37.2959C175.201 37.2959 171.411 39.9136 171.411 44.8409C171.411 48.1258 171.411 72.74 171.411 118.684" stroke="#DDDDDD" stroke-linecap="round" stroke-linejoin="round"/>
<path d="M177.647 118.847H129.183" stroke="#DDDDDD" stroke-linecap="round" stroke-linejoin="round"/>
<path d="M142.395 52.9995H164.085" stroke="#DDDDDD" stroke-linecap="round" stroke-linejoin="round"/>
<path d="M142.395 62.0784H164.085" stroke="#DDDDDD" stroke-linecap="round" stroke-linejoin="round"/>
<path d="M142.395 71.1575H164.085" stroke="#DDDDDD" stroke-linecap="round" stroke-linejoin="round"/>
<path d="M142.395 80.2363H164.085" stroke="#DDDDDD" stroke-linecap="round" stroke-linejoin="round"/>
<path d="M142.395 89.3154H164.085" stroke="#DDDDDD" stroke-linecap="round" stroke-linejoin="round"/>
<path d="M142.395 98.3943H164.085" stroke="#DDDDDD" stroke-linecap="round" stroke-linejoin="round"/>
<path d="M142.395 107.473H164.085" stroke="#DDDDDD" stroke-linecap="round" stroke-linejoin="round"/>
<path d="M191.752 110.441H177.6" stroke="#DDDDDD" stroke-linecap="round" stroke-linejoin="round"/>
<path d="M134.982 118.732C134.982 72.6477 134.982 48.038 134.982 44.9033C134.982 40.2011 138.018 37.262 142.822 37.262C147.626 37.262 174.297 37.262 179.082 37.262C183.868 37.262 186.324 41.0981 186.324 44.9033C186.324 48.7084 186.324 97.8702 186.324 103.486C186.324 109.103 190.345 110.414 192.104 110.414C193.864 110.414 198.673 109.637 198.673 103.486C198.673 97.3355 198.673 65.3355 198.673 60.9424C198.673 56.5494 201.774 54.8267 204.848 54.8267C207.922 54.8267 210.746 56.6698 210.746 60.9424C210.746 63.7908 210.746 71.5802 210.746 84.3105" stroke="#DDDDDD" stroke-linecap="round" stroke-linejoin="round"/>
<path d="M147.778 124.997H158.344" stroke="#DDDDDD" stroke-linecap="round" stroke-linejoin="round"/>
<path d="M210.917 84.0564H198.726" stroke="#DDDDDD" stroke-linecap="round" stroke-linejoin="round"/>
<path d="M48.8523 132.026L41.9579 125.132C40.0053 123.179 40.0053 120.013 41.9579 118.061L59.0515 100.967C61.0042 99.0143 64.17 99.0143 66.1226 100.967L72.9214 107.766" stroke="#DDDDDD"/>
<path d="M171.497 185.518C240.39 150.415 278.555 87.2533 256.741 44.4415C234.927 1.62972 161.395 -4.61989 92.5029 30.4826C23.6104 65.5851 -14.5546 128.747 7.25914 171.559C29.0728 214.371 102.605 220.62 171.497 185.518Z" stroke="#DDDDDD"/>
<path d="M167 17C171.418 17 175 13.4183 175 9C175 4.58172 171.418 1 167 1C162.582 1 159 4.58172 159 9C159 13.4183 162.582 17 167 17Z" fill="white" stroke="#DDDDDD"/>
<path d="M144.5 113C147.538 113 150 110.538 150 107.5C150 104.462 147.538 102 144.5 102C141.462 102 139 104.462 139 107.5C139 110.538 141.462 113 144.5 113Z" fill="white" stroke="#DDDDDD"/>
<path d="M163.5 85C166.538 85 169 82.5376 169 79.5C169 76.4624 166.538 74 163.5 74C160.462 74 158 76.4624 158 79.5C158 82.5376 160.462 85 163.5 85Z" fill="white" stroke="#DDDDDD"/>
<path d="M142.5 58C145.538 58 148 55.5376 148 52.5C148 49.4624 145.538 47 142.5 47C139.462 47 137 49.4624 137 52.5C137 55.5376 139.462 58 142.5 58Z" fill="white" stroke="#DDDDDD"/>
<path d="M90.5 144C93.5376 144 96 141.538 96 138.5C96 135.462 93.5376 133 90.5 133C87.4624 133 85 135.462 85 138.5C85 141.538 87.4624 144 90.5 144Z" fill="white" stroke="#DDDDDD"/>
<path d="M118.5 179C121.538 179 124 176.538 124 173.5C124 170.462 121.538 168 118.5 168C115.462 168 113 170.462 113 173.5C113 176.538 115.462 179 118.5 179Z" fill="white" stroke="#DDDDDD"/>
<path d="M44.5 120C47.5376 120 50 117.538 50 114.5C50 111.462 47.5376 109 44.5 109C41.4624 109 39 111.462 39 114.5C39 117.538 41.4624 120 44.5 120Z" fill="white" stroke="#DDDDDD"/>
<path d="M21 202C28.1797 202 34 196.18 34 189C34 181.82 28.1797 176 21 176C13.8203 176 8 181.82 8 189C8 196.18 13.8203 202 21 202Z" fill="white" stroke="#DDDDDD"/>
<path d="M202 180C210.284 180 217 173.284 217 165C217 156.716 210.284 150 202 150C193.716 150 187 156.716 187 165C187 173.284 193.716 180 202 180Z" fill="white" stroke="#F1F1F1"/>
<path d="M166.755 11.5103C168.277 11.5103 169.51 10.2768 169.51 8.75516C169.51 7.23353 168.277 6 166.755 6C165.233 6 164 7.23353 164 8.75516C164 10.2768 165.233 11.5103 166.755 11.5103Z" fill="#46D593"/>
<path d="M144.665 109.33C145.584 109.33 146.33 108.584 146.33 107.665C146.33 106.745 145.584 106 144.665 106C143.745 106 143 106.745 143 107.665C143 108.584 143.745 109.33 144.665 109.33Z" fill="#46D593"/>
<path d="M163.665 81.3299C164.584 81.3299 165.33 80.5844 165.33 79.6649C165.33 78.7454 164.584 78 163.665 78C162.745 78 162 78.7454 162 79.6649C162 80.5844 162.745 81.3299 163.665 81.3299Z" fill="#46D593"/>
<path d="M142.665 54.3299C143.584 54.3299 144.33 53.5844 144.33 52.6649C144.33 51.7454 143.584 51 142.665 51C141.745 51 141 51.7454 141 52.6649C141 53.5844 141.745 54.3299 142.665 54.3299Z" fill="#46D593"/>
<path d="M90.6648 140.33C91.5843 140.33 92.3297 139.584 92.3297 138.665C92.3297 137.745 91.5843 137 90.6648 137C89.7454 137 89 137.745 89 138.665C89 139.584 89.7454 140.33 90.6648 140.33Z" fill="#46D593"/>
<path d="M118.665 175.33C119.584 175.33 120.33 174.584 120.33 173.665C120.33 172.745 119.584 172 118.665 172C117.745 172 117 172.745 117 173.665C117 174.584 117.745 175.33 118.665 175.33Z" fill="#46D593"/>
<path d="M44.6648 116.33C45.5843 116.33 46.3297 115.584 46.3297 114.665C46.3297 113.745 45.5843 113 44.6648 113C43.7454 113 43 113.745 43 114.665C43 115.584 43.7454 116.33 44.6648 116.33Z" fill="#46D593"/>
<path d="M20.7705 192.542C22.853 192.542 24.5411 190.853 24.5411 188.771C24.5411 186.688 22.853 185 20.7705 185C18.6881 185 17 186.688 17 188.771C17 190.853 18.6881 192.542 20.7705 192.542Z" fill="#46D593"/>
<path d="M201.771 170.271C204.808 170.271 207.271 167.809 207.271 164.771C207.271 161.733 204.808 159.271 201.771 159.271C198.733 159.271 196.271 161.733 196.271 164.771C196.271 167.809 198.733 170.271 201.771 170.271Z" fill="#46D593"/>
</g>
<defs>
<clipPath id="clip0">
<rect width="264" height="209" fill="white"/>
</clipPath>
</defs>
</svg>
