<svg width="224" height="202" viewBox="0 0 224 202" fill="none" xmlns="http://www.w3.org/2000/svg">
<path d="M112 201C167.228 201 212 156.228 212 101C212 45.7715 167.228 1 112 1C56.7715 1 12 45.7715 12 101C12 156.228 56.7715 201 112 201Z" stroke="#DDDDDD"/>
<path d="M211.5 101C124.515 101 54 138.384 54 184.5" stroke="#DDDDDD"/>
<path d="M210 101C107.275 101 24 123.162 24 150.5" stroke="#DDDDDD"/>
<path d="M211.5 101.5C124.515 101.5 54 64.1158 54 18" stroke="#DDDDDD"/>
<path d="M210 101.5C107.275 101.5 24 79.3381 24 52" stroke="#DDDDDD"/>
<path d="M24 67C30.6274 67 36 61.6274 36 55C36 48.3726 30.6274 43 24 43C17.3726 43 12 48.3726 12 55C12 61.6274 17.3726 67 24 67Z" fill="white" stroke="#DDDDDD"/>
<path d="M24 159C30.6274 159 36 153.627 36 147C36 140.373 30.6274 135 24 135C17.3726 135 12 140.373 12 147C12 153.627 17.3726 159 24 159Z" fill="white" stroke="#DDDDDD"/>
<path d="M55 194C61.6274 194 67 188.627 67 182C67 175.373 61.6274 170 55 170C48.3726 170 43 175.373 43 182C43 188.627 48.3726 194 55 194Z" fill="white" stroke="#DDDDDD"/>
<path d="M55 31C61.6274 31 67 25.6274 67 19C67 12.3726 61.6274 7 55 7C48.3726 7 43 12.3726 43 19C43 25.6274 48.3726 31 55 31Z" fill="white" stroke="#DDDDDD"/>
<path d="M54.755 21.5103C56.2765 21.5103 57.51 20.2768 57.51 18.7552C57.51 17.2335 56.2765 16 54.755 16C53.2335 16 52 17.2335 52 18.7552C52 20.2768 53.2335 21.5103 54.755 21.5103Z" fill="#46D593"/>
<path d="M23.755 57.5103C25.2765 57.5103 26.51 56.2768 26.51 54.7552C26.51 53.2335 25.2765 52 23.755 52C22.2335 52 21 53.2335 21 54.7552C21 56.2768 22.2335 57.5103 23.755 57.5103Z" fill="#8BDBB6"/>
<path d="M23.755 149.51C25.2765 149.51 26.51 148.277 26.51 146.755C26.51 145.234 25.2765 144 23.755 144C22.2335 144 21 145.234 21 146.755C21 148.277 22.2335 149.51 23.755 149.51Z" fill="#8BDBB6"/>
<path d="M54.755 184.51C56.2765 184.51 57.51 183.277 57.51 181.755C57.51 180.234 56.2765 179 54.755 179C53.2335 179 52 180.234 52 181.755C52 183.277 53.2335 184.51 54.755 184.51Z" fill="#46D593"/>
<path d="M211.02 101H13" stroke="#DDDDDD" stroke-linecap="square"/>
<path d="M13 113C19.6274 113 25 107.627 25 101C25 94.3726 19.6274 89 13 89C6.37258 89 1 94.3726 1 101C1 107.627 6.37258 113 13 113Z" fill="white" stroke="#DDDDDD"/>
<path d="M211 113C217.627 113 223 107.627 223 101C223 94.3726 217.627 89 211 89C204.373 89 199 94.3726 199 101C199 107.627 204.373 113 211 113Z" fill="white" stroke="#DDDDDD"/>
<path d="M12.755 103.51C14.2765 103.51 15.51 102.277 15.51 100.755C15.51 99.2335 14.2765 98 12.755 98C11.2335 98 10 99.2335 10 100.755C10 102.277 11.2335 103.51 12.755 103.51Z" fill="#BCE2D0"/>
<path fill-rule="evenodd" clip-rule="evenodd" d="M213.778 99H213.5H208.5H208.222V97.3333C208.222 95.8017 209.468 94.5556 211 94.5556C212.532 94.5556 213.778 95.8017 213.778 97.3333V99ZM211 104C210.387 104 209.889 103.503 209.889 102.889C209.889 102.274 210.387 101.778 211 101.778C211.614 101.778 212.111 102.274 212.111 102.889C212.111 103.503 211.614 104 211 104ZM214.333 99.1533V97.3333C214.333 95.495 212.838 94 211 94C209.162 94 207.667 95.495 207.667 97.3333V99.1533C206.699 99.4983 206 100.415 206 101.5V104.833C206 106.212 207.122 107.333 208.5 107.333H213.5C214.878 107.333 216 106.212 216 104.833V101.5C216 100.415 215.301 99.4983 214.333 99.1533Z" fill="#46D593"/>
</svg>
