<svg width="266" height="254" viewBox="0 0 266 254" fill="none" xmlns="http://www.w3.org/2000/svg">
<g clip-path="url(#clip0)">
<path d="M84.6544 242.635C121.889 242.635 152.109 212.415 152.109 175.18C152.109 137.945 121.889 107.726 84.6544 107.726C47.4196 107.726 17.2 137.945 17.2 175.18C17.2 212.415 47.4196 242.635 84.6544 242.635Z" stroke="#DDDDDD" stroke-opacity="0.4"/>
<path d="M179.795 147.997C216.752 147.997 246.746 117.778 246.746 80.5429C246.746 43.308 216.752 13.0884 179.795 13.0884C142.838 13.0884 112.844 43.308 112.844 80.5429C112.844 117.778 142.838 147.997 179.795 147.997Z" stroke="#DDDDDD" stroke-opacity="0.4"/>
<path d="M182.941 178.199C211.006 150.134 211.006 104.579 182.941 76.5139C154.876 48.4489 109.321 48.4489 81.2563 76.5139C53.1913 104.579 53.1913 150.134 81.2563 178.199C109.321 206.264 154.876 206.264 182.941 178.199Z" stroke="#DDDDDD"/>
<path d="M64.6446 165.111C71.2894 165.111 76.726 159.674 76.726 153.03C76.726 146.385 71.2894 140.948 64.6446 140.948C57.9999 140.948 52.5632 146.385 52.5632 153.03C52.5632 159.674 57.9999 165.111 64.6446 165.111Z" fill="white" stroke="#DDDDDD"/>
<path d="M64.7453 155.547C66.2554 155.547 67.5643 154.339 67.5643 152.728C67.5643 151.218 66.3561 149.909 64.7453 149.909C63.1344 149.909 61.9263 151.218 61.9263 152.828C61.9263 154.339 63.1344 155.547 64.7453 155.547Z" fill="url(#paint0_linear)"/>
<path opacity="0.5" d="M64.6446 164.608C71.2894 164.608 76.726 159.171 76.726 152.526C76.726 145.881 71.2894 140.445 64.6446 140.445C57.9999 140.445 52.5632 145.881 52.5632 152.526C52.5632 159.171 57.9999 164.608 64.6446 164.608Z" stroke="#56408B" stroke-width="5.6693" stroke-miterlimit="10"/>
<path d="M199.554 115.779C206.198 115.779 211.635 110.342 211.635 103.698C211.635 97.0528 206.198 91.6162 199.554 91.6162C192.909 91.6162 187.472 97.0528 187.472 103.698C187.472 110.342 192.909 115.779 199.554 115.779Z" fill="white" stroke="#DDDDDD"/>
<path d="M199.654 106.214C201.164 106.214 202.473 105.006 202.473 103.395C202.473 101.885 201.265 100.576 199.654 100.576C198.043 100.576 196.835 101.884 196.835 103.495C196.835 105.006 198.043 106.214 199.654 106.214Z" fill="url(#paint1_linear)"/>
<path opacity="0.5" d="M199.554 115.275C206.198 115.275 211.635 109.838 211.635 103.194C211.635 96.5489 206.198 91.1123 199.554 91.1123C192.909 91.1123 187.472 96.5489 187.472 103.194C187.472 109.838 192.909 115.275 199.554 115.275Z" stroke="#56408B" stroke-width="5.6693" stroke-miterlimit="10"/>
<path d="M132.099 148.499C143.727 148.499 153.242 138.985 153.242 127.356C153.242 115.728 143.727 106.214 132.099 106.214C120.471 106.214 110.957 115.728 110.957 127.356C110.957 138.985 120.471 148.499 132.099 148.499Z" fill="white" stroke="#DDDDDD"/>
<path fill-rule="evenodd" clip-rule="evenodd" d="M136.609 124.13H136.126H128.072H127.589V121.407C127.589 119.005 129.522 116.922 132.099 116.922C134.676 116.922 136.609 118.844 136.609 121.407V124.13ZM132.099 132.139C131.133 132.139 130.327 131.338 130.327 130.377C130.327 129.416 131.133 128.615 132.099 128.615C133.066 128.615 133.871 129.416 133.871 130.377C133.871 131.338 133.066 132.139 132.099 132.139ZM137.415 124.45V121.567C137.415 118.684 134.999 116.282 132.099 116.282C129.2 116.282 126.783 118.684 126.783 121.567V124.45C125.172 124.931 124.045 126.533 124.045 128.134V133.42C124.045 135.662 125.817 137.424 128.072 137.424H136.126C138.381 137.424 140.153 135.662 140.153 133.42V128.134C140.153 126.372 139.026 124.931 137.415 124.45Z" fill="url(#paint2_linear)"/>
<path d="M241.147 145.741C242.795 145.943 244.382 144.833 244.583 143.184C244.785 141.536 243.675 139.949 242.026 139.748C240.378 139.547 238.791 140.657 238.59 142.305C238.289 143.966 239.487 145.44 241.147 145.741Z" fill="url(#paint3_linear)"/>
<path d="M23.4395 115.546C25.0877 115.747 26.5747 114.65 26.8758 112.989C27.077 111.341 25.9794 109.854 24.3188 109.553C22.6706 109.352 21.1837 110.449 20.8825 112.11C20.5938 113.87 21.7913 115.345 23.4395 115.546Z" fill="url(#paint4_linear)"/>
<path d="M241.147 145.741C242.795 145.943 244.382 144.833 244.583 143.184C244.785 141.536 243.675 139.949 242.026 139.748C240.378 139.547 238.791 140.657 238.59 142.305C238.289 143.966 239.487 145.44 241.147 145.741Z" fill="url(#paint5_linear)"/>
<path d="M232.606 174.193C234.204 174.807 235.94 174.084 236.566 172.586C237.179 170.988 236.456 169.252 234.958 168.626C233.361 168.013 231.624 168.735 230.998 170.233C230.373 171.731 231.096 173.468 232.606 174.193Z" fill="url(#paint6_linear)"/>
<path d="M27.9849 86.7779C29.5828 87.3912 31.3192 86.6684 31.9449 85.1704C32.5582 83.5725 31.8354 81.8361 30.3374 81.2104C28.7396 80.5972 27.0032 81.3199 26.3775 82.8179C25.7518 84.3159 26.4746 86.0523 27.9849 86.7779Z" fill="url(#paint7_linear)"/>
<path d="M217.513 198.082C218.86 199.132 220.759 198.897 221.809 197.549C222.859 196.201 222.623 194.303 221.276 193.253C219.928 192.203 218.03 192.438 216.979 193.786C215.929 195.134 216.165 197.032 217.513 198.082Z" fill="url(#paint8_linear)"/>
<path d="M41.6312 61.0408C42.979 62.091 44.8773 61.8553 45.9274 60.5076C46.9775 59.1598 46.7419 57.2615 45.3942 56.2114C44.0464 55.1613 42.1481 55.3969 41.098 56.7446C40.0478 58.0924 40.2835 59.9907 41.6312 61.0408Z" fill="url(#paint9_linear)"/>
<path d="M197.015 218.482C198.001 219.881 199.949 220.045 201.248 219.072C202.648 218.087 202.812 216.139 201.839 214.84C200.853 213.44 198.906 213.276 197.606 214.249C196.306 215.222 196.03 217.082 197.015 218.482Z" fill="url(#paint10_linear)"/>
<path d="M62.0912 40.3411C63.0765 41.7406 65.0245 41.9046 66.324 40.9317C67.7235 39.9464 67.8875 37.9985 66.9146 36.6989C65.9293 35.2995 63.9814 35.1354 62.6818 36.1083C61.3823 37.0812 61.1183 39.0416 62.0912 40.3411Z" fill="url(#paint11_linear)"/>
<path d="M170.729 232.295C171.328 233.844 173.15 234.632 174.687 233.934C176.236 233.336 177.024 231.514 176.326 229.977C175.728 228.428 173.905 227.64 172.369 228.338C170.82 228.936 170.119 230.646 170.729 232.295Z" fill="url(#paint12_linear)"/>
<path d="M87.6041 25.2036C88.2022 26.7525 90.0247 27.5408 91.5613 26.8429C93.1102 26.2448 93.8985 24.4223 93.2006 22.8857C92.6025 21.3367 90.78 20.5484 89.2434 21.2464C87.6944 21.8445 87.006 23.6546 87.6041 25.2036Z" fill="url(#paint13_linear)"/>
<path d="M142.627 238.015C142.838 239.713 144.398 240.839 145.997 240.64C147.595 240.442 148.82 238.869 148.622 237.271C148.424 235.672 146.851 234.447 145.253 234.646C143.654 234.844 142.416 236.316 142.627 238.015Z" fill="url(#paint14_linear)"/>
<path d="M115.184 16.9109C115.395 18.6094 116.955 19.7347 118.553 19.5362C120.152 19.3378 121.377 17.7654 121.179 16.1669C120.98 14.5683 119.408 13.3431 117.809 13.5415C116.211 13.74 114.973 15.2124 115.184 16.9109Z" fill="url(#paint15_linear)"/>
</g>
<defs>
<linearGradient id="paint0_linear" x1="61.879" y1="152.767" x2="67.5169" y2="152.767" gradientUnits="userSpaceOnUse">
<stop stop-color="#46D593"/>
<stop offset="1" stop-color="#2BEB92"/>
</linearGradient>
<linearGradient id="paint1_linear" x1="196.788" y1="103.434" x2="202.426" y2="103.434" gradientUnits="userSpaceOnUse">
<stop stop-color="#46D593"/>
<stop offset="1" stop-color="#2BEB92"/>
</linearGradient>
<linearGradient id="paint2_linear" x1="123.969" y1="126.916" x2="140.078" y2="126.916" gradientUnits="userSpaceOnUse">
<stop stop-color="#46D593"/>
<stop offset="1" stop-color="#2BEB92"/>
</linearGradient>
<linearGradient id="paint3_linear" x1="238.573" y1="143.09" x2="244.656" y2="142.335" gradientUnits="userSpaceOnUse">
<stop stop-color="#9D92B7"/>
<stop offset="1" stop-color="#B4ABCA"/>
</linearGradient>
<linearGradient id="paint4_linear" x1="20.8655" y1="112.895" x2="26.9484" y2="112.14" gradientUnits="userSpaceOnUse">
<stop stop-color="#9D92B7"/>
<stop offset="1" stop-color="#B4ABCA"/>
</linearGradient>
<linearGradient id="paint5_linear" x1="238.573" y1="143.09" x2="244.656" y2="142.335" gradientUnits="userSpaceOnUse">
<stop stop-color="#9D92B7"/>
<stop offset="1" stop-color="#B4ABCA"/>
</linearGradient>
<linearGradient id="paint6_linear" x1="230.816" y1="171.749" x2="236.838" y2="171.002" gradientUnits="userSpaceOnUse">
<stop stop-color="#9D92B7"/>
<stop offset="1" stop-color="#B4ABCA"/>
</linearGradient>
<linearGradient id="paint7_linear" x1="26.195" y1="84.3337" x2="32.2168" y2="83.5863" gradientUnits="userSpaceOnUse">
<stop stop-color="#9D92B7"/>
<stop offset="1" stop-color="#B4ABCA"/>
</linearGradient>
<linearGradient id="paint8_linear" x1="216.36" y1="196.015" x2="222.52" y2="195.25" gradientUnits="userSpaceOnUse">
<stop stop-color="#9D92B7"/>
<stop offset="1" stop-color="#B4ABCA"/>
</linearGradient>
<linearGradient id="paint9_linear" x1="40.4787" y1="58.9734" x2="46.6382" y2="58.2089" gradientUnits="userSpaceOnUse">
<stop stop-color="#9D92B7"/>
<stop offset="1" stop-color="#B4ABCA"/>
</linearGradient>
<linearGradient id="paint10_linear" x1="196.461" y1="217" x2="202.505" y2="216.25" gradientUnits="userSpaceOnUse">
<stop stop-color="#9D92B7"/>
<stop offset="1" stop-color="#B4ABCA"/>
</linearGradient>
<linearGradient id="paint11_linear" x1="61.5368" y1="38.8593" x2="67.5808" y2="38.1092" gradientUnits="userSpaceOnUse">
<stop stop-color="#9D92B7"/>
<stop offset="1" stop-color="#B4ABCA"/>
</linearGradient>
<linearGradient id="paint12_linear" x1="170.549" y1="231.477" x2="176.632" y2="230.722" gradientUnits="userSpaceOnUse">
<stop stop-color="#9D92B7"/>
<stop offset="1" stop-color="#B4ABCA"/>
</linearGradient>
<linearGradient id="paint13_linear" x1="87.4235" y1="24.3853" x2="93.5064" y2="23.6303" gradientUnits="userSpaceOnUse">
<stop stop-color="#9D92B7"/>
<stop offset="1" stop-color="#B4ABCA"/>
</linearGradient>
<linearGradient id="paint14_linear" x1="142.64" y1="237.984" x2="148.699" y2="237.233" gradientUnits="userSpaceOnUse">
<stop stop-color="#9D92B7"/>
<stop offset="1" stop-color="#B4ABCA"/>
</linearGradient>
<linearGradient id="paint15_linear" x1="115.197" y1="16.8805" x2="121.256" y2="16.1285" gradientUnits="userSpaceOnUse">
<stop stop-color="#9D92B7"/>
<stop offset="1" stop-color="#B4ABCA"/>
</linearGradient>
<clipPath id="clip0">
<rect width="266" height="254" fill="white"/>
</clipPath>
</defs>
</svg>
