<?xml version="1.0" encoding="UTF-8" standalone="no"?>
<svg
   xmlns:dc="http://purl.org/dc/elements/1.1/"
   xmlns:cc="http://creativecommons.org/ns#"
   xmlns:rdf="http://www.w3.org/1999/02/22-rdf-syntax-ns#"
   xmlns:svg="http://www.w3.org/2000/svg"
   xmlns="http://www.w3.org/2000/svg"
   id="svg32"
   version="1.1"
   viewBox="0 0 224 202"
   height="202px"
   width="224px">
  <metadata
     id="metadata36">
    <rdf:RDF>
      <cc:Work
         rdf:about="">
        <dc:format>image/svg+xml</dc:format>
        <dc:type
           rdf:resource="http://purl.org/dc/dcmitype/StillImage" />
        <dc:title>Group 6</dc:title>
      </cc:Work>
    </rdf:RDF>
  </metadata>
  <!-- Generator: Sketch 48.2 (47327) - http://www.bohemiancoding.com/sketch -->
  <title
     id="title2">Group 6</title>
  <desc
     id="desc4">Created with Sketch.</desc>
  <defs
     id="defs6" />
  <g
     transform="translate(-997.000000, -175.000000)"
     fill-rule="evenodd"
     fill="none"
     stroke-width="1"
     stroke="none"
     id="Artboard">
    <rect
       ry="4.9332066"
       y="202.64008"
       x="997.71411"
       height="142.63719"
       width="222.65317"
       id="rect4562"
       style="fill:none;fill-opacity:1;stroke:#dddddd;stroke-width:0.94059873;stroke-miterlimit:4;stroke-dasharray:none;stroke-opacity:1" />
    <path
       id="path4564"
       d="m 997.64195,217.15466 h 222.11445 v -0.21398"
       style="fill:none;stroke:#dddddd;stroke-width:0.89999998;stroke-linecap:butt;stroke-linejoin:miter;stroke-opacity:1;stroke-miterlimit:4;stroke-dasharray:none" />
    <circle
       style="fill:none;fill-opacity:1;stroke:#dddddd;stroke-width:0.89999998;stroke-miterlimit:4;stroke-dasharray:none;stroke-opacity:1"
       id="circle4577-6"
       cx="1023.255"
       cy="209.9604"
       r="2.5677967" />
    <circle
       style="fill:none;fill-opacity:1;stroke:#dddddd;stroke-width:0.89999998;stroke-miterlimit:4;stroke-dasharray:none;stroke-opacity:1"
       id="circle4577-6-8"
       cx="1007.2549"
       cy="209.9604"
       r="2.5677967" />
    <circle
       style="fill:none;fill-opacity:1;stroke:#dddddd;stroke-width:0.89999998;stroke-miterlimit:4;stroke-dasharray:none;stroke-opacity:1"
       id="circle4577-6-89"
       cx="1015.255"
       cy="209.9604"
       r="2.5677967" />
    <path
       id="path4564-1"
       d="M 1032.7924,344.94172 V 217.80761 h -0.214"
       style="fill:none;stroke:#dddddd;stroke-width:0.89999998;stroke-linecap:butt;stroke-linejoin:miter;stroke-miterlimit:4;stroke-dasharray:none;stroke-opacity:1" />
    <g
       style="fill:#04e8b0;fill-opacity:1"
       transform="matrix(0.02524531,0,0,-0.02524531,1012.4519,237.30228)"
       id="g10">
      <g
         style="fill:#04e8b0;fill-opacity:1"
         transform="scale(0.1)"
         id="g12">
        <g
           style="fill:#04e8b0;fill-opacity:1"
           transform="matrix(3.1417645,0,0,3.1417645,-2214.2926,-2214.5087)"
           id="g4565">
          <path
             d="m 1013.95,2133.53 c 69.39,30.2 118.86,-33.8 161.64,-76.57 76.41,-64.82 149.06,-134.05 217.97,-206.71 39.51,-43.1 23.51,-121.96 -30.21,-145.96 -41.31,-22.53 -91.76,-5.55 -123.43,25.8 -83.11,79.68 -162.62,163.27 -248.99,239.36 -53.551,43.75 -42.614,138.77 23.02,164.08"
             style="fill:#04e8b0;fill-opacity:1;fill-rule:nonzero;stroke:none"
             id="path30" />
          <path
             d="m 1770.87,1912.79 c 47.03,25.31 122.29,4.73 135.36,-51.27 19.92,-49.8 -12.08,-99.1 -47.19,-132.25 -76.9,-75.92 -151.68,-153.96 -226.46,-232 -27.26,-32.99 -75.26,-41.81 -113.8,-24.01 -55.67,23.03 -70.69,106.62 -28.73,148.91 94.37,96 177.64,203.6 280.82,290.62"
             style="fill:#04e8b0;fill-opacity:1;fill-rule:nonzero;stroke:none"
             id="path32" />
          <path
             d="m 267.965,1897.28 c 48.984,29.55 109.555,9.96 145.801,-30.21 81.472,-82.28 165.554,-161.8 248.007,-242.78 54.536,-50.45 16.493,-157.23 -59.589,-157.56 -63.676,-9.8 -97.477,53.23 -140.09,87.68 -74.778,61.88 -143.188,130.78 -210.946,200.17 -38.371,39.51 -26.937,112 16.817,142.7"
             style="fill:#04e8b0;fill-opacity:1;fill-rule:nonzero;stroke:none"
             id="path34" />
          <path
             d="m 331.152,1410.89 c 82.125,31.68 162.289,-71.84 111.024,-143.18 -60.574,-79.03 -139.438,-142.54 -205.559,-217.16 -39.023,-40.16 -75.429,-101.878 -140.4139,-94.038 -76.0859,2.937 -114.289,108.738 -58.9414,159.998 99.9223,95.68 179.2733,216.67 293.8903,294.38"
             style="fill:#04e8b0;fill-opacity:1;fill-rule:nonzero;stroke:none"
             id="path36" />
          <path
             d="m 1996.35,1181.99 c 56.49,36.9 141.72,-5.06 143.52,-73.15 8.32,-64 -55.19,-97.79 -90.13,-140.738 -61.55,-74.122 -129.14,-143.192 -198.86,-209.641 -50.94,-48.16 -146.13,-14.359 -155.27,55.348 -11.92,72.011 55.67,116.742 98.29,162.781 70.53,65.48 130.12,142.7 202.45,205.4"
             style="fill:#04e8b0;fill-opacity:1;fill-rule:nonzero;stroke:none"
             id="path38" />
          <path
             d="m 545.363,675.68 c 54.856,32.82 138.129,-6.2 139.434,-72.809 C 694.918,538.539 631.406,504.41 596.633,461.469 535.238,387.18 466.832,319.102 397.766,251.828 c -44.899,-45.387 -140.578,-23.5 -153.313,41.633 -21.715,62.859 31.676,113.641 72.328,153.16 78.864,73.801 147.438,158.207 228.582,229.059"
             style="fill:#04e8b0;fill-opacity:1;fill-rule:nonzero;stroke:none"
             id="path40" />
          <path
             d="m 1520.42,678.141 c 30.37,10.437 68.9,11.257 94.53,-10.621 95.03,-90.29 196.09,-174.211 285.4,-270.54 27.59,-27.921 30.04,-74.781 11.76,-108.41 -25.8,-60.41 -114.3,-61.879 -157.24,-19.101 -86.69,81.801 -169.96,167.672 -257.15,249.152 -52.73,40.981 -40.33,135.84 22.7,159.52"
             style="fill:#04e8b0;fill-opacity:1;fill-rule:nonzero;stroke:none"
             id="path42" />
          <path
             d="m 788.801,447.27 c 45.222,24.492 98.289,1.3 130.781,-33.141 81.958,-81.309 163.918,-162.617 248.988,-240.668 56,-53.223 18.12,-161.1524 -60.74,-161.961 -63.67,-7.51172 -96.82,55.6719 -139.596,90.281 -74.289,61.559 -143.187,129.321 -209.8,199.039 -40.168,42.942 -23.84,122.77 30.367,146.45"
             style="fill:#04e8b0;fill-opacity:1;fill-rule:nonzero;stroke:none"
             id="path44" />
          <path
             d="m 643.438,2051.42 c 0,-51.56 -41.793,-93.35 -93.348,-93.35 -51.555,0 -93.348,41.79 -93.348,93.35 0,51.55 41.793,93.35 93.348,93.35 51.555,0 93.348,-41.8 93.348,-93.35"
             style="fill:#04e8b0;fill-opacity:1;fill-rule:nonzero;stroke:none"
             id="path46" />
          <path
             d="m 915.527,1803.13 c 0,-51.56 -41.793,-93.35 -93.347,-93.35 -51.555,0 -93.344,41.79 -93.344,93.35 0,51.55 41.789,93.35 93.344,93.35 51.554,0 93.347,-41.8 93.347,-93.35"
             style="fill:#04e8b0;fill-opacity:1;fill-rule:nonzero;stroke:none"
             id="path48" />
          <path
             d="m 186.695,1575.04 c 0,-51.56 -41.793,-93.35 -93.3512,-93.35 C 41.793,1481.69 0,1523.48 0,1575.04 c 0,51.55 41.793,93.34 93.3438,93.34 51.5582,0 93.3512,-41.79 93.3512,-93.34"
             style="fill:#04e8b0;fill-opacity:1;fill-rule:nonzero;stroke:none"
             id="path50" />
          <path
             d="m 1668.53,2058.82 c 0,-51.55 -41.79,-93.34 -93.34,-93.34 -51.56,0 -93.35,41.79 -93.35,93.34 0,51.56 41.79,93.35 93.35,93.35 51.55,0 93.34,-41.79 93.34,-93.35"
             style="fill:#04e8b0;fill-opacity:1;fill-rule:nonzero;stroke:none"
             id="path52" />
          <path
             d="m 2151.96,1598.46 c 0,-51.55 -41.79,-93.35 -93.34,-93.35 -51.55,0 -93.35,41.8 -93.35,93.35 0,51.55 41.8,93.35 93.35,93.35 51.55,0 93.34,-41.8 93.34,-93.35"
             style="fill:#04e8b0;fill-opacity:1;fill-rule:nonzero;stroke:none"
             id="path54" />
          <path
             d="m 1896.84,1330.23 c 0,-51.55 -41.8,-93.34 -93.35,-93.34 -51.55,0 -93.34,41.79 -93.34,93.34 0,51.55 41.79,93.34 93.34,93.34 51.55,0 93.35,-41.79 93.35,-93.34"
             style="fill:#04e8b0;fill-opacity:1;fill-rule:nonzero;stroke:none"
             id="path56" />
          <path
             d="m 2151.53,576.32 c 0,-51.55 -41.79,-93.34 -93.35,-93.34 -51.55,0 -93.34,41.79 -93.34,93.34 0,51.559 41.79,93.352 93.34,93.352 51.56,0 93.35,-41.793 93.35,-93.352"
             style="fill:#04e8b0;fill-opacity:1;fill-rule:nonzero;stroke:none"
             id="path58" />
          <path
             d="m 1423.53,348.699 c 0,-51.558 -41.8,-93.347 -93.35,-93.347 -51.55,0 -93.35,41.789 -93.35,93.347 0,51.551 41.8,93.352 93.35,93.352 51.55,0 93.35,-41.801 93.35,-93.352"
             style="fill:#04e8b0;fill-opacity:1;fill-rule:nonzero;stroke:none"
             id="path60" />
          <path
             d="M 1692.09,93.3516 C 1692.09,41.7891 1650.29,0 1598.74,0 c -51.56,0 -93.35,41.7891 -93.35,93.3516 0,51.5464 41.79,93.3394 93.35,93.3394 51.55,0 93.35,-41.793 93.35,-93.3394"
             style="fill:#04e8b0;fill-opacity:1;fill-rule:nonzero;stroke:none"
             id="path62" />
          <path
             d="m 669.82,93.3516 c 0,-51.5508 -41.793,-93.3398812 -93.343,-93.3398812 -51.559,0 -93.352,41.7890812 -93.352,93.3398812 0,51.5584 41.793,93.3474 93.352,93.3474 51.55,0 93.343,-41.789 93.343,-93.3474"
             style="fill:#04e8b0;fill-opacity:1;fill-rule:nonzero;stroke:none"
             id="path64" />
          <path
             d="m 442.148,824.488 c 0,-51.547 -41.793,-93.34 -93.343,-93.34 -51.559,0 -93.352,41.793 -93.352,93.34 0,51.563 41.793,93.352 93.352,93.352 51.55,0 93.343,-41.789 93.343,-93.352"
             style="fill:#04e8b0;fill-opacity:1;fill-rule:nonzero;stroke:none"
             id="path66" />
          <path
             d="m 186.695,553.18 c 0,-51.551 -41.793,-93.34 -93.3512,-93.34 C 41.793,459.84 0,501.629 0,553.18 c 0,51.558 41.793,93.351 93.3438,93.351 51.5582,0 93.3512,-41.793 93.3512,-93.351"
             style="fill:#04e8b0;fill-opacity:1;fill-rule:nonzero;stroke:none"
             id="path68" />
        </g>
      </g>
    </g>
    <path
       id="path4705"
       d="m 1003.4729,254.09958 h 22.8962"
       style="fill:none;stroke:#dddddd;stroke-width:0.89999998;stroke-linecap:butt;stroke-linejoin:miter;stroke-miterlimit:4;stroke-dasharray:none;stroke-opacity:1" />
    <path
       style="fill:none;stroke:#dddddd;stroke-width:0.89999998;stroke-linecap:butt;stroke-linejoin:miter;stroke-miterlimit:4;stroke-dasharray:none;stroke-opacity:1"
       d="m 1003.4729,264.09958 h 22.8962"
       id="path4715" />
    <path
       id="path4717"
       d="m 1003.4729,274.09958 h 22.8962"
       style="fill:none;stroke:#dddddd;stroke-width:0.89999998;stroke-linecap:butt;stroke-linejoin:miter;stroke-miterlimit:4;stroke-dasharray:none;stroke-opacity:1" />
    <path
       style="fill:none;stroke:#dddddd;stroke-width:0.89999998;stroke-linecap:butt;stroke-linejoin:miter;stroke-miterlimit:4;stroke-dasharray:none;stroke-opacity:1"
       d="m 1003.4729,284.09958 h 22.8962"
       id="path4719" />
    <path
       id="path4721"
       d="m 1003.4729,294.09958 h 22.8962"
       style="fill:none;stroke:#dddddd;stroke-width:0.89999998;stroke-linecap:butt;stroke-linejoin:miter;stroke-miterlimit:4;stroke-dasharray:none;stroke-opacity:1" />
    <path
       id="path4705-9"
       d="m 1043.3848,226.29637 h 16.3899"
       style="fill:none;stroke:#dddddd;stroke-width:0.89999998;stroke-linecap:butt;stroke-linejoin:miter;stroke-miterlimit:4;stroke-dasharray:none;stroke-opacity:1" />
    <path
       style="fill:none;stroke:#dddddd;stroke-width:0.89999998;stroke-linecap:butt;stroke-linejoin:miter;stroke-miterlimit:4;stroke-dasharray:none;stroke-opacity:1"
       d="m 1065.3848,226.29637 h 10.0349"
       id="path4738" />
    <path
       id="path4740"
       d="m 1081.3848,226.29637 h 21.0804"
       style="fill:none;stroke:#dddddd;stroke-width:0.89999998;stroke-linecap:butt;stroke-linejoin:miter;stroke-miterlimit:4;stroke-dasharray:none;stroke-opacity:1" />
    <path
       style="fill:none;stroke:#dddddd;stroke-width:0.9;stroke-linecap:butt;stroke-linejoin:miter;stroke-miterlimit:4;stroke-dasharray:none;stroke-opacity:1"
       d="m 1166.0059,226.29637 h 12.3338"
       id="path4742" />
    <path
       id="path4744"
       d="m 1182.5614,226.29637 h 7.5515"
       style="fill:none;stroke:#dddddd;stroke-width:0.9;stroke-linecap:butt;stroke-linejoin:miter;stroke-miterlimit:4;stroke-dasharray:none;stroke-opacity:1" />
    <path
       style="fill:none;stroke:#dddddd;stroke-width:0.9;stroke-linecap:butt;stroke-linejoin:miter;stroke-miterlimit:4;stroke-dasharray:none;stroke-opacity:1"
       d="m 1194.6017,226.29637 h 15.8635"
       id="path4746" />
    <path
       id="path4748"
       d="m 1154.9661,226.29637 h 5.3736"
       style="fill:none;stroke:#dddddd;stroke-width:0.9;stroke-linecap:butt;stroke-linejoin:miter;stroke-miterlimit:4;stroke-dasharray:none;stroke-opacity:1" />
    <circle
       r="14.038735"
       cy="252.54846"
       cx="1063.1976"
       id="path4750"
       style="fill:none;fill-opacity:1;stroke:#dddddd;stroke-width:0.81467092;stroke-miterlimit:4;stroke-dasharray:none;stroke-opacity:1" />
    <path
       id="path4705-0"
       d="m 1051.7495,273.34662 h 22.8962"
       style="fill:none;stroke:#dddddd;stroke-width:0.89999998;stroke-linecap:butt;stroke-linejoin:miter;stroke-miterlimit:4;stroke-dasharray:none;stroke-opacity:1" />
    <path
       style="fill:none;stroke:#dddddd;stroke-width:0.89999998;stroke-linecap:butt;stroke-linejoin:miter;stroke-miterlimit:4;stroke-dasharray:none;stroke-opacity:1"
       d="m 1051.7495,277.34662 h 22.8962"
       id="path4770" />
    <circle
       style="fill:none;fill-opacity:1;stroke:#dddddd;stroke-width:0.81467092;stroke-miterlimit:4;stroke-dasharray:none;stroke-opacity:1"
       id="circle4780"
       cx="1105.1976"
       cy="252.54846"
       r="14.038735" />
    <path
       style="fill:none;stroke:#dddddd;stroke-width:0.89999998;stroke-linecap:butt;stroke-linejoin:miter;stroke-miterlimit:4;stroke-dasharray:none;stroke-opacity:1"
       d="m 1093.7495,273.34662 h 22.8962"
       id="path4782" />
    <path
       id="path4784"
       d="m 1093.7495,277.34662 h 22.8962"
       style="fill:none;stroke:#dddddd;stroke-width:0.89999998;stroke-linecap:butt;stroke-linejoin:miter;stroke-miterlimit:4;stroke-dasharray:none;stroke-opacity:1" />
    <g
       transform="translate(0,-2)"
       id="g4915">
      <circle
         style="fill:none;fill-opacity:1;stroke:#04e8b0;stroke-width:0.81467092;stroke-miterlimit:4;stroke-dasharray:none;stroke-opacity:1"
         id="circle4790"
         cx="1147.1976"
         cy="254.54846"
         r="14.038735" />
      <text
         id="text4924"
         y="279.03882"
         x="1132.7057"
         style="font-style:normal;font-weight:normal;font-size:5.55200768px;line-height:1.25;font-family:sans-serif;letter-spacing:0px;word-spacing:0px;fill:#04e8b0;fill-opacity:1;stroke:none;stroke-width:0.34700048"
         xml:space="preserve"><tspan
           style="font-style:normal;font-variant:normal;font-weight:normal;font-stretch:normal;font-size:5.55200768px;font-family:monospace;-inkscape-font-specification:monospace;fill:#04e8b0;fill-opacity:1;stroke-width:0.34700048"
           y="279.03882"
           x="1132.7057"
           id="tspan4922">1.04 PART</tspan></text>
    </g>
    <circle
       style="fill:none;fill-opacity:1;stroke:#dddddd;stroke-width:0.81467092;stroke-miterlimit:4;stroke-dasharray:none;stroke-opacity:1"
       id="circle4800"
       cx="1189.1976"
       cy="252.54846"
       r="14.038735" />
    <path
       style="fill:none;stroke:#dddddd;stroke-width:0.89999998;stroke-linecap:butt;stroke-linejoin:miter;stroke-miterlimit:4;stroke-dasharray:none;stroke-opacity:1"
       d="m 1177.7495,273.34662 h 22.8962"
       id="path4802" />
    <path
       id="path4804"
       d="m 1177.7495,277.34662 h 22.8962"
       style="fill:none;stroke:#dddddd;stroke-width:0.89999998;stroke-linecap:butt;stroke-linejoin:miter;stroke-miterlimit:4;stroke-dasharray:none;stroke-opacity:1" />
    <circle
       style="fill:none;fill-opacity:1;stroke:#dddddd;stroke-width:0.81467092;stroke-miterlimit:4;stroke-dasharray:none;stroke-opacity:1"
       id="circle4810"
       cx="1063.1976"
       cy="304.54846"
       r="14.038735" />
    <path
       style="fill:none;stroke:#dddddd;stroke-width:0.89999998;stroke-linecap:butt;stroke-linejoin:miter;stroke-miterlimit:4;stroke-dasharray:none;stroke-opacity:1"
       d="m 1051.7495,325.34662 h 22.8962"
       id="path4812" />
    <path
       id="path4814"
       d="m 1051.7495,329.34662 h 22.8962"
       style="fill:none;stroke:#dddddd;stroke-width:0.89999998;stroke-linecap:butt;stroke-linejoin:miter;stroke-miterlimit:4;stroke-dasharray:none;stroke-opacity:1" />
    <circle
       r="14.038735"
       cy="304.54846"
       cx="1105.1976"
       id="circle4820"
       style="fill:none;fill-opacity:1;stroke:#dddddd;stroke-width:0.81467092;stroke-miterlimit:4;stroke-dasharray:none;stroke-opacity:1" />
    <path
       id="path4822"
       d="m 1093.7495,325.34662 h 22.8962"
       style="fill:none;stroke:#dddddd;stroke-width:0.89999998;stroke-linecap:butt;stroke-linejoin:miter;stroke-miterlimit:4;stroke-dasharray:none;stroke-opacity:1" />
    <path
       style="fill:none;stroke:#dddddd;stroke-width:0.89999998;stroke-linecap:butt;stroke-linejoin:miter;stroke-miterlimit:4;stroke-dasharray:none;stroke-opacity:1"
       d="m 1093.7495,329.34662 h 22.8962"
       id="path4824" />
    <circle
       style="fill:none;fill-opacity:1;stroke:#dddddd;stroke-width:0.81467092;stroke-miterlimit:4;stroke-dasharray:none;stroke-opacity:1"
       id="circle4830"
       cx="1147.1976"
       cy="304.54846"
       r="14.038735" />
    <path
       style="fill:none;stroke:#dddddd;stroke-width:0.89999998;stroke-linecap:butt;stroke-linejoin:miter;stroke-miterlimit:4;stroke-dasharray:none;stroke-opacity:1"
       d="m 1135.7495,325.34662 h 22.8962"
       id="path4832" />
    <path
       id="path4834"
       d="m 1135.7495,329.34662 h 22.8962"
       style="fill:none;stroke:#dddddd;stroke-width:0.89999998;stroke-linecap:butt;stroke-linejoin:miter;stroke-miterlimit:4;stroke-dasharray:none;stroke-opacity:1" />
    <circle
       r="14.038735"
       cy="304.54846"
       cx="1189.1976"
       id="circle4840"
       style="fill:none;fill-opacity:1;stroke:#dddddd;stroke-width:0.81467092;stroke-miterlimit:4;stroke-dasharray:none;stroke-opacity:1" />
    <path
       id="path4842"
       d="m 1177.7495,325.34662 h 22.8962"
       style="fill:none;stroke:#dddddd;stroke-width:0.89999998;stroke-linecap:butt;stroke-linejoin:miter;stroke-miterlimit:4;stroke-dasharray:none;stroke-opacity:1" />
    <path
       style="fill:none;stroke:#dddddd;stroke-width:0.89999998;stroke-linecap:butt;stroke-linejoin:miter;stroke-miterlimit:4;stroke-dasharray:none;stroke-opacity:1"
       d="m 1177.7495,329.34662 h 22.8962"
       id="path4844" />
    <path
       id="path4979"
       d="m 1049.8824,247.93354 14.2987,18.38402"
       style="fill:none;stroke:#dddddd;stroke-width:0.6;stroke-linecap:butt;stroke-linejoin:miter;stroke-opacity:1;stroke-miterlimit:4;stroke-dasharray:none" />
    <path
       id="path4981"
       d="m 1053.5139,242.33511 8.1706,23.98245"
       style="fill:none;stroke:#dddddd;stroke-width:0.6;stroke-linecap:butt;stroke-linejoin:miter;stroke-opacity:1;stroke-miterlimit:4;stroke-dasharray:none" />
    <path
       id="path4983"
       d="m 1093.3081,260.18955 25.6469,-4.91753"
       style="fill:none;stroke:#dddddd;stroke-width:0.6;stroke-linecap:butt;stroke-linejoin:miter;stroke-opacity:1;stroke-miterlimit:4;stroke-dasharray:none" />
    <path
       id="path4985"
       d="m 1111.3895,239.91417 3.1775,22.99894"
       style="fill:none;stroke:#dddddd;stroke-width:0.6;stroke-linecap:butt;stroke-linejoin:miter;stroke-opacity:1;stroke-miterlimit:4;stroke-dasharray:none" />
    <path
       id="path4987"
       d="m 1065.0133,290.75395 7.2629,24.20941"
       style="fill:none;stroke:#dddddd;stroke-width:0.6;stroke-linecap:butt;stroke-linejoin:miter;stroke-opacity:1;stroke-miterlimit:4;stroke-dasharray:none" />
    <path
       id="path4989"
       d="m 1063.7272,290.52698 -13.9204,9.68377"
       style="fill:none;stroke:#dddddd;stroke-width:0.6;stroke-linecap:butt;stroke-linejoin:miter;stroke-opacity:1;stroke-miterlimit:4;stroke-dasharray:none" />
    <path
       id="path4991"
       d="m 1135.145,311.93719 21.3346,2.87487 2.9505,-16.79529"
       style="fill:none;stroke:#dddddd;stroke-width:0.6;stroke-linecap:butt;stroke-linejoin:miter;stroke-opacity:1;stroke-miterlimit:4;stroke-dasharray:none" />
    <path
       id="path4993"
       d="m 1157.0848,294.61232 -10.6673,23.83115"
       style="fill:none;stroke:#dddddd;stroke-width:0.6;stroke-linecap:butt;stroke-linejoin:miter;stroke-opacity:1;stroke-miterlimit:4;stroke-dasharray:none" />
    <path
       id="path4995"
       d="m 1179.1002,294.83929 18.0814,-1.89137"
       style="fill:none;stroke:#dddddd;stroke-width:0.6;stroke-linecap:butt;stroke-linejoin:miter;stroke-opacity:1;stroke-miterlimit:4;stroke-dasharray:none" />
    <path
       id="path4997"
       d="m 1177.5871,312.46677 21.4102,2.11832"
       style="fill:none;stroke:#dddddd;stroke-width:0.6;stroke-linecap:butt;stroke-linejoin:miter;stroke-opacity:1;stroke-miterlimit:4;stroke-dasharray:none" />
    <path
       id="path4999"
       d="m 1178.8733,243.16731 15.5091,-3.48011 8.549,14.97958 -21.4102,9.45681"
       style="fill:none;stroke:#dddddd;stroke-width:0.6;stroke-linecap:butt;stroke-linejoin:miter;stroke-opacity:1;stroke-miterlimit:4;stroke-dasharray:none" />
    <path
       id="path5001"
       d="m 1099.2848,291.81311 18.2327,6.27932 -24.6633,-0.15131"
       style="fill:none;stroke:#dddddd;stroke-width:0.6;stroke-linecap:butt;stroke-linejoin:miter;stroke-opacity:1;stroke-miterlimit:4;stroke-dasharray:none" />
    <path
       id="path5003"
       d="m 1133.6319,249.14401 9.7594,16.64397 -6.128,-22.99895"
       style="fill:none;stroke:#04e8b0;stroke-width:0.6;stroke-linecap:butt;stroke-linejoin:miter;stroke-opacity:1;fill-opacity:1;stroke-miterlimit:4;stroke-dasharray:none" />
    <circle
       r="1.7400519"
       cy="254.03429"
       cx="1070.6136"
       id="path5005"
       style="fill:#dddddd;fill-opacity:1;stroke:none;stroke-width:0.98571432;stroke-miterlimit:4;stroke-dasharray:none;stroke-opacity:1" />
    <circle
       r="3.7404528"
       cy="310.04584"
       cx="1068.796"
       id="path5005-3"
       style="fill:none;fill-opacity:1;stroke:#dddddd;stroke-width:0.60000002;stroke-miterlimit:4;stroke-dasharray:none;stroke-opacity:1" />
    <circle
       r="2.7599325"
       cy="250.8084"
       cx="1098.9822"
       id="path5005-3-8"
       style="fill:none;fill-opacity:1;stroke:#dddddd;stroke-width:0.6;stroke-miterlimit:4;stroke-dasharray:none;stroke-opacity:1" />
    <circle
       r="5.2812705"
       cy="308.45709"
       cx="1100.6465"
       id="path5005-3-88"
       style="fill:none;fill-opacity:1;stroke:#dddddd;stroke-width:0.6;stroke-miterlimit:4;stroke-dasharray:none;stroke-opacity:1" />
    <circle
       r="6.1917534"
       cy="309.28928"
       cx="1192.1128"
       id="path5005-3-88-9"
       style="fill:none;fill-opacity:1;stroke:#dddddd;stroke-width:0.6;stroke-miterlimit:4;stroke-dasharray:none;stroke-opacity:1" />
    <circle
       r="1.989524"
       cy="252.24583"
       cx="1193.4745"
       id="path5005-3-88-8"
       style="fill:none;fill-opacity:1;stroke:#dddddd;stroke-width:0.6;stroke-miterlimit:4;stroke-dasharray:none;stroke-opacity:1" />
    <circle
       r="6.0516791"
       cy="255.27202"
       cx="1150.924"
       id="path5005-3-88-95"
       style="fill:none;fill-opacity:1;stroke:#04e8b0;stroke-width:0.60000002;stroke-miterlimit:4;stroke-dasharray:none;stroke-opacity:1" />
    <circle
       r="1.2861253"
       cy="303.6152"
       cx="1139.6843"
       id="path5005-5"
       style="fill:#dddddd;fill-opacity:1;stroke:none;stroke-width:0.72857141;stroke-miterlimit:4;stroke-dasharray:none;stroke-opacity:1" />
    <circle
       r="1.2861253"
       cy="308.45709"
       cx="1192.491"
       id="path5005-4"
       style="fill:#dddddd;fill-opacity:1;stroke:none;stroke-width:0.72857141;stroke-miterlimit:4;stroke-dasharray:none;stroke-opacity:1" />
    <circle
       r="2.118324"
       cy="249.97621"
       cx="1148.3516"
       id="path5005-2"
       style="fill:#04e8b0;fill-opacity:1;stroke:none;stroke-width:1.20000005;stroke-miterlimit:4;stroke-dasharray:none;stroke-opacity:1" />
  </g>
</svg>
