<?xml version="1.0" encoding="UTF-8"?>
<svg width="281px" height="189px" viewBox="0 0 281 189" version="1.1" xmlns="http://www.w3.org/2000/svg" xmlns:xlink="http://www.w3.org/1999/xlink">
    <!-- Generator: Sketch 48.2 (47327) - http://www.bohemiancoding.com/sketch -->
    <title>Group 7</title>
    <desc>Created with Sketch.</desc>
    <defs></defs>
    <g id="Artboard" stroke="none" stroke-width="1" fill="none" fill-rule="evenodd" transform="translate(-577.000000, -182.000000)">
        <g id="Group-7" transform="translate(578.000000, 183.000000)">
            <circle id="Oval" stroke="#DDDDDD" cx="144.5" cy="97.5" r="71.5"></circle>
            <circle id="Oval" stroke="#DDDDDD" cx="253" cy="154" r="26"></circle>
            <circle id="Oval-Copy" stroke="#DDDDDD" cx="243" cy="12" r="12"></circle>
            <circle id="Oval-Copy-2" stroke="#DDDDDD" cx="7.5" cy="68.5" r="7.5"></circle>
            <circle id="Oval-Copy-3" stroke="#DDDDDD" cx="23" cy="176" r="11"></circle>
            <ellipse id="Oval-2-Copy-26" fill="#04E8B0" cx="272.755" cy="3.75515856" rx="2.75500011" ry="2.75515856"></ellipse>
            <ellipse id="Oval-2-Copy-28" fill="#04E8B0" cx="9.75500011" cy="55.7551586" rx="2.75500011" ry="2.75515856"></ellipse>
            <ellipse id="Oval-2-Copy-30" fill="#04E8B0" cx="61.7550001" cy="133.755159" rx="2.75500011" ry="2.75515856"></ellipse>
            <ellipse id="Oval-2-Copy-33" fill="#04E8B0" cx="83.2550001" cy="30.2553023" rx="5.25500011" ry="5.25530233"></ellipse>
            <ellipse id="Oval-2-Copy-34" fill="#04E8B0" cx="221.255" cy="48.2553023" rx="5.25500011" ry="5.25530233"></ellipse>
            <path d="M215.670037,100.670037 L141,26" id="Line-7-Copy" stroke="#DDDDDD" stroke-linecap="square"></path>
            <path d="M254.831873,14.6162298 L239.89923,23.8152421 M197.680655,49.8233098 L77.8846876,123.621669" id="Line-7-Copy" stroke="#DDDDDD" stroke-linecap="square"></path>
            <path d="M168.033361,178.652493 L157.350176,167.969309 M110.361788,120.980921 L19.3475068,29.9666392" id="Line-7-Copy-3" stroke="#DDDDDD" stroke-linecap="square" transform="translate(93.690434, 104.309566) scale(-1, 1) translate(-93.690434, -104.309566) "></path>
            <ellipse id="Oval-2-Copy-31" fill="#04E8B0" cx="15.2550001" cy="182.255302" rx="5.25500011" ry="5.25530233"></ellipse>
            <path d="M261.810067,146.810067 L244.564915,129.564915" id="Line-7-Copy-2" stroke="#DDDDDD" stroke-linecap="square"></path>
            <path d="M197.009119,49.2563331 L88.1484462,53.2568682" id="Path-5" stroke="#DDDDDD"></path>
            <path d="M262.111574,146.977308 L234.582026,135.698577 M210.162307,125.693929 L200.494537,121.733087" id="Path-6" stroke="#DDDDDD"></path>
            <ellipse id="Oval-2-Copy-25" fill="#04E8B0" cx="261.755" cy="146.755159" rx="2.75500011" ry="2.75515856"></ellipse>
            <path d="M200.5,121.5 L127.5,149.5" id="Line-7" stroke="#DDDDDD" stroke-linecap="square"></path>
            <path d="M126.5,149.5 L74.4604361,112.454887" id="Line-3" stroke="#DDDDDD" stroke-linecap="square"></path>
            <ellipse id="Oval-2-Copy-32" fill="#04E8B0" cx="127.255" cy="150.255302" rx="5.25500011" ry="5.25530233"></ellipse>
            <path d="M98.6489852,42.3313772 L201.04554,122.545753" id="Path-8" stroke="#DDDDDD"></path>
            <ellipse id="Oval-2-Copy-24" fill="#04E8B0" cx="200.755" cy="121.755159" rx="2.75500011" ry="2.75515856"></ellipse>
            <path d="" id="Path-7" stroke="#979797"></path>
        </g>
    </g>
</svg>