<svg width="266" height="254" viewBox="0 0 266 254" fill="none" xmlns="http://www.w3.org/2000/svg">
<path d="M256.298 35.3794H8.81507C5.67502 35.3794 3.11646 37.938 3.11646 41.078V195.522C3.11646 198.662 5.67502 201.221 8.81507 201.221H256.298C259.438 201.221 261.996 198.662 261.996 195.522V41.1943C262.113 37.938 259.554 35.3794 256.298 35.3794Z" stroke="#DDDDDD"/>
<path d="M3 52.2424H261.298V52.0098" stroke="#DDDDDD"/>
<path d="M32.8887 46.8932C34.5169 46.8932 35.9125 45.6139 35.9125 43.8695C35.9125 42.2413 34.6332 40.8457 32.8887 40.8457C31.2606 40.8457 29.865 42.125 29.865 43.8695C29.865 45.6139 31.1443 46.8932 32.8887 46.8932Z" fill="#ABA0C5"/>
<path d="M14.2811 46.8932C15.9093 46.8932 17.3048 45.6139 17.3048 43.8695C17.3048 42.2413 16.0256 40.8457 14.2811 40.8457C12.6529 40.8457 11.2573 42.125 11.2573 43.8695C11.2573 45.6139 12.5366 46.8932 14.2811 46.8932Z" fill="#ABA0C5"/>
<path d="M23.5848 46.8932C25.213 46.8932 26.6085 45.6139 26.6085 43.8695C26.6085 42.2413 25.3293 40.8457 23.5848 40.8457C21.9566 40.8457 20.561 42.125 20.561 43.8695C20.561 45.6139 21.8403 46.8932 23.5848 46.8932Z" fill="#ABA0C5"/>
<path d="M43.9369 200.872V53.0571H43.7043" stroke="#DDDDDD"/>
<path d="M9.86157 95.2729H36.4939" stroke="#DDDDDD"/>
<path d="M9.86157 106.903H36.4939" stroke="#DDDDDD"/>
<path d="M9.86157 118.533H36.4939" stroke="#DDDDDD"/>
<path d="M9.86157 130.163H36.4939" stroke="#DDDDDD"/>
<path d="M9.86157 141.792H36.4939" stroke="#DDDDDD"/>
<path d="M56.2646 62.9424H75.3376" stroke="#DDDDDD"/>
<path d="M81.8503 62.9424H93.4802" stroke="#DDDDDD"/>
<path d="M100.458 62.9424H124.997" stroke="#DDDDDD"/>
<path d="M198.846 62.9424H213.151" stroke="#DDDDDD"/>
<path d="M218.152 62.9424H226.991" stroke="#DDDDDD"/>
<path d="M232.107 62.9424H250.599" stroke="#DDDDDD"/>
<path d="M186.053 62.9424H192.333" stroke="#DDDDDD"/>
<path d="M66.0337 117.603H92.666" stroke="#DDDDDD"/>
<path d="M66.0337 122.254H92.666" stroke="#DDDDDD"/>
<path d="M114.879 117.603H141.511" stroke="#DDDDDD"/>
<path d="M114.879 122.254H141.511" stroke="#DDDDDD"/>
<path d="M176.982 109.81C186.053 109.81 193.264 102.483 193.264 93.5283C193.264 84.5734 185.937 77.2466 176.982 77.2466C167.911 77.2466 160.7 84.5734 160.7 93.5283C160.7 102.483 167.911 109.81 176.982 109.81Z" stroke="url(#paint0_linear)" stroke-miterlimit="10"/>
<path d="M162.445 121.323H161.863V117.369L160.7 117.834V117.253L162.329 116.671H162.445V121.323ZM164.189 120.975C164.189 120.858 164.189 120.742 164.306 120.742C164.422 120.626 164.422 120.626 164.538 120.626C164.655 120.626 164.771 120.626 164.771 120.742C164.887 120.858 164.887 120.858 164.887 120.975C164.887 121.091 164.887 121.207 164.771 121.207C164.655 121.323 164.655 121.323 164.538 121.323C164.422 121.323 164.306 121.323 164.306 121.207C164.189 121.207 164.189 121.091 164.189 120.975ZM168.725 119.346C168.725 120.044 168.609 120.509 168.376 120.858C168.144 121.207 167.795 121.323 167.329 121.323C166.864 121.323 166.515 121.207 166.283 120.858C166.05 120.509 165.934 120.044 165.934 119.346V118.532C165.934 117.834 166.05 117.369 166.283 117.02C166.515 116.671 166.864 116.555 167.329 116.555C167.795 116.555 168.144 116.671 168.376 117.02C168.609 117.369 168.725 117.834 168.725 118.532V119.346ZM168.144 118.532C168.144 118.067 168.027 117.718 167.911 117.486C167.795 117.253 167.562 117.137 167.213 117.137C166.864 117.137 166.748 117.253 166.515 117.486C166.399 117.718 166.283 118.067 166.283 118.532V119.463C166.283 119.928 166.399 120.277 166.515 120.509C166.632 120.742 166.864 120.858 167.213 120.858C167.446 120.858 167.678 120.742 167.911 120.509C168.027 120.277 168.144 119.928 168.144 119.463V118.532ZM171.981 119.695H172.563V120.16H171.981V121.207H171.4V120.16H169.307V119.812L171.4 116.671H171.981V119.695ZM169.888 119.695H171.284V117.486L171.167 117.602L169.888 119.695ZM175.47 119.463V121.207H174.889V116.671H176.633C177.098 116.671 177.564 116.788 177.796 117.02C178.029 117.253 178.261 117.602 178.261 118.067C178.261 118.532 178.145 118.881 177.796 119.114C177.564 119.346 177.098 119.463 176.633 119.463H175.47ZM175.47 118.997H176.517C176.866 118.997 177.098 118.881 177.215 118.765C177.331 118.649 177.447 118.416 177.447 118.067C177.447 117.834 177.331 117.602 177.215 117.369C177.098 117.253 176.75 117.137 176.517 117.137H175.354V118.997H175.47ZM181.053 120.044H179.076L178.61 121.207H178.029L179.773 116.671H180.355L182.099 121.207H181.518L181.053 120.044ZM179.308 119.579H180.82L180.006 117.486L179.308 119.579ZM184.425 119.463H183.379V121.323H182.797V116.788H184.309C184.774 116.788 185.239 116.904 185.472 117.137C185.705 117.369 185.937 117.718 185.937 118.183C185.937 118.416 185.821 118.765 185.705 118.881C185.588 119.114 185.356 119.23 185.007 119.346L186.053 121.323H185.356L184.425 119.463ZM183.262 118.881H184.193C184.542 118.881 184.774 118.765 184.89 118.649C185.123 118.532 185.123 118.3 185.123 118.067C185.123 117.834 185.007 117.602 184.89 117.369C184.774 117.253 184.425 117.137 184.193 117.137H183.262V118.881ZM189.542 117.137H188.031V121.207H187.449V117.137H185.937V116.671H189.542V117.137V117.137Z" fill="url(#paint1_linear)"/>
<path d="M212.569 117.603H239.202" stroke="#DDDDDD"/>
<path d="M212.569 122.254H239.202" stroke="#DDDDDD"/>
<path d="M66.0337 178.078H92.666" stroke="#DDDDDD"/>
<path d="M66.0337 182.729H92.666" stroke="#DDDDDD"/>
<path d="M114.879 178.078H141.511" stroke="#DDDDDD"/>
<path d="M114.879 182.729H141.511" stroke="#DDDDDD"/>
<path d="M163.724 178.078H190.356" stroke="#DDDDDD"/>
<path d="M163.724 182.729H190.356" stroke="#DDDDDD"/>
<path d="M212.569 178.078H239.202" stroke="#DDDDDD"/>
<path d="M212.569 182.729H239.202" stroke="#DDDDDD"/>
<path d="M63.824 88.0625L80.4546 109.461" stroke="#DDDDDD"/>
<path d="M68.0105 81.5498L77.547 109.461" stroke="#DDDDDD"/>
<path d="M114.297 102.368L144.07 96.6689" stroke="#DDDDDD"/>
<path d="M135.347 78.7583L139.069 105.507" stroke="#DDDDDD"/>
<path d="M81.385 137.838L89.8748 165.983" stroke="#DDDDDD"/>
<path d="M79.873 137.605L63.7075 148.886" stroke="#DDDDDD"/>
<path d="M162.91 162.493L187.682 165.866L191.054 146.328" stroke="#DDDDDD"/>
<path d="M188.496 142.374L176.052 170.053" stroke="#DDDDDD"/>
<path d="M214.081 142.606L235.131 140.396" stroke="#DDDDDD"/>
<path d="M212.337 163.075L237.225 165.517" stroke="#DDDDDD"/>
<path d="M213.849 82.4801L231.875 78.4097L241.76 95.8544L216.873 106.903" stroke="#DDDDDD"/>
<path d="M121.275 139.118L142.441 146.444L113.716 146.212" stroke="#DDDDDD"/>
<path d="M87.8977 97.25C89.0607 97.25 89.8748 96.3196 89.8748 95.273C89.8748 94.11 88.9444 93.2959 87.8977 93.2959C86.7347 93.2959 85.9207 94.2263 85.9207 95.273C85.9207 96.3196 86.851 97.25 87.8977 97.25Z" fill="#DDDDDD"/>
<path d="M85.8043 164.703C88.2465 164.703 90.1073 162.726 90.1073 160.4C90.1073 157.957 88.1302 156.097 85.8043 156.097C83.362 156.097 81.5012 158.074 81.5012 160.4C81.5012 162.726 83.362 164.703 85.8043 164.703Z" stroke="#DDDDDD"/>
<path d="M120.927 94.5752C122.671 94.5752 124.183 93.1796 124.183 91.3188C124.183 89.4581 122.787 88.0625 120.927 88.0625C119.182 88.0625 117.67 89.4581 117.67 91.3188C117.67 93.1796 119.182 94.5752 120.927 94.5752Z" stroke="#DDDDDD"/>
<path d="M122.787 164.587C126.16 164.587 128.951 161.796 128.951 158.423C128.951 155.05 126.16 152.259 122.787 152.259C119.414 152.259 116.623 155.05 116.623 158.423C116.74 161.912 119.414 164.587 122.787 164.587Z" stroke="#DDDDDD"/>
<path d="M229.2 166.68C233.154 166.68 236.411 163.424 236.411 159.47C236.411 155.516 233.154 152.259 229.2 152.259C225.246 152.259 221.99 155.516 221.99 159.47C221.99 163.424 225.246 166.68 229.2 166.68Z" stroke="#DDDDDD"/>
<path d="M230.828 95.3892C232.107 95.3892 233.154 94.3426 233.154 93.0633C233.154 91.784 232.107 90.7373 230.828 90.7373C229.549 90.7373 228.502 91.784 228.502 93.0633C228.502 94.3426 229.549 95.3892 230.828 95.3892Z" stroke="#DDDDDD"/>
<path d="M181.285 103.646C185.123 103.646 188.379 100.506 188.379 96.5522C188.379 92.7144 185.239 89.458 181.285 89.458C177.447 89.458 174.191 92.5981 174.191 96.5522C174.307 100.506 177.447 103.646 181.285 103.646Z" stroke="url(#paint2_linear)" stroke-miterlimit="10"/>
<path d="M168.26 154.353C169.074 154.353 169.772 153.655 169.772 152.841C169.772 152.027 169.074 151.329 168.26 151.329C167.446 151.329 166.748 152.027 166.748 152.841C166.748 153.655 167.446 154.353 168.26 154.353Z" fill="#DDDDDD"/>
<path d="M229.665 159.935C230.48 159.935 231.177 159.237 231.177 158.423C231.177 157.609 230.48 156.911 229.665 156.911C228.851 156.911 228.154 157.609 228.154 158.423C228.154 159.237 228.851 159.935 229.665 159.935Z" fill="#DDDDDD"/>
<path d="M178.378 92.947C179.773 92.947 180.82 91.9003 180.82 90.5048C180.82 89.1092 179.773 88.0625 178.378 88.0625C176.982 88.0625 175.936 89.1092 175.936 90.5048C175.819 91.784 176.982 92.947 178.378 92.947Z" stroke="url(#paint3_linear)" stroke-miterlimit="10"/>
<path d="M25.213 76.2002H21.0263V72.0135H25.213V76.2002ZM31.4931 69.2223C31.3768 68.1757 30.7953 67.2453 29.9813 66.6638C29.2835 66.0823 28.3531 65.7334 27.3064 65.7334C24.5152 65.7334 21.6078 65.7334 18.8166 65.7334C17.3047 65.7334 15.9092 66.5475 15.2114 67.8268C14.8625 68.5246 14.6299 69.3386 14.6299 70.0364C14.6299 72.595 14.6299 75.1536 14.6299 77.7121C14.6299 78.2936 14.6299 78.8751 14.8625 79.4566C15.3277 80.7359 16.3744 81.8989 17.7699 82.2478C17.421 81.8989 17.1884 81.4337 17.0721 80.9685C16.8395 79.9218 16.7232 78.7588 16.8395 77.7121C16.8395 75.1536 16.8395 72.595 16.8395 70.0364C16.8395 69.5712 16.8395 69.2223 17.0721 68.7572C17.421 68.1757 18.1188 67.7105 18.8166 67.7105C21.4915 67.7105 24.1663 67.7105 26.8412 67.7105C27.1901 67.7105 27.6553 67.7105 28.0042 67.8268C28.702 68.0594 29.1672 68.6409 29.2835 69.2223C29.3998 69.5712 29.3998 70.0364 29.3998 70.3853V77.9447C29.3998 78.2936 29.3998 78.6425 29.1672 78.9914C28.8183 79.6892 28.1205 80.1544 27.3064 80.1544C25.213 80.1544 23.1197 80.1544 20.91 80.1544C20.91 79.4566 20.91 78.7588 20.91 78.061C22.6545 78.061 24.3989 78.061 26.1434 78.061C26.4923 78.061 26.9575 77.9447 27.0738 77.5958C27.1901 77.3632 27.1901 77.2469 27.1901 77.0143C27.1901 74.921 27.1901 72.8276 27.1901 70.7342C27.1901 70.3853 27.0738 70.0364 26.7249 69.8038C26.4923 69.6875 26.1434 69.6875 25.7945 69.6875C23.8174 69.6875 21.8404 69.6875 19.8633 69.6875C19.2818 69.6875 18.8166 70.1527 18.8166 70.7342C18.8166 73.758 18.8166 76.7817 18.8166 79.8055C18.8166 80.387 18.8166 80.9685 19.1655 81.4337C19.3981 81.8989 19.8633 82.1314 20.3285 82.1314C20.91 82.2477 21.4915 82.2478 21.9567 82.2478C23.7011 82.2478 25.4456 82.2478 27.1901 82.2478C28.0042 82.2478 28.9346 82.0152 29.6324 81.4337C30.4464 80.8522 31.0279 80.1544 31.2605 79.224C31.4931 78.6425 31.4931 78.061 31.4931 77.3632C31.4931 74.921 31.4931 72.595 31.4931 70.1527C31.6094 70.0364 31.6094 69.5712 31.4931 69.2223Z" fill="url(#paint4_linear)"/>
<path d="M171.167 88.6436C172.447 88.6436 173.493 87.5969 173.493 86.3177C173.493 85.0384 172.447 83.9917 171.167 83.9917C169.888 83.9917 168.841 85.0384 168.841 86.3177C168.841 87.5969 169.888 88.6436 171.167 88.6436Z" stroke="#2CEA92" stroke-miterlimit="10"/>
<path opacity="0.45" d="M79.2918 109.81C88.363 109.81 95.5735 102.483 95.5735 93.5283C95.5735 84.5734 88.2467 77.2466 79.2918 77.2466C70.2205 77.2466 63.01 84.5734 63.01 93.5283C63.01 102.483 70.2205 109.81 79.2918 109.81Z" stroke="url(#paint5_linear)" stroke-miterlimit="10"/>
<path opacity="0.45" d="M128.137 109.81C137.208 109.81 144.419 102.483 144.419 93.5283C144.419 84.5734 137.092 77.2466 128.137 77.2466C119.066 77.2466 111.855 84.5734 111.855 93.5283C111.855 102.483 119.066 109.81 128.137 109.81Z" stroke="url(#paint6_linear)" stroke-miterlimit="10"/>
<path opacity="0.45" d="M225.828 109.81C234.899 109.81 242.109 102.483 242.109 93.5283C242.109 84.5734 234.783 77.2466 225.828 77.2466C216.756 77.2466 209.546 84.5734 209.546 93.5283C209.546 102.483 216.756 109.81 225.828 109.81Z" stroke="url(#paint7_linear)" stroke-miterlimit="10"/>
<path opacity="0.45" d="M79.2918 170.285C88.363 170.285 95.5735 162.958 95.5735 154.003C95.5735 144.932 88.2467 137.722 79.2918 137.722C70.2205 137.722 63.01 145.048 63.01 154.003C63.01 162.958 70.2205 170.285 79.2918 170.285Z" stroke="url(#paint8_linear)" stroke-miterlimit="10"/>
<path opacity="0.45" d="M128.137 170.285C137.208 170.285 144.419 162.958 144.419 154.003C144.419 144.932 137.092 137.722 128.137 137.722C119.066 137.722 111.855 145.048 111.855 154.003C111.855 162.958 119.066 170.285 128.137 170.285Z" stroke="url(#paint9_linear)" stroke-miterlimit="10"/>
<path opacity="0.45" d="M176.982 170.285C186.053 170.285 193.264 162.958 193.264 154.003C193.264 144.932 185.937 137.722 176.982 137.722C167.911 137.722 160.7 145.048 160.7 154.003C160.7 162.958 167.911 170.285 176.982 170.285Z" stroke="url(#paint10_linear)" stroke-miterlimit="10"/>
<path opacity="0.45" d="M225.828 170.285C234.899 170.285 242.109 162.958 242.109 154.003C242.109 144.932 234.783 137.722 225.828 137.722C216.756 137.722 209.546 145.048 209.546 154.003C209.546 162.958 216.756 170.285 225.828 170.285Z" stroke="url(#paint11_linear)" stroke-miterlimit="10"/>
<defs>
<linearGradient id="paint0_linear" x1="193.889" y1="93.446" x2="160.073" y2="93.446" gradientUnits="userSpaceOnUse">
<stop stop-color="#46D593"/>
<stop offset="1" stop-color="#2BEB92"/>
</linearGradient>
<linearGradient id="paint1_linear" x1="160.664" y1="118.99" x2="189.591" y2="118.99" gradientUnits="userSpaceOnUse">
<stop stop-color="#46D593"/>
<stop offset="1" stop-color="#2BEB92"/>
</linearGradient>
<linearGradient id="paint2_linear" x1="173.696" y1="96.6137" x2="188.935" y2="96.6137" gradientUnits="userSpaceOnUse">
<stop stop-color="#46D593"/>
<stop offset="1" stop-color="#2BEB92"/>
</linearGradient>
<linearGradient id="paint3_linear" x1="175.278" y1="90.4548" x2="181.369" y2="90.4548" gradientUnits="userSpaceOnUse">
<stop stop-color="#46D593"/>
<stop offset="1" stop-color="#2BEB92"/>
</linearGradient>
<linearGradient id="paint4_linear" x1="23.1934" y1="82.4894" x2="23.1934" y2="65.6906" gradientUnits="userSpaceOnUse">
<stop stop-color="#46D593"/>
<stop offset="1" stop-color="#2BEB92"/>
</linearGradient>
<linearGradient id="paint5_linear" x1="62.3827" y1="93.446" x2="96.1994" y2="93.446" gradientUnits="userSpaceOnUse">
<stop offset="0.0380228" stop-color="#56408B"/>
<stop offset="1" stop-color="#623FE9"/>
</linearGradient>
<linearGradient id="paint6_linear" x1="111.228" y1="93.446" x2="145.044" y2="93.446" gradientUnits="userSpaceOnUse">
<stop offset="0.0380228" stop-color="#56408B"/>
<stop offset="1" stop-color="#623FE9"/>
</linearGradient>
<linearGradient id="paint7_linear" x1="208.919" y1="93.446" x2="242.735" y2="93.446" gradientUnits="userSpaceOnUse">
<stop offset="0.0380228" stop-color="#56408B"/>
<stop offset="1" stop-color="#623FE9"/>
</linearGradient>
<linearGradient id="paint8_linear" x1="62.3827" y1="153.921" x2="96.1994" y2="153.921" gradientUnits="userSpaceOnUse">
<stop offset="0.0380228" stop-color="#56408B"/>
<stop offset="1" stop-color="#623FE9"/>
</linearGradient>
<linearGradient id="paint9_linear" x1="111.228" y1="153.921" x2="145.044" y2="153.921" gradientUnits="userSpaceOnUse">
<stop offset="0.0380228" stop-color="#56408B"/>
<stop offset="1" stop-color="#623FE9"/>
</linearGradient>
<linearGradient id="paint10_linear" x1="160.073" y1="153.921" x2="193.889" y2="153.921" gradientUnits="userSpaceOnUse">
<stop offset="0.0380228" stop-color="#56408B"/>
<stop offset="1" stop-color="#623FE9"/>
</linearGradient>
<linearGradient id="paint11_linear" x1="208.919" y1="153.921" x2="242.735" y2="153.921" gradientUnits="userSpaceOnUse">
<stop offset="0.0380228" stop-color="#56408B"/>
<stop offset="1" stop-color="#623FE9"/>
</linearGradient>
</defs>
</svg>
