<svg width="224" height="202" viewBox="0 0 224 202" fill="none" xmlns="http://www.w3.org/2000/svg">
<path d="M218.434 27.6401H5.64758C2.92305 27.6401 0.714355 29.8488 0.714355 32.5733V165.344C0.714355 168.069 2.92305 170.277 5.64758 170.277H218.434C221.159 170.277 223.368 168.069 223.368 165.344V32.5733C223.368 29.8488 221.159 27.6401 218.434 27.6401Z" stroke="#DDDDDD" stroke-width="0.940599"/>
<path d="M0.64209 42.1547H222.756V41.9407" stroke="#DDDDDD" stroke-width="0.9"/>
<path d="M26.2551 37.5282C27.6732 37.5282 28.8228 36.3785 28.8228 34.9604C28.8228 33.5422 27.6732 32.3926 26.2551 32.3926C24.8369 32.3926 23.6873 33.5422 23.6873 34.9604C23.6873 36.3785 24.8369 37.5282 26.2551 37.5282Z" stroke="#DDDDDD" stroke-width="0.9"/>
<path d="M10.255 37.5282C11.6732 37.5282 12.8228 36.3785 12.8228 34.9604C12.8228 33.5422 11.6732 32.3926 10.255 32.3926C8.83685 32.3926 7.68726 33.5422 7.68726 34.9604C7.68726 36.3785 8.83685 37.5282 10.255 37.5282Z" stroke="#DDDDDD" stroke-width="0.9"/>
<path d="M18.2551 37.5282C19.6732 37.5282 20.8229 36.3785 20.8229 34.9604C20.8229 33.5422 19.6732 32.3926 18.2551 32.3926C16.8369 32.3926 15.6873 33.5422 15.6873 34.9604C15.6873 36.3785 16.8369 37.5282 18.2551 37.5282Z" stroke="#DDDDDD" stroke-width="0.9"/>
<path d="M35.7926 169.942V42.8076H35.5786" stroke="#DDDDDD" stroke-width="0.9"/>
<path d="M20.5856 61.6143H16.3826V57.3863H20.5856V61.6143ZM26.9275 54.5385C26.7538 53.5318 26.2011 52.5787 25.3991 51.9446C24.6548 51.3317 23.7011 51.0024 22.7389 51.0016C19.8854 51.0007 17.0294 50.9981 14.176 51.0024C12.6865 51.0194 11.2792 51.8826 10.5544 53.1796C10.1518 53.8756 10.0008 54.6582 10 55.4561C10.0017 58.0586 9.99918 60.6627 10.0008 63.2652C9.99576 63.8704 10.022 64.4518 10.2111 65.0324C10.6315 66.3778 11.7658 67.4668 13.1205 67.8462C12.711 67.5194 12.5296 67.0645 12.3965 66.5721C12.121 65.4925 12.0998 64.3712 12.1439 63.2652C12.1397 60.6619 12.1456 58.0586 12.1405 55.4561C12.1448 55.008 12.1778 54.5869 12.4067 54.1905C12.7593 53.5582 13.4469 53.1354 14.176 53.1448C16.8879 53.1431 19.6032 53.1456 22.315 53.1439C22.7245 53.1448 23.0966 53.1142 23.4883 53.2628C24.1394 53.4792 24.6556 54.0623 24.798 54.7329C24.8786 55.1268 24.8574 55.5639 24.8582 55.9654V63.6047C24.8582 63.9798 24.8167 64.3465 24.6556 64.6895C24.3233 65.3855 23.6045 65.8684 22.8254 65.8541C20.6789 65.8574 18.5299 65.8532 16.3834 65.8557C16.3792 65.1555 16.3801 64.4543 16.3826 63.7533C18.1348 63.7533 19.8863 63.7507 21.6386 63.7549C22.0158 63.7753 22.4498 63.5843 22.6236 63.2363C22.7219 63.0589 22.738 62.8696 22.7423 62.6718C22.7406 60.549 22.7415 58.427 22.7415 56.3041C22.7584 55.9111 22.5685 55.5605 22.2209 55.3737C21.931 55.2049 21.6207 55.2481 21.2978 55.2422C19.292 55.2472 17.2838 55.2397 15.2789 55.2464C14.7049 55.232 14.2268 55.7319 14.2446 56.3041C14.2361 59.3538 14.2446 62.4206 14.2404 65.4721C14.2565 66.0781 14.2369 66.6527 14.5879 67.1774C14.8541 67.611 15.3043 67.8309 15.7883 67.9269C16.3606 68.0194 16.9082 67.9973 17.483 67.9981C19.2352 67.999 20.9867 67.9973 22.7389 67.9998C23.6104 68.0075 24.459 67.7248 25.1744 67.2316C25.9416 66.6655 26.5368 65.8846 26.8106 64.9645C26.9996 64.3423 26.9962 63.7379 26.9996 63.0954C26.9996 60.6619 27.0005 58.2291 26.9996 55.7956C26.9962 55.378 26.992 54.9519 26.9275 54.5385" fill="#46D593"/>
<path d="M6.47314 79.0996H29.3694" stroke="#DDDDDD" stroke-width="0.9"/>
<path d="M6.47314 89.0996H29.3694" stroke="#DDDDDD" stroke-width="0.9"/>
<path d="M6.47314 99.0996H29.3694" stroke="#DDDDDD" stroke-width="0.9"/>
<path d="M6.47314 109.1H29.3694" stroke="#DDDDDD" stroke-width="0.9"/>
<path d="M6.47314 119.1H29.3694" stroke="#DDDDDD" stroke-width="0.9"/>
<path d="M46.3848 51.2964H62.7747" stroke="#DDDDDD" stroke-width="0.9"/>
<path d="M68.3848 51.2964H78.4197" stroke="#DDDDDD" stroke-width="0.9"/>
<path d="M84.3848 51.2964H105.465" stroke="#DDDDDD" stroke-width="0.9"/>
<path d="M169.006 51.2964H181.34" stroke="#DDDDDD" stroke-width="0.9"/>
<path d="M185.562 51.2964H193.113" stroke="#DDDDDD" stroke-width="0.9"/>
<path d="M197.602 51.2964H213.465" stroke="#DDDDDD" stroke-width="0.9"/>
<path d="M157.966 51.2964H163.34" stroke="#DDDDDD" stroke-width="0.9"/>
<path d="M66.1978 91.5872C73.9511 91.5872 80.2365 85.3019 80.2365 77.5485C80.2365 69.7951 73.9511 63.5098 66.1978 63.5098C58.4444 63.5098 52.1589 69.7951 52.1589 77.5485C52.1589 85.3019 58.4444 91.5872 66.1978 91.5872Z" stroke="#DDDDDD" stroke-width="0.814671"/>
<path d="M54.7495 98.3467H77.6458" stroke="#DDDDDD" stroke-width="0.9"/>
<path d="M54.7495 102.347H77.6458" stroke="#DDDDDD" stroke-width="0.9"/>
<path d="M108.198 91.5872C115.951 91.5872 122.236 85.3019 122.236 77.5485C122.236 69.7951 115.951 63.5098 108.198 63.5098C100.444 63.5098 94.1589 69.7951 94.1589 77.5485C94.1589 85.3019 100.444 91.5872 108.198 91.5872Z" stroke="#DDDDDD" stroke-width="0.814671"/>
<path d="M96.7495 98.3467H119.646" stroke="#DDDDDD" stroke-width="0.9"/>
<path d="M96.7495 102.347H119.646" stroke="#DDDDDD" stroke-width="0.9"/>
<path d="M150.198 91.5872C157.951 91.5872 164.236 85.3019 164.236 77.5485C164.236 69.7951 157.951 63.5098 150.198 63.5098C142.444 63.5098 136.159 69.7951 136.159 77.5485C136.159 85.3019 142.444 91.5872 150.198 91.5872Z" stroke="#46D593" stroke-width="0.814671"/>
<path d="M137.682 101.487H137.178V98.1442L136.167 98.5156V98.0602L137.603 97.5207H137.682V101.487ZM139.214 101.224C139.214 101.137 139.239 101.065 139.29 101.007C139.342 100.949 139.42 100.92 139.523 100.92C139.626 100.92 139.704 100.949 139.756 101.007C139.81 101.065 139.837 101.137 139.837 101.224C139.837 101.307 139.81 101.377 139.756 101.433C139.704 101.489 139.626 101.517 139.523 101.517C139.42 101.517 139.342 101.489 139.29 101.433C139.239 101.377 139.214 101.307 139.214 101.224ZM143.09 99.8033C143.09 100.391 142.99 100.827 142.789 101.113C142.589 101.398 142.275 101.541 141.849 101.541C141.428 101.541 141.116 101.402 140.914 101.124C140.711 100.843 140.606 100.426 140.599 99.8711V99.2015C140.599 98.6214 140.699 98.1903 140.9 97.9084C141.101 97.6264 141.415 97.4855 141.843 97.4855C142.268 97.4855 142.581 97.6219 142.781 97.8948C142.982 98.1659 143.085 98.5852 143.09 99.1527V99.8033ZM142.589 99.1175C142.589 98.6927 142.529 98.3837 142.41 98.1903C142.291 97.9951 142.102 97.8975 141.843 97.8975C141.587 97.8975 141.4 97.9942 141.282 98.1876C141.165 98.381 141.104 98.6783 141.101 99.0795V99.8819C141.101 100.308 141.162 100.624 141.285 100.828C141.41 101.03 141.598 101.132 141.849 101.132C142.096 101.132 142.28 101.036 142.399 100.844C142.52 100.653 142.583 100.351 142.589 99.9389V99.1175ZM145.85 100.161H146.398V100.571H145.85V101.487H145.346V100.571H143.549V100.275L145.316 97.5397H145.85V100.161ZM144.118 100.161H145.346V98.2256L145.286 98.334L144.118 100.161ZM148.878 99.9416V101.487H148.358V97.5397H149.814C150.245 97.5397 150.583 97.6499 150.827 97.8704C151.073 98.0909 151.196 98.3828 151.196 98.7461C151.196 99.1292 151.076 99.4247 150.836 99.6325C150.597 99.8386 150.255 99.9416 149.808 99.9416H148.878ZM148.878 99.516H149.814C150.092 99.516 150.305 99.4509 150.453 99.3208C150.602 99.1888 150.676 98.9991 150.676 98.7515C150.676 98.5165 150.602 98.3286 150.453 98.1876C150.305 98.0466 150.102 97.9734 149.843 97.968H148.878V99.516ZM153.666 100.457H152.012L151.641 101.487H151.104L152.611 97.5397H153.067L154.577 101.487H154.043L153.666 100.457ZM152.169 100.028H153.511L152.839 98.1822L152.169 100.028ZM156.556 99.8901H155.629V101.487H155.105V97.5397H156.412C156.857 97.5397 157.198 97.6409 157.437 97.8433C157.677 98.0457 157.797 98.3403 157.797 98.7271C157.797 98.9729 157.73 99.187 157.597 99.3696C157.465 99.5521 157.28 99.6886 157.044 99.7789L157.971 101.454V101.487H157.412L156.556 99.8901ZM155.629 99.4645H156.428C156.687 99.4645 156.892 99.3976 157.044 99.2638C157.197 99.1301 157.274 98.9512 157.274 98.7271C157.274 98.4831 157.201 98.296 157.054 98.1659C156.91 98.0358 156.7 97.9698 156.426 97.968H155.629V99.4645ZM161.04 97.968H159.771V101.487H159.253V97.968H157.987V97.5397H161.04V97.968Z" fill="#46D593"/>
<path d="M192.198 91.5872C199.951 91.5872 206.236 85.3019 206.236 77.5485C206.236 69.7951 199.951 63.5098 192.198 63.5098C184.444 63.5098 178.159 69.7951 178.159 77.5485C178.159 85.3019 184.444 91.5872 192.198 91.5872Z" stroke="#DDDDDD" stroke-width="0.814671"/>
<path d="M180.75 98.3467H203.646" stroke="#DDDDDD" stroke-width="0.9"/>
<path d="M180.75 102.347H203.646" stroke="#DDDDDD" stroke-width="0.9"/>
<path d="M66.1978 143.587C73.9511 143.587 80.2365 137.302 80.2365 129.548C80.2365 121.795 73.9511 115.51 66.1978 115.51C58.4444 115.51 52.1589 121.795 52.1589 129.548C52.1589 137.302 58.4444 143.587 66.1978 143.587Z" stroke="#DDDDDD" stroke-width="0.814671"/>
<path d="M54.7495 150.347H77.6458" stroke="#DDDDDD" stroke-width="0.9"/>
<path d="M54.7495 154.347H77.6458" stroke="#DDDDDD" stroke-width="0.9"/>
<path d="M108.198 143.587C115.951 143.587 122.236 137.302 122.236 129.548C122.236 121.795 115.951 115.51 108.198 115.51C100.444 115.51 94.1589 121.795 94.1589 129.548C94.1589 137.302 100.444 143.587 108.198 143.587Z" stroke="#DDDDDD" stroke-width="0.814671"/>
<path d="M96.7495 150.347H119.646" stroke="#DDDDDD" stroke-width="0.9"/>
<path d="M96.7495 154.347H119.646" stroke="#DDDDDD" stroke-width="0.9"/>
<path d="M150.198 143.587C157.951 143.587 164.236 137.302 164.236 129.548C164.236 121.795 157.951 115.51 150.198 115.51C142.444 115.51 136.159 121.795 136.159 129.548C136.159 137.302 142.444 143.587 150.198 143.587Z" stroke="#DDDDDD" stroke-width="0.814671"/>
<path d="M138.75 150.347H161.646" stroke="#DDDDDD" stroke-width="0.9"/>
<path d="M138.75 154.347H161.646" stroke="#DDDDDD" stroke-width="0.9"/>
<path d="M192.198 143.587C199.951 143.587 206.236 137.302 206.236 129.548C206.236 121.795 199.951 115.51 192.198 115.51C184.444 115.51 178.159 121.795 178.159 129.548C178.159 137.302 184.444 143.587 192.198 143.587Z" stroke="#DDDDDD" stroke-width="0.814671"/>
<path d="M180.75 150.347H203.646" stroke="#DDDDDD" stroke-width="0.9"/>
<path d="M180.75 154.347H203.646" stroke="#DDDDDD" stroke-width="0.9"/>
<path d="M52.8826 72.9336L67.1813 91.3176" stroke="#DDDDDD" stroke-width="0.6"/>
<path d="M56.5142 67.3352L64.6847 91.3177" stroke="#DDDDDD" stroke-width="0.6"/>
<path d="M96.3081 85.1895L121.955 80.272" stroke="#DDDDDD" stroke-width="0.6"/>
<path d="M114.39 64.9143L117.567 87.9133" stroke="#DDDDDD" stroke-width="0.6"/>
<path d="M68.0134 115.754L75.2764 139.963" stroke="#DDDDDD" stroke-width="0.6"/>
<path d="M66.7273 115.527L52.8069 125.211" stroke="#DDDDDD" stroke-width="0.6"/>
<path d="M138.145 136.937L159.48 139.812L162.43 123.017" stroke="#DDDDDD" stroke-width="0.6"/>
<path d="M160.085 119.612L149.417 143.443" stroke="#DDDDDD" stroke-width="0.6"/>
<path d="M182.1 119.839L200.182 117.948" stroke="#DDDDDD" stroke-width="0.6"/>
<path d="M180.587 137.467L201.998 139.585" stroke="#DDDDDD" stroke-width="0.6"/>
<path d="M181.874 68.1674L197.383 64.6873L205.932 79.6668L184.521 89.1237" stroke="#DDDDDD" stroke-width="0.6"/>
<path d="M102.285 116.813L120.518 123.093L95.8545 122.941" stroke="#DDDDDD" stroke-width="0.6"/>
<path d="M136.632 74.144L146.391 90.788L140.263 67.7891" stroke="#46D593" stroke-width="0.6"/>
<path d="M73.6136 80.7743C74.5747 80.7743 75.3536 79.9952 75.3536 79.0342C75.3536 78.0732 74.5747 77.2942 73.6136 77.2942C72.6526 77.2942 71.8735 78.0732 71.8735 79.0342C71.8735 79.9952 72.6526 80.7743 73.6136 80.7743Z" fill="#DDDDDD"/>
<path d="M71.7961 138.786C73.8619 138.786 75.5366 137.112 75.5366 135.046C75.5366 132.98 73.8619 131.305 71.7961 131.305C69.7303 131.305 68.0557 132.98 68.0557 135.046C68.0557 137.112 69.7303 138.786 71.7961 138.786Z" stroke="#DDDDDD" stroke-width="0.6"/>
<path d="M101.982 78.5685C103.507 78.5685 104.742 77.3328 104.742 75.8085C104.742 74.2842 103.507 73.0486 101.982 73.0486C100.458 73.0486 99.2224 74.2842 99.2224 75.8085C99.2224 77.3328 100.458 78.5685 101.982 78.5685Z" stroke="#DDDDDD" stroke-width="0.6"/>
<path d="M103.646 138.738C106.563 138.738 108.928 136.374 108.928 133.457C108.928 130.54 106.563 128.176 103.646 128.176C100.73 128.176 98.3652 130.54 98.3652 133.457C98.3652 136.374 100.73 138.738 103.646 138.738Z" stroke="#DDDDDD" stroke-width="0.6"/>
<path d="M195.113 140.481C198.533 140.481 201.305 137.709 201.305 134.289C201.305 130.87 198.533 128.098 195.113 128.098C191.693 128.098 188.921 130.87 188.921 134.289C188.921 137.709 191.693 140.481 195.113 140.481Z" stroke="#DDDDDD" stroke-width="0.6"/>
<path d="M196.475 79.2354C197.573 79.2354 198.464 78.3447 198.464 77.2459C198.464 76.1471 197.573 75.2563 196.475 75.2563C195.376 75.2563 194.485 76.1471 194.485 77.2459C194.485 78.3447 195.376 79.2354 196.475 79.2354Z" stroke="#DDDDDD" stroke-width="0.6"/>
<path d="M153.924 86.3238C157.266 86.3238 159.976 83.6144 159.976 80.2721C159.976 76.9299 157.266 74.2205 153.924 74.2205C150.582 74.2205 147.873 76.9299 147.873 80.2721C147.873 83.6144 150.582 86.3238 153.924 86.3238Z" stroke="#46D593" stroke-width="0.6"/>
<path d="M142.685 129.901C143.395 129.901 143.971 129.326 143.971 128.615C143.971 127.905 143.395 127.329 142.685 127.329C141.974 127.329 141.398 127.905 141.398 128.615C141.398 129.326 141.974 129.901 142.685 129.901Z" fill="#DDDDDD"/>
<path d="M195.491 134.743C196.202 134.743 196.777 134.167 196.777 133.457C196.777 132.747 196.202 132.171 195.491 132.171C194.781 132.171 194.205 132.747 194.205 133.457C194.205 134.167 194.781 134.743 195.491 134.743Z" fill="#DDDDDD"/>
<path d="M151.352 77.0946C152.522 77.0946 153.47 76.1462 153.47 74.9762C153.47 73.8063 152.522 72.8579 151.352 72.8579C150.182 72.8579 149.233 73.8063 149.233 74.9762C149.233 76.1462 150.182 77.0946 151.352 77.0946Z" fill="#46D593"/>
</svg>
