<svg width="266" height="254" viewBox="0 0 266 254" fill="none" xmlns="http://www.w3.org/2000/svg">
<path d="M135.158 216.642C163.231 216.642 186 193.763 186 165.689C186 137.505 163.231 114.737 135.158 114.737C107.084 114.737 84.3157 137.616 84.3157 165.689C84.3157 193.763 107.084 216.642 135.158 216.642Z" fill="white" stroke="#DDDDDD"/>
<path d="M135.158 216.421C163.231 216.421 186 193.592 186 165.579C186 137.456 163.231 114.737 135.158 114.737C107.084 114.737 84.3157 137.566 84.3157 165.579C84.3157 193.592 107.084 216.421 135.158 216.421Z" stroke="#DDDDDD"/>
<path d="M134.605 220.842C171.528 220.842 201.474 190.817 201.474 153.974C201.474 116.986 171.528 87.1055 134.605 87.1055C97.6822 87.1055 67.7368 117.131 67.7368 153.974C67.7368 190.817 97.6822 220.842 134.605 220.842Z" stroke="#DDDDDD"/>
<path d="M134.053 226.368C182.266 226.368 221.368 187.162 221.368 139.053C221.368 90.7543 182.266 51.7368 134.053 51.7368C85.8391 51.7368 46.7368 90.9437 46.7368 139.053C46.7368 187.162 85.8391 226.368 134.053 226.368Z" stroke="#DDDDDD"/>
<path d="M133.5 233C197.276 233 249 181.138 249 117.5C249 53.6117 197.276 2 133.5 2C69.7239 2 18 53.8622 18 117.5C18 181.138 69.7239 233 133.5 233Z" stroke="#DDDDDD"/>
<path d="M139.297 171.021H129.749V161.312H139.297V171.021ZM153.618 154.839C153.207 152.516 151.972 150.358 150.161 148.947C148.515 147.536 146.293 146.79 144.153 146.79C137.733 146.79 131.231 146.79 124.728 146.79C121.354 146.79 118.144 148.781 116.498 151.769C115.592 153.345 115.263 155.171 115.263 156.997C115.263 162.972 115.263 168.864 115.263 174.838C115.263 176.249 115.345 177.577 115.757 178.905C116.745 181.975 119.296 184.465 122.342 185.295C121.436 184.548 121.025 183.552 120.695 182.39C120.037 179.9 120.037 177.328 120.119 174.838C120.119 168.864 120.119 162.972 120.119 156.997C120.119 156.001 120.202 155.005 120.695 154.092C121.519 152.681 123.082 151.686 124.728 151.686C130.901 151.686 136.992 151.686 143.165 151.686C144.071 151.686 144.894 151.603 145.799 151.935C147.281 152.433 148.433 153.76 148.762 155.254C148.927 156.167 148.927 157.163 148.927 158.075V175.502C148.927 176.332 148.844 177.162 148.433 177.992C147.692 179.569 146.046 180.647 144.317 180.647C139.461 180.647 134.605 180.647 129.749 180.647C129.749 179.071 129.749 177.411 129.749 175.834C133.7 175.834 137.651 175.834 141.684 175.834C142.507 175.917 143.494 175.419 143.906 174.672C144.153 174.258 144.153 173.843 144.153 173.345C144.153 168.532 144.153 163.635 144.153 158.822C144.153 157.91 143.741 157.163 143.001 156.665C142.342 156.25 141.601 156.416 140.943 156.333C136.416 156.333 131.889 156.333 127.28 156.333C125.963 156.333 124.893 157.412 124.975 158.739C124.975 165.71 124.975 172.681 124.975 179.652C124.975 181.062 124.975 182.307 125.798 183.552C126.375 184.548 127.445 185.046 128.515 185.295C129.831 185.543 131.066 185.46 132.383 185.46C136.334 185.46 140.284 185.46 144.317 185.46C146.293 185.46 148.186 184.797 149.832 183.718C151.56 182.39 152.877 180.647 153.536 178.573C153.947 177.162 153.947 175.751 153.947 174.341C153.947 168.781 153.947 163.221 153.947 157.661C153.783 156.748 153.783 155.752 153.618 154.839Z" fill="url(#paint0_linear)"/>
<path d="M53.2579 102.8C54.5842 104.126 56.6842 104.126 58.0105 102.8C59.3369 101.474 59.3369 99.3738 58.0105 98.0475C56.6842 96.7212 54.5842 96.7212 53.2579 98.0475C51.9316 99.3738 51.9316 101.474 53.2579 102.8Z" fill="url(#paint1_linear)"/>
<path d="M183.679 198.958C185.005 200.284 187.105 200.284 188.431 198.958C189.758 197.632 189.758 195.532 188.431 194.205C187.105 192.879 185.005 192.879 183.679 194.205C182.353 195.532 182.353 197.632 183.679 198.958Z" fill="url(#paint2_linear)"/>
<path d="M186.995 18.8001C188.321 20.1264 190.421 20.1264 191.747 18.8001C193.074 17.4738 193.074 15.3738 191.747 14.0475C190.421 12.7212 188.321 12.7212 186.995 14.0475C185.668 15.3738 185.668 17.4738 186.995 18.8001Z" fill="url(#paint3_linear)"/>
<path d="M210.426 100.368C212.084 100.368 213.521 99.0419 213.521 97.2734C213.521 95.6156 212.195 94.1787 210.426 94.1787C208.658 94.1787 207.332 95.6156 207.332 97.384C207.332 99.0419 208.658 100.368 210.426 100.368Z" fill="url(#paint4_linear)"/>
<path opacity="0.5" d="M210.316 110.316C217.611 110.316 223.579 104.347 223.579 97.0527C223.579 89.758 217.611 83.7896 210.316 83.7896C203.021 83.7896 197.053 89.758 197.053 97.0527C197.053 104.347 203.021 110.316 210.316 110.316Z" stroke="#56408B" stroke-width="5.6693" stroke-miterlimit="10"/>
<path d="M99.9002 205.368C101.558 205.368 102.995 204.042 102.995 202.273C102.995 200.616 101.669 199.179 99.9002 199.179C98.1317 199.179 96.8054 200.616 96.8054 202.384C96.8054 204.042 98.1317 205.368 99.9002 205.368Z" fill="url(#paint5_linear)"/>
<path opacity="0.5" d="M99.7895 215.316C107.084 215.316 113.053 209.347 113.053 202.053C113.053 194.758 107.084 188.79 99.7895 188.79C92.4948 188.79 86.5264 194.758 86.5264 202.053C86.5264 209.347 92.4948 215.316 99.7895 215.316Z" stroke="#56408B" stroke-width="5.6693" stroke-miterlimit="10"/>
<path d="M68.9527 25.2105C70.6105 25.2105 72.0474 23.8842 72.0474 22.1157C72.0474 20.4578 70.7211 19.021 68.9527 19.021C67.1842 19.021 65.8579 20.4578 65.8579 22.2263C65.8579 23.8842 67.1842 25.2105 68.9527 25.2105Z" fill="url(#paint6_linear)"/>
<path opacity="0.5" d="M68.842 35.1577C76.1368 35.1577 82.1052 29.1892 82.1052 21.8945C82.1052 14.5998 76.1368 8.63135 68.842 8.63135C61.5473 8.63135 55.5789 14.5998 55.5789 21.8945C55.5789 29.1892 61.5473 35.1577 68.842 35.1577Z" stroke="#56408B" stroke-width="5.6693" stroke-miterlimit="10"/>
<defs>
<linearGradient id="paint0_linear" x1="134.568" y1="185.567" x2="134.568" y2="146.768" gradientUnits="userSpaceOnUse">
<stop stop-color="#46D593"/>
<stop offset="1" stop-color="#2BEB92"/>
</linearGradient>
<linearGradient id="paint1_linear" x1="52.3047" y1="100.441" x2="59.007" y2="100.441" gradientUnits="userSpaceOnUse">
<stop stop-color="#46D593"/>
<stop offset="1" stop-color="#2BEB92"/>
</linearGradient>
<linearGradient id="paint2_linear" x1="182.726" y1="196.599" x2="189.428" y2="196.599" gradientUnits="userSpaceOnUse">
<stop stop-color="#46D593"/>
<stop offset="1" stop-color="#2BEB92"/>
</linearGradient>
<linearGradient id="paint3_linear" x1="186.042" y1="16.4411" x2="192.744" y2="16.4411" gradientUnits="userSpaceOnUse">
<stop stop-color="#46D593"/>
<stop offset="1" stop-color="#2BEB92"/>
</linearGradient>
<linearGradient id="paint4_linear" x1="207.28" y1="97.3169" x2="213.469" y2="97.3169" gradientUnits="userSpaceOnUse">
<stop stop-color="#46D593"/>
<stop offset="1" stop-color="#2BEB92"/>
</linearGradient>
<linearGradient id="paint5_linear" x1="96.7535" y1="202.317" x2="102.943" y2="202.317" gradientUnits="userSpaceOnUse">
<stop stop-color="#46D593"/>
<stop offset="1" stop-color="#2BEB92"/>
</linearGradient>
<linearGradient id="paint6_linear" x1="65.806" y1="22.1592" x2="71.9954" y2="22.1592" gradientUnits="userSpaceOnUse">
<stop stop-color="#46D593"/>
<stop offset="1" stop-color="#2BEB92"/>
</linearGradient>
</defs>
</svg>
