<?xml version="1.0" encoding="UTF-8"?>
<svg width="264px" height="209px" viewBox="0 0 264 209" version="1.1" xmlns="http://www.w3.org/2000/svg" xmlns:xlink="http://www.w3.org/1999/xlink">
    <!-- Generator: Sketch 48.2 (47327) - http://www.bohemiancoding.com/sketch -->
    <title>Group 26 Copy</title>
    <desc>Created with Sketch.</desc>
    <defs></defs>
    <g id="Artboard" stroke="none" stroke-width="1" fill="none" fill-rule="evenodd" transform="translate(-1017.000000, -1188.000000)">
        <g id="Group-26-Copy" transform="translate(984.000000, 1154.000000)">
            <g id="Group-25" transform="translate(81.000000, 140.000000)" stroke="#DDDDDD" stroke-linecap="round" stroke-linejoin="round">
                <path d="M68.3924421,10.6112408 C68.2536537,17.7168305 68.1842595,22.4027762 68.1842595,24.6690779 C68.1842595,28.0685305 70.3398984,28.7793518 72.3355177,28.7793518 C74.331137,28.7793518 95.9762987,28.8422769 98.1725636,28.8422769 C100.368828,28.8422769 102.779652,28.1064631 102.779652,24.4464381 C102.779652,22.0064214 102.849046,17.4454139 102.987834,10.7634155" id="Path-615" transform="translate(85.586047, 19.726759) rotate(-315.000000) translate(-85.586047, -19.726759) "></path>
                <path d="M1.55696174,10.3962425 C1.41817331,17.5018322 1.34877909,22.1877779 1.34877909,24.4540796 C1.34877909,27.8535322 3.50441798,28.5643535 5.50003728,28.5643535 C7.49565657,28.5643535 29.1408184,28.6272786 31.3370832,28.6272786 C33.533348,28.6272786 35.9441713,27.8914648 35.9441713,24.2314398 C35.9441713,21.7914231 36.0135655,17.2304156 36.1523539,10.5484172" id="Path-615" transform="translate(18.750567, 19.511761) scale(-1, 1) rotate(-315.000000) translate(-18.750567, -19.511761) "></path>
                <path d="M74.1766184,53.5231544 C74.1766184,57.918931 74.1766184,60.878094 74.1766184,62.4006435 C74.1766184,64.6844677 72.9686906,66.2698019 71.8519915,67.3092784 C70.7352923,68.348755 63.6323287,74.5697155 60.2368063,77.5749611 C56.8412838,80.5802067 52.700412,80.3905571 48.5353135,76.6940937 C44.370215,72.9976303 25.5214692,55.485138 24.0655963,54.0803684 C22.6097235,52.6755987 22.6097235,51.6308226 22.6097235,49.4356571 C22.6097235,47.2404915 22.6097235,43.6857999 22.6097235,42.4630105 C22.6097235,41.240221 22.0059489,39.7249171 20.7938571,38.5964831 C19.985796,37.8441938 18.6206702,36.479068 16.6984797,34.5011057" id="Path-617"></path>
                <path d="M69.7117011,16.8613839 C67.3281746,19.2503044 65.7473128,20.655163 65.0135925,21.3154259 C64.2798721,21.9756888 63.508996,21.9940531 62.061628,21.9756888 C60.61426,21.9573244 58.1034673,21.9940531 57.031074,21.9940531 C55.9586806,21.9940531 54.2811175,22.0166883 53.3278789,23.0626028 C52.3746404,24.1085173 39.034853,36.2738396 37.4115288,37.9381633 C35.7882046,39.602487 35.3412047,42.1004174 36.5257687,43.4624198 C38.8991118,46.1912711 45.2408928,51.606065 51.3112157,45.7870064 C53.0167204,44.1520963 54.0469915,43.1955913 56.0016121,41.4360114 C57.9562326,39.6764315 59.7711898,39.2533463 62.2706115,41.5111408 C64.7700331,43.7689354 72.7367008,52.0569254 74.4484867,53.689016 C76.1602725,55.3211067 78.0627829,54.3862698 79.6007404,52.8315589 C81.1386979,51.2768481 82.3817965,50.2485275 83.2915033,49.4011431 C84.2012102,48.5537586 83.8765303,47.2551658 83.8765303,45.7870064 C83.8765303,44.3188469 83.8765303,43.3689457 83.8765303,42.1854822 C83.8765303,41.0020188 83.8735147,39.871497 85.845384,37.9381633 C86.6972325,37.1029622 87.0955767,36.5790273 88.452994,35.1919207" id="Path-616"></path>
                <path d="M51.7885041,24.5919403 C47.7067626,23.4190462 42.975985,24.0258114 40.637033,22.0867488 C39.0777317,20.7940405 37.1074742,18.9952045 34.7262605,16.690241" id="Path-618"></path>
            </g>
            <path d="M167.975258,89.2257247 C165.033531,89.2257247 161.849712,91.5729229 161.849712,95.2171442 C161.849712,98.8613655 161.849712,156.772494 161.849712,160.125854 C161.849712,163.479213 163.660884,165.315373 166.949339,165.315373 C170.237795,165.315373 202.248177,165.315373 205.268836,165.315373 C208.289495,165.315373 210.491649,163.547959 210.491649,160.125854 C210.491649,156.703748 210.491649,98.4884773 210.491649,95.208583 C210.491649,91.9286887 207.897602,89.345106 204.28287,89.345106" id="Path-262" stroke="#DDDDDD" stroke-linecap="round" stroke-linejoin="round"></path>
            <path d="M237.649297,88.7501428 L219.972962,88.7501428" id="Path-264" stroke="#DDDDDD" stroke-linecap="round" stroke-linejoin="round"></path>
            <path d="M212.079088,71.2959076 C208.201274,71.2959076 204.410717,73.9136127 204.410717,78.8409159 C204.410717,82.1257848 204.410717,106.74005 204.410717,152.683712" id="Path-265" stroke="#DDDDDD" stroke-linecap="round" stroke-linejoin="round"></path>
            <path d="M210.646579,152.846554 L162.182455,152.846554" id="Path-266" stroke="#DDDDDD" stroke-linecap="round" stroke-linejoin="round"></path>
            <path d="M175.394573,86.9994573 L197.08527,86.9994573" id="Path-268" stroke="#DDDDDD" stroke-linecap="round" stroke-linejoin="round"></path>
            <path d="M175.394573,96.0784261 L197.08527,96.0784261" id="Path-268-Copy" stroke="#DDDDDD" stroke-linecap="round" stroke-linejoin="round"></path>
            <path d="M175.394573,105.157395 L197.08527,105.157395" id="Path-268-Copy-2" stroke="#DDDDDD" stroke-linecap="round" stroke-linejoin="round"></path>
            <path d="M175.394573,114.236364 L197.08527,114.236364" id="Path-268-Copy-3" stroke="#DDDDDD" stroke-linecap="round" stroke-linejoin="round"></path>
            <path d="M175.394573,123.315332 L197.08527,123.315332" id="Path-268-Copy-4" stroke="#DDDDDD" stroke-linecap="round" stroke-linejoin="round"></path>
            <path d="M175.394573,132.394301 L197.08527,132.394301" id="Path-268-Copy-5" stroke="#DDDDDD" stroke-linecap="round" stroke-linejoin="round"></path>
            <path d="M175.394573,141.47327 L197.08527,141.47327" id="Path-268-Copy-6" stroke="#DDDDDD" stroke-linecap="round" stroke-linejoin="round"></path>
            <path d="M224.751875,144.441091 L210.599706,144.441091" id="Path-270" stroke="#DDDDDD" stroke-linecap="round" stroke-linejoin="round"></path>
            <path d="M167.981662,152.732222 C167.981662,106.647634 167.981662,82.03796 167.981662,78.9031994 C167.981662,74.2010585 171.017798,71.2618998 175.821905,71.2618998 C180.626012,71.2618998 207.296732,71.2618998 212.082143,71.2618998 C216.867555,71.2618998 219.323692,75.0980672 219.323692,78.9031994 C219.323692,82.7083315 219.323692,131.870136 219.323692,137.486373 C219.323692,143.10261 223.344521,144.414291 225.10441,144.414291 C226.8643,144.414291 231.672759,143.637338 231.672759,137.486373 C231.672759,131.335408 231.672759,99.3354676 231.672759,94.9423826 C231.672759,90.5492976 234.774168,88.8266056 237.848225,88.8266056 C240.922281,88.8266056 243.746435,90.6697752 243.746435,94.9423826 C243.746435,97.7907875 243.746435,105.580136 243.746435,118.310427" id="Path-263" stroke="#DDDDDD" stroke-linecap="round" stroke-linejoin="round"></path>
            <path d="M180.778354,158.996536 L191.344233,158.996536" id="Path-267" stroke="#DDDDDD" stroke-linecap="round" stroke-linejoin="round"></path>
            <path d="M243.917085,118.056331 L231.725516,118.056331" id="Path-269" stroke="#DDDDDD" stroke-linecap="round" stroke-linejoin="round"></path>
            <path d="M81.8522124,166.025944 L74.9577521,159.131483 C73.0051307,157.178862 73.0051307,154.013037 74.9577521,152.060416 L92.0514142,134.966753 C94.0040357,133.014132 97.1698606,133.014132 99.122482,134.966753 L105.921265,141.765536" id="Path-9" stroke="#DDDDDD"></path>
            <ellipse id="Oval-12" stroke="#DDDDDD" transform="translate(165.000000, 142.000000) rotate(333.000000) translate(-165.000000, -142.000000) " cx="165" cy="142" rx="140" ry="87"></ellipse>
            <circle id="Oval-13" stroke="#DDDDDD" fill="#FFFFFF" cx="200" cy="43" r="8"></circle>
            <circle id="Oval-13-Copy-2" stroke="#DDDDDD" fill="#FFFFFF" cx="177.5" cy="141.5" r="5.5"></circle>
            <circle id="Oval-13-Copy-3" stroke="#DDDDDD" fill="#FFFFFF" cx="196.5" cy="113.5" r="5.5"></circle>
            <circle id="Oval-13-Copy-4" stroke="#DDDDDD" fill="#FFFFFF" cx="175.5" cy="86.5" r="5.5"></circle>
            <circle id="Oval-13-Copy-5" stroke="#DDDDDD" fill="#FFFFFF" cx="123.5" cy="172.5" r="5.5"></circle>
            <circle id="Oval-13-Copy-6" stroke="#DDDDDD" fill="#FFFFFF" cx="151.5" cy="207.5" r="5.5"></circle>
            <circle id="Oval-13-Copy-7" stroke="#DDDDDD" fill="#FFFFFF" cx="77.5" cy="148.5" r="5.5"></circle>
            <circle id="Oval-13-Copy" stroke="#DDDDDD" fill="#FFFFFF" cx="54" cy="223" r="13"></circle>
            <circle id="Oval-13-Copy-8" stroke="#F1F1F1" fill="#FFFFFF" cx="235" cy="199" r="15"></circle>
            <ellipse id="Oval-2-Copy-26" fill="#04E8B0" cx="199.755" cy="42.7551586" rx="2.75500011" ry="2.75515856"></ellipse>
            <ellipse id="Oval-2-Copy-90" fill="#04E8B0" cx="177.664837" cy="141.664932" rx="1.66483656" ry="1.66493231"></ellipse>
            <ellipse id="Oval-2-Copy-91" fill="#04E8B0" cx="196.664837" cy="113.664932" rx="1.66483656" ry="1.66493231"></ellipse>
            <ellipse id="Oval-2-Copy-92" fill="#04E8B0" cx="175.664837" cy="86.6649323" rx="1.66483656" ry="1.66493231"></ellipse>
            <ellipse id="Oval-2-Copy-93" fill="#04E8B0" cx="123.664837" cy="172.664932" rx="1.66483656" ry="1.66493231"></ellipse>
            <ellipse id="Oval-2-Copy-94" fill="#04E8B0" cx="151.664837" cy="207.664932" rx="1.66483656" ry="1.66493231"></ellipse>
            <ellipse id="Oval-2-Copy-95" fill="#04E8B0" cx="77.6648366" cy="148.664932" rx="1.66483656" ry="1.66493231"></ellipse>
            <ellipse id="Oval-2-Copy-89" fill="#04E8B0" cx="53.7705417" cy="222.770759" rx="3.77054167" ry="3.77075852"></ellipse>
            <ellipse id="Oval-2-Copy-96" fill="#04E8B0" cx="234.770542" cy="198.770759" rx="5.5" ry="5.50031631"></ellipse>
        </g>
    </g>
</svg>