<?xml version="1.0" encoding="UTF-8"?>
<svg width="46px" height="46px" viewBox="0 0 46 46" version="1.1" xmlns="http://www.w3.org/2000/svg" xmlns:xlink="http://www.w3.org/1999/xlink">
    <!-- Generator: Sketch 48.2 (47327) - http://www.bohemiancoding.com/sketch -->
    <title>Group 13</title>
    <desc>Created with Sketch.</desc>
    <defs>
        <polygon id="path-1" points="0 0.403361345 17.6817479 0.403361345 17.6817479 16.1344538 0 16.1344538"></polygon>
    </defs>
    <g id="Footer" stroke="none" stroke-width="1" fill="none" fill-rule="evenodd" transform="translate(-618.000000, -369.000000)">
        <g id="Group-5" transform="translate(-10.000000, 0.000000)">
            <g id="Group-13" transform="translate(628.000000, 369.000000)">
                <circle id="Oval-Copy-4" fill="#04E8B0" cx="23" cy="23" r="23"></circle>
                <g id="Page-1" transform="translate(15.000000, 14.000000)">
                    <g id="Group-3" transform="translate(0.000000, 0.403361)">
                        <mask id="mask-2" fill="white">
                            <use xlink:href="#path-1"></use>
                        </mask>
                        <g id="Clip-2"></g>
                        <path d="M12.0680067,14.5210084 L5.61422521,14.5210084 C4.05483025,14.5210084 2.7906958,13.2568739 2.7906958,11.697479 C2.7906958,6.93216807 6.11842689,8.84894118 8.84111597,8.84894118 C11.5629983,8.84894118 14.8915361,6.88215126 14.8915361,11.697479 C14.8915361,13.2568739 13.6282084,14.5210084 12.0680067,14.5210084 M16.5283765,6.22305882 L16.5549983,6.24161345 C16.5549983,6.24161345 18.6895866,2.55408403 16.0677378,0.403361345 C14.4542924,0.403361345 11.9865277,3.06877311 11.9865277,3.06877311 L12.0050824,3.08087395 C9.99634286,2.48954622 7.74155294,2.48631933 5.72797311,3.06796639 C5.71425882,3.05344538 3.25698151,0.403361345 1.64756975,0.403361345 C-0.912968067,2.5032605 1.05946891,6.06010084 1.15224202,6.22547899 C0.330998319,7.45653782 -0.116732773,8.99495798 0.0260571429,10.8584874 C0.220477311,13.3803025 2.32360336,16.1344538 4.85267899,16.1344538 L12.8287462,16.1344538 C15.3586286,16.1344538 17.4617546,13.3803025 17.6553681,10.8584874 C17.7989647,8.99334454 17.3512336,7.45411765 16.5283765,6.22305882" id="Fill-1" fill="#FFFFFF" mask="url(#mask-2)"></path>
                    </g>
                    <path d="M12.4879059,12.1008403 C12.4879059,12.7696134 12.1273008,13.3109244 11.6811832,13.3109244 C11.2358723,13.3109244 10.8744605,12.7696134 10.8744605,12.1008403 C10.8744605,11.4320672 11.2358723,10.8907563 11.6811832,10.8907563 C12.1273008,10.8907563 12.4879059,11.4320672 12.4879059,12.1008403" id="Fill-4" fill="#FFFFFF"></path>
                    <path d="M6.84084706,12.1008403 C6.84084706,12.7696134 6.48024202,13.3109244 6.03412437,13.3109244 C5.58881345,13.3109244 5.22740168,12.7696134 5.22740168,12.1008403 C5.22740168,11.4320672 5.58881345,10.8907563 6.03412437,10.8907563 C6.48024202,10.8907563 6.84084706,11.4320672 6.84084706,12.1008403" id="Fill-6" fill="#FFFFFF"></path>
                </g>
            </g>
        </g>
    </g>
</svg>