<?xml version="1.0" encoding="UTF-8"?>
<svg width="46px" height="46px" viewBox="0 0 46 46" version="1.1" xmlns="http://www.w3.org/2000/svg" xmlns:xlink="http://www.w3.org/1999/xlink">
    <!-- Generator: Sketch 48.2 (47327) - http://www.bohemiancoding.com/sketch -->
    <title>Group 18</title>
    <desc>Created with Sketch.</desc>
    <defs></defs>
    <g id="Footer" stroke="none" stroke-width="1" fill="none" fill-rule="evenodd" transform="translate(-1106.000000, -369.000000)">
        <g id="Group-5" transform="translate(-10.000000, 0.000000)">
            <g id="Group-18" transform="translate(1116.000000, 369.000000)">
                <circle id="Oval-Copy-10" fill="transparent" cx="23" cy="23" r="23"></circle>
                <g id="telegram" transform="translate(11.000000, 14.000000)" fill-rule="nonzero">
                    <path d="M8.26184211,15.6480263 C7.67102921,15.6480263 7.77142303,15.4249441 7.56765671,14.8623984 L5.83026316,9.14444928 L19.2039474,1.21052632" id="Shape" fill="transparent"></path>
                    <path d="M8.26184211,15.6480263 C8.71776316,15.6480263 8.91920428,15.4395184 9.17368421,15.1921053 L11.6052632,12.8276987 L8.57217237,10.9986954" id="Shape" fill="#04E8B0"></path>
                    <path d="M8.57186842,10.9991513 L15.9213158,16.4290191 C16.7599826,16.8917637 17.3652786,16.6521772 17.5741816,15.6503819 L20.5657836,1.55284704 C20.8720713,0.324869276 20.0976894,-0.232083882 19.2953747,0.132166645 L1.72873658,6.90578572 C0.529649013,7.38673684 0.536639803,8.0557098 1.51016803,8.35379099 L6.01816342,9.76080895 L16.4546522,3.17654908 C16.9473357,2.87778401 17.3995182,3.03840652 17.0283833,3.36779276" id="Shape" fill="#04E8B0"></path>
                </g>
            </g>
        </g>
    </g>
</svg>