<svg width="90" height="45" viewBox="0 0 90 45" fill="none" xmlns="http://www.w3.org/2000/svg">
<g clip-path="url(#clip0)">
<path d="M22.8 0H22C9.8 0 0 9.8 0 22V22.8C0 28.6348 2.31785 34.2305 6.44365 38.3563C10.5695 42.4822 16.1652 44.8 22 44.8H22.8C34.9 44.8 44.8 34.9 44.8 22.8V22C44.8 9.8 35 0 22.8 0V0ZM18.4 28.4C17.4 29.7 16 30.3 14.3 30.3C12.6 30.3 11.3 29.6 10.3 28.3C10.3 28.6 10.4 28.8 10.4 28.9C10.4 29.7 9.9 30.1 9 30.1C8 30.1 7.6 29.6 7.6 28.6V17.2C7.6 16.4 7.5 15.9 7.2 15.9C7.1 15.9 6.9 15.9 6.7 16H6.3C5.5 16 5.1 15.5 5.1 14.6C5.1 14.1 5.2 13.7 5.5 13.4C5.8 13.2 6.1 13 6.6 13C6.8 13 7.1 13 7.5 13.1C7.9 13.1 8.2 13.2 8.5 13.2C9 13.2 9.4 13.2 9.8 13.1C10.2 13 10.5 13 10.6 13C11.1 13 11.3 13.3 11.3 13.9V18.6C12.4 17.5 13.6 16.9 14.9 16.9C16.4 16.9 17.6 17.5 18.5 18.7C19.4 19.9 19.9 21.5 19.9 23.4C19.9 25.5 19.4 27.1 18.4 28.4ZM27.9 29.9C27.7 29.9 27.3 29.9 26.5 29.8C26 29.8 25.5 29.7 24.9 29.7C24.6 29.7 24.2 29.7 23.6 29.8C23 29.9 22.6 29.9 22.3 29.9C21.8 29.9 21.5 29.7 21.2 29.4C20.9 29.1 20.8 28.7 20.8 28.2C20.8 27.2 21.2 26.8 22 26.8L22.7 27H22.9C23.2 27 23.4 26.5 23.4 25.6V21.6C23.4 20.6 23.3 20.2 23 20.2C23 20.2 22.8 20.2 22.5 20.3H22.1C21.3 20.3 20.9 19.8 20.9 18.9C20.9 18.4 21 18 21.3 17.7C21.6 17.4 22 17.2 22.4 17.2C22.6 17.2 22.9 17.2 23.2 17.3C23.8 17.4 25.2 17.4 25.7 17.3C26.2 17.2 26.4 17.2 26.5 17.2C27 17.2 27.2 17.5 27.2 18.2V25.7C27.2 26.5 27.4 27 27.7 27C27.8 27 27.9 27 28.1 26.9C28.3 26.9 28.4 26.8 28.5 26.8C29.2 26.8 29.6 27.2 29.6 28.1C29.4 29.4 28.9 29.9 27.9 29.9V29.9ZM38.8 18.6C38.8 19.5 38.4 19.9 37.5 19.9H35.5C35.1 19.9 34.9 20 34.9 20.1C34.9 20.2 34.8 20.4 34.8 20.6V25.5C34.8 26.5 35.1 27 35.8 27C36.4 27 36.7 26.6 36.7 25.7V24.8C36.7 23.9 37.2 23.4 38.1 23.4C39.1 23.4 39.7 24.2 39.7 25.9C39.7 27.2 39.3 28.2 38.5 29C37.7 29.7 36.6 30.1 35.2 30.1C32.4 30.1 31.1 28.6 31.1 25.7C31.1 25.2 31.1 24.5 31.2 23.6C31.3 22.7 31.3 22 31.3 21.5V20.7C31.3 20.3 31.3 20 31.2 19.9C30.7 20 30.5 20 30.2 20H29.8C29.6434 20.0088 29.4871 19.9766 29.3468 19.9064C29.2065 19.8362 29.0869 19.7306 29 19.6C28.8 19.4 28.7 19 28.7 18.7C28.7 18.3 28.8 18 29 17.7C29.2 17.4 29.5 17.3 29.7 17.3H30.2C30.6 17.3 30.8 17.2 30.9 16.9C30.9 16.8 31 16.5 31 16.2V15C31 14.4 30.9 13.2 31.3 13C31.6 12.8 32.4 13 33.3 13C33.9 13 34.4 12.8 34.6 13C34.8 13.2 34.7 14.3 34.7 14.8V16.1C34.7 16.6 34.7 16.9 34.8 17C34.9 17.1 35.1 17.2 35.5 17.2H37.3C38.3 17.3 38.8 17.7 38.8 18.6Z" fill="#43338A"/>
<path d="M13.3004 20.1C12.6004 20.1 12.1004 20.4 11.6004 21.1C11.2004 21.8 10.9004 22.6 10.9004 23.6C10.9004 26 11.7004 27.1 13.2004 27.1C14.6004 27.1 15.4004 25.9 15.4004 23.6C15.4004 21.3 14.7004 20.1 13.3004 20.1V20.1ZM88.4004 23.7C88.1004 23.2 87.6004 22.9 87.1004 22.6C86.6004 22.3 85.8004 22.1 84.7004 21.9C83.4004 21.7 82.5004 21.5 82.2004 21.3C81.9004 21.2 81.7004 20.9 81.7004 20.6C81.7004 19.9 82.2004 19.6 83.2004 19.6C84.0004 19.6 84.7004 20 85.3004 20.7C85.8004 21.3 86.3004 21.7 87.0004 21.7C87.9004 21.7 88.3004 21.3 88.3004 20.4V19.3C88.3004 19 88.3004 18.8 88.4004 18.5C88.5004 18.2 88.5004 18 88.5004 17.8C88.5004 17.2 88.1004 16.9 87.2004 16.9C86.4004 16.9 85.9004 17.3 85.8004 17.9C84.9004 17.2 83.8004 16.8 82.6004 16.8C81.3004 16.8 80.2004 17.2 79.4004 18C78.6004 18.8 78.2004 19.8 78.2004 21C78.2004 21.7 78.3004 22.3 78.6004 22.9C78.9004 23.4 79.3004 23.8 79.8004 24.1C80.3004 24.4 81.1004 24.6 82.3004 24.9L83.8004 25.2C84.8004 25.4 85.2004 25.8 85.2004 26.3C85.2004 27.1 84.6004 27.4 83.4004 27.4C82.7004 27.4 82.2004 27.3 81.9004 27.1C81.5004 26.9 81.2004 26.5 80.7004 25.9C80.4004 25.5 80.2004 25.3 79.9004 25.1C79.7004 25 79.3004 24.9 78.9004 24.9C78.0004 24.9 77.5004 25.3 77.5004 26V28.2C77.5004 28.5 77.4004 28.8 77.4004 29C77.4004 29.7 77.9004 30.1 78.8004 30.1C79.6004 30.1 80.1004 29.7 80.1004 28.9C81.3004 29.8 82.6004 30.3 84.1004 30.3C85.6004 30.3 86.8004 29.9 87.8004 29C88.8004 28.2 89.3004 27.1 89.3004 25.8C89.1004 25 88.8004 24.3 88.4004 23.7V23.7ZM55.6004 16.9C54.3004 16.9 53.1004 17.5 52.0004 18.6V13.9C52.0004 13.3 51.8004 13 51.3004 13C51.1004 13 50.8004 13 50.4004 13.1C50.0004 13.2 49.6004 13.2 49.1004 13.2C48.9004 13.2 48.5004 13 48.2004 13.2C47.8004 13.4 48.2004 16.4 48.2004 17.2V28.6C48.2004 29.6 48.7004 30.1 49.6004 30.1C50.5004 30.1 51.0004 29.7 51.0004 28.9V28.3C52.0004 29.6 53.3004 30.3 55.0004 30.3C56.7004 30.3 58.1004 29.7 59.1004 28.4C60.1004 27.1 60.6004 25.5 60.6004 23.4C60.6004 21.5 60.1004 19.9 59.2004 18.7C58.2004 17.5 57.0004 16.9 55.6004 16.9ZM54.3004 27.1C52.8004 27.1 52.0004 25.9 52.0004 23.6C52.0004 22.6 52.2004 21.8 52.7004 21.1C53.1004 20.4 53.7004 20.1 54.4004 20.1C55.8004 20.1 56.5004 21.3 56.5004 23.6C56.5004 25.9 55.7004 27.1 54.3004 27.1V27.1ZM75.6004 27C75.3004 27 75.1004 26.6 75.1004 25.7V22C75.1004 20.6 74.9004 19.5 74.5004 18.8C73.8004 17.5 72.6004 16.9 70.8004 16.9C69.2004 16.9 67.7004 17.7 66.5004 19.2V18C66.5004 17.5 66.3004 17.3 65.8004 17.3C65.8004 17.3 65.5004 17.3 65.0004 17.4C64.5004 17.5 64.2004 17.5 64.0004 17.5C63.8004 17.5 63.6004 17.5 63.3004 17.4C62.9004 17.3 62.6004 17.3 62.5004 17.3C62.0004 17.3 61.7004 17.5 61.4004 17.8C61.2004 18 61.0004 18.5 61.0004 19C61.0004 19.9 61.4004 20.4 62.2004 20.4C62.3004 20.4 62.4004 20.4 62.6004 20.3C62.8004 20.2 62.9004 20.2 63.0004 20.2C63.3004 20.2 63.4004 20.7 63.4004 21.6V25.6C63.4004 26.5 63.3004 27 63.0004 27C62.9004 27 62.8004 27 62.6004 26.9C62.4004 26.8 62.3004 26.8 62.2004 26.8C61.4004 26.8 61.0004 27.3 61.0004 28.2C61.0004 29.3 61.5004 29.9 62.6004 29.9C62.9004 29.9 63.3004 29.9 63.9004 29.8C64.5004 29.7 64.9004 29.7 65.2004 29.7C65.5004 29.7 66.0004 29.7 66.6004 29.8C67.0004 29.9 67.3004 29.9 67.5004 29.9C68.4004 29.9 68.8004 29.4 68.8004 28.3C68.8004 27.5 68.5004 27 67.9004 27C67.6004 27 67.4004 26.8 67.3004 26.7C67.2004 26.5 67.2004 26.1 67.2004 25.3V22.7C67.2004 22 67.4004 21.4 67.9004 20.9C68.3004 20.4 68.9004 20.2 69.6004 20.2C70.2004 20.2 70.6004 20.4 70.9004 20.8C71.2004 21.2 71.3004 21.9 71.3004 22.8V26.3C71.3004 26.7 71.1004 26.9 70.6004 26.9C69.9004 26.9 69.6004 27.4 69.6004 28.3C69.6004 29.3 70.1004 29.8 71.1004 29.8C71.4004 29.8 71.8004 29.8 72.2004 29.7C72.7004 29.6 73.1004 29.6 73.5004 29.6C73.8004 29.6 74.2004 29.6 74.7004 29.7C75.2004 29.8 76.3004 30.2 76.3004 29C76.3004 28.1 76.5004 27.6 76.3004 26.9C76.3004 26.9 75.7004 27 75.6004 27V27Z" fill="#43338A"/>
</g>
<defs>
<clipPath id="clip0">
<rect width="89.1" height="44.8" fill="white"/>
</clipPath>
</defs>
</svg>
