<svg width="87" height="56" viewBox="0 0 87 56" fill="none" xmlns="http://www.w3.org/2000/svg">
<path fill-rule="evenodd" clip-rule="evenodd" d="M11.175 12.3001C10.7981 11.897 10.3538 11.5626 9.862 11.3121C9.404 11.0871 8.858 10.9751 8.225 10.9751C7.608 10.9751 7.071 11.0871 6.613 11.3131C6.153 11.5381 5.771 11.8461 5.463 12.2381C5.153 12.6281 4.921 13.0781 4.763 13.5881C4.603 14.0961 4.525 14.6251 4.525 15.1751C4.525 15.7251 4.617 16.2451 4.8 16.7381C4.983 17.2281 5.242 17.6581 5.575 18.0251C5.908 18.3921 6.308 18.6791 6.775 18.8881C7.27206 19.1022 7.80885 19.2085 8.35 19.2001C8.983 19.2001 9.525 19.0881 9.975 18.8631C10.425 18.6371 10.842 18.3081 11.225 17.8751L12.825 19.4751C12.2731 20.104 11.5729 20.5852 10.788 20.8751C9.99844 21.1607 9.16462 21.3046 8.325 21.3001C7.408 21.3001 6.571 21.1501 5.812 20.8501C5.079 20.5667 4.41143 20.137 3.85 19.5871C3.29182 19.0346 2.85724 18.37 2.575 17.6371C2.275 16.8791 2.125 16.0421 2.125 15.1251C2.125 14.2081 2.275 13.3671 2.575 12.6001C2.875 11.8331 3.295 11.1751 3.837 10.6251C4.379 10.0751 5.029 9.6451 5.787 9.3381C6.547 9.0281 7.392 8.8751 8.325 8.8751C9.192 8.8751 10.021 9.0291 10.812 9.3381C11.604 9.6461 12.292 10.1181 12.875 10.7501L11.175 12.3001V12.3001ZM15.195 2.1001H17.445V10.9751H17.495C17.778 10.3421 18.269 9.8291 18.969 9.4381C19.669 9.0461 20.477 8.8501 21.393 8.8501C21.96 8.8501 22.506 8.9371 23.031 9.1131C23.556 9.2881 24.014 9.5581 24.406 9.9251C24.798 10.2921 25.11 10.7621 25.343 11.3381C25.577 11.9131 25.693 12.5921 25.693 13.3751V21.0001H23.443V14.0001C23.443 13.4501 23.368 12.9801 23.218 12.5881C23.068 12.1961 22.868 11.8781 22.618 11.6381C22.374 11.3998 22.0788 11.2203 21.755 11.1131C21.4286 11.0036 21.0863 10.9485 20.742 10.9501C20.276 10.9501 19.842 11.0251 19.442 11.1751C19.042 11.3251 18.692 11.5621 18.392 11.8871C18.092 12.2131 17.859 12.6251 17.692 13.1251C17.526 13.6251 17.442 14.2171 17.442 14.9001V21.0001H15.192V2.1001H15.195ZM29.589 10.6001C30.2242 10.0157 30.9731 9.56873 31.789 9.2871C32.5917 9.00158 33.437 8.85383 34.289 8.8501C35.155 8.8501 35.899 8.9581 36.525 9.1751C37.15 9.3921 37.663 9.6831 38.063 10.0501C38.463 10.4171 38.759 10.8371 38.95 11.3121C39.143 11.7881 39.24 12.2821 39.24 12.8001V18.8501C39.24 19.2671 39.247 19.6501 39.264 20.0001C39.281 20.3501 39.306 20.6831 39.339 21.0001H37.339C37.289 20.4001 37.263 19.8001 37.263 19.2001H37.213C36.713 19.9671 36.121 20.5081 35.438 20.8251C34.754 21.1421 33.962 21.3001 33.062 21.3001C32.512 21.3001 31.987 21.2251 31.487 21.0751C30.987 20.9251 30.547 20.7001 30.173 20.4001C29.7981 20.1002 29.4951 19.7203 29.286 19.2881C29.068 18.8461 28.96 18.3331 28.96 17.7501C28.96 16.9831 29.13 16.3421 29.472 15.8251C29.814 15.3081 30.282 14.8881 30.872 14.5631C31.464 14.2371 32.156 14.0031 32.947 13.8631C33.74 13.7211 34.587 13.6501 35.487 13.6501H37.137V13.1501C37.1328 12.5101 36.8817 11.8964 36.436 11.4371C36.1874 11.1866 35.8889 10.9911 35.56 10.8631C35.21 10.7211 34.793 10.6501 34.31 10.6501C33.877 10.6501 33.497 10.6921 33.172 10.7751C32.847 10.8581 32.552 10.9621 32.285 11.0881C32.017 11.2131 31.775 11.3581 31.559 11.5251C31.342 11.6921 31.134 11.8501 30.934 12.0001L29.584 10.6001H29.589ZM35.939 15.3001C35.405 15.3001 34.859 15.3301 34.299 15.3871C33.7792 15.4375 33.2674 15.551 32.775 15.7251C32.3518 15.8701 31.9671 16.1095 31.65 16.4251C31.36 16.7251 31.214 17.1081 31.214 17.5751C31.214 18.2581 31.444 18.7501 31.901 19.0501C32.361 19.3501 32.981 19.5001 33.765 19.5001C34.382 19.5001 34.907 19.3961 35.34 19.1871C35.772 18.9791 36.122 18.7071 36.39 18.3751C36.656 18.0421 36.847 17.6711 36.964 17.2621C37.0788 16.8683 37.1377 16.4603 37.139 16.0501V15.3001H35.939V15.3001ZM42.957 9.1501H45.207V10.9751H45.257C45.541 10.3421 46.032 9.8291 46.732 9.4381C47.432 9.0461 48.242 8.8501 49.157 8.8501C49.724 8.8501 50.27 8.9371 50.795 9.1131C51.32 9.2881 51.778 9.5581 52.17 9.9251C52.563 10.2921 52.875 10.7621 53.108 11.3381C53.342 11.9131 53.458 12.5921 53.458 13.3751V21.0001H51.208V14.0001C51.208 13.4501 51.133 12.9801 50.983 12.5881C50.833 12.1961 50.633 11.8781 50.383 11.6381C50.1393 11.3998 49.8445 11.2203 49.521 11.1131C49.1949 11.0035 48.853 10.9484 48.509 10.9501C48.043 10.9501 47.609 11.0251 47.209 11.1751C46.809 11.3251 46.459 11.5621 46.159 11.8871C45.859 12.2131 45.626 12.6251 45.459 13.1251C45.293 13.6251 45.209 14.2171 45.209 14.9001V21.0001H42.959V9.1501H42.957ZM69.177 20.9001C69.177 21.8001 69.023 22.6201 68.714 23.3631C68.4156 24.0892 67.9687 24.7449 67.402 25.2881C66.835 25.8281 66.152 26.2501 65.352 26.5501C64.552 26.8501 63.668 27.0001 62.702 27.0001C61.568 27.0001 60.532 26.8421 59.589 26.5251C58.649 26.2081 57.752 25.6581 56.902 24.8751L58.427 22.9751C59.01 23.6081 59.643 24.0871 60.327 24.4131C61.01 24.7381 61.785 24.9001 62.652 24.9001C63.485 24.9001 64.177 24.7801 64.727 24.5381C65.277 24.2961 65.714 23.9831 66.039 23.6001C66.364 23.2171 66.593 22.7801 66.727 22.2871C66.86 21.7971 66.927 21.3001 66.927 20.8001V19.0501H66.852C66.4409 19.7473 65.8254 20.3013 65.089 20.6371C64.357 20.9772 63.5592 21.1523 62.752 21.1501C61.885 21.1501 61.082 20.9961 60.339 20.6881C59.6228 20.3954 58.9726 19.9618 58.427 19.4131C57.8867 18.8608 57.4618 18.2064 57.177 17.4881C56.8721 16.7205 56.7193 15.901 56.727 15.0751C56.727 14.2081 56.867 13.3951 57.152 12.6371C57.4214 11.9015 57.8333 11.2263 58.364 10.6501C58.8964 10.0789 59.544 9.62723 60.264 9.3251C61.006 9.0081 61.834 8.8501 62.752 8.8501C63.552 8.8501 64.332 9.0251 65.089 9.3751C65.849 9.7251 66.443 10.2171 66.877 10.8501H66.927V9.1501H69.177V20.9001V20.9001ZM63.027 10.9501C62.427 10.9501 61.885 11.0541 61.402 11.2631C60.918 11.4711 60.51 11.7531 60.177 12.1131C59.843 12.4711 59.585 12.9031 59.402 13.4131C59.214 13.9468 59.1209 14.5093 59.127 15.0751C59.127 16.2751 59.477 17.2371 60.177 17.9631C60.877 18.6881 61.827 19.0501 63.027 19.0501C64.227 19.0501 65.177 18.6881 65.877 17.9621C66.577 17.2371 66.927 16.2751 66.927 15.0751C66.927 14.4751 66.835 13.9211 66.652 13.4131C66.4848 12.9315 66.2211 12.4892 65.877 12.1131C65.533 11.7467 65.1156 11.4571 64.652 11.2631C64.168 11.0531 63.627 10.9501 63.027 10.9501V10.9501ZM74.721 15.9001C74.721 16.4171 74.834 16.8871 75.059 17.3121C75.284 17.7381 75.579 18.1001 75.946 18.4001C76.313 18.7001 76.738 18.9331 77.221 19.1001C77.705 19.2671 78.205 19.3501 78.721 19.3501C79.421 19.3501 80.031 19.1881 80.546 18.8621C81.0884 18.5142 81.5699 18.0794 81.971 17.5751L83.671 18.8751C82.421 20.4921 80.671 21.3001 78.421 21.3001C77.488 21.3001 76.641 21.1421 75.884 20.8251C75.156 20.5298 74.4996 20.0821 73.959 19.5121C73.4261 18.942 73.0135 18.2703 72.746 17.5371C72.4576 16.7486 72.3137 15.9146 72.321 15.0751C72.321 14.1921 72.475 13.3711 72.784 12.6131C73.0765 11.8778 73.5096 11.2066 74.059 10.6371C74.609 10.0729 75.268 9.62652 75.996 9.3251C76.7723 9.00314 77.6057 8.84157 78.446 8.8501C79.496 8.8501 80.384 9.0331 81.109 9.4001C81.834 9.7671 82.429 10.2461 82.896 10.8381C83.363 11.4281 83.7 12.0961 83.909 12.8381C84.117 13.5781 84.221 14.3331 84.221 15.1001V15.9001H74.721V15.9001ZM81.821 14.1001C81.8101 13.6326 81.7303 13.1693 81.584 12.7251C81.4503 12.3215 81.2329 11.9508 80.946 11.6371C80.6499 11.3199 80.2872 11.0723 79.884 10.9121C79.459 10.7371 78.964 10.6501 78.396 10.6501C77.6702 10.6456 76.9593 10.8555 76.3523 11.2535C75.7453 11.6514 75.2693 12.2197 74.984 12.8871C74.8147 13.2693 74.7252 13.6821 74.721 14.1001H81.821V14.1001Z" fill="#2B2B37"/>
<path fill-rule="evenodd" clip-rule="evenodd" d="M40.3771 53.5761C38.6491 53.5761 37.0591 53.2721 35.6091 52.6641C34.1571 52.0561 32.9141 51.2191 31.8791 50.1521C30.8307 49.0638 30.0052 47.7811 29.4491 46.3761C28.8611 44.9261 28.5691 43.3561 28.5691 41.6721C28.5691 39.9871 28.8611 38.4191 29.4491 36.9681C30.0341 35.5181 30.8451 34.2581 31.8791 33.1921C32.9141 32.1251 34.1571 31.2881 35.6091 30.6801C37.0591 30.0721 38.6491 29.7681 40.3761 29.7681C42.1041 29.7681 43.6931 30.0721 45.1441 30.6801C46.5941 31.2881 47.8371 32.1251 48.8721 33.1921C49.9061 34.2591 50.7171 35.5171 51.3041 36.9681C51.8901 38.4181 52.1841 39.9881 52.1841 41.6721C52.1841 43.3571 51.8901 44.9251 51.3041 46.3761C50.7171 47.8261 49.9061 49.0861 48.8721 50.1521C47.8371 51.2191 46.5941 52.0561 45.1441 52.6641C43.6941 53.2721 42.1041 53.5761 40.3761 53.5761H40.3771ZM40.3771 50.6961C41.6771 50.6961 42.8511 50.4561 43.8971 49.9761C44.9134 49.5166 45.8273 48.8584 46.5851 48.0401C47.3441 47.2085 47.9313 46.2352 48.3131 45.1761C48.7181 44.0761 48.9211 42.9091 48.9211 41.6721C48.9211 40.4351 48.7191 39.2671 48.3141 38.1681C47.9323 37.1089 47.3451 36.1356 46.5861 35.3041C45.8282 34.4859 44.9143 33.8276 43.8981 33.3681C42.8521 32.8881 41.6781 32.6481 40.3781 32.6481C39.0761 32.6481 37.9031 32.8881 36.8581 33.3681C35.8414 33.8267 34.9273 34.4851 34.1701 35.3041C33.4098 36.135 32.8218 37.1084 32.4401 38.1681C32.0351 39.2681 31.8331 40.4351 31.8331 41.6721C31.8331 42.9091 32.0351 44.0771 32.4411 45.1761C32.8228 46.2357 33.4108 47.2091 34.1711 48.0401C34.9278 48.8591 35.8416 49.5175 36.8581 49.9761C37.9031 50.4561 39.0761 50.6961 40.3781 50.6961H40.3771ZM3.91211 30.3441H7.94411L20.4241 48.9681H20.4881V30.3441H23.5601V53.0001H19.6561L7.04811 34.3761H6.98411V53.0001H3.91211V30.3441ZM54.3131 30.3441H57.5131L62.5051 48.4561H62.5691L67.9121 30.3441H71.4321L76.7761 48.4561H76.8401L81.8331 30.3441H85.0331L78.4401 53.0001H75.2101L69.7051 34.5041H69.6411L64.1701 53.0001H60.9371" fill="#3BEE81"/>
</svg>
