<?xml version="1.0" standalone="no"?><!-- Generator: Gravit.io --><svg xmlns="http://www.w3.org/2000/svg" xmlns:xlink="http://www.w3.org/1999/xlink" style="isolation:isolate" viewBox="1130 414 135.43 23.65" width="135.43" height="23.65"><g><path d=" M 1140.783 430.539 C 1139.794 431.816 1138.074 432.493 1136.277 432.493 C 1132.553 432.493 1130 430.07 1130 426.372 C 1130 422.96 1132.5 420.251 1135.939 420.251 C 1137.814 420.251 1139.455 420.694 1140.549 421.788 L 1139.585 423.429 C 1138.595 422.517 1137.449 422.205 1136.225 422.205 C 1134.116 422.205 1132.214 423.898 1132.214 426.372 C 1132.214 428.951 1134.116 430.539 1136.433 430.539 C 1137.84 430.539 1139.012 429.914 1139.794 429.029 L 1140.783 430.539 Z " fill-rule="evenodd" fill="rgb(22,36,116)"/><path d=" M 1144.049 414 L 1146.133 414 L 1146.133 421.866 C 1146.993 420.98 1148.477 420.303 1149.962 420.303 C 1153.009 420.303 1154.833 421.84 1154.833 425.512 L 1154.833 432.232 L 1152.749 432.232 L 1152.749 425.799 C 1152.749 423.455 1151.629 422.257 1149.467 422.257 C 1148.165 422.257 1146.862 422.908 1146.133 423.741 L 1146.133 432.232 L 1144.049 432.232 L 1144.049 414 Z " fill-rule="evenodd" fill="rgb(22,36,116)"/><path d=" M 1165.61 429.029 L 1165.61 427.544 C 1164.881 427.023 1163.996 426.763 1162.98 426.763 C 1161.73 426.763 1160.479 427.336 1160.479 428.69 C 1160.479 429.81 1161.235 430.539 1162.589 430.539 C 1164.126 430.539 1165.011 429.732 1165.61 429.029 Z  M 1159.177 421.319 C 1160.219 420.668 1161.625 420.251 1163.084 420.251 C 1166.418 420.251 1167.59 421.996 1167.59 425.044 L 1167.59 432.232 L 1165.61 432.232 L 1165.61 430.722 C 1164.907 431.607 1163.787 432.415 1161.86 432.415 C 1159.724 432.415 1158.266 431.06 1158.266 428.794 C 1158.266 426.398 1160.167 425.07 1162.693 425.07 C 1163.605 425.07 1164.829 425.252 1165.61 425.825 C 1165.61 423.637 1165.272 422.126 1162.954 422.126 C 1161.521 422.126 1160.662 422.491 1159.724 422.986 L 1159.177 421.319 Z " fill-rule="evenodd" fill="rgb(22,36,116)"/><path d=" M 1171.875 420.512 L 1173.958 420.512 L 1173.958 421.944 C 1174.766 421.058 1176.25 420.303 1177.787 420.303 C 1180.834 420.303 1182.658 421.788 1182.658 425.46 L 1182.658 432.232 L 1180.574 432.232 L 1180.574 425.851 C 1180.574 423.403 1179.454 422.257 1177.266 422.257 C 1175.938 422.257 1174.714 422.908 1173.958 423.767 L 1173.958 432.232 L 1171.875 432.232 L 1171.875 420.512 Z " fill-rule="evenodd" fill="rgb(22,36,116)"/><path d=" M 1191.316 427.075 C 1192.956 427.075 1194.155 426.059 1194.155 424.549 C 1194.155 423.09 1193.061 421.944 1191.316 421.944 C 1189.597 421.944 1188.476 423.09 1188.476 424.549 C 1188.476 426.007 1189.597 427.075 1191.316 427.075 Z  M 1191.342 435.957 C 1193.764 435.957 1195.353 435.254 1195.353 433.925 C 1195.353 432.623 1193.842 431.842 1191.342 431.842 C 1188.841 431.842 1187.331 432.623 1187.331 433.925 C 1187.331 435.228 1188.919 435.957 1191.342 435.957 Z  M 1189.128 430.357 C 1188.919 430.097 1188.841 429.732 1188.841 429.393 C 1188.841 429.029 1188.946 428.664 1189.154 428.404 C 1187.487 427.726 1186.523 426.268 1186.523 424.549 C 1186.523 422.205 1188.373 420.251 1191.316 420.251 C 1192.461 420.251 1193.477 420.564 1194.285 421.11 L 1197.723 420.277 L 1197.775 421.97 L 1195.561 422.517 C 1195.926 423.116 1196.108 423.819 1196.108 424.549 C 1196.108 426.893 1194.207 428.768 1191.316 428.768 C 1191.055 428.768 1190.795 428.768 1190.534 428.742 C 1190.43 428.951 1190.404 429.185 1190.404 429.393 C 1190.404 429.68 1190.482 429.966 1190.638 430.175 C 1190.873 430.175 1191.107 430.149 1191.342 430.149 C 1194.754 430.149 1197.306 431.373 1197.306 433.925 C 1197.306 436.426 1194.754 437.65 1191.342 437.65 C 1187.93 437.65 1185.377 436.478 1185.377 433.925 C 1185.377 432.024 1186.888 430.826 1189.128 430.357 Z " fill-rule="evenodd" fill="rgb(22,36,116)"/><path d=" M 1201.935 425.33 L 1209.045 425.33 C 1208.941 423.403 1207.691 422.205 1205.659 422.205 C 1203.523 422.205 1202.169 423.533 1201.935 425.33 Z  M 1210.399 430.956 C 1209.254 431.998 1207.56 432.493 1205.998 432.493 C 1202.195 432.493 1199.721 430.07 1199.721 426.372 C 1199.721 422.96 1201.908 420.251 1205.763 420.251 C 1208.784 420.251 1211.207 422.387 1211.207 425.617 C 1211.207 426.19 1211.155 426.658 1211.077 427.023 L 1202.065 427.023 C 1202.247 429.237 1203.862 430.539 1206.154 430.539 C 1207.665 430.539 1208.993 430.018 1209.748 429.315 L 1210.399 430.956 Z " fill-rule="evenodd" fill="rgb(22,36,116)"/><path d=" M 1214.858 414 L 1216.942 414 L 1216.942 421.866 C 1217.802 420.98 1219.286 420.303 1220.771 420.303 C 1223.818 420.303 1225.642 421.84 1225.642 425.512 L 1225.642 432.232 L 1223.558 432.232 L 1223.558 425.799 C 1223.558 423.455 1222.438 422.257 1220.276 422.257 C 1218.974 422.257 1217.672 422.908 1216.942 423.741 L 1216.942 432.232 L 1214.858 432.232 L 1214.858 414 Z " fill-rule="evenodd" fill="rgb(0,153,247)"/><path d=" M 1231.414 425.33 L 1238.524 425.33 C 1238.42 423.403 1237.17 422.205 1235.138 422.205 C 1233.002 422.205 1231.648 423.533 1231.414 425.33 Z  M 1239.878 430.956 C 1238.733 431.998 1237.039 432.493 1235.477 432.493 C 1231.674 432.493 1229.2 430.07 1229.2 426.372 C 1229.2 422.96 1231.387 420.251 1235.242 420.251 C 1238.263 420.251 1240.686 422.387 1240.686 425.617 C 1240.686 426.19 1240.634 426.658 1240.556 427.023 L 1231.544 427.023 C 1231.726 429.237 1233.341 430.539 1235.633 430.539 C 1237.144 430.539 1238.472 430.018 1239.227 429.315 L 1239.878 430.956 Z " fill-rule="evenodd" fill="rgb(0,153,247)"/><path d=" M 1244.338 420.512 L 1246.421 420.512 L 1246.421 421.892 C 1247.02 421.006 1247.88 420.303 1249.365 420.303 C 1250.328 420.303 1250.797 420.459 1251.187 420.746 L 1250.458 422.7 C 1249.885 422.361 1249.573 422.257 1248.87 422.257 C 1247.515 422.257 1246.864 423.064 1246.421 423.924 L 1246.421 432.232 L 1244.338 432.232 L 1244.338 420.512 Z " fill-rule="evenodd" fill="rgb(0,153,247)"/><path d=" M 1259.178 430.539 C 1261.523 430.539 1263.216 428.872 1263.216 426.372 C 1263.216 423.924 1261.523 422.205 1259.178 422.205 C 1256.887 422.205 1255.141 423.898 1255.141 426.372 C 1255.141 428.82 1256.834 430.539 1259.178 430.539 Z  M 1259.178 420.251 C 1262.929 420.251 1265.43 422.856 1265.43 426.372 C 1265.43 429.888 1262.929 432.493 1259.178 432.493 C 1255.428 432.493 1252.927 429.888 1252.927 426.372 C 1252.927 422.856 1255.428 420.251 1259.178 420.251 Z " fill-rule="evenodd" fill="rgb(0,153,247)"/></g></svg>