<?xml version="1.0" standalone="no"?><!-- Generator: Gravit.io --><svg xmlns="http://www.w3.org/2000/svg" xmlns:xlink="http://www.w3.org/1999/xlink" style="isolation:isolate" viewBox="-941.961 404 823.961 92" width="823.961" height="92"><path d=" M -941.96 451.365 L -941.96 451.113 C -941.96 426.568 -923.823 406.239 -898.582 406.239 C -883.023 406.239 -873.706 411.817 -865.131 419.998 L -871.746 427.19 C -878.974 420.246 -887.065 415.285 -898.706 415.285 C -917.697 415.285 -931.909 430.91 -931.909 450.867 L -931.909 451.114 C -931.909 471.201 -917.573 486.948 -898.706 486.948 C -886.94 486.948 -879.223 482.36 -871.013 474.426 L -864.642 480.75 C -873.582 489.921 -883.388 495.997 -898.947 495.997 C -923.699 495.997 -941.961 476.287 -941.961 451.367 L -941.96 451.365 Z  M -745.161 494.511 L -745.161 407.727 L -735.48 407.727 L -735.48 494.511 L -745.161 494.511 Z  M -710.366 407.727 L -701.298 407.727 L -647.26 477.275 L -647.26 407.727 L -637.823 407.727 L -637.823 494.511 L -645.544 494.511 L -700.93 423.346 L -700.93 494.511 L -710.367 494.511 L -710.367 407.727 L -710.366 407.727 Z  M -541.974 407.727 L -521.757 407.727 L -503.989 466.492 L -484.754 407.475 L -468.578 407.475 L -449.342 466.492 L -431.57 407.727 L -411.842 407.727 L -441.132 495.131 L -457.548 495.131 L -476.912 438.345 L -496.271 495.131 L -512.688 495.131 L -541.974 407.727 L -541.974 407.727 Z  M -397.013 494.511 L -397.013 407.727 L -378.143 407.727 L -378.143 494.511 L -397.013 494.511 Z  M -336.728 425.33 L -362.826 425.33 L -362.826 407.725 L -291.753 407.725 L -291.753 425.33 L -317.856 425.33 L -317.856 494.511 L -336.726 494.511 L -336.726 425.33 L -336.728 425.33 Z  M -776.547 451.367 L -776.547 451.116 C -776.547 431.406 -790.763 415.286 -810.367 415.286 C -829.971 415.286 -843.942 431.158 -843.942 450.868 L -843.942 451.115 C -843.942 470.833 -829.726 486.949 -810.122 486.949 C -790.514 486.949 -776.547 471.08 -776.547 451.367 M -853.987 451.367 L -853.987 451.115 C -853.987 427.191 -836.223 406.242 -810.121 406.242 C -784.019 406.242 -766.499 426.945 -766.499 450.867 L -766.499 451.115 C -766.499 475.047 -784.267 495.997 -810.365 495.997 C -836.464 495.997 -853.987 475.289 -853.987 451.367 L -853.987 451.367 Z  M -284.774 451.367 L -284.774 451.115 C -284.774 426.445 -266.393 406.242 -240.048 406.242 C -223.872 406.242 -214.194 411.693 -206.229 419.627 L -218.236 433.638 C -224.855 427.561 -231.589 423.842 -240.169 423.842 C -254.625 423.842 -265.044 435.995 -265.044 450.869 L -265.044 451.117 C -265.044 465.995 -254.874 478.395 -240.169 478.395 C -230.367 478.395 -224.365 474.428 -217.622 468.23 L -205.615 480.505 C -214.435 490.049 -224.237 496 -240.782 496 C -266.022 496 -284.772 476.29 -284.772 451.37 L -284.774 451.367 Z  M -190.543 407.725 L -171.672 407.725 L -171.672 442.066 L -136.874 442.066 L -136.874 407.725 L -118 407.725 L -118 494.509 L -136.874 494.509 L -136.874 459.669 L -171.672 459.669 L -171.672 494.509 L -190.543 494.509 L -190.543 407.725 Z  M -596.643 487.845 C -596.696 487.882 -596.736 487.926 -596.784 487.959 C -597.289 488.34 -597.826 488.665 -598.391 488.953 L -598.399 488.957 C -599.566 489.549 -600.841 489.918 -602.196 490.052 L -602.2 490.052 C -602.541 490.084 -602.873 490.153 -603.226 490.153 L -603.447 490.153 C -609.436 490.032 -614.195 485.018 -614.075 478.958 C -613.954 472.97 -609.12 468.204 -603.234 468.204 L -603.01 468.204 C -597.237 468.326 -592.659 472.991 -592.434 478.747 C -592.426 478.97 -592.382 479.177 -592.386 479.4 C -592.394 480.126 -592.486 480.832 -592.635 481.509 C -592.695 481.797 -592.807 482.065 -592.887 482.345 C -593.004 482.718 -593.1 483.099 -593.248 483.452 C -593.405 483.825 -593.609 484.17 -593.805 484.519 C -593.93 484.742 -594.042 484.977 -594.178 485.192 C -594.451 485.606 -594.764 485.987 -595.084 486.36 C -595.185 486.47 -595.269 486.592 -595.373 486.697 C -595.762 487.119 -596.195 487.492 -596.644 487.845 L -596.643 487.845 Z  M -576.074 418.944 C -576.17 418.348 -576.23 417.74 -576.218 417.111 C -576.206 416.45 -576.114 415.817 -575.989 415.188 C -575.957 415.018 -575.917 414.848 -575.877 414.677 C -575.745 414.146 -575.581 413.627 -575.376 413.132 C -575.292 412.921 -575.188 412.726 -575.091 412.523 C -574.915 412.166 -574.723 411.813 -574.51 411.481 C -574.346 411.217 -574.173 410.97 -573.989 410.722 C -573.857 410.548 -573.712 410.386 -573.572 410.219 C -573.131 409.7 -572.65 409.226 -572.117 408.8 C -572.045 408.739 -571.976 408.678 -571.9 408.621 C -571.56 408.362 -571.211 408.118 -570.838 407.895 C -569.226 406.942 -567.374 406.358 -565.378 406.358 L -565.153 406.358 C -559.164 406.479 -554.409 411.493 -554.529 417.553 C -554.646 423.536 -559.476 428.307 -565.37 428.307 L -565.594 428.307 C -570.393 428.209 -574.354 424.944 -575.693 420.543 C -575.853 420.02 -575.99 419.492 -576.074 418.945 L -576.074 418.944 Z  M -577.072 440.999 C -559.769 445.939 -550.096 452.462 -550.396 467.584 L -550.4 467.831 C -550.621 479.072 -556.322 486.965 -565.386 491.001 L -565.374 491.017 C -572.314 494.956 -589.015 495.431 -597.726 495.398 C -591.196 493.098 -586.401 486.86 -586.257 479.526 C -586.249 479.177 -586.277 478.836 -586.289 478.491 C -582.833 478.195 -579.289 477.619 -575.721 476.552 L -575.721 476.54 C -571.644 475.396 -569.251 472.881 -569.179 469.308 L -569.175 469.06 C -569.078 464.225 -571.973 461.69 -586.229 457.679 C -603.411 452.864 -614.464 447.801 -614.123 430.574 L -614.119 430.327 C -613.915 420.243 -608.619 412.471 -600.244 408.269 L -600.256 408.244 C -593.914 404.379 -582.721 403.904 -576.038 404.014 C -579.791 407.105 -582.24 411.769 -582.344 416.986 C -582.369 418.272 -582.244 419.521 -582 420.73 C -584.79 420.989 -587.5 421.561 -590.795 422.786 C -593.718 424.076 -595.29 426.328 -595.342 428.972 L -595.346 429.22 C -595.458 434.919 -591.822 436.854 -577.073 440.999 L -577.072 440.999 Z " fill-rule="evenodd" fill="rgb(0,0,0)"/></svg>