<svg width="267" height="45" viewBox="0 0 267 45" fill="none" xmlns="http://www.w3.org/2000/svg">
<path fill-rule="evenodd" clip-rule="evenodd" d="M160.47 3.50019C161.433 3.48848 162.317 4.03122 162.743 4.89538L179.243 38.3954C179.624 39.1703 179.579 40.0873 179.123 40.8207C178.666 41.5541 177.864 42 177 42H145C144.147 42 143.353 41.5651 142.894 40.8464C142.434 40.1277 142.373 39.2243 142.731 38.4502L158.231 4.95021C158.636 4.07596 159.506 3.51189 160.47 3.50019ZM160.571 11.8012L148.911 37H172.982L160.571 11.8012Z" fill="#1C243B"/>
<path d="M69.3148 42.2767C68.4714 42.2767 67.7931 42.02 67.2798 41.5067C66.7664 40.9567 66.5098 40.26 66.5098 39.4167V5.97666C66.5098 5.13333 66.7481 4.47333 67.2248 3.99666C67.7381 3.48333 68.4348 3.22666 69.3148 3.22666H89.0048C90.7648 3.22666 91.6448 3.99666 91.6448 5.53666C91.6448 7.07666 90.7648 7.84666 89.0048 7.84666H72.1198V20.0017H87.9048C89.6648 20.0017 90.5448 20.7717 90.5448 22.3117C90.5448 23.8517 89.6648 24.6217 87.9048 24.6217H72.1198V39.4167C72.1198 40.2967 71.8631 40.9933 71.3498 41.5067C70.8731 42.02 70.1948 42.2767 69.3148 42.2767Z" fill="#1C243B"/>
<path d="M108.89 42.0017C108.047 42.0017 107.368 41.7633 106.855 41.2867C106.378 40.81 106.14 40.1683 106.14 39.3617V5.81166C106.14 4.96833 106.397 4.28999 106.91 3.77666C107.423 3.22666 108.102 2.95166 108.945 2.95166C109.825 2.95166 110.522 3.20832 111.035 3.72166C111.548 4.23499 111.805 4.93166 111.805 5.81166V37.2717H128.525C129.368 37.2717 130.01 37.4733 130.45 37.8767C130.927 38.28 131.165 38.8667 131.165 39.6367C131.165 40.4067 130.927 40.9933 130.45 41.3967C130.01 41.8 129.368 42.0017 128.525 42.0017H108.89Z" fill="#1C243B"/>
<path d="M223.868 38.4817C224.198 38.9583 224.363 39.4717 224.363 40.0217C224.363 40.6817 224.088 41.25 223.538 41.7267C223.024 42.1667 222.419 42.3867 221.723 42.3867C220.696 42.3867 219.871 41.9283 219.248 41.0117L211.878 29.5717C211.034 28.2517 210.136 27.335 209.183 26.8217C208.229 26.2717 206.983 25.9967 205.443 25.9967H199.228V39.4167C199.228 40.2967 198.971 40.9933 198.458 41.5067C197.981 42.02 197.303 42.2767 196.423 42.2767C195.579 42.2767 194.901 42.02 194.388 41.5067C193.874 40.9933 193.618 40.2967 193.618 39.4167V5.97666C193.618 5.13333 193.856 4.47333 194.333 3.99666C194.846 3.48333 195.543 3.22666 196.423 3.22666H210.118C214.408 3.22666 217.671 4.17999 219.908 6.08666C222.181 7.99333 223.318 10.78 223.318 14.4467C223.318 17.49 222.456 19.965 220.733 21.8717C219.009 23.7417 216.553 24.9333 213.363 25.4467C214.316 25.7033 215.178 26.1617 215.948 26.8217C216.718 27.4817 217.469 28.3983 218.203 29.5717L223.868 38.4817ZM209.458 21.4317C212.318 21.4317 214.426 20.8817 215.783 19.7817C217.176 18.645 217.873 16.9033 217.873 14.5567C217.873 12.21 217.194 10.505 215.838 9.44166C214.481 8.34166 212.354 7.79166 209.458 7.79166H199.173V21.4317H209.458Z" fill="#1C243B"/>
<path d="M243.196 42.0017C242.316 42.0017 241.62 41.7633 241.106 41.2867C240.63 40.7733 240.391 40.095 240.391 39.2517V5.97666C240.391 5.13333 240.63 4.47333 241.106 3.99666C241.62 3.48333 242.316 3.22666 243.196 3.22666H263.436C264.28 3.22666 264.921 3.42833 265.361 3.83166C265.838 4.23499 266.076 4.80333 266.076 5.53666C266.076 6.26999 265.838 6.83833 265.361 7.24166C264.921 7.60833 264.28 7.79166 263.436 7.79166H245.946V20.0017H262.336C263.18 20.0017 263.821 20.2033 264.261 20.6067C264.738 21.01 264.976 21.5783 264.976 22.3117C264.976 23.045 264.738 23.6133 264.261 24.0167C263.821 24.42 263.18 24.6217 262.336 24.6217H245.946V37.4367H263.436C265.196 37.4367 266.076 38.1883 266.076 39.6917C266.076 40.425 265.838 40.9933 265.361 41.3967C264.921 41.8 264.28 42.0017 263.436 42.0017H243.196Z" fill="#1C243B"/>
<path fill-rule="evenodd" clip-rule="evenodd" d="M22.5 40C29.6419 40 35.7846 35.7218 38.505 29.5883C37.3806 29.8575 36.2069 30 35 30C26.7157 30 20 23.2843 20 15C20 11.1804 21.4277 7.69421 23.7785 5.04599C23.3563 5.01551 22.93 5 22.5 5C12.835 5 5 12.835 5 22.5C5 32.165 12.835 40 22.5 40ZM50 15C50 19.61 47.9204 23.7343 44.648 26.4859C42.7665 37.011 33.5662 45 22.5 45C10.0736 45 0 34.9264 0 22.5C0 10.0736 10.0736 0 22.5 0C24.9083 0 27.2281 0.378353 29.4035 1.07886C31.1328 0.382986 33.0217 0 35 0C43.2843 0 50 6.71573 50 15ZM35.3162 4.00446C40.4967 7.60098 44.0939 13.3181 44.8513 19.8994C45.5865 18.4241 46 16.7603 46 15C46 9.03063 41.2451 4.17183 35.3162 4.00446Z" fill="#1C243B"/>
</svg>
