<svg width="253" height="110" viewBox="0 0 253 110" fill="none" xmlns="http://www.w3.org/2000/svg">
<path fill-rule="evenodd" clip-rule="evenodd" d="M176.951 23.9038L171.482 44.7427L134.95 49.503L176.951 23.9038Z" fill="#57BAE5"/>
<path fill-rule="evenodd" clip-rule="evenodd" d="M186.86 107.952L195.97 70.1068L184.152 65.2231L186.86 107.952Z" fill="#005472"/>
<path fill-rule="evenodd" clip-rule="evenodd" d="M171.482 44.7358L161.866 64.4634L134.95 49.4961L171.482 44.7358Z" fill="#34AFE4"/>
<path fill-rule="evenodd" clip-rule="evenodd" d="M186.861 107.952L184.153 65.2226L161.867 64.4692L186.861 107.952Z" fill="#0076A7"/>
<path fill-rule="evenodd" clip-rule="evenodd" d="M171.483 44.7358L184.153 65.2167L161.867 64.4634L171.483 44.7358Z" fill="#009DE2"/>
<path fill-rule="evenodd" clip-rule="evenodd" d="M176.951 23.9038L207.279 27.7082L171.482 44.7427L176.951 23.9038Z" fill="#7ACDF2"/>
<path fill-rule="evenodd" clip-rule="evenodd" d="M240.468 14.4375L221.378 36.6053L222.719 16.0966L240.468 14.4375Z" fill="#7ACDF2"/>
<path fill-rule="evenodd" clip-rule="evenodd" d="M251.047 1.73682L240.467 14.4348L248.725 15.4415L251.047 1.73682Z" fill="#7ACDF2"/>
<path fill-rule="evenodd" clip-rule="evenodd" d="M230.178 25.9643L248.725 15.4436L240.467 14.4375L230.178 25.9643Z" fill="#00ABE7"/>
<path fill-rule="evenodd" clip-rule="evenodd" d="M195.97 70.1073L196.869 44.666L184.152 65.2237L195.97 70.1073Z" fill="#0076A7"/>
<path fill-rule="evenodd" clip-rule="evenodd" d="M196.869 44.666L184.152 65.2237L171.482 44.7428L196.869 44.666Z" fill="#008DBE"/>
<path fill-rule="evenodd" clip-rule="evenodd" d="M207.279 27.7095L196.869 44.6671L171.482 44.7439L207.279 27.7095Z" fill="#57BAE5"/>
<path fill-rule="evenodd" clip-rule="evenodd" d="M196.868 44.666L195.97 70.1073L219.245 93.9118L196.868 44.666Z" fill="#00698D"/>
<path fill-rule="evenodd" clip-rule="evenodd" d="M231.417 80.6104L219.127 50.104L219.245 93.9082L231.417 80.6104Z" fill="#09A1CB"/>
<path fill-rule="evenodd" clip-rule="evenodd" d="M221.379 36.6064L219.127 50.1086L196.869 44.6668L221.379 36.6064Z" fill="#09A1CB"/>
<path fill-rule="evenodd" clip-rule="evenodd" d="M232.651 54.9457L219.127 50.1086L221.378 36.6064L232.651 54.9457Z" fill="#8BDAFF"/>
<path fill-rule="evenodd" clip-rule="evenodd" d="M237.496 79.7615L222.741 56.1528H231.167L237.496 79.7615Z" fill="#7ACDF2"/>
<path fill-rule="evenodd" clip-rule="evenodd" d="M210.049 22.69L221.379 36.6039L222.719 16.0952L210.049 22.69Z" fill="#57BAE5"/>
<path fill-rule="evenodd" clip-rule="evenodd" d="M219.127 50.1077L196.869 44.666L219.244 93.9118L219.127 50.1077Z" fill="#008DBE"/>
<path fill-rule="evenodd" clip-rule="evenodd" d="M231.417 80.6147L236.324 83.3538L219.305 93.9125L231.417 80.6147Z" fill="#0076A7"/>
<path fill-rule="evenodd" clip-rule="evenodd" d="M237.496 79.4948L219.128 50.104L231.418 80.6104L237.496 79.4948Z" fill="#57BAE5"/>
<path fill-rule="evenodd" clip-rule="evenodd" d="M210.049 22.6875L196.869 44.6618L221.379 36.6014L210.049 22.6875Z" fill="#7ACDF2"/>
<path fill-rule="evenodd" clip-rule="evenodd" d="M34.5094 87.392L38.0828 89.2059L41.6574 87.392V107.951H34.5094V87.392ZM33.959 80.4326C33.959 78.4633 35.7918 76.8525 38.0834 76.8525C40.3751 76.8525 42.2079 78.4633 42.2079 80.4326C42.2079 82.446 40.3751 84.012 38.0834 84.012C35.7918 84.012 33.959 82.446 33.959 80.4326Z" fill="#004450"/>
<path fill-rule="evenodd" clip-rule="evenodd" d="M17.7337 76.625V88.6615H7.79009V76.625H0V107.948H7.79009V95.8658H17.7337V107.948H25.5238V76.625H17.7337Z" fill="#004450"/>
<path fill-rule="evenodd" clip-rule="evenodd" d="M58.1081 107.953H50.9137V92.3363H48.1187V85.5795H50.9137V78.062H58.1081V85.5795H60.9038V92.3363H58.1081V107.953Z" fill="#004450"/>
<path fill-rule="evenodd" clip-rule="evenodd" d="M75.9815 100.743H82.3511C84.8254 100.743 85.6044 99.2221 85.6044 97.9246C85.6044 96.6717 84.7796 95.1505 82.3511 95.1505H75.9815V100.743ZM75.9815 88.6168H81.8007C84.0917 88.6168 84.5969 87.0508 84.5969 86.2006C84.5969 85.3505 84.1375 83.7845 81.8007 83.7845H75.9815V88.6168ZM80.9301 76.625C90.4155 76.625 91.9734 82.2638 91.9734 85.1274C91.9734 88.7069 90.0495 90.7203 88.0328 91.7046C90.9195 92.4205 92.9356 95.2394 92.9356 98.7747C92.9356 103.697 90.0948 107.948 80.7016 107.948H68.1914V76.625H80.9301Z" fill="#42ACDB"/>
<path fill-rule="evenodd" clip-rule="evenodd" d="M112.963 107.948H105.173V83.7845H96.9707V76.625H121.166V83.7845H112.963V107.948Z" fill="#42ACDB"/>
<path fill-rule="evenodd" clip-rule="evenodd" d="M153.612 81.5037L148.57 86.0681C146.646 84.3673 144.218 83.473 141.514 83.473C136.749 83.473 132.991 86.9182 132.991 92.288C132.991 97.6572 136.749 101.058 141.514 101.058C144.218 101.058 146.646 100.208 148.57 98.5073L153.612 103.072C150.586 106.248 146.28 108.262 141.514 108.262C132.487 108.262 125.201 101.102 125.201 92.288C125.201 83.473 132.487 76.3135 141.514 76.3135C146.28 76.3135 150.586 78.3269 153.612 81.5037Z" fill="#42ACDB"/>
</svg>
