<?xml version="1.0" encoding="UTF-8" standalone="no"?>
<svg
   xmlns:dc="http://purl.org/dc/elements/1.1/"
   xmlns:cc="http://creativecommons.org/ns#"
   xmlns:rdf="http://www.w3.org/1999/02/22-rdf-syntax-ns#"
   xmlns:svg="http://www.w3.org/2000/svg"
   xmlns="http://www.w3.org/2000/svg"
   id="svg8"
   version="1.1"
   viewBox="0 0 69.797035 11.48886"
   height="11.48886mm"
   width="69.797035mm">
  <defs
     id="defs2" />
  <metadata
     id="metadata5">
    <rdf:RDF>
      <cc:Work
         rdf:about="">
        <dc:format>image/svg+xml</dc:format>
        <dc:type
           rdf:resource="http://purl.org/dc/dcmitype/StillImage" />
        <dc:title></dc:title>
      </cc:Work>
    </rdf:RDF>
  </metadata>
  <g
     transform="translate(-87.758811,-130.88949)"
     id="layer1">
    <g
       id="text817"
       style="font-style:normal;font-weight:normal;font-size:12.05387878px;line-height:1.25;font-family:sans-serif;letter-spacing:0px;word-spacing:0px;fill:#1e1e23;fill-opacity:1;stroke:none;stroke-width:0.30134696"
       aria-label="SimpleSwap">
      <path
         id="path830"
         style="font-style:normal;font-variant:normal;font-weight:bold;font-stretch:normal;font-family:Roboto;-inkscape-font-specification:'Roboto Bold';letter-spacing:0.39158332px;fill:#1e1e23;fill-opacity:1;stroke-width:0.30134696"
         d="m 92.561529,137.68157 q 0,-0.50028 -0.353141,-0.76514 -0.353141,-0.27074 -1.271308,-0.56502 -0.918166,-0.30017 -1.453763,-0.58857 -1.45965,-0.78868 -1.45965,-2.12473 0,-0.69451 0.388455,-1.236 0.394341,-0.54737 1.124166,-0.85342 0.73571,-0.30606 1.647991,-0.30606 0.918166,0 1.63622,0.33549 0.718053,0.3296 1.112394,0.93582 0.400226,0.60623 0.400226,1.37725 h -1.765705 q 0,-0.58857 -0.370798,-0.91228 -0.370798,-0.3296 -1.041766,-0.3296 -0.647425,0 -1.006451,0.27663 -0.359027,0.27074 -0.359027,0.71805 0,0.41789 0.417884,0.7004 0.423769,0.28251 1.241879,0.52971 1.506734,0.4532 2.195359,1.12416 0.688625,0.67097 0.688625,1.67154 0,1.11239 -0.841652,1.74805 -0.841653,0.62976 -2.265988,0.62976 -0.988795,0 -1.801019,-0.35902 -0.812225,-0.36491 -1.241879,-0.99468 -0.42377,-0.62977 -0.42377,-1.45965 h 1.771591 q 0,1.41845 1.695077,1.41845 0.629768,0 0.982909,-0.25309 0.353141,-0.25897 0.353141,-0.71805 z" />
      <path
         id="path832"
         style="font-style:normal;font-variant:normal;font-weight:bold;font-stretch:normal;font-family:Roboto;-inkscape-font-specification:'Roboto Bold';letter-spacing:0.39158332px;fill:#278bd0;fill-opacity:1;stroke-width:0.30134696"
         d="M 97.608688,139.9299 H 95.90184 v -6.36831 h 1.706848 z m -1.806905,-8.0163 q 0,-0.38257 0.253084,-0.62977 0.25897,-0.2472 0.700397,-0.2472 0.43554,0 0.69451,0.2472 0.25897,0.2472 0.25897,0.62977 0,0.38846 -0.264855,0.63565 -0.258971,0.2472 -0.688625,0.2472 -0.429655,0 -0.694511,-0.2472 -0.25897,-0.24719 -0.25897,-0.63565 z" />
      <path
         id="path834"
         style="font-style:normal;font-variant:normal;font-weight:bold;font-stretch:normal;font-family:Roboto;-inkscape-font-specification:'Roboto Bold';letter-spacing:0.39158332px;fill:#1e1e23;fill-opacity:1;stroke-width:0.30134696"
         d="m 101.00197,133.56159 0.053,0.71217 q 0.67685,-0.82988 1.83045,-0.82988 1.23011,0 1.68919,0.97114 0.67097,-0.97114 1.91285,-0.97114 1.03588,0 1.54204,0.60622 0.50617,0.60034 0.50617,1.81279 v 4.06701 h -1.70684 v -4.06112 q 0,-0.54148 -0.21189,-0.78868 -0.21188,-0.25309 -0.74748,-0.25309 -0.76514,0 -1.05942,0.72983 l 0.006,4.37306 h -1.70096 v -4.05523 q 0,-0.55326 -0.21777,-0.80046 -0.21777,-0.2472 -0.7416,-0.2472 -0.72394,0 -1.04765,0.60034 v 4.50255 h -1.700961 v -6.36831 z" />
      <path
         id="path836"
         style="font-style:normal;font-variant:normal;font-weight:bold;font-stretch:normal;font-family:Roboto;-inkscape-font-specification:'Roboto Bold';letter-spacing:0.39158332px;fill:#1e1e23;fill-opacity:1;stroke-width:0.30134696"
         d="m 115.96062,136.8046 q 0,1.47142 -0.67097,2.36016 -0.66508,0.88285 -1.80102,0.88285 -0.96525,0 -1.55971,-0.67096 v 3.0017 h -1.70096 v -8.81676 h 1.57737 l 0.0589,0.62388 q 0.618,-0.74159 1.61268,-0.74159 1.17714,0 1.83045,0.87108 0.65331,0.87108 0.65331,2.40136 z m -1.70096,-0.1236 q 0,-0.88873 -0.31783,-1.37136 -0.31194,-0.48263 -0.91228,-0.48263 -0.80046,0 -1.10063,0.61211 v 2.60736 q 0.31195,0.62977 1.1124,0.62977 1.21834,0 1.21834,-1.99525 z" />
      <path
         id="path838"
         style="font-style:normal;font-variant:normal;font-weight:bold;font-stretch:normal;font-family:Roboto;-inkscape-font-specification:'Roboto Bold';letter-spacing:0.39158332px;fill:#1e1e23;fill-opacity:1;stroke-width:0.30134696"
         d="m 119.19499,139.9299 h -1.70685 v -9.04041 h 1.70685 z" />
      <path
         id="path840"
         style="font-style:normal;font-variant:normal;font-weight:bold;font-stretch:normal;font-family:Roboto;-inkscape-font-specification:'Roboto Bold';letter-spacing:0.39158332px;fill:#1e1e23;fill-opacity:1;stroke-width:0.30134696"
         d="m 123.92432,140.04761 q -1.4008,0 -2.28365,-0.8593 -0.87697,-0.85931 -0.87697,-2.28954 v -0.16479 q 0,-0.95937 0.3708,-1.71274 0.3708,-0.75925 1.04765,-1.16536 0.68274,-0.412 1.55382,-0.412 1.30663,0 2.05411,0.82399 0.75337,0.824 0.75337,2.33662 v 0.69451 h -4.05524 q 0.0824,0.62388 0.4944,1.00057 0.41788,0.37668 1.05353,0.37668 0.98291,0 1.53617,-0.71217 l 0.83576,0.93583 q -0.38256,0.54148 -1.03588,0.84753 -0.65331,0.30017 -1.44787,0.30017 z m -0.19423,-5.22648 q -0.50617,0 -0.824,0.34137 -0.31194,0.34137 -0.40022,0.97702 h 2.36604 v -0.13537 q -0.0118,-0.56503 -0.30605,-0.87108 -0.29429,-0.31194 -0.83577,-0.31194 z" />
      <path
         id="path842"
         style="font-style:normal;font-variant:normal;font-weight:bold;font-stretch:normal;font-family:Roboto;-inkscape-font-specification:'Roboto Bold';letter-spacing:0.39158332px;fill:#278bd0;fill-opacity:1;stroke-width:0.30134696"
         d="m 132.46169,137.68157 q 0,-0.50028 -0.35314,-0.76514 -0.35315,-0.27074 -1.27131,-0.56502 -0.91817,-0.30017 -1.45377,-0.58857 -1.45964,-0.78868 -1.45964,-2.12473 0,-0.69451 0.38845,-1.236 0.39434,-0.54737 1.12417,-0.85342 0.73571,-0.30606 1.64799,-0.30606 0.91816,0 1.63622,0.33549 0.71805,0.3296 1.11239,0.93582 0.40023,0.60623 0.40023,1.37725 h -1.76571 q 0,-0.58857 -0.3708,-0.91228 -0.37079,-0.3296 -1.04176,-0.3296 -0.64743,0 -1.00645,0.27663 -0.35903,0.27074 -0.35903,0.71805 0,0.41789 0.41788,0.7004 0.42377,0.28251 1.24188,0.52971 1.50674,0.4532 2.19536,1.12416 0.68863,0.67097 0.68863,1.67154 0,1.11239 -0.84166,1.74805 -0.84165,0.62976 -2.26598,0.62976 -0.9888,0 -1.80102,-0.35902 -0.81223,-0.36491 -1.24188,-0.99468 -0.42377,-0.62977 -0.42377,-1.45965 h 1.77159 q 0,1.41845 1.69508,1.41845 0.62976,0 0.98291,-0.25309 0.35314,-0.25897 0.35314,-0.71805 z" />
      <path
         id="path844"
         style="font-style:normal;font-variant:normal;font-weight:bold;font-stretch:normal;font-family:Roboto;-inkscape-font-specification:'Roboto Bold';letter-spacing:0.39158332px;fill:#278bd0;fill-opacity:1;stroke-width:0.30134696"
         d="m 141.25214,137.61683 0.83577,-4.05524 h 1.6421 l -1.62445,6.36831 h -1.42433 l -1.20657,-4.00815 -1.20656,4.00815 h -1.41845 l -1.62445,-6.36831 h 1.64211 l 0.82988,4.04935 1.16536,-4.04935 h 1.23011 z" />
      <path
         id="path846"
         style="font-style:normal;font-variant:normal;font-weight:bold;font-stretch:normal;font-family:Roboto;-inkscape-font-specification:'Roboto Bold';letter-spacing:0.39158332px;fill:#278bd0;fill-opacity:1;stroke-width:0.30134696"
         d="m 148.64768,139.9299 q -0.11771,-0.22954 -0.17068,-0.57091 -0.618,0.68862 -1.60679,0.68862 -0.93583,0 -1.55382,-0.54148 -0.61211,-0.54148 -0.61211,-1.36548 0,-1.01233 0.74748,-1.55382 0.75337,-0.54148 2.17182,-0.54737 h 0.78279 v -0.36491 q 0,-0.44142 -0.22954,-0.70628 -0.22366,-0.26486 -0.71217,-0.26486 -0.42965,0 -0.67685,0.206 -0.24131,0.206 -0.24131,0.56503 h -1.70097 q 0,-0.55326 0.34137,-1.02411 0.34137,-0.47085 0.96525,-0.73571 0.62389,-0.27074 1.4008,-0.27074 1.17713,0 1.86576,0.59445 0.69451,0.58857 0.69451,1.65977 v 2.76038 q 0.006,0.9064 0.25308,1.37136 v 0.10006 z m -1.40667,-1.18302 q 0.37668,0 0.69451,-0.1648 0.31782,-0.17069 0.47085,-0.4532 v -1.09473 h -0.63565 q -1.2772,0 -1.3596,0.88285 l -0.006,0.10005 q 0,0.31783 0.22366,0.52383 0.22365,0.206 0.61211,0.206 z" />
      <path
         id="path848"
         style="font-style:normal;font-variant:normal;font-weight:bold;font-stretch:normal;font-family:Roboto;-inkscape-font-specification:'Roboto Bold';letter-spacing:0.39158332px;fill:#278bd0;fill-opacity:1;stroke-width:0.30134696"
         d="m 157.55585,136.8046 q 0,1.47142 -0.67097,2.36016 -0.66508,0.88285 -1.80102,0.88285 -0.96525,0 -1.5597,-0.67096 v 3.0017 h -1.70097 v -8.81676 h 1.57737 l 0.0588,0.62388 q 0.618,-0.74159 1.61268,-0.74159 1.17714,0 1.83045,0.87108 0.65331,0.87108 0.65331,2.40136 z m -1.70096,-0.1236 q 0,-0.88873 -0.31783,-1.37136 -0.31194,-0.48263 -0.91228,-0.48263 -0.80045,0 -1.10062,0.61211 v 2.60736 q 0.31194,0.62977 1.11239,0.62977 1.21834,0 1.21834,-1.99525 z" />
    </g>
  </g>
</svg>
