<?xml version="1.0" encoding="UTF-8" standalone="no"?>
<svg
   xmlns:dc="http://purl.org/dc/elements/1.1/"
   xmlns:cc="http://creativecommons.org/ns#"
   xmlns:rdf="http://www.w3.org/1999/02/22-rdf-syntax-ns#"
   xmlns:svg="http://www.w3.org/2000/svg"
   xmlns="http://www.w3.org/2000/svg"
   id="svg8"
   version="1.1"
   viewBox="0 0 194.92548 37.027645"
   height="37.027645mm"
   width="194.92548mm">
  <defs
     id="defs2" />
  <metadata
     id="metadata5">
    <rdf:RDF>
      <cc:Work
         rdf:about="">
        <dc:format>image/svg+xml</dc:format>
        <dc:type
           rdf:resource="http://purl.org/dc/dcmitype/StillImage" />
        <dc:title></dc:title>
      </cc:Work>
    </rdf:RDF>
  </metadata>
  <g
     transform="translate(-16.686072,-59.259987)"
     id="layer1">
    <g
       transform="matrix(0.26458333,0,0,0.26458333,-21.244859,10.491988)"
       id="g832"
       style="fill:none">
      <path
         style="fill:#4a4a4a"
         d="m 162.8,269.036 c 0.413,4.567 1.652,7.892 3.721,9.967 3.307,4.15 9.1,6.229 16.957,6.229 4.963,0 8.684,-0.416 11.578,-1.662 5.789,-2.075 8.687,-5.813 8.687,-11.213 0,-3.321 -1.242,-5.813 -4.137,-7.475 -2.894,-1.659 -7.444,-3.321 -13.233,-4.567 l -10.339,-2.492 c -10.339,-2.492 -17.371,-4.983 -21.091,-7.475 -6.619,-4.567 -9.926,-11.626 -9.926,-21.18 0,-8.717 3.307,-16.193 9.509,-22.009 6.206,-6.229 15.715,-9.134 28.123,-9.134 10.339,0 19.026,2.905 26.47,8.305 7.445,5.399 11.165,13.288 11.578,23.671 h -19.435 c -0.417,-5.813 -2.898,-9.967 -7.858,-12.459 -3.311,-1.662 -7.031,-2.491 -11.994,-2.491 -5.376,0 -9.513,1.245 -12.408,3.321 -3.72,2.078 -4.963,4.983 -4.963,8.721 0,3.321 1.656,6.229 4.55,7.891 2.069,1.246 6.202,2.492 12.821,4.151 l 16.954,4.154 c 7.444,1.662 12.82,4.154 16.544,7.059 5.789,4.567 8.684,11.213 8.684,19.934 0,9.137 -3.308,16.609 -10.339,22.425 -7.028,5.813 -16.541,8.721 -28.949,8.721 -12.82,0 -22.746,-2.908 -30.191,-8.721 -7.031,-5.816 -10.752,-13.704 -10.752,-23.671 z m 66.997,-28.239 v -13.704 h 9.926 v -19.934 h 18.61 v 20.35 h 11.578 v 13.705 h -11.578 v 38.205 c 0,2.905 0.413,4.98 1.239,5.397 0.829,0.829 2.894,1.246 7.031,1.246 0.413,0 1.243,0 1.656,0 0.826,0 1.239,0 2.068,0 v 14.121 l -9.1,0.413 c -9.1,0.416 -14.889,-1.246 -18.196,-4.568 -2.069,-2.075 -3.308,-5.399 -3.308,-9.966 v -45.265 z m 81.057,-0.416 c -4.547,0 -7.858,1.246 -10.339,4.154 -2.482,2.908 -3.721,6.646 -4.547,11.213 h 29.362 c 0,-4.984 -1.656,-9.138 -4.55,-11.629 -2.482,-2.492 -5.789,-3.738 -9.926,-3.738 z m 0,-15.78 c 6.205,0 11.581,1.246 16.131,3.321 4.963,2.079 8.684,5.817 11.991,10.8 2.895,4.151 4.55,9.134 5.376,14.95 0.416,3.322 0.829,8.305 0.416,14.534 h -49.629 c 0.413,7.476 2.481,12.459 7.031,15.364 2.482,1.662 5.789,2.908 9.513,2.908 3.721,0 7.028,-1.246 9.51,-3.325 1.242,-1.245 2.481,-2.904 3.724,-4.98 h 19.435 c -0.413,4.151 -2.894,8.718 -6.615,13.289 -6.205,7.058 -14.889,10.379 -26.054,10.379 -9.1,0 -17.37,-2.904 -24.402,-8.721 -7.031,-5.813 -10.339,-15.78 -10.339,-29.068 0,-12.458 3.308,-22.009 9.513,-29.068 6.202,-7.062 14.06,-10.383 24.399,-10.383 z m 86.848,39.035 c -1.239,0.833 -2.481,1.246 -3.72,1.662 -1.243,0.417 -2.895,0.83 -4.963,1.246 l -4.137,0.83 c -4.134,0.832 -7.031,1.662 -8.684,2.491 -2.894,1.663 -4.55,4.571 -4.55,7.892 0,3.321 0.827,5.396 2.482,7.059 1.655,1.246 4.137,2.075 6.618,2.075 4.134,0 7.858,-1.246 11.165,-3.738 3.308,-2.488 5.376,-6.642 5.376,-13.288 v -6.229 z m -11.578,-8.721 c 3.308,-0.413 5.789,-0.83 7.445,-1.659 2.894,-1.246 4.133,-2.908 4.133,-5.4 0,-2.905 -0.826,-4.983 -2.894,-6.229 -2.069,-1.246 -4.963,-1.659 -9.097,-1.659 -4.55,0 -7.444,1.246 -9.513,3.321 -1.242,1.662 -2.068,3.738 -2.481,6.646 H 355.52 c 0.414,-6.229 2.069,-11.629 5.376,-15.783 4.963,-6.23 13.647,-9.551 25.641,-9.551 7.858,0 14.889,1.662 21.091,4.567 6.206,3.325 9.1,9.138 9.1,17.859 v 33.222 c 0,2.491 0,4.983 0,8.304 0,2.492 0.413,4.154 1.239,4.984 0.413,0.829 1.656,1.662 2.895,2.075 v 2.908 h -20.678 c -0.413,-1.662 -0.826,-2.908 -1.239,-4.154 -0.413,-1.246 -0.413,-2.904 -0.413,-4.567 -2.482,2.908 -5.793,5.4 -9.1,7.059 -4.137,2.492 -8.684,3.325 -13.647,3.325 -6.618,0 -11.994,-2.079 -16.131,-5.817 -4.134,-3.737 -6.202,-9.134 -6.202,-15.78 0,-8.721 3.307,-15.363 10.339,-19.517 3.72,-2.075 9.1,-3.738 16.541,-4.567 z m 66.584,44.022 H 433.682 V 200.93 h 19.026 z m 11.165,-58.14 v -13.704 h 9.926 v -19.934 h 18.61 v 20.35 h 11.581 v 13.705 h -11.581 v 38.205 c 0,2.905 0.413,4.98 1.242,5.397 0.826,0.829 2.895,1.246 7.028,1.246 0.417,0 1.243,0 1.656,0 0.826,0 1.242,0 2.068,0 v 14.121 l -9.1,0.413 c -9.096,0.416 -14.889,-1.246 -18.196,-4.568 -2.069,-2.075 -3.308,-5.399 -3.308,-9.966 v -45.265 z m 92.225,-16.196 c 4.55,0 8.684,0.833 11.995,2.492 3.72,1.662 6.615,3.737 9.096,7.059 2.069,2.908 3.311,5.4 3.724,8.308 0.413,2.904 0.826,7.475 0.826,14.117 V 299.35 H 562.3 v -44.435 c 0,-3.734 -0.826,-7.059 -2.065,-9.551 -1.655,-3.321 -4.963,-4.983 -9.926,-4.983 -4.963,0 -8.687,1.662 -11.168,4.983 -2.482,3.325 -3.721,8.308 -3.721,14.534 v 39.452 h -19.022 v -98.004 h 19.022 v 34.884 c 2.895,-4.154 5.789,-7.062 9.513,-8.721 3.308,-2.075 7.445,-2.908 11.165,-2.908 z"
         id="path815" />
      <rect
         style="fill:#ffffff"
         x="621.22699"
         y="197.97301"
         width="204.8"
         height="112.64"
         id="rect817" />
      <path
         style="fill:#4a4a4a"
         d="m 878.17,249.102 -47.558,-61.874 c -1.242,-1.662 -3.724,-2.908 -5.789,-2.908 h -219.19 v 139.947 h 221.672 c 2.065,0 3.72,-0.83 4.963,-2.492 l 46.319,-61.46 c 2.065,-3.321 2.065,-7.888 -0.417,-11.213 z m -168.731,49.002 h -74.441 v -90.112 h 72.786 v 22.838 h -43.012 v 10.384 h 38.049 v 22.009 h -38.049 v 11.626 h 44.667 z m 71.96,0 -15.302,-24.085 -15.302,24.085 h -34.328 l 32.26,-45.264 -31.43,-44.435 h 33.911 l 15.302,22.842 14.889,-22.842 h 32.669 l -31.017,43.605 33.085,46.51 h -34.737 z"
         id="path819" />
    </g>
  </g>
</svg>
