<?xml version="1.0" encoding="UTF-8"?>
<svg width="355px" height="114px" viewBox="0 0 355 114" version="1.1" xmlns="http://www.w3.org/2000/svg" xmlns:xlink="http://www.w3.org/1999/xlink">
    <!-- Generator: Sketch 51.2 (57519) - http://www.bohemiancoding.com/sketch -->
    <title>logo</title>
    <desc>Created with Sketch.</desc>
    <defs></defs>
    <g id="social-network" stroke="none" stroke-width="1" fill="none" fill-rule="evenodd">
        <g id="Twitter_profile_1" transform="translate(-24.000000, -143.000000)" fill="#4A4A4A">
            <g id="logo" transform="translate(23.000000, 143.000000)">
                <path d="M11.3242188,71.0039062 C11.6523454,73.3711056 12.2968702,75.1406191 13.2578125,76.3125 C15.0156338,78.4453232 18.0273224,79.5117188 22.2929687,79.5117188 C24.847669,79.5117188 26.921867,79.2304716 28.515625,78.6679688 C31.5390776,77.5898384 33.0507812,75.5859521 33.0507812,72.65625 C33.0507812,70.9453039 32.3007888,69.6210984 30.8007812,68.6835938 C29.3007737,67.7695267 26.9453286,66.960941 23.734375,66.2578125 L18.25,65.0273438 C12.859348,63.8085877 9.13282281,62.4843821 7.0703125,61.0546875 C3.57810754,58.6640505 1.83203125,54.9258067 1.83203125,49.8398438 C1.83203125,45.1991955 3.51951437,41.3437654 6.89453125,38.2734375 C10.2695481,35.2031096 15.2265298,33.6679688 21.765625,33.6679688 C27.2265898,33.6679688 31.8847463,35.1152199 35.7402344,38.0097656 C39.5957224,40.9043113 41.6171866,45.1054412 41.8046875,50.6132812 L31.3984375,50.6132812 C31.2109366,47.4960782 29.8515752,45.2812566 27.3203125,43.96875 C25.6328041,43.1015582 23.5351688,42.6679688 21.0273438,42.6679688 C18.2382673,42.6679688 16.0117271,43.2304631 14.3476563,44.3554688 C12.6835854,45.4804744 11.8515625,47.0507712 11.8515625,49.0664062 C11.8515625,50.917978 12.6718668,52.3007767 14.3125,53.2148438 C15.3671928,53.8242218 17.6171703,54.5390584 21.0625,55.359375 L29.9921875,57.5039062 C33.9062696,58.4414109 36.859365,59.6953046 38.8515625,61.265625 C41.945328,63.7031372 43.4921875,67.2304457 43.4921875,71.8476562 C43.4921875,76.5820549 41.6816587,80.5136562 38.0605469,83.6425781 C34.439435,86.7715 29.3242518,88.3359375 22.7148438,88.3359375 C15.96481,88.3359375 10.6562693,86.7949373 6.7890625,83.7128906 C2.92185566,80.630844 0.98828125,76.3945582 0.98828125,71.0039062 L11.3242188,71.0039062 Z M46.7617188,56.1679688 L46.7617188,49.03125 L52.1054688,49.03125 L52.1054688,38.34375 L62.0195312,38.34375 L62.0195312,49.03125 L68.2421875,49.03125 L68.2421875,56.1679688 L62.0195312,56.1679688 L62.0195312,76.4179688 C62.0195312,77.9882891 62.218748,78.9667949 62.6171875,79.3535156 C63.015627,79.7402363 64.2343648,79.9335938 66.2734375,79.9335938 C66.5781265,79.9335938 66.9003889,79.9277344 67.2402344,79.9160156 C67.5800798,79.9042968 67.9140609,79.8867189 68.2421875,79.8632812 L68.2421875,87.3515625 L63.4960938,87.5273438 C58.7616951,87.6914071 55.5273524,86.8711028 53.7929688,85.0664062 C52.6679631,83.917963 52.1054688,82.1484495 52.1054688,79.7578125 L52.1054688,56.1679688 L46.7617188,56.1679688 Z M89.7929688,55.921875 C87.4726446,55.921875 85.6738345,56.6484302 84.3964844,58.1015625 C83.1191342,59.5546948 82.3164079,61.5234251 81.9882812,64.0078125 L97.5625,64.0078125 C97.3984367,61.3593618 96.5957103,59.3496162 95.1542969,57.9785156 C93.7128834,56.607415 91.9257919,55.921875 89.7929688,55.921875 Z M89.7929688,47.6601562 C92.9804847,47.6601562 95.8515497,48.2578065 98.40625,49.453125 C100.96095,50.6484435 103.070304,52.5351434 104.734375,55.1132812 C106.234383,57.3867301 107.207029,60.0234225 107.652344,63.0234375 C107.910158,64.7812588 108.015625,67.3124835 107.96875,70.6171875 L81.7421875,70.6171875 C81.8828132,74.4609567 83.0898324,77.1562423 85.3632812,78.703125 C86.7461007,79.6640673 88.4101465,80.1445312 90.3554688,80.1445312 C92.4179791,80.1445312 94.0937436,79.5585996 95.3828125,78.3867188 C96.085941,77.7539031 96.7070286,76.8750056 97.2460938,75.75 L107.476562,75.75 C107.218749,78.0234489 106.035167,80.3320195 103.925781,82.6757812 C100.644515,86.4023624 96.0508108,88.265625 90.1445312,88.265625 C85.2695069,88.265625 80.9687686,86.6953282 77.2421875,83.5546875 C73.5156064,80.4140468 71.6523438,75.3047229 71.6523438,68.2265625 C71.6523438,61.5937168 73.3339676,56.5078302 76.6972656,52.96875 C80.0605637,49.4296698 84.4257544,47.6601562 89.7929688,47.6601562 Z M135.847656,68.3671875 C135.214841,68.765627 134.576175,69.0878894 133.931641,69.3339844 C133.287106,69.5800794 132.402349,69.8085927 131.277344,70.0195312 L129.027344,70.4414062 C126.917958,70.8164081 125.406255,71.2734348 124.492188,71.8125 C122.945305,72.7265671 122.171875,74.1445216 122.171875,76.0664062 C122.171875,77.7773523 122.64648,79.0136681 123.595703,79.7753906 C124.544927,80.5371132 125.699212,80.9179688 127.058594,80.9179688 C129.214855,80.9179688 131.201163,80.2851626 133.017578,79.0195312 C134.833993,77.7538999 135.777343,75.4453293 135.847656,72.09375 L135.847656,68.3671875 Z M129.765625,63.6914062 C131.617197,63.4570301 132.941402,63.1640643 133.738281,62.8125 C135.167976,62.203122 135.882812,61.2539127 135.882812,59.9648438 C135.882812,58.3945234 135.337896,57.3105499 134.248047,56.7128906 C133.158198,56.1152314 131.558604,55.8164062 129.449219,55.8164062 C127.082019,55.8164062 125.406255,56.4023379 124.421875,57.5742188 C123.718746,58.4414106 123.250001,59.6132739 123.015625,61.0898438 L113.347656,61.0898438 C113.558595,57.7382645 114.496085,54.9843858 116.160156,52.828125 C118.808607,49.4531081 123.355437,47.765625 129.800781,47.765625 C133.996115,47.765625 137.72264,48.5976479 140.980469,50.2617188 C144.238298,51.9257896 145.867188,55.0663832 145.867188,59.6835938 L145.867188,77.2617188 C145.867188,78.4804748 145.890625,79.9570226 145.9375,81.6914062 C146.007813,83.0039128 146.20703,83.8945289 146.535156,84.3632812 C146.863283,84.8320336 147.355465,85.2187485 148.011719,85.5234375 L148.011719,87 L137.113281,87 C136.808592,86.2265586 136.597657,85.5000034 136.480469,84.8203125 C136.363281,84.1406216 136.269532,83.3671918 136.199219,82.5 C134.816399,84.0000075 133.222665,85.2773385 131.417969,86.3320312 C129.261708,87.574225 126.824232,88.1953125 124.105469,88.1953125 C120.636701,88.1953125 117.771496,87.205088 115.509766,85.2246094 C113.248036,83.2441307 112.117188,80.4375182 112.117188,76.8046875 C112.117188,72.0937264 113.933576,68.6836043 117.566406,66.5742188 C119.558604,65.4257755 122.488262,64.6054712 126.355469,64.1132812 L129.765625,63.6914062 Z M164.992188,87 L154.972656,87 L154.972656,35.1796875 L164.992188,35.1796875 L164.992188,87 Z M170.828125,56.1679688 L170.828125,49.03125 L176.171875,49.03125 L176.171875,38.34375 L186.085938,38.34375 L186.085938,49.03125 L192.308594,49.03125 L192.308594,56.1679688 L186.085938,56.1679688 L186.085938,76.4179688 C186.085938,77.9882891 186.285154,78.9667949 186.683594,79.3535156 C187.082033,79.7402363 188.300771,79.9335938 190.339844,79.9335938 C190.644533,79.9335938 190.966795,79.9277344 191.306641,79.9160156 C191.646486,79.9042968 191.980467,79.8867189 192.308594,79.8632812 L192.308594,87.3515625 L187.5625,87.5273438 C182.828101,87.6914071 179.593759,86.8711028 177.859375,85.0664062 C176.734369,83.917963 176.171875,82.1484495 176.171875,79.7578125 L176.171875,56.1679688 L170.828125,56.1679688 Z M219.871094,47.6953125 C222.238293,47.6953125 224.388662,48.1054646 226.322266,48.9257812 C228.255869,49.7460979 229.843744,50.9999916 231.085938,52.6875 C232.14063,54.1171946 232.785155,55.5878831 233.019531,57.0996094 C233.253907,58.6113357 233.371094,61.0781079 233.371094,64.5 L233.371094,87 L223.140625,87 L223.140625,63.6914062 C223.140625,61.6288959 222.789066,59.9648501 222.085938,58.6992188 C221.17187,56.9179598 219.437513,56.0273438 216.882812,56.0273438 C214.234362,56.0273438 212.224616,56.9121005 210.853516,58.6816406 C209.482415,60.4511807 208.796875,62.9765461 208.796875,66.2578125 L208.796875,87 L198.8125,87 L198.8125,35.3554688 L208.796875,35.3554688 L208.796875,53.671875 C210.250007,51.4453014 211.931631,49.8925825 213.841797,49.0136719 C215.751963,48.1347612 217.761708,47.6953125 219.871094,47.6953125 Z M257.839844,55.921875 C255.51952,55.921875 253.72071,56.6484302 252.443359,58.1015625 C251.166009,59.5546948 250.363283,61.5234251 250.035156,64.0078125 L265.609375,64.0078125 C265.445312,61.3593618 264.642585,59.3496162 263.201172,57.9785156 C261.759758,56.607415 259.972667,55.921875 257.839844,55.921875 Z M257.839844,47.6601562 C261.02736,47.6601562 263.898425,48.2578065 266.453125,49.453125 C269.007825,50.6484435 271.117179,52.5351434 272.78125,55.1132812 C274.281258,57.3867301 275.253904,60.0234225 275.699219,63.0234375 C275.957033,64.7812588 276.0625,67.3124835 276.015625,70.6171875 L249.789062,70.6171875 C249.929688,74.4609567 251.136707,77.1562423 253.410156,78.703125 C254.792976,79.6640673 256.457022,80.1445312 258.402344,80.1445312 C260.464854,80.1445312 262.140619,79.5585996 263.429688,78.3867188 C264.132816,77.7539031 264.753904,76.8750056 265.292969,75.75 L275.523438,75.75 C275.265624,78.0234489 274.082042,80.3320195 271.972656,82.6757812 C268.69139,86.4023624 264.097686,88.265625 258.191406,88.265625 C253.316382,88.265625 249.015644,86.6953282 245.289062,83.5546875 C241.562481,80.4140468 239.699219,75.3047229 239.699219,68.2265625 C239.699219,61.5937168 241.380843,56.5078302 244.744141,52.96875 C248.107439,49.4296698 252.472629,47.6601562 257.839844,47.6601562 Z" id="Stealthe"></path>
                <g id="image2vector-(1)" transform="translate(268.000000, 0.000000)">
                    <path d="M50.1991204,22.215036 C45.9133844,31.6707326 40.12426,43.7312671 38.6580929,46.2589771 C37.814777,47.713103 37.785925,47.6982537 30.7455921,42.1929212 C20.8235812,34.4340372 15.7350543,30.8458193 15.3461026,31.3334091 C15.3055777,31.3841628 14.6721547,32.1596522 13.9383003,33.0568175 C7.8833409,40.4590961 5.29194513,44.1215606 5.7976263,44.5619429 C5.88484309,44.6377409 7.4578287,45.589206 9.2931254,46.6763097 C16.7334222,51.082792 21.650599,54.2904682 27.8405682,58.7754081 L30.0844183,60.4008553 L30.0029279,61.1293588 C29.8467746,62.5247523 28.5094505,64.9997139 16.8646879,85.4423609 C8.68018519,99.8107467 7.84039324,101.234731 4.52835774,106.358413 C1.39317851,111.208159 -0.149193125,113.806791 0.0113650533,113.968139 C0.166196876,114.124168 1.89577626,113.689105 3.63614762,113.056789 C7.44945941,111.670926 12.2988009,108.134348 16.9336244,103.358849 C19.6454938,100.564738 20.3392637,99.7065798 27.6112938,90.1515921 C33.0678492,82.9818053 40.9259496,72.1925505 41.6754414,71.2785412 L42.1965397,70.6429013 L44.8612768,72.4299181 C46.8551495,73.7670224 64.8006644,87.5401053 77.7501549,95.0707087 C83.1970195,98.2384911 87.6785529,100.461014 87.9888773,100.148735 C88.1007614,100.036146 87.3523709,97.3705812 86.472935,94.749121 C84.7506236,89.6150217 76.6817493,79.4731532 69.3427649,73.2180406 C67.8314477,71.9299169 62.6905026,67.5679826 57.9184669,63.5249763 C48.1948963,55.2867029 48.7415429,55.9265537 49.7304403,53.9413982 C51.5736658,50.2414779 73.2739075,14.4178097 78.3058316,6.7679685 C79.7288308,4.60439943 80.9179303,2.78325141 80.9483241,2.72097289 C80.9784976,2.65869437 80.3356041,2.51108763 79.5195986,2.39273628 C78.7038133,2.27438493 75.1616223,1.73604143 71.6480632,1.19614651 C68.1347243,0.656473219 64.2293504,0.166445438 62.9695523,0.107491395 L60.6790104,0 L57.7874215,5.92643277 C56.1970366,9.18619243 52.7823672,16.5159974 50.1991204,22.215036 Z" id="path0"></path>
                </g>
            </g>
        </g>
    </g>
</svg>