<?xml version="1.0" encoding="utf-8"?>
<!-- Generator: Adobe Illustrator 22.1.0, SVG Export Plug-In . SVG Version: 6.00 Build 0)  -->
<svg version="1.1" id="Шар_1" xmlns="http://www.w3.org/2000/svg" xmlns:xlink="http://www.w3.org/1999/xlink" x="0px" y="0px"
	 viewBox="0 0 16262 3993.6" style="enable-background:new 0 0 16262 3993.6;" xml:space="preserve">
<style type="text/css">
	.st0{display:none;}
	.st1{display:inline;}
	.st2{display:none;fill:#00AE61;}
	.st3{fill:#038946;}
	.st4{fill:none;}
	.st5{fill:#1D662A;}
	.st6{fill:#00AE61;}
	.st7{display:inline;fill:#00AE61;}
	.st8{display:none;fill:url(#SVGID_1_);}
	.st9{fill:url(#SVGID_2_);}
	.st10{display:none;fill:url(#SVGID_3_);}
	.st11{fill:url(#SVGID_4_);}
	.st12{fill:url(#SVGID_5_);}
	.st13{fill:url(#SVGID_6_);}
	.st14{fill:url(#SVGID_7_);}
	.st15{fill:url(#SVGID_8_);}
	.st16{fill:url(#SVGID_9_);}
	.st17{fill:url(#SVGID_10_);}
	.st18{fill:url(#SVGID_11_);}
	.st19{fill:url(#SVGID_12_);}
	.st20{display:none;fill:#FFFFFF;}
</style>
<g class="st0">
	<g class="st1">
		<g>
			<path class="st0" d="M7755.6,3461.1c0,19.1-4.2,32.9-12.7,41.5c-8.5,8.6-22.1,12.9-40.9,12.9c-22,0-75.3,0-160.1,0v-38.3
				c87.9,0,133.5,0,136.7,0s6-0.1,8.7-0.5c2.6-0.3,5.1-0.9,7.3-1.9c2.3-1,4.1-2.4,5.4-4.4c1.4-2,2-4.5,2-7.7c0-3.6-0.9-6.5-2.8-8.7
				c-1.9-2.2-4.3-3.8-7.3-4.7c-3-1-6.1-1.6-9.4-1.8c-3.2-0.2-7.2-0.3-11.8-0.3c-2.9-0.1-10.9-0.5-24.1-0.9
				c-20.7-0.8-33.8-1.2-39-1.5c-5.3-0.2-10.2-0.5-14.9-0.7c-4.7-0.2-8.6-0.5-12-0.8c-16.7-0.9-28.6-6.4-35.9-16.5
				c-5.1-7.5-7.7-18.7-7.7-33.6c0-18.3,3.5-32.1,10.6-41.3c7.1-9.2,18.8-13.8,35.2-13.8c21.8,0,77.2,0,166.2,0v38.3
				c-87.9,0-133.5,0-136.7,0c-3,0-5.7,0.2-8.1,0.5c-2.4,0.3-4.7,0.9-6.8,1.9c-2.1,1-3.8,2.4-5.1,4.4c-1.3,2-1.9,4.5-1.9,7.7
				c0,5.7,2,9.5,6.1,11.3c4.1,1.8,9.7,2.7,16.9,2.7h4.7c2.1,0,3.6,0,4.5,0c2.7,0.2,10.6,0.5,23.7,0.9c18,0.6,30.6,1.1,37.5,1.4
				c7,0.3,12.9,0.6,17.7,0.8c4.8,0.2,8.8,0.5,12,0.8c16.5,0.9,28.1,6.9,34.7,18C7753.2,3436,7755.6,3447.4,7755.6,3461.1z"/>
			<path d="M7937.8,3515.5h-55.2v-136.2h-77.8v-41h208.4v41h-75.3V3515.5z"/>
			<path class="st2" d="M7804.8,3338.2v41.1h77.8v0h55.2v0h75.3v-41.1H7804.8z"/>
			<path class="st3" d="M8267.8,3474.2v41.3h-136h-54.6h-3.8v-177.2h2.3h56.2h136v41h-139.1v29.8h130.6v35.9h-130.6v29.3H8267.8z"/>
			<path class="st3" d="M8400.8,3515.5h-74.4l85.9-87.5l-82.8-89.7h71.9l48.9,54.8l48.7-54.8h72.6l-83.7,89.7l87.5,87.5h-74.2
				l-50.3-53.2L8400.8,3515.5z"/>
		</g>
	</g>
	<g class="st1">
		<path d="M7592.5,3383.3c-1.3,2-1.9,4.5-1.9,7.7c0,5.7,2,9.5,6.1,11.3c2.9,1.3,6.7,2.1,11.3,2.5v2.8h84.4c0.1,0,0.3,0,0.4,0h0
			c3.3,0.1,6.3,0.3,8.9,0.4c4.8,0.2,8.8,0.5,12,0.8c11.8,0.6,21,3.9,27.8,9.7c-2.5,2.7-3.3,6.5-0.4,10.4c1.1,1.5,2.1,2.7,2.9,4
			c-3.3,10.7-1.3,25.1-3.9,33.6c-1.2,4.1,0.2,7.4,2.7,9.5c-3.2,8.5-5.3,16.5-2.2,26.1c0.2,0.7,0.5,1.4,0.9,2
			c-8.6,7.6-21.7,11.5-39.4,11.5h-160.1v-38.3h136.7c0.9,0,1.9,0,2.8,0c0.8,0,1.5-0.1,2.3-0.1c1.3-0.1,2.5-0.2,3.6-0.3
			c2-0.2,3.8-0.6,5.6-1.3c0.6-0.2,1.2-0.4,1.7-0.7c2.3-1,4.1-2.4,5.4-4.4c1.4-2,2-4.5,2-7.7c0-3.6-0.9-6.5-2.8-8.7
			c-1.7-1.9-3.8-3.4-6.4-4.4c-0.3-0.1-0.6-0.2-1-0.3c-2.6-0.9-5.4-1.4-8.2-1.7v-3.4h-88.2c-0.5,0-0.9,0-1.4-0.1
			c-0.4,0-0.9,0-1.3-0.1c-4.7-0.2-8.6-0.5-12-0.8c-15.1-0.8-26.3-5.4-33.6-13.7c0.3-0.4,0.5-0.8,0.7-1.2c2.2-4.1,3.5-8.7,4.2-13.3
			c0.9-6.6-3.8-13.4-2.7-19.3c1.1-5.6,5.5-8.2,4.9-14.8c-0.7-7.3-6.3-12.6-7.6-19.6c-0.3-1.8-1-3.2-2-4.3c1-1.8,2-3.5,3.2-5.1
			c7.1-9.2,18.8-13.8,35.2-13.8h166.2v36.6H7608v1.8c-1.3,0.1-2.5,0.2-3.7,0.3c-2.4,0.3-4.7,0.9-6.8,1.9
			C7595.4,3379.9,7593.8,3381.4,7592.5,3383.3z"/>
		<path d="M7593.9,3338.2v41.4c-7.1,0.4-9.8,7.4-8.1,12.8c-2.6,5.5-0.1,13.6,7.6,14.1c0.2,0,0.3,0,0.5,0v37.6h-52.1v-106H7593.9z"/>
		<rect x="7577.3" y="3375.9" width="30.7" height="30.7"/>
		<rect x="7692.8" y="3407.6" width="54.6" height="107.9"/>
		<path d="M7683.6,3446.6h9.2h11.5v31.9h-11.5h-9.2h-2.3v-1.4c0.8,0,1.5-0.1,2.3-0.1v-29.4V3446.6z"/>
		<line class="st4" x1="7683.6" y1="3447.6" x2="7683.6" y2="3446.6"/>
		<path d="M7681.3,3477.1c0.8,0,1.5-0.1,2.3-0.1v3h-141.7v-2.9h136.7C7679.5,3477.1,7680.4,3477.1,7681.3,3477.1z"/>
		<rect x="7664.2" y="3397" class="st4" width="141.8" height="32.7"/>
		<rect x="7608" y="3371.1" width="141.1" height="8.1"/>
	</g>
</g>
<g class="st0">
	<g class="st1">
		<g>
			<path class="st0" d="M7748.6,3874.5c0,19.1-4.2,32.9-12.7,41.5c-8.5,8.6-22.1,12.9-40.9,12.9c-22,0-75.3,0-160.1,0v-38.3
				c87.9,0,133.5,0,136.7,0s6-0.1,8.7-0.5c2.6-0.3,5.1-0.9,7.3-1.9c2.3-1,4.1-2.4,5.4-4.4c1.4-2,2-4.5,2-7.7c0-3.6-0.9-6.5-2.8-8.7
				c-1.9-2.2-4.3-3.8-7.3-4.7c-3-1-6.1-1.6-9.4-1.8c-3.2-0.2-7.2-0.3-11.8-0.3c-2.9-0.1-10.9-0.5-24.1-0.9
				c-20.7-0.7-33.8-1.2-39-1.5c-5.3-0.2-10.2-0.5-14.9-0.7c-4.7-0.2-8.6-0.5-12-0.8c-16.7-0.9-28.6-6.4-35.9-16.5
				c-5.1-7.5-7.7-18.7-7.7-33.6c0-18.3,3.5-32.1,10.6-41.3c7.1-9.2,18.8-13.8,35.2-13.8c21.8,0,77.2,0,166.2,0v38.3
				c-87.9,0-133.5,0-136.7,0c-3,0-5.7,0.2-8.1,0.5c-2.4,0.3-4.7,0.9-6.8,1.9c-2.1,1-3.8,2.4-5.1,4.4c-1.3,2-1.9,4.5-1.9,7.7
				c0,5.7,2,9.5,6.1,11.3c4.1,1.8,9.7,2.7,16.9,2.7h4.7c2.1,0,3.6,0,4.5,0c2.7,0.2,10.6,0.5,23.7,0.9c18,0.6,30.6,1.1,37.5,1.4
				c7,0.3,12.9,0.6,17.7,0.8c4.8,0.2,8.8,0.5,12,0.8c16.5,0.9,28.1,6.9,34.7,18C7746.2,3849.4,7748.6,3860.8,7748.6,3874.5z"/>
			<path d="M7930.9,3928.9h-55.2V3675h-77.8v-76.5h208.4v76.5h-75.3V3928.9z"/>
			<path class="st2" d="M7797.8,3751.6v41.1h77.8v0h55.2v0h75.3v-41.1H7797.8z"/>
			<path d="M8260.8,3852v76.9h-136h-54.6h-3.8v-330.3h2.3h56.2h136v76.5h-139.1v55.5h130.6v66.8h-130.6v54.6H8260.8z"/>
			<path d="M8393.8,3928.9h-74.4l85.9-163l-82.8-167.2h71.9l48.9,102.1l48.7-102.1h72.6l-83.7,167.2l87.5,163h-74.2l-50.3-99.2
				L8393.8,3928.9z"/>
		</g>
	</g>
	<g class="st1">
		<path class="st5" d="M7585.5,3682.6c-1.3,3.6-1.9,8.4-1.9,14.3c0,10.6,2,17.6,6.1,21c2.9,2.5,6.7,4,11.3,4.7v5.3h84.4
			c0.1,0,0.3,0,0.4,0h0c3.3,0.3,6.3,0.5,8.9,0.8c4.8,0.4,8.8,0.9,12,1.5c11.8,1.2,21,7.2,27.8,18.1c-2.5,4.9-3.3,12.1-0.4,19.4
			c1.1,2.7,2.1,5.1,2.9,7.5c-3.3,19.9-1.3,46.7-3.9,62.5c-1.2,7.6,0.2,13.8,2.7,17.6c-3.2,15.8-5.3,30.7-2.2,48.7
			c0.2,1.3,0.5,2.6,0.9,3.6c-8.6,14.2-21.7,21.3-39.4,21.3h-160.1v-71.4h136.7c0.9,0,1.9,0,2.8-0.1c0.8,0,1.5-0.1,2.3-0.2
			c1.3-0.1,2.5-0.3,3.6-0.5c2-0.4,3.8-1.2,5.6-2.3c0.6-0.4,1.2-0.8,1.7-1.2c2.3-1.8,4.1-4.5,5.4-8.2c1.4-3.6,2-8.4,2-14.3
			c0-6.7-0.9-12.1-2.8-16.2c-1.7-3.6-3.8-6.3-6.4-8.2c-0.3-0.2-0.6-0.4-1-0.6c-2.6-1.6-5.4-2.7-8.2-3.1v-6.3h-88.2
			c-0.5,0-0.9-0.1-1.4-0.1c-0.4,0-0.9-0.1-1.3-0.1c-4.7-0.4-8.6-0.9-12-1.5c-15.1-1.5-26.3-10-33.6-25.5c0.3-0.7,0.5-1.4,0.7-2.2
			c2.2-7.7,3.5-16.3,4.2-24.8c0.9-12.4-3.8-24.9-2.7-35.9c1.1-10.3,5.5-15.3,4.9-27.6c-0.7-13.7-6.3-23.5-7.6-36.6
			c-0.3-3.4-1-6.1-2-8c1-3.4,2-6.6,3.2-9.5c7.1-17.1,18.8-25.6,35.2-25.6h166.2v68.2H7601v3.4c-1.3,0.1-2.5,0.3-3.7,0.6
			c-2.4,0.6-4.7,1.8-6.8,3.6C7588.5,3676.2,7586.8,3678.9,7585.5,3682.6z"/>
		<path class="st5" d="M7586.9,3598.6v77.2c-7.1,0.8-9.8,13.8-8.1,23.9c-2.6,10.3-0.1,25.4,7.6,26.2c0.2,0,0.3,0.1,0.5,0.1v70.1
			h-52.1v-197.5H7586.9z"/>
		<rect x="7570.3" y="3668.7" class="st5" width="30.7" height="57.2"/>
		<rect x="7685.8" y="3727.9" class="st5" width="54.6" height="201"/>
		<path class="st5" d="M7676.6,3800.5h9.2h11.5v59.4h-11.5h-9.2h-2.3v-2.6c0.8,0,1.5-0.1,2.3-0.2v-54.8V3800.5z"/>
		<path class="st5" d="M7674.3,3857.3c0.8,0,1.5-0.1,2.3-0.2v5.7h-141.7v-5.4h136.7C7672.5,3857.4,7673.4,3857.4,7674.3,3857.3z"/>
		<rect x="7601" y="3659.9" class="st5" width="141.1" height="15.2"/>
	</g>
</g>
<g class="st0">
	<g class="st1">
		<g>
			<path class="st0" d="M7742.4,4746.9c0,19.1-4.2,32.9-12.7,41.5c-8.5,8.6-22.1,12.9-40.9,12.9c-22,0-75.3,0-160.1,0v-38.3
				c87.9,0,133.5,0,136.7,0s6-0.1,8.7-0.5c2.6-0.3,5.1-0.9,7.3-1.9c2.3-1,4.1-2.4,5.4-4.4c1.4-2,2-4.5,2-7.7c0-3.6-0.9-6.5-2.8-8.7
				c-1.9-2.2-4.3-3.8-7.3-4.7c-3-1-6.1-1.6-9.4-1.8c-3.2-0.2-7.2-0.3-11.8-0.3c-2.9-0.1-10.9-0.5-24.1-0.9
				c-20.7-0.8-33.8-1.2-39-1.5c-5.3-0.2-10.2-0.5-14.9-0.7c-4.7-0.2-8.6-0.5-12-0.8c-16.7-0.9-28.6-6.4-35.9-16.5
				c-5.1-7.5-7.7-18.7-7.7-33.6c0-18.3,3.5-32.1,10.6-41.3c7.1-9.2,18.8-13.8,35.2-13.8c21.8,0,77.2,0,166.2,0v38.3
				c-87.9,0-133.5,0-136.7,0c-3,0-5.7,0.2-8.1,0.5c-2.4,0.3-4.7,0.9-6.8,1.9c-2.1,1-3.8,2.4-5.1,4.4c-1.3,2-1.9,4.5-1.9,7.7
				c0,5.7,2,9.5,6.1,11.3c4.1,1.8,9.7,2.7,16.9,2.7h4.7c2.1,0,3.6,0,4.5,0c2.7,0.2,10.6,0.5,23.7,0.9c18,0.6,30.6,1.1,37.5,1.4
				c7,0.3,12.9,0.6,17.7,0.8c4.8,0.2,8.8,0.5,12,0.8c16.5,0.9,28.1,6.9,34.7,18C7740,4721.7,7742.4,4733.2,7742.4,4746.9z"/>
			<path d="M7924.6,4801.2h-55.2V4665h-77.8v-41h208.4v41h-75.3V4801.2z"/>
			<path class="st2" d="M7791.6,4623.9v41.1h77.8v0h55.2v0h75.3v-41.1H7791.6z"/>
			<path d="M8254.5,4759.9v41.3h-136H8064h-3.8V4624h2.3h56.2h136v41h-139.1v29.8H8246v35.9h-130.6v29.3H8254.5z"/>
			<path class="st6" d="M8387.6,4801.2h-74.4l85.9-87.5l-82.8-89.7h71.9l48.9,54.8l48.7-54.8h72.6l-83.7,89.7l87.5,87.5h-74.2
				l-50.3-53.2L8387.6,4801.2z"/>
		</g>
	</g>
	<g class="st1">
		<path d="M7579.3,4669c-1.3,2-1.9,4.5-1.9,7.7c0,5.7,2,9.5,6.1,11.3c2.9,1.3,6.7,2.1,11.3,2.5v2.8h84.4c0.1,0,0.3,0,0.4,0h0
			c3.3,0.1,6.3,0.3,8.9,0.4c4.8,0.2,8.8,0.5,12,0.8c11.8,0.6,21,3.9,27.8,9.7c-2.5,2.6-3.3,6.5-0.4,10.4c1.1,1.5,2.1,2.7,2.9,4
			c-3.3,10.7-1.3,25.1-3.9,33.6c-1.2,4.1,0.2,7.4,2.7,9.5c-3.2,8.5-5.3,16.5-2.2,26.1c0.2,0.7,0.5,1.4,0.9,2
			c-8.6,7.6-21.7,11.5-39.4,11.5h-160.1v-38.3h136.7c0.9,0,1.9,0,2.8,0c0.8,0,1.5-0.1,2.3-0.1c1.3-0.1,2.5-0.2,3.6-0.3
			c2-0.2,3.8-0.6,5.6-1.3c0.6-0.2,1.2-0.4,1.7-0.7c2.3-1,4.1-2.4,5.4-4.4c1.4-2,2-4.5,2-7.7c0-3.6-0.9-6.5-2.8-8.7
			c-1.7-1.9-3.8-3.4-6.4-4.4c-0.3-0.1-0.6-0.2-1-0.3c-2.6-0.9-5.4-1.4-8.2-1.7v-3.4h-88.2c-0.5,0-0.9,0-1.4-0.1
			c-0.4,0-0.9,0-1.3-0.1c-4.7-0.2-8.6-0.5-12-0.8c-15.1-0.8-26.3-5.4-33.6-13.7c0.3-0.4,0.5-0.8,0.7-1.2c2.2-4.1,3.5-8.7,4.2-13.3
			c0.9-6.6-3.8-13.4-2.7-19.3c1.1-5.6,5.5-8.2,4.9-14.8c-0.7-7.3-6.3-12.6-7.6-19.6c-0.3-1.8-1-3.2-2-4.3c1-1.8,2-3.5,3.2-5.1
			c7.1-9.2,18.8-13.8,35.2-13.8h166.2v36.6h-141.1v1.8c-1.3,0.1-2.5,0.2-3.7,0.3c-2.4,0.3-4.7,0.9-6.8,1.9
			C7582.2,4665.6,7580.5,4667.1,7579.3,4669z"/>
		<path d="M7580.7,4624v41.4c-7.1,0.4-9.8,7.4-8.1,12.8c-2.6,5.5-0.1,13.6,7.6,14.1c0.2,0,0.3,0,0.5,0v37.6h-52.1v-106H7580.7z"/>
		<rect x="7564.1" y="4661.6" width="30.7" height="30.7"/>
		<rect x="7679.6" y="4693.3" width="54.6" height="107.9"/>
		<path d="M7670.3,4732.3h9.2h11.5v31.9h-11.5h-9.2h-2.3v-1.4c0.8,0,1.5-0.1,2.3-0.1v-29.4V4732.3z"/>
		<path d="M7668.1,4762.8c0.8,0,1.5-0.1,2.3-0.1v3h-141.7v-2.9h136.7C7666.2,4762.9,7667.2,4762.8,7668.1,4762.8z"/>
		<rect x="7594.8" y="4656.8" width="141.1" height="8.1"/>
	</g>
</g>
<g class="st0">
	<g class="st1">
		<g>
			<path class="st0" d="M7732.3,5168.9c0,19.1-4.2,32.9-12.7,41.5c-8.5,8.6-22.1,12.9-40.9,12.9c-22,0-75.3,0-160.1,0v-38.3
				c87.9,0,133.5,0,136.7,0s6-0.1,8.7-0.5c2.6-0.3,5.1-0.9,7.3-1.9c2.3-1,4.1-2.4,5.4-4.4c1.4-2,2-4.5,2-7.7c0-3.6-0.9-6.5-2.8-8.7
				c-1.9-2.2-4.3-3.8-7.3-4.7c-3-1-6.1-1.6-9.4-1.8c-3.2-0.2-7.2-0.3-11.8-0.3c-2.9-0.1-10.9-0.5-24.1-0.9
				c-20.7-0.8-33.8-1.2-39-1.5c-5.3-0.2-10.2-0.5-14.9-0.7c-4.7-0.2-8.6-0.5-12-0.8c-16.7-0.9-28.6-6.4-35.9-16.5
				c-5.1-7.5-7.7-18.7-7.7-33.6c0-18.3,3.5-32.1,10.6-41.3c7.1-9.2,18.8-13.8,35.2-13.8c21.8,0,77.2,0,166.2,0v38.3
				c-87.9,0-133.5,0-136.7,0c-3,0-5.7,0.2-8.1,0.5c-2.4,0.3-4.7,0.9-6.8,1.9c-2.1,1-3.8,2.4-5.1,4.4c-1.3,2-1.9,4.5-1.9,7.7
				c0,5.7,2,9.5,6.1,11.3c4.1,1.8,9.7,2.7,16.9,2.7h4.7c2.1,0,3.6,0,4.5,0c2.7,0.2,10.6,0.5,23.7,0.9c18,0.6,30.6,1.1,37.5,1.4
				c7,0.3,12.9,0.6,17.7,0.8c4.8,0.2,8.8,0.5,12,0.8c16.5,0.9,28.1,6.9,34.7,18C7729.9,5143.7,7732.3,5155.2,7732.3,5168.9z"/>
			<path class="st6" d="M7914.5,5223.2h-55.2V5087h-77.8v-41h208.4v41h-75.3V5223.2z"/>
			<path class="st2" d="M7781.5,5045.9v41.1h77.8v0h55.2v0h75.3v-41.1H7781.5z"/>
			<path d="M8244.5,5181.9v41.3h-136h-54.6h-3.8V5046h2.3h56.2h136v41h-139.1v29.8h130.6v35.9h-130.6v29.3H8244.5z"/>
			<path d="M8377.5,5223.2h-74.4l85.9-87.5l-82.8-89.7h71.9l48.9,54.8l48.7-54.8h72.6l-83.7,89.7l87.5,87.5h-74.2l-50.3-53.2
				L8377.5,5223.2z"/>
		</g>
	</g>
	<g class="st1">
		<path class="st6" d="M7569.2,5091c-1.3,2-1.9,4.5-1.9,7.7c0,5.7,2,9.5,6.1,11.3c2.9,1.3,6.7,2.1,11.3,2.5v2.8h84.4
			c0.1,0,0.3,0,0.4,0h0c3.3,0.1,6.3,0.3,8.9,0.4c4.8,0.2,8.8,0.5,12,0.8c11.8,0.6,21,3.9,27.8,9.7c-2.5,2.6-3.3,6.5-0.4,10.4
			c1.1,1.5,2.1,2.7,2.9,4c-3.3,10.7-1.3,25.1-3.9,33.6c-1.2,4.1,0.2,7.4,2.7,9.5c-3.2,8.5-5.3,16.5-2.2,26.1c0.2,0.7,0.5,1.4,0.9,2
			c-8.6,7.6-21.7,11.5-39.4,11.5h-160.1v-38.3h136.7c0.9,0,1.9,0,2.8,0c0.8,0,1.5-0.1,2.3-0.1c1.3-0.1,2.5-0.2,3.6-0.3
			c2-0.2,3.8-0.6,5.6-1.3c0.6-0.2,1.2-0.4,1.7-0.7c2.3-1,4.1-2.4,5.4-4.4c1.4-2,2-4.5,2-7.7c0-3.6-0.9-6.5-2.8-8.7
			c-1.7-1.9-3.8-3.4-6.4-4.4c-0.3-0.1-0.6-0.2-1-0.3c-2.6-0.9-5.4-1.4-8.2-1.7v-3.4h-88.2c-0.5,0-0.9,0-1.4-0.1
			c-0.4,0-0.9,0-1.3-0.1c-4.7-0.2-8.6-0.5-12-0.8c-15.1-0.8-26.3-5.4-33.6-13.7c0.3-0.4,0.5-0.8,0.7-1.2c2.2-4.1,3.5-8.7,4.2-13.3
			c0.9-6.6-3.8-13.4-2.7-19.3c1.1-5.6,5.5-8.2,4.9-14.8c-0.7-7.3-6.3-12.6-7.6-19.6c-0.3-1.8-1-3.2-2-4.3c1-1.8,2-3.5,3.2-5.1
			c7.1-9.2,18.8-13.8,35.2-13.8h166.2v36.6h-141.1v1.8c-1.3,0.1-2.5,0.2-3.7,0.3c-2.4,0.3-4.7,0.9-6.8,1.9
			C7572.1,5087.6,7570.5,5089.1,7569.2,5091z"/>
		<path class="st6" d="M7570.6,5046v41.4c-7.1,0.4-9.8,7.4-8.1,12.8c-2.6,5.5-0.1,13.6,7.6,14.1c0.2,0,0.3,0,0.5,0v37.6h-52.1v-106
			H7570.6z"/>
		<rect x="7554" y="5083.6" class="st6" width="30.7" height="30.7"/>
		<rect x="7669.5" y="5115.3" class="st6" width="54.6" height="107.9"/>
		<path class="st6" d="M7660.3,5154.3h9.2h11.5v31.9h-11.5h-9.2h-2.3v-1.4c0.8,0,1.5-0.1,2.3-0.1v-29.4V5154.3z"/>
		<path class="st6" d="M7658,5184.8c0.8,0,1.5-0.1,2.3-0.1v3h-141.7v-2.9h136.7C7656.2,5184.9,7657.1,5184.8,7658,5184.8z"/>
		<rect x="7584.7" y="5078.8" class="st6" width="141.1" height="8.1"/>
	</g>
</g>
<g class="st0">
	<g class="st1">
		<g>
			<path class="st0" d="M7740.3,5592.9c0,19.1-4.2,32.9-12.7,41.5c-8.5,8.6-22.1,12.9-40.9,12.9c-22,0-75.3,0-160.1,0v-38.3
				c87.9,0,133.5,0,136.7,0s6-0.1,8.7-0.5c2.6-0.3,5.1-0.9,7.3-1.9c2.3-1,4.1-2.4,5.4-4.4c1.4-2,2-4.5,2-7.7c0-3.6-0.9-6.5-2.8-8.7
				c-1.9-2.2-4.3-3.8-7.3-4.7c-3-1-6.1-1.6-9.4-1.8c-3.2-0.2-7.2-0.3-11.8-0.3c-2.9-0.1-10.9-0.5-24.1-0.9
				c-20.7-0.8-33.8-1.2-39-1.5c-5.3-0.2-10.2-0.5-14.9-0.7c-4.7-0.2-8.6-0.5-12-0.8c-16.7-0.9-28.6-6.4-35.9-16.5
				c-5.1-7.5-7.7-18.7-7.7-33.6c0-18.3,3.5-32.1,10.6-41.3c7.1-9.2,18.8-13.8,35.2-13.8c21.8,0,77.2,0,166.2,0v38.3
				c-87.9,0-133.5,0-136.7,0c-3,0-5.7,0.2-8.1,0.5c-2.4,0.3-4.7,0.9-6.8,1.9c-2.1,1-3.8,2.4-5.1,4.4c-1.3,2-1.9,4.5-1.9,7.7
				c0,5.7,2,9.5,6.1,11.3c4.1,1.8,9.7,2.7,16.9,2.7h4.7c2.1,0,3.6,0,4.5,0c2.7,0.2,10.6,0.5,23.7,0.9c18,0.6,30.6,1.1,37.5,1.4
				c7,0.3,12.9,0.6,17.7,0.8c4.8,0.2,8.8,0.5,12,0.8c16.5,0.9,28.1,6.9,34.7,18C7737.9,5567.7,7740.3,5579.2,7740.3,5592.9z"/>
			<path d="M7922.5,5647.2h-55.2V5511h-77.8v-41h208.4v41h-75.3V5647.2z"/>
			<path class="st2" d="M7789.5,5469.9v41.1h77.8v0h55.2v0h75.3v-41.1H7789.5z"/>
			<path d="M8252.5,5605.9v41.3h-136h-54.6h-3.8V5470h2.3h56.2h136v41h-139.1v29.8h130.6v35.9h-130.6v29.3H8252.5z"/>
			<path d="M8385.5,5647.2h-74.4l85.9-87.5l-82.8-89.7h71.9l48.9,54.8l48.7-54.8h72.6l-83.7,89.7l87.5,87.5h-74.2l-50.3-53.2
				L8385.5,5647.2z"/>
		</g>
	</g>
	<g class="st1">
		<path d="M7577.2,5515c-1.3,2-1.9,4.5-1.9,7.7c0,5.7,2,9.5,6.1,11.3c2.9,1.3,6.7,2.1,11.3,2.5v2.8h84.4c0.1,0,0.3,0,0.4,0h0
			c3.3,0.1,6.3,0.3,8.9,0.4c4.8,0.2,8.8,0.5,12,0.8c11.8,0.6,21,3.9,27.8,9.7c-2.5,2.6-3.3,6.5-0.4,10.4c1.1,1.5,2.1,2.7,2.9,4
			c-3.3,10.7-1.3,25.1-3.9,33.6c-1.2,4.1,0.2,7.4,2.7,9.5c-3.2,8.5-5.3,16.5-2.2,26.1c0.2,0.7,0.5,1.4,0.9,2
			c-8.6,7.6-21.7,11.5-39.4,11.5h-160.1v-38.3h136.7c0.9,0,1.9,0,2.8,0c0.8,0,1.5-0.1,2.3-0.1c1.3-0.1,2.5-0.2,3.6-0.3
			c2-0.2,3.8-0.6,5.6-1.3c0.6-0.2,1.2-0.4,1.7-0.7c2.3-1,4.1-2.4,5.4-4.4c1.4-2,2-4.5,2-7.7c0-3.6-0.9-6.5-2.8-8.7
			c-1.7-1.9-3.8-3.4-6.4-4.4c-0.3-0.1-0.6-0.2-1-0.3c-2.6-0.9-5.4-1.4-8.2-1.7v-3.4h-88.2c-0.5,0-0.9,0-1.4-0.1
			c-0.4,0-0.9,0-1.3-0.1c-4.7-0.2-8.6-0.5-12-0.8c-15.1-0.8-26.3-5.4-33.6-13.7c0.3-0.4,0.5-0.8,0.7-1.2c2.2-4.1,3.5-8.7,4.2-13.3
			c0.9-6.6-3.8-13.4-2.7-19.3c1.1-5.6,5.5-8.2,4.9-14.8c-0.7-7.3-6.3-12.6-7.6-19.6c-0.3-1.8-1-3.2-2-4.3c1-1.8,2-3.5,3.2-5.1
			c7.1-9.2,18.8-13.8,35.2-13.8h166.2v36.6h-141.1v1.8c-1.3,0.1-2.5,0.2-3.7,0.3c-2.4,0.3-4.7,0.9-6.8,1.9
			C7580.1,5511.6,7578.5,5513.1,7577.2,5515z"/>
		<path d="M7578.6,5470v41.4c-7.1,0.4-9.8,7.4-8.1,12.8c-2.6,5.5-0.1,13.6,7.6,14.1c0.2,0,0.3,0,0.5,0v37.6h-52.1v-106H7578.6z"/>
		<rect x="7562" y="5507.6" width="30.7" height="30.7"/>
		<rect x="7677.5" y="5539.3" width="54.6" height="107.9"/>
		<path d="M7668.3,5578.3h9.2h11.5v31.9h-11.5h-9.2h-2.3v-1.4c0.8,0,1.5-0.1,2.3-0.1v-29.4V5578.3z"/>
		<path d="M7666,5608.8c0.8,0,1.5-0.1,2.3-0.1v3h-141.7v-2.9h136.7C7664.2,5608.9,7665.1,5608.8,7666,5608.8z"/>
		<rect x="7592.7" y="5502.8" width="141.1" height="8.1"/>
	</g>
	<path class="st6" d="M8113.3,5540.8v36.2h130.6v-36.2H8113.3z"/>
	<polygon class="st7" points="8471.2,5556.5 8435.8,5594 8435.8,5594 8385.5,5647.2 8311.1,5647.2 8397,5559.7 8314.2,5469.9 
		8386.2,5469.9 	"/>
</g>
<g class="st0">
	<g class="st1">
		<g>
			<path class="st2" d="M7733.3,6070.9c0,19.1-4.2,32.9-12.7,41.5c-8.5,8.6-22.1,12.9-40.9,12.9c-22,0-75.3,0-160.1,0v-38.3
				c87.9,0,133.5,0,136.7,0s6-0.1,8.7-0.5c2.6-0.3,5.1-0.9,7.3-1.9c2.3-1,4.1-2.4,5.4-4.4c1.4-2,2-4.5,2-7.7c0-3.6-0.9-6.5-2.8-8.7
				c-1.9-2.2-4.3-3.8-7.3-4.7c-3-1-6.1-1.6-9.4-1.8c-3.2-0.2-7.2-0.3-11.8-0.3c-2.9-0.1-10.9-0.5-24.1-0.9
				c-20.7-0.8-33.8-1.2-39-1.5c-5.3-0.2-10.2-0.5-14.9-0.7c-4.7-0.2-8.6-0.5-12-0.8c-16.7-0.9-28.6-6.4-35.9-16.5
				c-5.1-7.5-7.7-18.7-7.7-33.6c0-18.3,3.5-32.1,10.6-41.3c7.1-9.2,18.8-13.8,35.2-13.8c21.8,0,77.2,0,166.2,0v38.3
				c-87.9,0-133.5,0-136.7,0c-3,0-5.7,0.2-8.1,0.5c-2.4,0.3-4.7,0.9-6.8,1.9c-2.1,1-3.8,2.4-5.1,4.4c-1.3,2-1.9,4.5-1.9,7.7
				c0,5.7,2,9.5,6.1,11.3c4.1,1.8,9.7,2.7,16.9,2.7h4.7c2.1,0,3.6,0,4.5,0c2.7,0.2,10.6,0.5,23.7,0.9c18,0.6,30.6,1.1,37.5,1.4
				c7,0.3,12.9,0.6,17.7,0.8c4.8,0.2,8.8,0.5,12,0.8c16.5,0.9,28.1,6.9,34.7,18C7730.9,6045.7,7733.3,6057.2,7733.3,6070.9z"/>
			<path class="st6" d="M7915.5,6125.2h-55.2V5989h-77.8v-41h208.4v41h-75.3V6125.2z"/>
			<path class="st2" d="M7782.5,5947.9v41.1h77.8v0h55.2v0h75.3v-41.1H7782.5z"/>
			<path class="st6" d="M8245.5,6083.9v41.3h-136h-54.6h-3.8V5948h2.3h56.2h136v41h-139.1v29.8h130.6v35.9h-130.6v29.3H8245.5z"/>
			<path class="st6" d="M8378.5,6125.2h-74.4l85.9-87.5l-82.8-89.7h71.9l48.9,54.8l48.7-54.8h72.6l-83.7,89.7l87.5,87.5h-74.2
				l-50.3-53.2L8378.5,6125.2z"/>
		</g>
	</g>
	<g class="st1">
		<path class="st6" d="M7570.2,5993c-1.3,2-1.9,4.5-1.9,7.7c0,5.7,2,9.5,6.1,11.3c2.9,1.3,6.7,2.1,11.3,2.5v2.8h84.4
			c0.1,0,0.3,0,0.4,0h0c3.3,0.1,6.3,0.3,8.9,0.4c4.8,0.2,8.8,0.5,12,0.8c11.8,0.6,21,3.9,27.8,9.7c-2.5,2.6-3.3,6.5-0.4,10.4
			c1.1,1.5,2.1,2.7,2.9,4c-3.3,10.7-1.3,25.1-3.9,33.6c-1.2,4.1,0.2,7.4,2.7,9.5c-3.2,8.5-5.3,16.5-2.2,26.1c0.2,0.7,0.5,1.4,0.9,2
			c-8.6,7.6-21.7,11.5-39.4,11.5h-160.1v-38.3h136.7c0.9,0,1.9,0,2.8,0c0.8,0,1.5-0.1,2.3-0.1c1.3-0.1,2.5-0.2,3.6-0.3
			c2-0.2,3.8-0.6,5.6-1.3c0.6-0.2,1.2-0.4,1.7-0.7c2.3-1,4.1-2.4,5.4-4.4c1.4-2,2-4.5,2-7.7c0-3.6-0.9-6.5-2.8-8.7
			c-1.7-1.9-3.8-3.4-6.4-4.4c-0.3-0.1-0.6-0.2-1-0.3c-2.6-0.9-5.4-1.4-8.2-1.7v-3.4h-88.2c-0.5,0-0.9,0-1.4-0.1
			c-0.4,0-0.9,0-1.3-0.1c-4.7-0.2-8.6-0.5-12-0.8c-15.1-0.8-26.3-5.4-33.6-13.7c0.3-0.4,0.5-0.8,0.7-1.2c2.2-4.1,3.5-8.7,4.2-13.3
			c0.9-6.6-3.8-13.4-2.7-19.3c1.1-5.6,5.5-8.2,4.9-14.8c-0.7-7.3-6.3-12.6-7.6-19.6c-0.3-1.8-1-3.2-2-4.3c1-1.8,2-3.5,3.2-5.1
			c7.1-9.2,18.8-13.8,35.2-13.8h166.2v36.6h-141.1v1.8c-1.3,0.1-2.5,0.2-3.7,0.3c-2.4,0.3-4.7,0.9-6.8,1.9
			C7573.1,5989.6,7571.5,5991.1,7570.2,5993z"/>
		<path class="st6" d="M7571.6,5948v41.4c-7.1,0.4-9.8,7.4-8.1,12.8c-2.6,5.5-0.1,13.6,7.6,14.1c0.2,0,0.3,0,0.5,0v37.6h-52.1v-106
			H7571.6z"/>
		<rect x="7555" y="5985.6" class="st6" width="30.7" height="30.7"/>
		<rect x="7670.5" y="6017.3" class="st6" width="54.6" height="107.9"/>
		<path class="st6" d="M7661.3,6056.3h9.2h11.5v31.9h-11.5h-9.2h-2.3v-1.4c0.8,0,1.5-0.1,2.3-0.1v-29.4V6056.3z"/>
		<path class="st6" d="M7659,6086.8c0.8,0,1.5-0.1,2.3-0.1v3h-141.7v-2.9h136.7C7657.2,6086.9,7658.1,6086.8,7659,6086.8z"/>
		<rect x="7585.7" y="5980.8" class="st6" width="141.1" height="8.1"/>
	</g>
</g>
<g class="st0">
	<g class="st1">
		<g>
			<linearGradient id="SVGID_1_" gradientUnits="userSpaceOnUse" x1="7513.8213" y1="6564.5742" x2="7732.3335" y2="6564.5742">
				<stop  offset="0" style="stop-color:#000000"/>
				<stop  offset="1" style="stop-color:#000000"/>
			</linearGradient>
			<path class="st8" d="M7732.3,6598.9c0,19.1-4.2,32.9-12.7,41.5c-8.5,8.6-22.1,12.9-40.9,12.9c-22,0-75.3,0-160.1,0v-38.3
				c87.9,0,133.5,0,136.7,0s6-0.1,8.7-0.5c2.6-0.3,5.1-0.9,7.3-1.9c2.3-1,4.1-2.4,5.4-4.4c1.4-2,2-4.5,2-7.7c0-3.6-0.9-6.5-2.8-8.7
				c-1.9-2.2-4.3-3.8-7.3-4.7c-3-1-6.1-1.6-9.4-1.8c-3.2-0.2-7.2-0.3-11.8-0.3c-2.9-0.1-10.9-0.5-24.1-0.9
				c-20.7-0.8-33.8-1.2-39-1.5c-5.3-0.2-10.2-0.5-14.9-0.7c-4.7-0.2-8.6-0.5-12-0.8c-16.7-0.9-28.6-6.4-35.9-16.5
				c-5.1-7.5-7.7-18.7-7.7-33.6c0-18.3,3.5-32.1,10.6-41.3c7.1-9.2,18.8-13.8,35.2-13.8c21.8,0,77.2,0,166.2,0v38.3
				c-87.9,0-133.5,0-136.7,0c-3,0-5.7,0.2-8.1,0.5c-2.4,0.3-4.7,0.9-6.8,1.9c-2.1,1-3.8,2.4-5.1,4.4c-1.3,2-1.9,4.5-1.9,7.7
				c0,5.7,2,9.5,6.1,11.3c4.1,1.8,9.7,2.7,16.9,2.7h4.7c2.1,0,3.6,0,4.5,0c2.7,0.2,10.6,0.5,23.7,0.9c18,0.6,30.6,1.1,37.5,1.4
				c7,0.3,12.9,0.6,17.7,0.8c4.8,0.2,8.8,0.5,12,0.8c16.5,0.9,28.1,6.9,34.7,18C7729.9,6573.7,7732.3,6585.2,7732.3,6598.9z"/>
			<linearGradient id="SVGID_2_" gradientUnits="userSpaceOnUse" x1="7781.4951" y1="6564.5742" x2="7989.8594" y2="6564.5742">
				<stop  offset="0" style="stop-color:#000000"/>
				<stop  offset="1" style="stop-color:#000000"/>
			</linearGradient>
			<path class="st9" d="M7914.5,6653.2h-55.2V6517h-77.8v-41h208.4v41h-75.3V6653.2z"/>
			<linearGradient id="SVGID_3_" gradientUnits="userSpaceOnUse" x1="7781.4888" y1="6496.4824" x2="7989.8613" y2="6496.4824">
				<stop  offset="0" style="stop-color:#000000"/>
				<stop  offset="1" style="stop-color:#000000"/>
			</linearGradient>
			<path class="st10" d="M7781.5,6475.9v41.1h77.8v0h55.2v0h75.3v-41.1H7781.5z"/>
			<linearGradient id="SVGID_4_" gradientUnits="userSpaceOnUse" x1="8050.0693" y1="6564.5742" x2="8244.4521" y2="6564.5742">
				<stop  offset="0" style="stop-color:#000000"/>
				<stop  offset="1" style="stop-color:#000000"/>
			</linearGradient>
			<path class="st11" d="M8244.5,6611.9v41.3h-136h-54.6h-3.8V6476h2.3h56.2h136v41h-139.1v29.8h130.6v35.9h-130.6v29.3H8244.5z"/>
			<linearGradient id="SVGID_5_" gradientUnits="userSpaceOnUse" x1="8303.084" y1="6564.5742" x2="8552.2646" y2="6564.5742">
				<stop  offset="0" style="stop-color:#000000"/>
				<stop  offset="1" style="stop-color:#000000"/>
			</linearGradient>
			<path class="st12" d="M8377.5,6653.2h-74.4l85.9-87.5l-82.8-89.7h71.9l48.9,54.8l48.7-54.8h72.6l-83.7,89.7l87.5,87.5h-74.2
				l-50.3-53.2L8377.5,6653.2z"/>
		</g>
	</g>
	<g class="st1">
		<linearGradient id="SVGID_6_" gradientUnits="userSpaceOnUse" x1="7518.561" y1="6564.5762" x2="7725.8032" y2="6564.5762">
			<stop  offset="0" style="stop-color:#000000"/>
			<stop  offset="1" style="stop-color:#000000"/>
		</linearGradient>
		<path class="st13" d="M7569.2,6521c-1.3,2-1.9,4.5-1.9,7.7c0,5.7,2,9.5,6.1,11.3c2.9,1.3,6.7,2.1,11.3,2.5v2.8h84.4
			c0.1,0,0.3,0,0.4,0h0c3.3,0.1,6.3,0.3,8.9,0.4c4.8,0.2,8.8,0.5,12,0.8c11.8,0.6,21,3.9,27.8,9.7c-2.5,2.6-3.3,6.5-0.4,10.4
			c1.1,1.5,2.1,2.7,2.9,4c-3.3,10.7-1.3,25.1-3.9,33.6c-1.2,4.1,0.2,7.4,2.7,9.5c-3.2,8.5-5.3,16.5-2.2,26.1c0.2,0.7,0.5,1.4,0.9,2
			c-8.6,7.6-21.7,11.5-39.4,11.5h-160.1v-38.3h136.7c0.9,0,1.9,0,2.8,0c0.8,0,1.5-0.1,2.3-0.1c1.3-0.1,2.5-0.2,3.6-0.3
			c2-0.2,3.8-0.6,5.6-1.3c0.6-0.2,1.2-0.4,1.7-0.7c2.3-1,4.1-2.4,5.4-4.4c1.4-2,2-4.5,2-7.7c0-3.6-0.9-6.5-2.8-8.7
			c-1.7-1.9-3.8-3.4-6.4-4.4c-0.3-0.1-0.6-0.2-1-0.3c-2.6-0.9-5.4-1.4-8.2-1.7v-3.4h-88.2c-0.5,0-0.9,0-1.4-0.1
			c-0.4,0-0.9,0-1.3-0.1c-4.7-0.2-8.6-0.5-12-0.8c-15.1-0.8-26.3-5.4-33.6-13.7c0.3-0.4,0.5-0.8,0.7-1.2c2.2-4.1,3.5-8.7,4.2-13.3
			c0.9-6.6-3.8-13.4-2.7-19.3c1.1-5.6,5.5-8.2,4.9-14.8c-0.7-7.3-6.3-12.6-7.6-19.6c-0.3-1.8-1-3.2-2-4.3c1-1.8,2-3.5,3.2-5.1
			c7.1-9.2,18.8-13.8,35.2-13.8h166.2v36.6h-141.1v1.8c-1.3,0.1-2.5,0.2-3.7,0.3c-2.4,0.3-4.7,0.9-6.8,1.9
			C7572.1,6517.6,7570.5,6519.1,7569.2,6521z"/>
		<linearGradient id="SVGID_7_" gradientUnits="userSpaceOnUse" x1="7518.4839" y1="6528.9561" x2="7570.6328" y2="6528.9561">
			<stop  offset="0" style="stop-color:#000000"/>
			<stop  offset="1" style="stop-color:#000000"/>
		</linearGradient>
		<path class="st14" d="M7570.6,6476v41.4c-7.1,0.4-9.8,7.4-8.1,12.8c-2.6,5.5-0.1,13.6,7.6,14.1c0.2,0,0.3,0,0.5,0v37.6h-52.1v-106
			H7570.6z"/>
		<linearGradient id="SVGID_8_" gradientUnits="userSpaceOnUse" x1="7554.0171" y1="6528.9561" x2="7584.6953" y2="6528.9561">
			<stop  offset="0" style="stop-color:#000000"/>
			<stop  offset="1" style="stop-color:#000000"/>
		</linearGradient>
		<rect x="7554" y="6513.6" class="st15" width="30.7" height="30.7"/>
		<linearGradient id="SVGID_9_" gradientUnits="userSpaceOnUse" x1="7669.479" y1="6599.2671" x2="7724.1011" y2="6599.2671">
			<stop  offset="0" style="stop-color:#000000"/>
			<stop  offset="1" style="stop-color:#000000"/>
		</linearGradient>
		<rect x="7669.5" y="6545.3" class="st16" width="54.6" height="107.9"/>
		<linearGradient id="SVGID_10_" gradientUnits="userSpaceOnUse" x1="7658.0059" y1="6600.2451" x2="7680.9468" y2="6600.2451">
			<stop  offset="0" style="stop-color:#000000"/>
			<stop  offset="1" style="stop-color:#000000"/>
		</linearGradient>
		<path class="st17" d="M7660.3,6584.3h9.2h11.5v31.9h-11.5h-9.2h-2.3v-1.4c0.8,0,1.5-0.1,2.3-0.1v-29.4V6584.3z"/>
		<linearGradient id="SVGID_11_" gradientUnits="userSpaceOnUse" x1="7518.561" y1="6616.2222" x2="7660.2686" y2="6616.2222">
			<stop  offset="0" style="stop-color:#000000"/>
			<stop  offset="1" style="stop-color:#000000"/>
		</linearGradient>
		<path class="st18" d="M7658,6614.8c0.8,0,1.5-0.1,2.3-0.1v3h-141.7v-2.9h136.7C7656.2,6614.9,7657.1,6614.8,7658,6614.8z"/>
		<linearGradient id="SVGID_12_" gradientUnits="userSpaceOnUse" x1="7584.6953" y1="6512.9189" x2="7725.8032" y2="6512.9189">
			<stop  offset="0" style="stop-color:#000000"/>
			<stop  offset="1" style="stop-color:#000000"/>
		</linearGradient>
		<rect x="7584.7" y="6508.8" class="st19" width="141.1" height="8.1"/>
	</g>
</g>
<text transform="matrix(1 0 0 1 7538.5396 4350.9487)" class="st0" style="font-family:'ATROX-normal'; font-size:260.4471px;">S</text>
<rect x="7096.1" y="4294.7" class="st20" width="37.5" height="32.7"/>
<rect x="7016" y="4229.7" class="st20" width="37.5" height="28.3"/>
<text transform="matrix(1 0 0 1 7594.5474 4435.0747)" class="st0" style="font-family:'BackInTheUSSRDL'; font-size:230.8229px;">STEX</text>
<path class="st2" d="M7554.1,4042l-16.7,16.7c-0.3-0.4-0.5-0.8-0.9-1.2c1-1.8,2-3.5,3.2-5.1
	C7543.3,4047.7,7548.1,4044.3,7554.1,4042z"/>
<path class="st2" d="M7537.4,4058.7C7537.4,4058.7,7537.4,4058.7,7537.4,4058.7l-3.6,3.6v0L7537.4,4058.7z"/>
<path class="st2" d="M7557.5,4038.6l-3.3,3.3c0,0,0,0,0,0L7557.5,4038.6L7557.5,4038.6z"/>
<path class="st2" d="M7733.4,4204.4c-4,3.6-9.1,6.3-15.1,8.2l13.4-13.4c0.2,1,0.5,2.1,0.9,3.2
	C7732.8,4203.2,7733.1,4203.8,7733.4,4204.4z"/>
<g>
	<g>
		<g>
			<g>
				<path class="st0" d="M4149.5,2489.4c0,251.4-56,433.5-167.8,546.4c-111.9,112.8-291.5,169.3-538.9,169.3
					c-289.1,0-991.8,0-2108.3,0v-504.8c1158.1,0,1757.9,0,1799.5,0s79.7-1.9,114.3-5.9c34.6-3.9,66.8-12.3,96.5-25.2
					c29.7-12.9,53.4-32.2,71.3-57.9c17.8-25.7,26.7-59.4,26.7-101c0-47.5-12.4-85.6-37.1-114.3c-24.8-28.7-56.9-49.5-96.5-62.4
					c-39.6-12.8-80.7-20.8-123.2-23.8c-42.6-3-94.6-4.5-155.9-4.5c-37.6-1.9-143.6-5.9-317.7-11.9c-273.2-9.9-444.4-16.3-513.7-19.3
					c-69.3-3-134.6-5.9-196-8.9c-61.4-3-113.9-6.4-157.4-10.4c-219.7-11.9-377.1-84.1-472.1-216.8c-67.3-99-101-246.5-101-442.4
					c0-241.5,46.5-422.6,139.6-543.4c93-120.7,247.4-181.1,463.2-181.1c287,0,1016.5,0,2188.4,0v504.8c-1158.1,0-1757.9,0-1799.5,0
					c-39.6,0-75.3,2-106.9,5.9c-31.7,4-61.4,12.4-89.1,25.2c-27.7,12.9-50,32.2-66.8,57.9c-16.8,25.7-25.2,59.4-25.2,101
					c0,75.3,26.7,124.7,80.2,148.5c53.5,23.8,127.7,35.6,222.7,35.6h62.4c27.7,0,47.5,0,59.4,0c35.6,2,139.6,5.9,311.8,11.9
					c237.5,7.9,402.3,13.9,494.4,17.8c92.1,4,169.7,7.4,233.1,10.4c63.3,3,115.8,6.4,157.4,10.4c217.7,11.9,370.2,91.1,457.3,237.5
					C4117.8,2158.9,4149.5,2309.3,4149.5,2489.4z"/>
				<path d="M6548.8,3205.1h-727.5V1411.5H4796.8V871.1h2743.7v540.4h-991.8V3205.1z"/>
				<path class="st0" d="M4796.7,871.1v540.6h1024.5v0.2h727.4v-0.2h991.9V871.1H4796.7z"/>
				<path d="M10893,2661.7v543.4H9102.4h-718.6h-50.5V871.1h29.7h739.4H10893v540.4H9060.9v392h1719.3v472.1H9060.9v386H10893z"/>
				<path d="M12644.9,3205.1H11665l1131.3-1152.1L11706.6,871.1h947.2l644.4,721.5l641.4-721.5h956.1l-1101.6,1181.8l1152.1,1152.1
					h-976.9l-662.2-700.8L12644.9,3205.1z"/>
			</g>
		</g>
		<g>
			<path d="M4063.4,871.2v482.1h-1858v24.2c-17.1,1.1-33.2,2.4-48.5,4.3c-31.6,4.1-61.4,12.5-89.1,25.3
				c-27.8,12.9-49.9,32-66.8,57.8c-16.7,25.7-25.2,59.5-25.2,101.1c0,75.1,26.7,124.4,80.2,148.4c38.7,17.4,88.6,28.3,149.3,32.9
				v37.1h1111c1.8,0,3.6,0.3,5.4,0.3h0.3c43.5,1.8,82.7,3.6,117.6,5.4c63.5,3,115.9,6.3,157.5,10.4
				c155.1,8.4,276.8,51.2,365.7,127.9c-33.1,34.9-44,85.6-5.5,137.1c14,19.1,27,36.1,38.7,52.7c-43.1,140.4-17.6,330.1-51.7,441.9
				c-16.3,54,2.1,97.3,35.4,124.6c-37.3,98.1-63.6,192.1-40.8,299.8l-179.3,179.3c-89,27.5-194.6,41.2-316.8,41.2H1334.5v-504.9
				H3134c12.5,0,24.8-0.3,36.7-0.5c10.1-0.3,20-0.8,29.8-1.4c16.6-0.8,32.4-2.1,47.7-3.8c25.9-3.2,50.4-8.4,73.6-16.6
				c7.9-2.5,15.5-5.4,22.9-8.7c29.8-13,53.5-32.1,71.2-58.1c17.9-25.7,26.7-59.4,26.7-100.9c0-47.7-12.4-85.6-37.1-114.3
				c-21.9-25.5-49.9-44.9-83.7-57.9c-4.1-1.4-8.4-3-12.8-4.5c-34.9-11.2-71.1-18.8-108.5-22.3V2267H2039c-6.3-0.3-12.4-0.5-18.8-1.1
				c-5.8-0.3-11.7-0.5-17.5-0.8c-61.4-2.8-113.9-6.3-157.5-10.4c-198.3-10.7-345.8-70.8-442.6-180.1c3.6-4.7,6.8-9.9,9.6-15.5
				c28.6-54.3,46.6-114.8,55-175.4c12-87.4-50.7-176.3-35.4-254c14.2-73.1,72.6-108.2,64-195c-9.7-96.7-83.4-166.2-100.5-258.6
				c-3-15.9-8-29.4-14.6-40.8l220-220c76.4-29.4,167.9-44,274.3-44H4063.4z"/>
			<path d="M2020.2,871.2v545.5c-93.5,5.4-129,97.3-106.9,168.9c-34.1,72.6-0.8,179.2,99.8,185.4c2.4,0.3,4.6,0.5,7.1,0.5V2267
				h-686.7V1182.2l47.1-47.1c0,0,0,0.1,0.1,0.1l220-220c-0.1,0-0.3,0.1-0.4,0.1l44.1-44.1H2020.2z"/>
			<rect x="1801.4" y="1367.1" width="404" height="404"/>
			<path d="M4041,1784.8v1099.9l-101.8,101.8c-0.1-0.7-0.3-1.3-0.4-2l-179.3,179.3c1.2-0.4,2.2-0.7,3.4-1.1l-42.1,42.3h-399V1784.8
				H4041z"/>
			<path d="M3200.5,2297.8h121.2h151v420h-151h-121.2h-29.8v-18.1c10.2-0.3,20.1-0.8,29.8-1.5v-386.9V2297.8z"/>
			<path d="M3170.7,2699.7c10.2-0.3,20.1-0.8,29.8-1.5v40h-1866v-37.9H3134C3146.5,2700.2,3158.7,2700,3170.7,2699.7z"/>
			<rect x="2205.4" y="1304.3" width="1858.1" height="107.2"/>
		</g>
	</g>
	<path d="M3759.5,3163.9c1.2-0.4,2.2-0.7,3.4-1.1l-42.1,42.3h-2.5L3759.5,3163.9z"/>
	<path d="M4041,2882.3v2.4l-101.8,101.8c-0.1-0.7-0.3-1.3-0.4-2L4041,2882.3z"/>
	<rect x="3547.9" y="2786.8" transform="matrix(0.7071 -0.7071 0.7071 0.7071 -971.9841 3529.2412)" width="452.6" height="302.1"/>
</g>
</svg>
