<svg width="337" height="123" viewBox="0 0 337 123" fill="none" xmlns="http://www.w3.org/2000/svg">
<path d="M112.072 27.6126C112.072 12.4084 99.5618 0 84.2321 0C76.3029 0 69.0785 3.32041 64.1448 8.56344L1.24012 47.8854C0.00670418 48.5844 -0.345534 50.3322 0.359235 51.5554C0.887886 52.4293 1.76877 52.7787 2.64996 52.7787C3.17831 52.7787 3.53084 52.6039 4.0595 52.4293L57.8016 18.6998C56.7443 21.496 56.2157 24.467 56.2157 27.7875C56.2157 34.778 58.8586 41.0697 63.0875 45.9631L20.7987 87.7315C19.7414 88.7802 19.7414 90.3532 20.7987 91.4016C21.3274 91.9258 22.0321 92.1006 22.7369 92.1006C23.442 92.1006 24.1467 91.9258 24.6754 91.4016L66.9642 49.6331C71.7215 53.3029 77.7125 55.5749 84.056 55.5749C87.7562 55.5749 91.2801 54.8759 94.452 53.6526L60.7971 107.829C60.092 109.053 60.4446 110.626 61.678 111.5C62.0305 111.849 62.5589 111.849 63.0875 111.849C63.9687 111.849 64.8496 111.325 65.3783 110.626L105.905 45.0892C109.782 40.1958 112.072 34.2537 112.072 27.6126ZM70.8406 45.7882L83.1748 33.7295C84.2321 32.6808 84.2321 31.1079 83.1748 30.0594C82.1175 29.0107 80.5318 29.0107 79.4745 30.0594L66.9642 42.293C63.6162 38.448 61.5019 33.3799 61.5019 27.7875C61.678 15.3791 71.7215 5.24302 84.2321 5.24302C96.7424 5.24302 106.786 15.3791 106.786 27.6126C106.786 40.021 96.5663 49.9825 84.2321 49.9825C79.2984 50.1573 74.5409 48.4096 70.8406 45.7882Z" fill="#25B7EB"/>
<path d="M84.2317 9.4375C74.0122 9.4375 65.7305 17.6513 65.7305 27.7876C65.7305 29.1857 66.9639 30.409 68.3737 30.409C69.7833 30.409 71.0167 29.1857 71.0167 27.7876C71.0167 20.6223 76.8312 14.6802 84.2317 14.6802C85.6416 14.6802 86.875 13.457 86.875 12.0589C86.875 10.6608 85.6416 9.4375 84.2317 9.4375Z" fill="#25B7EB"/>
<path d="M128.848 114.443C137.303 114.443 141.531 111.24 141.531 104.834C141.531 98.8853 138.044 95.9109 131.069 95.9109H126.856C122.827 95.9109 120.812 94.1568 120.812 90.6486C120.812 86.6829 123.788 84.7 129.741 84.7C133.556 84.7 137.105 85.3101 140.386 86.5303V82.6408C137.105 81.7257 133.556 81.2681 129.741 81.2681C120.965 81.2681 116.577 84.3949 116.577 90.6486C116.577 96.5973 120.003 99.5716 126.856 99.5716H131.069C135.22 99.5716 137.296 101.326 137.296 104.834C137.296 108.952 134.48 111.011 128.848 111.011C124.864 111.011 121.155 110.401 117.721 109.181V113.071C121.155 113.986 124.864 114.443 128.848 114.443ZM154.672 114.214L161.22 96.2541L168.111 114.214H171.98L178.253 90.1911H173.766L169.92 109.021L163.235 90.1911H159.411L153.161 109.021L148.903 90.1911H144.622L150.712 114.214H154.672ZM201.605 114.214V97.6498C201.605 92.6773 198.034 90.1911 190.891 90.1911C188.418 90.1911 185.884 90.5724 183.29 91.335V94.767C185.884 94.0043 188.418 93.623 190.891 93.623C195.21 93.623 197.37 95.0034 197.37 97.7642V100.029C195.279 99.7242 193.188 99.5716 191.097 99.5716C184.595 99.5716 181.344 102.035 181.344 106.962C181.344 111.797 184.206 114.214 189.929 114.214C192.753 114.214 195.363 113.421 197.759 111.835L199.224 114.214H201.605ZM189.929 110.783C187.029 110.783 185.579 109.486 185.579 106.893C185.579 104.3 187.418 103.004 191.097 103.004C193.188 103.004 195.279 103.156 197.37 103.461V108.449C195.34 110.005 192.86 110.783 189.929 110.783ZM212.709 122.909V113.071C214.51 113.833 216.372 114.214 218.295 114.214C226.048 114.214 229.925 110.012 229.925 101.608C229.925 93.9967 226.071 90.1911 218.363 90.1911C214.96 90.1911 211.663 90.519 208.473 91.1749V122.909H212.709ZM218.272 110.554C216.227 110.554 214.372 110.142 212.709 109.318V94.2636C214.311 93.8975 216.181 93.7145 218.318 93.7145C223.278 93.7145 225.758 96.3304 225.758 101.562C225.758 107.557 223.263 110.554 218.272 110.554ZM253.277 114.214V111.011H239.38L253.735 93.623V90.1911H234.962V93.623H249.041L234.504 111.011V114.214H253.277ZM269.761 114.192C277.392 114.192 281.208 110.195 281.208 102.203C281.208 94.195 277.392 90.1911 269.761 90.1911C262.129 90.1911 258.314 94.195 258.314 102.203C258.344 110.195 262.16 114.192 269.761 114.192ZM269.761 110.783C264.953 110.783 262.549 107.892 262.549 102.111C262.549 96.4524 264.953 93.623 269.761 93.623C274.568 93.623 276.972 96.4524 276.972 102.111C276.972 107.892 274.568 110.783 269.761 110.783ZM291.166 114.214V96.7575C293.349 94.7288 295.654 93.7145 298.08 93.7145C301.637 93.7145 303.415 95.4991 303.415 99.0683V114.214H307.65V99.1369C307.65 93.173 304.651 90.1911 298.653 90.1911C295.707 90.1911 293.006 91.213 290.548 93.2569L289.793 90.1911H286.931V114.214H291.166ZM325.759 114.214C328.797 114.214 331.376 113.909 333.498 113.299V109.867C331.376 110.478 328.949 110.783 326.217 110.783C320.478 110.783 317.609 108.327 317.609 103.415H334.482C334.619 102.317 334.688 101.288 334.688 100.327C334.688 93.5696 331.269 90.1911 324.431 90.1911C317.06 90.1911 313.374 94.1034 313.374 101.928C313.374 110.119 317.502 114.214 325.759 114.214ZM330.613 99.892H317.609C317.884 95.6821 320.158 93.5772 324.431 93.5772C328.461 93.5772 330.521 95.6821 330.613 99.892Z" fill="black"/>
<path d="M128.848 114.443C137.303 114.443 141.531 111.24 141.531 104.834C141.531 98.8853 138.044 95.9109 131.069 95.9109H126.856C122.827 95.9109 120.812 94.1568 120.812 90.6486C120.812 86.6829 123.788 84.7 129.741 84.7C133.556 84.7 137.105 85.3101 140.386 86.5303V82.6408C137.105 81.7257 133.556 81.2681 129.741 81.2681C120.965 81.2681 116.577 84.3949 116.577 90.6486C116.577 96.5973 120.003 99.5716 126.856 99.5716H131.069C135.22 99.5716 137.296 101.326 137.296 104.834C137.296 108.952 134.48 111.011 128.848 111.011C124.864 111.011 121.155 110.401 117.721 109.181V113.071C121.155 113.986 124.864 114.443 128.848 114.443ZM154.672 114.214L161.22 96.2541L168.111 114.214H171.98L178.253 90.1911H173.766L169.92 109.021L163.235 90.1911H159.411L153.161 109.021L148.903 90.1911H144.622L150.712 114.214H154.672ZM201.605 114.214V97.6498C201.605 92.6773 198.034 90.1911 190.891 90.1911C188.418 90.1911 185.884 90.5724 183.29 91.335V94.767C185.884 94.0043 188.418 93.623 190.891 93.623C195.21 93.623 197.37 95.0034 197.37 97.7642V100.029C195.279 99.7242 193.188 99.5716 191.097 99.5716C184.595 99.5716 181.344 102.035 181.344 106.962C181.344 111.797 184.206 114.214 189.929 114.214C192.753 114.214 195.363 113.421 197.759 111.835L199.224 114.214H201.605ZM189.929 110.783C187.029 110.783 185.579 109.486 185.579 106.893C185.579 104.3 187.418 103.004 191.097 103.004C193.188 103.004 195.279 103.156 197.37 103.461V108.449C195.34 110.005 192.86 110.783 189.929 110.783ZM212.709 122.909V113.071C214.51 113.833 216.372 114.214 218.295 114.214C226.048 114.214 229.925 110.012 229.925 101.608C229.925 93.9967 226.071 90.1911 218.363 90.1911C214.96 90.1911 211.663 90.519 208.473 91.1749V122.909H212.709ZM218.272 110.554C216.227 110.554 214.372 110.142 212.709 109.318V94.2636C214.311 93.8975 216.181 93.7145 218.318 93.7145C223.278 93.7145 225.758 96.3304 225.758 101.562C225.758 107.557 223.263 110.554 218.272 110.554ZM253.277 114.214V111.011H239.38L253.735 93.623V90.1911H234.962V93.623H249.041L234.504 111.011V114.214H253.277ZM269.761 114.192C277.392 114.192 281.208 110.195 281.208 102.203C281.208 94.195 277.392 90.1911 269.761 90.1911C262.129 90.1911 258.314 94.195 258.314 102.203C258.344 110.195 262.16 114.192 269.761 114.192ZM269.761 110.783C264.953 110.783 262.549 107.892 262.549 102.111C262.549 96.4524 264.953 93.623 269.761 93.623C274.568 93.623 276.972 96.4524 276.972 102.111C276.972 107.892 274.568 110.783 269.761 110.783ZM291.166 114.214V96.7575C293.349 94.7288 295.654 93.7145 298.08 93.7145C301.637 93.7145 303.415 95.4991 303.415 99.0683V114.214H307.65V99.1369C307.65 93.173 304.651 90.1911 298.653 90.1911C295.707 90.1911 293.006 91.213 290.548 93.2569L289.793 90.1911H286.931V114.214H291.166ZM325.759 114.214C328.797 114.214 331.376 113.909 333.498 113.299V109.867C331.376 110.478 328.949 110.783 326.217 110.783C320.478 110.783 317.609 108.327 317.609 103.415H334.482C334.619 102.317 334.688 101.288 334.688 100.327C334.688 93.5696 331.269 90.1911 324.431 90.1911C317.06 90.1911 313.374 94.1034 313.374 101.928C313.374 110.119 317.502 114.214 325.759 114.214ZM330.613 99.892H317.609C317.884 95.6821 320.158 93.5772 324.431 93.5772C328.461 93.5772 330.521 95.6821 330.613 99.892Z" fill="#E8168D"/>
</svg>
