<svg width="150" height="19" viewBox="0 0 150 19" fill="none" xmlns="http://www.w3.org/2000/svg">
<path d="M31.8319 13.3081C31.8319 12.6884 31.6123 12.2145 31.1728 11.8864C30.733 11.5511 29.9419 11.2011 28.799 10.8366C27.6561 10.4648 26.7513 10.1002 26.0846 9.74299C24.2677 8.76604 23.3593 7.45009 23.3593 5.79514C23.3593 4.93486 23.601 4.16935 24.0846 3.4986C24.5754 2.82058 25.2751 2.29201 26.1835 1.9129C27.0993 1.53379 28.125 1.34424 29.2605 1.34424C30.4033 1.34424 31.4218 1.55202 32.3155 1.96758C33.2095 2.37585 33.9016 2.95545 34.3924 3.70638C34.8907 4.45732 35.1397 5.31031 35.1397 6.26539H31.843C31.843 5.53633 31.6123 4.97131 31.1506 4.57033C30.6892 4.16206 30.0409 3.95791 29.2056 3.95791C28.3997 3.95791 27.7733 4.12924 27.3264 4.4719C26.8795 4.80727 26.6561 5.25199 26.6561 5.80606C26.6561 6.32371 26.9162 6.75748 27.4363 7.10743C27.9638 7.45738 28.7367 7.78546 29.7551 8.09167C31.6306 8.65303 32.9968 9.3493 33.8542 10.1804C34.7113 11.0115 35.1397 12.0468 35.1397 13.2862C35.1397 14.6641 34.6159 15.7468 33.5683 16.5342C32.5207 17.3142 31.1104 17.7043 29.3375 17.7043C28.1066 17.7043 26.9858 17.4819 25.9747 17.0372C24.9637 16.5852 24.1908 15.9691 23.656 15.189C23.1285 14.409 22.8647 13.5049 22.8647 12.477H26.1725C26.1725 14.234 27.2275 15.1125 29.3375 15.1125C30.1213 15.1125 30.733 14.9557 31.1728 14.6423C31.6123 14.3215 31.8319 13.8768 31.8319 13.3081Z" fill="#1C1D1C"/>
<path d="M49.8434 12.8925L51.9971 1.56299H55.283L51.7334 17.4856H48.4148L45.8102 6.83407L43.2059 17.4856H39.887L36.3374 1.56299H39.6233L41.7881 12.8707L44.4257 1.56299H47.2169L49.8434 12.8925Z" fill="#1C1D1C"/>
<path d="M65.6241 14.2048H59.8437L58.7448 17.4856H55.2393L61.1955 1.56299H64.2504L70.2396 17.4856H66.7341L65.6241 14.2048ZM60.7338 11.5474H64.734L62.7228 5.58739L60.7338 11.5474Z" fill="#1C1D1C"/>
<path d="M75.0311 11.8755V17.4856H71.7344V1.56299H77.9762C79.1777 1.56299 80.2328 1.78171 81.1412 2.21914C82.0571 2.65658 82.7603 3.27992 83.2511 4.08916C83.7419 4.89112 83.9873 5.80609 83.9873 6.83407C83.9873 8.39425 83.4488 9.62635 82.3721 10.5304C81.3023 11.4271 79.8188 11.8755 77.9213 11.8755H75.0311ZM75.0311 9.21808H77.9762C78.848 9.21808 79.511 9.01396 79.9652 8.60569C80.4269 8.19742 80.6576 7.61416 80.6576 6.85594C80.6576 6.07585 80.4269 5.44522 79.9652 4.96405C79.5038 4.48285 78.8663 4.23499 78.0533 4.22041H75.0311V9.21808Z" fill="#1C1D1C"/>
<path d="M96.614 13.669C96.614 12.9909 96.4529 12.4186 96.1307 11.952C95.8157 11.4781 95.3138 11.0626 94.625 10.7053C93.9437 10.3408 92.9108 9.96898 91.526 9.58987C90.1415 9.21076 89.1011 8.82802 88.4051 8.44162C87.7163 8.05522 87.2108 7.60684 86.8886 7.09651C86.5661 6.58615 86.405 5.96647 86.405 5.23741C86.405 4.07821 86.8958 3.14136 87.8777 2.42689C88.8593 1.70512 90.1379 1.34424 91.7129 1.34424C92.7386 1.34424 93.6581 1.54473 94.4711 1.94571C95.2916 2.3394 95.9255 2.89713 96.3725 3.6189C96.8192 4.33336 97.0427 5.14264 97.0427 6.04666H96.4493C96.4493 4.8583 96.0098 3.87771 95.1305 3.10491C94.2515 2.32482 93.1121 1.93478 91.7129 1.93478C90.3062 1.93478 89.1671 2.24827 88.2953 2.87526C87.4307 3.49496 86.9984 4.27504 86.9984 5.21554C86.9984 6.17059 87.3758 6.93976 88.1303 7.52299C88.8851 8.10625 90.1304 8.62387 91.8668 9.07591C93.6032 9.52063 94.8743 10.0383 95.6801 10.6288C96.7058 11.3797 97.2185 12.3858 97.2185 13.6471C97.2185 14.4491 96.9914 15.1599 96.5372 15.7796C96.083 16.392 95.4383 16.8659 94.6031 17.2012C93.7679 17.5366 92.8301 17.7043 91.7897 17.7043C90.6323 17.7043 89.5919 17.5147 88.6688 17.1356C87.7457 16.7492 87.0497 16.2024 86.5808 15.4953C86.1194 14.7881 85.8887 13.9533 85.8887 12.9909H86.4821C86.4821 14.2959 86.9729 15.3093 87.9545 16.0311C88.9364 16.7529 90.2147 17.1138 91.7897 17.1138C93.1892 17.1138 94.343 16.7966 95.2514 16.1623C96.1598 15.5208 96.614 14.6896 96.614 13.669Z" fill="#4C5A6B"/>
<path d="M100.943 10.7601V17.4856H100.35V1.56299H105.35C106.984 1.56299 108.251 1.97491 109.152 2.79874C110.061 3.61529 110.515 4.75261 110.515 6.21073C110.515 7.65427 110.072 8.76973 109.185 9.55711C108.306 10.3445 107.054 10.7455 105.427 10.7601H100.943ZM100.943 10.1695H105.35C106.793 10.1695 107.914 9.82321 108.713 9.1306C109.519 8.43799 109.922 7.47199 109.922 6.2326C109.922 4.94947 109.519 3.95065 108.713 3.23618C107.914 2.51441 106.793 2.15352 105.35 2.15352H100.943V10.1695Z" fill="#4C5A6B"/>
<path d="M120.78 12.7285H112.944L111.164 17.4856H110.516L116.505 1.56299H117.23L123.219 17.4856H122.571L120.78 12.7285ZM113.164 12.138H120.56L116.867 2.27382L113.164 12.138Z" fill="#4C5A6B"/>
<path d="M136.549 12.6082C136.395 14.2486 135.827 15.5098 134.846 16.392C133.864 17.2669 132.531 17.7043 130.845 17.7043C129.71 17.7043 128.703 17.42 127.824 16.8513C126.952 16.2753 126.274 15.4624 125.79 14.4126C125.307 13.3555 125.061 12.1489 125.054 10.7928V8.33227C125.054 6.97621 125.292 5.76598 125.769 4.70155C126.245 3.62983 126.922 2.80235 127.801 2.21911C128.688 1.63586 129.703 1.34424 130.845 1.34424C132.516 1.34424 133.845 1.78167 134.835 2.65654C135.824 3.53141 136.395 4.7854 136.549 6.41848H135.956C135.787 4.95307 135.274 3.84126 134.417 3.08304C133.56 2.31753 132.369 1.93478 130.845 1.93478C129.292 1.93478 128.036 2.51802 127.076 3.68451C126.124 4.85101 125.648 6.41482 125.648 8.37601V10.7163C125.648 11.9703 125.86 13.0821 126.285 14.0517C126.71 15.0141 127.318 15.765 128.109 16.3045C128.908 16.844 129.82 17.1138 130.845 17.1138C132.377 17.1138 133.571 16.7383 134.428 15.9874C135.292 15.2364 135.802 14.11 135.956 12.6082H136.549Z" fill="#4C5A6B"/>
<path d="M148.879 9.5899H140.857V16.8951H150V17.4856H140.264V1.56299H150V2.15352H140.857V8.99938H148.879V9.5899Z" fill="#4C5A6B"/>
<path fill-rule="evenodd" clip-rule="evenodd" d="M16.8704 9.38542C16.8704 14.0441 13.0939 17.8206 8.43522 17.8206C3.77658 17.8206 0 14.0441 0 9.38542C0 4.72678 3.77658 0.950195 8.43522 0.950195C13.0939 0.950195 16.8704 4.72678 16.8704 9.38542ZM13.4964 5.95693C13.4964 6.55804 13.0091 7.04533 12.4079 7.04533C11.8068 7.04533 11.3195 6.55804 11.3195 5.95693C11.3195 5.35582 11.8068 4.8685 12.4079 4.8685C13.0091 4.8685 13.4964 5.35582 13.4964 5.95693ZM8.3808 5.95687C9.46281 5.95687 10.34 5.37211 10.34 4.65076C10.34 3.92943 9.46281 3.34467 8.3808 3.34467C7.29879 3.34467 6.42165 3.92943 6.42165 4.65076C6.42165 5.37211 7.29879 5.95687 8.3808 5.95687Z" fill="#4C5A6B"/>
</svg>
