<svg id="Layer_1" data-name="Layer 1" xmlns="http://www.w3.org/2000/svg" viewBox="0 0 800 180"><defs><style>.cls-1{fill:#093687}.cls-2{fill:#0062df}</style></defs><title>logo_upbit</title><path class="cls-1" d="M583.372 179.448L618.821 71.78h58.334l-35.441 107.668h-58.342zM627.81 44.131L642.289.009h58.338l-14.479 44.122H627.81z"/><path class="cls-1" d="M386.55 180L445.466.552h58.32l-18.938 57.686h66.468c17.324.106 29.245 11.3 30.6 28.484a49.405 49.405 0 0 1-2.08 17.688s-.42 1.545-.526 1.889l-8.433 25.65c-8.69 26.5-35.4 48.051-59.528 48.051zm68.168-29.992h35.407c8.845 0 18.661-7.915 21.85-17.651l8.692-26.476c3.2-9.722-1.4-17.639-10.259-17.639H475zm265.225 29.431c-.774-.009-4.009-.342-4.527-.4a34.493 34.493 0 0 1-12.815-4.363c-.354-.2-.688-.453-1.02-.686-7.5-5.3-11.524-14.038-12.23-23.008a49.49 49.49 0 0 1 2.062-17.693c.461-1.637.416-1.518.537-1.9L735.1 0h58.342l-18.957 57.7H801l-9.846 29.99h-26.512l-8.074 24.568c-2.21 6.752-4.324 13.335-5.78 19.8-1.469 6.5-.673 11.233 2.351 14.071 3.658 3.444 9.356 3.878 13.9 3.878H786.2l-9.666 29.44z" transform="translate(-1)"/><path class="cls-2" d="M184.894 180l44.668-135.685 21.507 7.03L235.7.552h132.924C392.747.552 405.3 22.105 396.6 48.6l-8.42 25.643c-.11.33-.231.653-.359.983l-.358.936a70.641 70.641 0 0 1-9.537 17.659c-12.647 17.2-31.909 28.367-49.057 28.462l-1.275.02h-65.436L243.216 180zm87.114-87.69h35.41c8.858 0 18.656-7.912 21.842-17.641l8.7-26.479c3.195-9.733-1.409-17.648-10.254-17.648h-35.417zM31.611 179.991a39.365 39.365 0 0 1-4.525-.406 31.034 31.034 0 0 1-7.332-1.815c-4.684-1.764-8.847-4.158-12-8.166a29.956 29.956 0 0 1-4.464-8.065A33.986 33.986 0 0 1 1.957 157c-1.712-7.767-1-15.565 1.139-23.163.186-.662 1.063-3.511 1.063-3.511L46.776.552h58.838l-43.292 131.81c-2.368 7.207-.538 13.622 4.634 16.328a10.793 10.793 0 0 0 5.434 1.318h29.072L150.539.552h66.5l-48.733 50.793 26.314-7.03L149.943 180z" transform="translate(-1)"/></svg>