<?xml version="1.0" encoding="utf-8"?>
<!-- Generator: Adobe Illustrator 25.4.1, SVG Export Plug-In . SVG Version: 6.00 Build 0)  -->
<svg version="1.1" id="Layer_1" xmlns="http://www.w3.org/2000/svg" xmlns:xlink="http://www.w3.org/1999/xlink" x="0px" y="0px"
	 width="166px" height="32px" viewBox="0 0 166 32" style="enable-background:new 0 0 166 32;" xml:space="preserve">
<style type="text/css">
	.st0{fill:#23262F;}
	.st1{fill:url(#SVGID_1_);}
	.st2{fill:url(#SVGID_00000179629103829825465460000005969153171168653990_);}
</style>
<g>
	<g>
		<path class="st0" d="M52.2,17c0,3.6-2.4,6.4-5.2,6.4c-1.5,0-2.5-0.6-3.3-1.5v6h-3.3V11h3.3v1.1c0.7-0.9,1.8-1.5,3.3-1.5
			C49.8,10.6,52.2,13.4,52.2,17z M48.9,17c0-1.8-1.1-3-2.6-3s-2.6,1.1-2.6,3s1.1,3,2.6,3C47.8,20,48.9,18.9,48.9,17z"/>
		<path class="st0" d="M65.2,11v12.1H62V22c-0.7,0.9-1.8,1.5-3.3,1.5c-2.9,0-5.2-2.8-5.2-6.4s2.4-6.4,5.2-6.4c1.5,0,2.5,0.6,3.3,1.5
			V11H65.2z M62,17c0-1.8-1.1-3-2.6-3s-2.6,1.1-2.6,3s1.1,3,2.6,3S62,18.9,62,17z"/>
		<path class="st0" d="M74.2,10.7v4.1c-1.4-0.2-3.3,0.4-3.3,2.8v5.5h-3.3V11h3.3v2.2C71.4,11.5,72.8,10.7,74.2,10.7z"/>
		<path class="st0" d="M80.2,14.5v4.3c0,1,0.8,1.1,2.2,1v3.3c-4.3,0.5-5.5-0.9-5.5-4.3v-4.3h-1.7V11h1.7V8.7l3.3-1.1V11h2.2v3.5
			H80.2z"/>
		<path class="st0" d="M84,7.7c0-1.2,0.9-2.2,2-2.2s2,1,2,2.2s-0.9,2.2-2,2.2S84,8.9,84,7.7z M84.3,11h3.3v12.1h-3.3V11z"/>
		<path class="st0" d="M89.4,17c0-3.6,2.5-6.4,5.8-6.4c2.1,0,4,1.2,4.9,3.1l-2.9,1.8c-0.4-0.8-1.2-1.4-2.1-1.4
			c-1.4,0-2.5,1.1-2.5,2.8s1,2.8,2.5,2.8c1,0,1.8-0.5,2.1-1.4l2.9,1.8c-0.9,1.9-2.8,3.1-4.9,3.1C91.9,23.4,89.4,20.6,89.4,17z"/>
		<path class="st0" d="M101.4,5.4h3.3v17.7h-3.3V5.4z"/>
	</g>
</g>
<linearGradient id="SVGID_1_" gradientUnits="userSpaceOnUse" x1="113" y1="20.8479" x2="113" y2="13.1449" gradientTransform="matrix(1 0 0 -1 0 34)">
	<stop  offset="0" style="stop-color:#27EC93"/>
	<stop  offset="1" style="stop-color:#45D392"/>
</linearGradient>
<path class="st1" d="M116.8,17c0-2.4-1.6-3.9-3.8-3.9c-2.2,0-3.8,1.5-3.8,3.9s1.6,3.9,3.8,3.9C115.2,20.9,116.8,19.4,116.8,17z"/>
<path class="st0" d="M24.6,32H7.3c-4,0-7.3-3.3-7.3-7.3V7.3C0,3.3,3.3,0,7.3,0h17.3c4,0,7.3,3.3,7.3,7.3v17.3
	C32,28.7,28.7,32,24.6,32z"/>
<linearGradient id="SVGID_00000115515160411078789930000012339027871490953110_" gradientUnits="userSpaceOnUse" x1="16.2" y1="29.3486" x2="16.2" y2="6.386" gradientTransform="matrix(1 0 0 -1 0 34)">
	<stop  offset="0" style="stop-color:#27EC93"/>
	<stop  offset="1" style="stop-color:#45D392"/>
</linearGradient>
<path style="fill:url(#SVGID_00000115515160411078789930000012339027871490953110_);" d="M27.5,9.4c-0.2-1.4-1-2.6-2.1-3.5
	c-1-0.8-2.3-1.3-3.6-1.3c-3.9,0-7.7,0-11.6,0c-2,0-3.9,1.2-4.9,2.9c-0.5,0.9-0.7,2-0.7,3.1c0,3.5,0,7,0,10.5c0,0.8,0,1.6,0.3,2.4
	c0.6,1.8,2.1,3.3,3.9,3.8c-0.6-0.4-0.8-1.1-1-1.7c-0.4-1.5-0.4-3-0.3-4.5c0-3.5,0-7,0-10.5c0-0.6,0.1-1.2,0.4-1.7
	C8.4,8,9.3,7.5,10.3,7.5c3.7,0,7.3,0,11,0c0.6,0,1.1,0,1.6,0.2c0.9,0.3,1.6,1.1,1.8,2c0.1,0.5,0.1,1.1,0.1,1.7c0,3.4,0,6.9,0,10.3
	c0,0.5-0.1,1-0.3,1.5C24,24.1,23,24.7,22,24.7c-2.9,0-5.8,0-8.7,0c0-0.9,0-1.9,0-2.8c2.4,0,4.7,0,7.1,0c0.5,0,1.1-0.2,1.3-0.7
	c0.1-0.2,0.2-0.5,0.2-0.8c0-2.9,0-5.7,0-8.6c0-0.5-0.2-1-0.7-1.3c-0.4-0.2-0.8-0.2-1.2-0.2c-2.7,0-5.4,0-8.1,0
	c-0.8,0-1.4,0.7-1.4,1.4c0,4.1,0,8.3,0,12.4c0,0.8,0,1.6,0.5,2.3c0.4,0.6,1,0.9,1.6,1c0.8,0.1,1.5,0.1,2.3,0.1c2.4,0,4.7,0,7.1,0
	c1.2,0,2.3-0.4,3.3-1c1-0.8,1.8-1.8,2.2-3.1c0.3-0.8,0.3-1.7,0.3-2.5c0-3.3,0-6.6,0-9.9C27.6,10.6,27.6,10,27.5,9.4z M13.2,13.3
	c1.9,0,3.8,0,5.7,0c0,0.3,0,0.6,0,0.8c0,1.6,0,3.3,0,4.9c-1.9,0-3.8,0-5.7,0C13.2,17.1,13.2,15.2,13.2,13.3z"/>
</svg>
