<svg version="1" xmlns="http://www.w3.org/2000/svg" width="933.333" height="933.333" viewBox="0 0 700.000000 700.000000"><path d="M153.5 1.5c-14.1 2-16.3 2.5-28.5 6.2C69 24.6 23.8 70.2 7.7 126c-1.4 4.7-2.7 9.9-3 11.5-.3 1.7-.8 4.1-1.1 5.5-.8 3.4-1.4 8.2-2.3 16.5-1 8.9-1 367.1-.1 378.5 1.5 16.9 3.2 26.1 7.9 40.8 14.8 46.3 51.4 86.6 97.2 106.8 4.5 2 8.7 3.7 9.2 3.9.6.1 1.7.5 2.5.8 3.9 1.4 8.4 2.7 8.6 2.4.2-.2-2.2-3-5.4-6.3-11.2-11.7-18.8-28.3-24.5-54.4-6.5-29.4-9.2-57.8-8.9-93.5.1-9.9.3-98.1.5-196s.6-178.9.9-180c.3-1.1.9-4.2 1.3-7 1.1-8.1 6-19.9 11.7-28.7 13.4-20.5 35-34.5 58.3-37.6 6.9-.9 370.4-.8 378.4.1 3.5.4 10.4 2.1 15.3 3.7 30.1 10.1 50.6 34.7 56.4 67.5.4 2.2.8 86.1.9 186.5.3 183.2.2 187.4-2.9 202-1.8 8.3-8.2 21.2-15.1 30.5-9.7 13.1-32.2 27.6-46.2 29.8-1.7.3-3.8.9-4.5 1.3-.7.5-64 .9-140.5 1l-139.3.1V525h112.8c77.2 0 114-.3 116.7-1.1 11.3-3 21.1-10 26.2-18.6 6-10.3 5.6-.9 5.8-152.6.1-76.4-.2-141.1-.6-143.8-1.1-6.9-5.1-14.8-10.4-20.7-5.3-5.8-16.3-11.6-24-12.7-4.2-.6-97.5-.8-244.1-.5-37.8.1-40.3.4-49.2 5.6-5.7 3.4-12.2 9.8-15.5 15.4-6.2 10.6-5.8-2.3-5.9 216.3 0 186.2.1 208.8 1.7 219.2 3.4 22.4 13.4 40.5 28.5 51.7 7.6 5.6 23.1 12.1 32.5 13.5 1.7.2 5.7.9 9 1.5 4.2.8 48.9 1.2 148.5 1.4 154.8.3 150.3.5 173-5.2 5.8-1.5 11-3 11.5-3.4.6-.4 2.2-1 3.8-1.4 5.8-1.4 25.7-11.1 35.7-17.4 11.8-7.5 30.6-24.5 40-36.1 20.1-24.8 34.9-56.8 37.6-81.6.3-2.8.9-6.6 1.3-8.5.4-1.9.9-6.4 1.2-10 .7-11.8.4-365.3-.4-374.5-2.1-25-8-45.3-19.5-67.5-3-5.8-12.9-21.7-14.2-23-.3-.3-2.9-3.5-5.9-7.2-7.3-9.4-21.7-22.6-34.1-31.5C604.9 18 576 6 553 2.5c-1.9-.3-4.8-.8-6.5-1.2C544.9.9 457.8.5 353 .4 204.6.3 160.5.6 153.5 1.5zM435.9 350v87H263V263h172.9v87z"/></svg>